<?xml version="1.0" standalone="no"?>
<!DOCTYPE svg PUBLIC "-//W3C//DTD SVG 20010904//EN"
 "http://www.w3.org/TR/2001/REC-SVG-20010904/DTD/svg10.dtd">
<svg version="1.0" xmlns="http://www.w3.org/2000/svg"
 width="360.000000pt" height="480.000000pt" viewBox="0 0 360.000000 480.000000"
 preserveAspectRatio="xMidYMid meet">

<g transform="translate(0.000000,480.000000) scale(0.100000,-0.100000)"
fill="#000000" stroke="none">
<path d="M543 4100 c0 -41 2 -58 4 -37 2 20 2 54 0 75 -2 20 -4 3 -4 -38z"/>
<path d="M588 3963 c6 -2 18 -2 25 0 6 3 1 5 -13 5 -14 0 -19 -2 -12 -5z"/>
<path d="M548 3953 c7 -3 16 -2 19 1 4 3 -2 6 -13 5 -11 0 -14 -3 -6 -6z"/>
<path d="M497 3856 c-3 -8 -2 -18 3 -21 13 -8 20 9 11 24 -6 10 -10 9 -14 -3z"/>
<path d="M751 3823 c-1 -7 14 -55 33 -107 19 -52 31 -97 28 -100 -3 -3 0 -6 7
-6 14 0 13 6 -35 135 -18 50 -33 85 -33 78z"/>
<path d="M525 3810 c-3 -5 -5 -10 -3 -11 33 -8 38 -7 27 7 -14 17 -16 17 -24
4z"/>
<path d="M767 3627 c-3 -9 -3 -17 2 -17 6 0 7 -29 2 -48 -1 -2 -12 9 -26 24
-28 30 -27 32 -30 -53 -1 -42 14 -51 16 -10 1 12 5 4 9 -18 5 -22 7 -47 4 -56
-2 -8 3 -24 11 -35 16 -18 16 -18 9 5 -8 31 11 19 31 -19 10 -20 20 -27 33
-23 12 3 22 -4 30 -19 15 -28 11 -14 -34 107 -19 50 -32 97 -29 105 2 8 -2 28
-9 45 -10 24 -13 26 -19 12z"/>
<path d="M1251 3593 c-1 -18 19 -113 45 -210 25 -98 46 -186 47 -195 1 -11 9
-18 22 -18 17 0 18 2 5 11 -12 8 -12 12 -2 16 10 4 10 9 -3 24 -10 10 -39 105
-65 211 -27 106 -49 178 -49 161z"/>
<path d="M825 3590 c-3 -5 -1 -10 4 -10 6 0 11 5 11 10 0 6 -2 10 -4 10 -3 0
-8 -4 -11 -10z"/>
<path d="M830 3558 c0 -7 9 -37 20 -66 11 -29 18 -58 15 -63 -6 -9 41 -140
100 -283 23 -54 24 -61 10 -76 -14 -16 -14 -17 12 -13 42 7 71 23 76 44 4 16
14 19 61 18 53 -2 92 14 81 31 -11 17 -74 20 -117 5 -23 -8 -46 -15 -49 -15
-26 0 -137 240 -163 353 -4 17 -11 25 -18 21 -8 -5 -9 -2 -5 10 4 11 3 15 -4
10 -8 -4 -9 1 -4 15 4 12 2 21 -4 21 -6 0 -11 -6 -11 -12z"/>
<path d="M1111 3480 c0 -8 6 -28 14 -45 7 -16 14 -23 14 -15 0 8 -6 29 -14 45
-7 17 -14 23 -14 15z"/>
<path d="M1880 3280 c0 -13 11 -13 30 0 12 8 11 10 -7 10 -13 0 -23 -4 -23
-10z"/>
<path d="M1181 3267 c-2 -20 22 -97 31 -97 5 0 6 10 2 23 -10 34 -32 83 -33
74z"/>
<path d="M1852 3240 c-7 -12 -16 -18 -21 -16 -4 3 -13 -6 -20 -20 -14 -31 -14
-44 0 -24 13 19 9 6 -15 -46 l-19 -42 -30 35 c-51 58 -89 69 -209 64 -15 -1
-18 -10 -17 -48 0 -27 3 -42 6 -35 4 10 8 10 19 1 19 -16 18 -27 -5 -34 -16
-5 -19 -16 -20 -68 -1 -34 -2 -71 -4 -82 -2 -18 4 -20 61 -19 169 2 158 -1
171 47 6 23 24 56 41 74 30 32 88 52 109 38 6 -3 18 0 26 9 20 19 19 26 -2 27
-10 0 -31 16 -46 35 -31 37 -23 48 9 13 10 -12 30 -25 43 -30 19 -8 22 -14 17
-35 -6 -23 -4 -25 20 -22 35 4 41 21 12 37 l-23 12 23 -5 c16 -3 22 1 22 14 0
11 -4 22 -10 25 -5 3 -10 -2 -10 -11 0 -13 -3 -15 -11 -7 -6 6 -17 9 -24 6 -7
-2 -16 5 -20 16 -3 12 -13 21 -21 21 -8 0 -12 5 -9 10 3 6 1 10 -5 10 -6 0 -9
4 -5 10 7 11 -4 60 -14 60 -3 0 -12 -9 -19 -20z m23 -131 c11 -17 -1 -21 -15
-4 -8 9 -8 15 -2 15 6 0 14 -5 17 -11z m-231 -103 c34 -31 33 -39 -4 -34 -17
3 -30 0 -30 -6 0 -7 -3 -8 -8 -1 -4 6 -17 10 -29 9 -13 -1 -23 3 -23 8 0 6 7
7 16 4 16 -6 44 15 44 33 0 16 6 14 34 -13z m-44 10 c0 -2 -7 -7 -16 -10 -8
-3 -12 -2 -9 4 6 10 25 14 25 6z m-3 -84 c3 -24 -11 -30 -24 -9 -13 21 -11 35
5 33 8 -2 17 -12 19 -24z m-47 -12 c0 -5 -4 -10 -10 -10 -5 0 -10 5 -10 10 0
6 5 10 10 10 6 0 10 -4 10 -10z"/>
<path d="M2111 3233 c-1 -27 3 -33 19 -33 11 0 20 7 20 15 0 8 -6 15 -14 15
-8 0 -17 8 -19 18 -3 9 -5 2 -6 -15z"/>
<path d="M1209 3133 c-12 -15 -12 -16 3 -11 11 5 18 0 21 -14 5 -16 2 -19 -13
-15 -11 3 -27 -1 -37 -8 -15 -11 -12 -12 22 -8 22 2 41 6 43 8 7 6 -9 65 -18
65 -4 0 -14 -8 -21 -17z"/>
<path d="M1317 3112 c-21 -23 -21 -29 -2 -29 8 0 11 5 8 10 -3 5 1 13 8 18 7
4 11 10 8 14 -3 3 -13 -3 -22 -13z"/>
<path d="M2107 3123 c-4 -3 -7 -13 -7 -22 1 -13 3 -13 11 2 11 19 8 33 -4 20z"/>
<path d="M2119 3096 c-20 -21 -26 -66 -9 -66 6 0 10 -6 10 -14 0 -20 14 -28
35 -20 13 5 14 8 3 15 -10 7 -9 9 5 9 10 0 17 8 17 19 0 15 -6 19 -23 17 -13
-1 -28 -6 -35 -10 -7 -4 -12 -2 -12 4 0 6 14 13 30 17 34 6 42 15 35 35 -8 21
-34 18 -56 -6z"/>
<path d="M1075 3070 c-3 -6 1 -7 9 -4 18 7 21 14 7 14 -6 0 -13 -4 -16 -10z"/>
<path d="M1289 3037 c-21 -24 -30 -29 -39 -20 -9 8 -7 13 9 18 12 3 21 11 21
16 0 14 -17 11 -34 -6 -17 -17 -33 -19 -38 -5 -2 5 -9 6 -17 1 -10 -7 -11 -13
-2 -30 9 -17 9 -20 -3 -15 -8 3 -19 -3 -26 -15 -6 -12 -7 -21 -1 -21 5 0 11 6
14 13 2 6 7 9 11 6 3 -3 0 -13 -7 -23 -9 -13 -18 -15 -36 -8 l-23 8 30 30 c19
19 27 35 23 43 -6 9 -10 6 -14 -9 -4 -15 -10 -19 -19 -14 -7 4 -10 4 -6 -1 4
-4 -10 -17 -32 -27 -41 -21 -56 -44 -20 -33 11 4 20 2 20 -4 0 -6 -12 -11 -27
-11 -26 -1 -26 -2 12 -20 36 -17 37 -19 10 -14 -21 4 -26 3 -16 -4 9 -6 10
-12 3 -16 -6 -4 -9 -13 -5 -21 3 -8 0 -15 -6 -15 -6 0 -11 4 -11 9 0 6 -12 6
-28 2 -15 -5 -43 -7 -62 -5 -34 4 -35 4 -7 -7 26 -10 37 -29 17 -29 -5 0 -10
5 -10 11 0 5 -5 7 -11 3 -16 -9 5 -27 27 -22 11 2 19 10 19 18 0 17 36 15 46
-2 4 -6 22 5 43 27 40 40 38 40 219 44 52 1 67 4 67 16 0 8 -7 15 -15 15 -8 0
-15 5 -15 11 0 6 7 9 15 5 12 -4 15 5 15 49 0 30 -4 56 -10 56 -5 1 -14 3 -20
4 -5 1 -15 3 -21 4 -5 0 -7 6 -4 11 15 24 -12 7 -36 -23z m56 -17 c0 -15 -27
-21 -45 -10 -7 4 -10 12 -7 17 9 14 52 8 52 -7z m-115 -12 c0 -6 -6 -5 -15 2
-8 7 -15 14 -15 16 0 2 7 1 15 -2 8 -4 15 -11 15 -16z m41 -51 c-9 -9 -10 -5
-7 13 6 36 8 37 13 16 3 -10 0 -23 -6 -29z m99 9 c0 -11 -19 -15 -25 -6 -3 5
1 10 9 10 9 0 16 -2 16 -4z m-103 -32 c-3 -3 -12 -4 -19 -1 -8 3 -5 6 6 6 11
1 17 -2 13 -5z m-126 -17 c-7 -7 -14 -8 -21 -1 -6 6 -2 10 12 11 16 2 18 -1 9
-10z"/>
<path d="M1041 3031 c-8 -5 -9 -11 -3 -15 5 -3 12 1 16 9 6 17 6 18 -13 6z"/>
<path d="M1005 2990 c-4 -6 -10 -8 -15 -5 -4 3 -10 -4 -13 -15 -3 -11 -13 -18
-25 -17 -11 0 -19 5 -16 9 3 4 10 5 18 2 7 -3 13 2 13 11 0 21 -20 19 -35 -5
-7 -11 -17 -20 -23 -20 -5 0 -7 5 -3 12 4 7 3 8 -4 4 -7 -4 -12 -2 -12 5 0 22
-18 -4 -22 -30 -1 -13 2 -26 9 -28 7 -3 9 3 6 17 -5 19 -3 20 23 14 35 -8 43
-14 21 -14 -9 0 -19 -5 -23 -12 -5 -7 -2 -9 7 -4 8 4 5 0 -6 -8 -11 -9 -26
-14 -35 -11 -12 5 -13 4 -2 -6 6 -7 12 -21 12 -32 0 -10 4 -16 9 -13 5 3 12
-1 15 -10 10 -27 27 -3 24 34 -2 22 2 37 10 40 7 2 12 0 11 -5 -5 -31 29 -57
60 -45 11 4 10 8 -5 19 -10 7 -25 13 -35 13 -20 0 -21 41 0 48 8 3 11 1 8 -4
-3 -5 10 -9 29 -10 28 0 35 4 43 29 7 18 15 26 22 21 8 -4 9 -3 5 5 -10 15
-25 5 -38 -27 -6 -15 -12 -22 -15 -16 -2 7 -14 10 -26 7 -20 -4 -20 -3 -4 7 9
6 17 17 17 25 0 9 6 12 15 9 8 -4 15 -1 15 5 0 14 -27 15 -35 1z m-89 -112 c4
-7 3 -8 -4 -4 -7 4 -12 2 -12 -5 0 -7 -3 -10 -6 -6 -6 5 3 27 11 27 2 0 7 -5
11 -12z"/>
<path d="M2212 2964 c10 -10 20 -15 24 -12 3 4 -5 12 -18 18 -22 12 -22 12 -6
-6z"/>
<path d="M990 2902 c0 -16 27 -21 40 -9 10 9 12 8 7 -5 -4 -12 -1 -18 7 -18 8
0 13 8 12 18 -3 18 -66 32 -66 14z"/>
<path d="M873 2820 c6 -10 15 -16 19 -14 14 9 9 22 -11 27 -17 4 -18 2 -8 -13z"/>
<path d="M845 2798 c4 -33 4 -34 15 -18 14 22 12 40 -4 40 -8 0 -12 -9 -11
-22z"/>
<path d="M2150 1785 c-6 -8 -9 -22 -6 -33 5 -16 2 -18 -23 -14 -23 3 -37 -3
-64 -29 -19 -19 -53 -50 -75 -69 -44 -40 -112 -152 -95 -157 6 -2 9 -12 6 -23
-3 -10 -11 -16 -18 -14 -11 5 -31 -47 -26 -70 2 -10 -29 12 -40 28 -4 5 -12 5
-18 1 -9 -5 -7 -11 6 -21 17 -13 17 -14 -2 -7 -17 6 -18 5 -7 -9 17 -21 6 -47
-18 -41 -10 3 -21 -1 -25 -8 -5 -7 -4 -10 2 -6 20 12 25 -27 6 -41 -16 -12
-18 -10 -21 12 -4 31 -13 33 -29 6 -10 -16 -10 -18 1 -14 7 3 16 -1 19 -9 5
-12 13 -13 58 -1 77 20 97 18 130 -15 35 -35 38 -75 7 -92 -20 -11 -20 -12 -4
-21 10 -6 24 -25 32 -44 13 -30 12 -38 -1 -65 -17 -32 -58 -53 -88 -45 -14 3
-16 1 -7 -9 6 -7 10 -17 9 -21 -5 -28 5 -42 34 -51 17 -5 31 -15 29 -22 -1 -8
7 -7 27 3 26 14 29 19 24 54 -4 33 -1 42 20 58 l24 20 -19 24 c-14 17 -18 33
-14 54 4 16 1 35 -6 43 -10 12 -9 14 7 12 11 -2 31 3 44 10 13 7 36 11 51 7
24 -4 29 -1 35 21 3 15 22 42 41 60 l35 32 -30 15 c-16 9 -31 20 -33 26 -6 20
-72 -12 -115 -57 -55 -56 -82 -45 -83 35 0 12 -5 22 -11 22 -6 0 -3 7 5 16 9
8 16 21 16 27 0 8 -3 9 -8 1 -11 -16 -37 -23 -52 -14 -12 7 -12 13 0 35 12 23
12 28 0 35 -9 6 -10 10 -3 10 6 0 15 -4 18 -10 10 -16 22 -12 61 22 26 23 47
32 75 34 22 1 43 4 46 8 11 11 40 6 52 -8 9 -11 8 -18 -5 -31 -11 -11 -13 -20
-7 -26 12 -12 39 44 29 60 -8 12 33 58 59 65 29 8 107 -33 125 -66 11 -21 12
-32 3 -50 -19 -38 -13 -56 23 -62 17 -4 38 -14 45 -22 11 -14 14 -14 23 -2 12
16 120 30 241 32 41 1 80 8 95 16 l25 15 -37 3 c-40 3 -50 18 -21 29 9 4 29
-1 44 -10 l28 -16 -26 42 c-14 23 -30 44 -34 45 -5 2 -9 9 -9 15 0 7 -22 36
-49 66 -39 43 -52 52 -69 46 -12 -3 -22 -11 -22 -16 0 -6 -5 -7 -10 -4 -6 4
-17 1 -25 -5 -11 -9 -19 -9 -28 -1 -9 7 -17 7 -24 0 -7 -7 -15 -5 -27 6 -18
19 -20 33 -6 55 7 11 -3 18 -47 32 -31 9 -60 15 -65 12 -4 -3 2 -18 13 -34 12
-15 19 -34 16 -42 -4 -9 -8 -5 -13 10 -4 14 -12 21 -20 18 -8 -3 -14 1 -14 8
0 8 -5 16 -11 18 -9 3 -9 9 -1 24 10 18 7 21 -31 31 -23 7 -59 23 -80 37 -44
30 -50 31 -67 11z m381 -244 c58 -58 50 -93 -16 -71 -19 6 -35 15 -35 20 0 5
-10 12 -22 16 -68 21 -72 74 -6 74 34 0 47 -7 79 -39z m-413 -290 c11 -6 7
-15 -17 -40 -34 -35 -46 -38 -55 -15 -10 26 -7 33 22 48 32 18 33 18 50 7z
m-127 -69 c7 -19 5 -22 -16 -22 -18 0 -25 6 -25 18 0 38 28 41 41 4z"/>
<path d="M1925 1400 c3 -5 8 -10 11 -10 2 0 4 5 4 10 0 6 -5 10 -11 10 -5 0
-7 -4 -4 -10z"/>
<path d="M2267 1299 c-15 -9 -16 -12 -2 -25 22 -22 19 -77 -5 -99 -11 -10 -20
-26 -20 -36 0 -12 -9 -19 -27 -21 -25 -3 -28 -7 -28 -40 -1 -44 -18 -64 -68
-82 -26 -9 -33 -16 -27 -26 6 -10 12 -11 22 -3 24 19 81 22 111 4 33 -19 34
-57 2 -75 -11 -6 -24 -17 -28 -23 -4 -7 -15 -13 -23 -13 -20 0 -64 49 -64 71
0 11 -4 19 -10 19 -5 0 -10 -7 -10 -16 0 -9 -13 -21 -29 -27 -26 -10 -27 -12
-15 -36 32 -61 7 -126 -52 -137 -24 -5 -36 -1 -52 16 l-20 22 -21 -21 c-12
-12 -31 -21 -43 -22 -22 0 -22 -1 2 -10 14 -6 45 -12 70 -14 58 -4 98 -22 107
-49 12 -37 6 -121 -9 -118 -7 1 -3 -6 9 -16 16 -14 19 -22 10 -31 -6 -6 -16
-11 -23 -11 -6 0 -18 -7 -25 -17 -13 -15 -10 -16 28 -10 57 9 346 8 457 -1
l88 -8 -6 43 c-3 24 -9 93 -12 153 -5 74 -10 108 -18 104 -6 -3 -4 0 5 8 17
14 42 59 53 94 6 19 1 23 -36 33 -67 17 -78 28 -43 41 76 29 118 113 95 193
-6 24 -23 57 -36 73 -17 19 -22 22 -15 8 9 -19 8 -21 -16 -16 -18 3 -31 -1
-41 -14 -11 -14 -15 -16 -19 -5 -3 7 -24 21 -46 31 -45 20 -101 17 -129 -8
-10 -8 -18 -11 -18 -5 0 17 35 43 68 49 30 6 87 64 63 64 -5 0 -12 -4 -15 -9
-6 -9 -58 -2 -66 10 -9 14 -55 19 -73 8z m4 -152 c-10 -9 -11 -8 -5 6 3 10 9
15 12 12 3 -3 0 -11 -7 -18z m-15 -64 c-3 -16 3 -51 13 -80 15 -43 15 -53 4
-53 -8 0 -20 15 -28 34 -8 19 -19 37 -25 41 -24 15 -2 85 26 85 12 0 14 -7 10
-27z m98 -216 c34 -25 -6 -67 -45 -47 -22 12 -25 30 -7 48 15 15 30 15 52 -1z
m-202 -114 c39 -46 28 -138 -19 -149 -39 -10 -69 10 -88 60 -17 44 -17 45 5
75 16 24 29 31 54 31 19 0 39 -7 48 -17z m385 -105 c-2 -13 -4 -3 -4 22 0 25
2 35 4 23 2 -13 2 -33 0 -45z"/>
<path d="M1721 1204 c0 -11 3 -14 6 -6 3 7 2 16 -1 19 -3 4 -6 -2 -5 -13z"/>
<path d="M2480 1189 c0 -5 5 -7 10 -4 6 3 10 8 10 11 0 2 -4 4 -10 4 -5 0 -10
-5 -10 -11z"/>
<path d="M1695 1170 c4 -6 11 -8 16 -5 14 9 11 15 -7 15 -8 0 -12 -5 -9 -10z"/>
<path d="M1718 1139 c-10 -6 -18 -17 -18 -24 0 -8 -7 -15 -15 -15 -8 0 -15 5
-15 10 0 6 6 10 13 10 21 0 -16 20 -39 20 -28 0 -84 -29 -91 -47 -7 -19 14
-33 50 -33 16 0 26 -4 22 -10 -3 -5 -16 -10 -28 -10 -39 0 -50 -13 -36 -43 13
-29 13 -29 104 -2 32 9 40 16 39 33 -1 12 4 22 11 22 24 0 35 26 28 63 -7 30
-11 34 -25 26z"/>
<path d="M1522 1121 c-12 -7 -11 -13 2 -37 14 -26 15 -27 16 -7 0 12 3 28 6
37 7 18 -4 20 -24 7z"/>
<path d="M1736 1031 c-13 -14 -15 -21 -6 -21 10 0 10 -3 0 -15 -10 -12 -10
-15 1 -15 28 0 39 15 31 44 l-8 28 -18 -21z"/>
<path d="M1080 1012 c-31 -10 -41 -24 -29 -39 9 -10 9 -20 0 -39 -15 -34 -14
-36 9 -24 11 6 20 19 20 30 0 24 23 36 83 42 40 5 49 2 58 -13 5 -11 7 -24 4
-29 -3 -6 4 -28 16 -50 18 -31 20 -43 11 -52 -9 -9 -12 -8 -12 5 0 21 -7 21
-28 0 -17 -17 -18 -60 -1 -78 17 -18 10 -71 -14 -93 l-22 -21 -11 24 c-9 19
-9 25 3 30 12 4 13 8 3 20 -7 8 -16 12 -21 9 -12 -7 -11 -65 0 -83 12 -19 -14
-40 -49 -41 -25 -1 -25 -1 -5 -16 16 -13 37 -15 102 -10 45 3 95 11 110 19 23
12 65 13 248 5 121 -4 230 -6 241 -3 18 4 23 14 26 50 2 35 0 46 -13 50 -30
10 -52 45 -60 97 -11 70 -19 75 -77 56 -48 -15 -51 -14 -132 15 -65 24 -86 36
-99 59 -32 58 -35 60 -102 65 -35 2 -77 9 -94 14 -30 9 -137 10 -165 1z m348
-341 c18 -11 -2 -26 -46 -34 -33 -7 -35 -2 -9 31 11 14 36 16 55 3z"/>
<path d="M2810 939 c-58 -40 -98 -60 -127 -65 -35 -5 -47 -12 -59 -36 -20 -38
-14 -43 26 -23 20 10 44 15 61 11 20 -4 31 -1 38 11 5 10 42 50 82 90 41 40
72 73 69 72 -3 0 -43 -27 -90 -60z"/>
<path d="M1080 810 c0 -5 5 -10 11 -10 5 0 7 5 4 10 -3 6 -8 10 -11 10 -2 0
-4 -4 -4 -10z"/>
<path d="M2584 723 c-18 -62 -21 -40 42 -265 5 -15 17 -18 87 -17 45 0 97 6
115 12 l33 12 -32 24 c-26 19 -35 21 -56 12 -39 -18 -61 -12 -23 7 49 24 72
73 67 143 -4 71 -29 114 -57 99 -16 -9 -18 -8 -14 5 5 11 2 14 -12 8 -13 -5
-15 -3 -9 7 5 9 4 11 -4 6 -9 -6 -9 -11 -1 -21 7 -8 9 -19 5 -25 -4 -7 -19 1
-41 20 -19 16 -46 30 -59 30 -21 0 -27 -8 -41 -57z m166 -50 c0 -20 -16 -8
-23 17 -4 17 -3 19 9 9 8 -6 14 -18 14 -26z"/>
</g>
</svg>
