<?xml version="1.0" standalone="no"?>
<!DOCTYPE svg PUBLIC "-//W3C//DTD SVG 20010904//EN"
 "http://www.w3.org/TR/2001/REC-SVG-20010904/DTD/svg10.dtd">
<svg version="1.0" xmlns="http://www.w3.org/2000/svg"
 width="740.000000pt" height="493.000000pt" viewBox="0 0 740.000000 493.000000"
 preserveAspectRatio="xMidYMid meet">
<metadata>
Created by potrace 1.16, written by Peter Selinger 2001-2019
</metadata>
<g transform="translate(0.000000,493.000000) scale(0.100000,-0.100000)"
fill="#000000" stroke="none">
<path d="M0 4865 c0 -36 1 -65 3 -66 1 0 76 -3 167 -5 91 -2 217 -9 280 -14
63 -5 156 -10 206 -10 78 0 93 3 109 20 9 10 15 25 12 33 -6 16 -125 44 -226
53 -58 5 -79 12 -95 29 -20 21 -28 22 -238 23 l-218 2 0 -65z"/>
<path d="M5320 4922 c0 -4 22 -102 49 -217 27 -116 71 -326 98 -469 52 -280
55 -286 113 -264 45 17 67 3 80 -52 14 -59 4 -80 -39 -80 -44 0 -71 -12 -71
-30 0 -14 16 -19 93 -29 50 -7 121 -16 157 -21 36 -5 92 -6 125 -3 43 4 71 1
99 -11 21 -9 56 -16 76 -16 37 0 70 -25 83 -63 2 -8 30 -5 98 10 52 12 137 28
189 34 52 7 101 17 108 22 9 7 11 23 8 46 -3 20 -2 74 2 121 7 69 5 90 -7 113
-15 26 -15 29 4 43 16 12 19 27 20 89 0 98 10 108 105 107 39 0 74 -2 77 -5
10 -11 -52 -77 -79 -82 -14 -4 -31 -12 -36 -18 -11 -14 -32 -453 -33 -707 0
-96 -4 -197 -7 -225 l-7 -50 -55 -5 c-59 -6 -117 -29 -72 -30 12 0 22 -4 22
-9 0 -5 -25 -8 -55 -7 -43 1 -57 -3 -69 -19 -30 -39 -13 -71 49 -95 48 -18 13
-28 -84 -23 -175 8 -201 8 -201 -2 0 -15 284 -235 348 -270 39 -21 78 -56 91
-82 11 -22 10 -22 -21 -17 -36 7 -190 89 -303 162 -104 66 -108 69 -208 124
-123 68 -287 148 -302 148 -14 0 -2 -20 16 -25 11 -4 18 -9 15 -12 -3 -3 -16
1 -28 9 -13 8 -43 22 -68 30 -25 9 -53 19 -64 23 -17 8 -18 3 -14 -69 l3 -78
52 -46 c28 -26 77 -69 108 -96 84 -73 61 -90 -53 -40 -30 13 -66 24 -80 24
-25 0 -25 -1 -18 -62 10 -97 12 -108 34 -183 11 -39 23 -86 27 -105 4 -19 18
-71 31 -116 39 -130 32 -291 -16 -342 -11 -11 -20 -26 -20 -32 0 -6 -7 -13
-15 -16 -8 -3 -17 -15 -20 -25 -12 -36 -145 -162 -173 -164 -10 0 -29 -9 -42
-18 -14 -9 -30 -17 -37 -17 -6 0 -15 -9 -18 -20 -3 -11 -10 -20 -15 -20 -5 0
-13 -8 -18 -17 -12 -24 -25 -81 -15 -67 4 6 34 25 66 43 l59 33 -4 -63 c-3
-59 -1 -64 17 -62 11 2 44 5 73 9 l52 7 0 -81 0 -80 -51 -17 c-32 -11 -68 -15
-95 -12 -34 3 -47 0 -60 -14 -9 -11 -22 -19 -28 -19 -7 0 -28 -9 -49 -19 -41
-21 -52 -14 -43 26 12 47 -15 19 -35 -36 -10 -30 -28 -63 -39 -73 -11 -10 -20
-25 -20 -33 0 -14 -37 -31 -47 -21 -3 3 -18 -1 -34 -9 -43 -23 -55 -18 -25 10
14 13 26 33 26 45 0 11 5 20 10 20 6 0 10 7 10 15 0 9 8 32 19 53 34 66 37
342 4 342 -3 0 -36 -31 -74 -70 -37 -38 -70 -70 -72 -70 -11 0 -97 42 -97 47
0 4 28 37 63 74 34 37 77 86 96 108 18 23 40 41 47 41 8 0 14 5 14 10 0 6 -8
10 -18 10 -30 0 -33 11 -12 45 l19 31 -302 33 c-166 18 -310 35 -320 37 -27 5
-199 22 -342 34 -71 6 -204 17 -295 25 -151 13 -278 22 -435 30 -38 1 -59 7
-58 14 2 6 -6 11 -17 11 -11 0 -20 -4 -20 -9 0 -9 -31 -7 -240 8 l-105 9 -46
-39 c-33 -27 -56 -39 -78 -39 -24 0 -34 -6 -41 -25 -8 -21 -16 -25 -52 -26
-24 -1 -59 -2 -78 -3 -27 -1 -39 -8 -57 -35 -13 -19 -23 -46 -23 -60 0 -38
-25 -68 -62 -76 -24 -6 -35 -3 -45 11 -7 10 -14 13 -14 6 -2 -21 -4 -26 -17
-49 -12 -22 -12 -22 23 -7 52 21 42 5 -28 -48 -34 -26 -98 -77 -142 -113 -44
-35 -86 -64 -93 -65 -24 0 10 36 84 91 41 30 76 62 79 72 20 66 25 61 -56 53
-444 -41 -506 -48 -539 -64 -48 -23 -80 -88 -80 -163 0 -65 18 -89 67 -89 57
0 67 -26 82 -214 5 -60 14 -113 20 -119 5 -5 32 -9 60 -9 l50 2 10 -53 c29
-148 52 -280 48 -283 -4 -5 -374 -51 -442 -56 -56 -3 -53 -8 -72 117 -8 48 -8
46 -11 -35 -2 -47 -6 -88 -10 -92 -10 -10 -272 -41 -280 -33 -6 5 -14 92 -16
165 l-1 34 85 12 c47 7 106 13 132 13 43 1 72 14 49 23 -23 8 -110 1268 -111
1603 0 55 -3 111 -7 124 l-6 24 -153 -6 c-83 -3 -161 -10 -171 -16 -52 -27
-67 -233 -59 -781 4 -228 8 -455 11 -505 3 -79 3 -82 -5 -30 -4 33 -9 87 -10
120 -2 56 -3 58 -11 25 -5 -19 -6 -56 -3 -81 3 -26 1 -49 -4 -53 -5 -3 -12 18
-15 47 -28 248 -36 301 -44 293 -3 -3 -12 -1 -20 5 -10 9 -13 6 -13 -14 0 -14
-4 -28 -8 -31 -12 -7 -76 151 -108 264 -40 143 -39 142 -57 100 l-15 -35 -11
30 c-6 17 -16 38 -21 47 -6 10 -10 28 -10 41 0 12 -9 39 -20 60 -11 20 -20 45
-20 55 0 34 -22 82 -42 93 -40 22 -63 -37 -37 -95 12 -25 5 -76 -10 -76 -12 0
-61 102 -61 128 0 12 -5 41 -11 64 -14 56 2 108 27 87 10 -8 14 -22 11 -39 -4
-19 -2 -26 11 -26 9 -1 24 -3 32 -5 11 -3 16 13 23 71 11 100 -5 177 -40 193
-21 9 -27 8 -36 -8 -7 -11 -14 -31 -17 -45 l-6 -25 -14 25 c-9 14 -17 63 -20
114 -8 135 -26 119 -21 -19 2 -69 -1 -115 -6 -115 -10 0 -42 135 -49 210 -8
77 -4 104 16 125 11 12 20 28 20 37 0 9 6 18 14 21 21 8 26 58 8 92 -11 21
-15 53 -14 105 2 72 1 74 -13 48 -9 -16 -20 -28 -25 -28 -6 0 -10 -9 -10 -20
0 -22 -43 -34 -101 -28 -30 3 -34 7 -37 35 -3 26 2 35 25 49 15 10 37 25 48
35 28 24 57 27 87 7 26 -17 27 -17 32 10 10 51 18 249 11 271 -5 17 -10 20
-20 11 -11 -9 -23 -5 -52 14 -21 15 -39 31 -39 36 -1 6 -2 14 -3 19 0 5 -42
12 -93 16 l-91 7 -44 -47 -43 -47 0 -122 c0 -110 2 -122 20 -134 11 -7 20 -19
20 -27 0 -8 -9 -24 -20 -35 -29 -29 -25 -67 10 -97 23 -19 29 -31 24 -47 -9
-29 -13 -31 -26 -18 -7 7 -16 12 -20 12 -4 0 -8 -666 -8 -1480 l0 -1480 3700
0 3700 0 0 2465 0 2465 -1040 0 c-572 0 -1040 -3 -1040 -8z m556 -786 c16 -3
58 -8 94 -11 35 -3 80 -9 100 -14 127 -33 120 -29 120 -65 l0 -33 -87 -7 c-49
-3 -144 -2 -213 4 -69 6 -169 11 -223 11 -91 0 -98 2 -113 24 -13 20 -14 30
-4 60 7 20 20 39 30 43 20 8 249 -2 296 -12z m450 -203 c17 -25 0 -43 -42 -43
-23 0 -34 5 -34 14 0 8 -3 21 -6 30 -9 24 64 22 82 -1z m-272 -73 c5 -5 40
-10 76 -10 72 0 110 -18 110 -50 0 -34 -29 -39 -171 -29 -200 14 -334 32 -334
46 0 6 -3 15 -7 19 -14 13 -9 24 15 33 30 11 298 4 311 -9z m696 -29 c0 -21
-7 -46 -15 -57 -11 -15 -13 -37 -8 -99 l6 -80 -24 30 c-21 26 -24 40 -24 115
0 66 4 91 18 112 25 36 47 26 47 -21z m-6430 -544 c0 -19 -21 -37 -42 -37 -13
0 -18 8 -18 29 0 16 6 31 13 34 17 6 47 -11 47 -26z m6175 -722 l30 -13 -38
-1 c-43 -1 -81 15 -71 30 6 10 28 6 79 -16z m-5379 -162 c-10 -10 -19 5 -10
18 6 11 8 11 12 0 2 -7 1 -15 -2 -18z m-676 -5 c0 -18 -2 -20 -9 -8 -6 8 -7
18 -5 22 9 14 14 9 14 -14z m833 -164 c3 -3 -3 -21 -14 -40 -22 -39 -25 -54
-7 -36 14 14 58 16 58 2 0 -11 -107 -133 -122 -139 -12 -4 -8 3 29 58 25 37
30 61 11 61 -18 0 -108 -102 -114 -130 -7 -36 -27 -73 -41 -78 -16 -5 -17 34
-2 44 8 4 9 33 4 89 -8 102 10 154 54 156 87 5 102 7 108 13 8 8 28 8 36 0z
m57 -37 c0 -5 -4 -5 -10 -2 -5 3 -10 14 -10 23 0 15 2 15 10 2 5 -8 10 -19 10
-23z m-780 -200 c0 -23 -17 -47 -32 -47 -11 0 -10 28 2 51 14 26 30 24 30 -4z
m2740 -12 c0 -9 -6 -12 -17 -8 -12 5 -15 2 -10 -10 8 -21 -12 -34 -24 -16 -6
11 -12 9 -26 -6 -16 -17 -56 -45 -66 -45 -1 0 -3 9 -4 19 -2 21 23 36 33 20 4
-6 14 -2 26 11 11 12 26 19 34 16 7 -3 16 4 19 15 7 22 35 26 35 4z m-2138
-17 c-7 -7 -12 -8 -12 -2 0 14 12 26 19 19 2 -3 -1 -11 -7 -17z m2243 12 c3
-5 1 -10 -4 -10 -6 0 -11 5 -11 10 0 6 2 10 4 10 3 0 8 -4 11 -10z m-265 -42
c0 -7 -5 -6 -13 1 -8 6 -18 7 -22 3 -5 -4 -5 -2 -1 5 8 14 36 6 36 -9z m244
13 c11 -4 15 -10 10 -13 -5 -4 -18 0 -29 8 -20 15 -12 17 19 5z m-77 -33 c-3
-7 -5 -2 -5 12 0 14 2 19 5 13 2 -7 2 -19 0 -25z m-171 -20 c0 -10 -4 -18 -8
-18 -4 0 -8 5 -8 11 0 7 -10 9 -26 5 -22 -6 -24 -5 -12 8 18 20 54 16 54 -6z
m-319 -18 c-3 -11 -1 -20 4 -20 5 0 9 -5 9 -12 0 -8 -6 -6 -16 4 -9 9 -14 24
-11 32 9 23 20 20 14 -4z m236 -5 c4 -8 2 -17 -3 -20 -6 -4 -10 3 -10 14 0 25
6 27 13 6z m141 6 c3 -5 -1 -11 -9 -14 -9 -4 -12 -1 -8 9 6 16 10 17 17 5z
m171 -10 c-3 -6 -11 -11 -16 -11 -5 0 -4 6 3 14 14 16 24 13 13 -3z m91 -9 c1
-7 0 -8 -2 -3 -3 6 -12 7 -21 4 -11 -4 -14 -3 -9 6 9 14 29 10 32 -7z m-316
-2 c-20 -13 -33 -13 -25 0 3 6 14 10 23 10 15 0 15 -2 2 -10z m-110 -4 c0 -3
-4 -8 -10 -11 -5 -3 -10 -1 -10 4 0 6 5 11 10 11 6 0 10 -2 10 -4z m190 0 c0
-3 -4 -8 -10 -11 -5 -3 -10 -1 -10 4 0 6 5 11 10 11 6 0 10 -2 10 -4z m130
-23 c24 6 26 -5 5 -23 -12 -10 -15 -10 -15 1 0 10 -3 10 -12 1 -18 -18 -23
-15 -23 18 0 26 2 28 12 14 7 -10 20 -14 33 -11z m-635 1 c-36 -28 -61 -36
-30 -10 17 14 35 25 40 25 6 0 1 -7 -10 -15z m425 -15 c0 -6 -4 -7 -10 -4 -5
3 -10 11 -10 16 0 6 5 7 10 4 6 -3 10 -11 10 -16z m-155 1 c3 -5 1 -10 -4 -10
-6 0 -11 5 -11 10 0 6 2 10 4 10 3 0 8 -4 11 -10z m423 -2 c-6 -18 -28 -21
-28 -4 0 9 7 16 16 16 9 0 14 -5 12 -12z m-128 -18 c-8 -5 -17 -7 -19 -4 -3 3
1 9 9 14 8 5 17 7 19 4 3 -3 -1 -9 -9 -14z m247 -14 c4 -3 1 -6 -6 -6 -7 0 -9
-4 -6 -10 3 -6 -1 -7 -9 -4 -9 3 -16 2 -16 -4 0 -6 6 -13 13 -15 6 -3 3 -6 -8
-6 -15 -1 -21 6 -22 21 -1 13 -7 24 -13 26 -5 2 -10 7 -10 12 0 8 67 -4 77
-14z m-102 -16 c3 -5 1 -10 -4 -10 -6 0 -11 5 -11 10 0 6 2 10 4 10 3 0 8 -4
11 -10z m-319 -20 c8 0 23 6 35 13 17 10 22 9 30 -6 6 -9 13 -15 17 -13 4 3 8
-4 8 -14 0 -10 -5 -18 -11 -17 -5 1 -9 -4 -7 -11 1 -7 -4 -23 -13 -35 -8 -12
-15 -16 -15 -9 0 6 -7 12 -16 12 -8 0 -12 5 -9 10 4 6 -5 10 -21 10 -22 0 -25
4 -21 21 4 15 2 19 -9 15 -17 -7 -18 -2 -2 24 7 11 14 16 16 10 2 -5 10 -10
18 -10z m489 -20 c11 -5 16 -9 11 -9 -5 -1 -3 -8 4 -16 10 -12 10 -15 -4 -15
-9 0 -16 -4 -16 -10 0 -5 5 -10 11 -10 14 0 81 -52 75 -58 -3 -3 -13 1 -22 9
-14 11 -15 10 -12 -6 5 -27 -58 -30 -94 -4 -15 10 -32 19 -38 19 -6 0 -22 7
-35 16 l-25 16 45 29 c25 16 45 33 45 39 0 12 27 12 55 0z m-82 -15 c-34 -24
-71 -36 -78 -24 -4 5 -3 9 2 8 4 -1 24 5 43 14 44 20 61 22 33 2z m-749 -24
c3 -5 -1 -14 -8 -20 -12 -10 -13 -8 -9 8 6 23 9 25 17 12z m229 -6 c-12 -8
-29 -12 -38 -9 -22 9 0 24 35 24 l24 0 -21 -15z m47 -9 c0 -2 -7 -7 -16 -10
-8 -3 -12 -2 -9 4 6 10 25 14 25 6z m35 -5 c3 -5 1 -12 -5 -16 -5 -3 -10 1
-10 9 0 18 6 21 15 7z m360 -11 c-3 -5 -11 -10 -16 -10 -6 0 -7 5 -4 10 3 6
11 10 16 10 6 0 7 -4 4 -10z m-735 -94 c0 -8 -5 -18 -12 -22 -7 -4 -8 -3 -4 4
4 7 2 12 -4 12 -6 0 -8 5 -5 10 9 15 25 12 25 -4z m2457 -8 c-3 -8 -6 -5 -6 6
-1 11 2 17 5 13 3 -3 4 -12 1 -19z m-3832 -30 c-9 -42 -7 -41 -41 -26 -16 6
-38 12 -49 12 -11 1 -21 9 -23 18 -3 18 16 24 81 27 38 1 39 1 32 -31z m1345
2 c0 -13 -28 -25 -38 -16 -3 4 0 11 8 16 20 13 30 12 30 0z m1223 3 c-15 -3
-20 -9 -17 -21 5 -15 4 -15 -5 -2 -17 24 -13 30 17 29 22 -1 23 -2 5 -6z m-83
-13 c0 -3 -9 -11 -20 -18 -11 -7 -20 -10 -20 -8 0 2 -3 11 -6 20 -5 12 0 15
20 14 14 -1 26 -5 26 -8z m-313 -20 c12 -10 24 -28 28 -40 3 -11 11 -20 16
-20 5 0 9 -5 9 -11 0 -5 -4 -8 -9 -4 -6 3 -6 -7 0 -27 11 -40 11 -38 0 -38 -5
0 -12 8 -14 18 -4 14 -6 14 -12 -5 -4 -13 -14 -23 -21 -23 -20 0 -17 13 6 28
23 14 22 43 -5 72 -20 22 -8 28 15 8 8 -7 -1 4 -19 25 -36 38 -31 52 6 17z
m688 10 c4 -6 -5 -10 -19 -10 -14 0 -26 5 -26 10 0 6 9 10 19 10 11 0 23 -4
26 -10z m-438 -15 c3 -9 3 -18 0 -21 -10 -10 -47 7 -47 22 0 19 39 18 47 -1z
m508 6 c-3 -5 4 -12 15 -16 11 -3 20 -11 20 -16 0 -6 -4 -7 -10 -4 -5 3 -18 1
-27 -4 -17 -10 -17 -10 0 -11 10 0 17 -8 17 -20 0 -11 0 -23 0 -26 0 -14 -72
-11 -77 3 -3 9 -9 10 -17 4 -6 -5 -27 -8 -46 -6 -19 2 -43 4 -52 4 -10 1 -18
9 -18 18 0 15 -1 15 -13 -1 -10 -14 -18 -15 -40 -7 -30 12 -32 19 -16 54 8 19
16 22 41 19 23 -4 29 -9 25 -23 -7 -24 -2 -24 24 2 11 11 24 18 27 14 4 -3 0
-10 -8 -15 -9 -6 -10 -10 -3 -10 6 0 15 5 18 10 10 17 25 11 25 -10 0 -11 5
-20 11 -20 5 0 8 4 5 9 -3 4 6 6 19 3 19 -3 25 0 25 12 0 9 6 23 13 31 13 16
52 21 42 6z m172 -12 c-3 -13 1 -15 17 -11 11 3 15 7 8 10 -20 6 -4 21 18 15
11 -3 20 -13 20 -22 1 -14 2 -14 14 2 11 15 20 16 63 8 28 -6 59 -8 70 -5 12
3 23 2 26 -3 6 -10 63 -8 105 2 17 4 33 -4 64 -35 42 -40 86 -55 74 -25 -3 10
1 15 12 15 9 0 28 3 41 7 l24 6 -6 -71 c-4 -39 -13 -101 -21 -139 -19 -93 -25
-269 -9 -266 13 3 9 -12 -14 -57 -15 -29 -17 -70 -4 -70 5 0 22 3 39 6 28 6
32 12 48 73 10 36 23 69 28 73 7 5 7 8 1 8 -10 0 26 24 93 61 l32 19 0 -134
c0 -127 -11 -196 -32 -196 -5 0 -7 4 -3 9 3 5 1 12 -3 15 -8 5 -52 -141 -52
-171 0 -7 -7 -10 -15 -7 -8 4 -15 12 -15 20 0 8 -4 14 -9 14 -13 0 -21 -26
-10 -37 6 -6 -2 -20 -21 -38 -25 -24 -30 -36 -30 -78 0 -52 -15 -60 -35 -20
-10 20 -11 20 -27 -8 -20 -35 -45 -38 -51 -6 -2 13 -4 7 -4 -13 0 -43 -39
-136 -64 -154 -19 -13 -59 -112 -62 -152 -1 -11 -10 -31 -19 -45 l-17 -24 0
37 c-1 35 -18 109 -40 173 -12 34 -54 554 -50 609 2 19 1 37 -1 39 -3 3 -81 8
-175 11 -331 12 -399 18 -1085 91 -129 14 -271 30 -315 35 -44 5 -100 12 -125
15 -25 3 -61 7 -80 10 -19 3 -51 7 -70 9 -118 15 -485 80 -687 123 -131 28
-135 31 -84 77 13 12 21 31 21 52 0 36 -2 35 131 49 55 6 57 5 63 -20 5 -21 1
-32 -19 -51 -26 -24 -75 -33 -75 -14 0 17 -19 11 -62 -20 -22 -16 -38 -30 -35
-30 4 0 82 -16 174 -35 161 -33 331 -66 438 -85 28 -4 69 -5 92 -1 33 6 52 4
85 -12 33 -15 67 -20 144 -22 55 -1 105 -5 112 -9 6 -3 38 -9 71 -13 l60 -5
39 41 c43 45 73 52 122 26 23 -12 30 -13 30 -3 0 24 72 71 119 79 76 12 118 1
154 -41 25 -29 41 -38 77 -43 42 -5 47 -3 76 29 19 20 26 34 18 34 -7 0 -18
10 -25 21 -9 18 -13 19 -21 8 -8 -11 -9 -10 -5 3 4 12 -13 31 -61 67 -37 28
-76 58 -87 66 -10 8 -23 15 -27 15 -15 0 -8 18 19 49 31 35 38 37 60 16 9 -10
24 -13 37 -10 13 4 17 3 8 -2 -9 -7 -5 -15 16 -30 36 -26 88 -21 96 11 11 39
8 50 -9 36 -12 -10 -15 -10 -15 3 0 9 -6 15 -12 13 -7 -1 -10 -1 -5 1 4 3 7
12 7 21 1 15 2 15 11 0 8 -15 13 -16 30 -5 16 10 21 9 29 -3 6 -9 10 -10 10
-3 0 8 16 12 46 11 44 -1 45 -1 42 -32 -3 -33 -34 -49 -49 -24 -7 10 -9 9 -9
-4 0 -10 -4 -18 -10 -18 -5 0 -10 6 -10 14 0 7 -6 19 -14 25 -12 10 -16 8 -21
-11 -14 -50 -28 -68 -54 -68 -26 0 -26 0 9 -30 19 -16 43 -30 53 -30 9 0 17
-5 17 -11 0 -7 9 -9 22 -6 12 4 28 1 35 -5 20 -16 16 -49 -7 -55 -11 -3 -20
-9 -20 -14 0 -5 -11 -7 -25 -3 -15 4 -25 2 -25 -5 0 -6 15 -11 33 -11 17 -1
50 -8 72 -16 129 -49 132 -50 160 -24 13 12 22 27 18 33 -3 5 0 7 8 5 8 -3 32
7 54 22 85 58 213 119 360 171 49 17 49 18 20 23 -17 4 -46 10 -67 15 -21 4
-43 4 -54 -2 -12 -7 -15 -6 -10 2 4 6 3 11 -3 11 -5 0 -16 2 -24 5 -9 4 -18
-5 -25 -27 l-11 -33 4 32 c3 33 -11 43 -62 43 -13 0 -23 5 -23 11 0 7 11 9 28
6 21 -4 32 -1 42 13 17 23 53 23 47 -1z m-1374 -29 c-15 -14 -53 -22 -53 -11
0 6 3 10 8 10 26 -4 44 3 39 15 -3 8 -3 17 1 21 4 4 9 -1 10 -10 2 -9 0 -21
-5 -25z m301 5 c53 -8 66 -20 34 -31 -13 -4 -24 -2 -26 4 -2 6 -19 14 -38 18
-19 3 -37 11 -41 17 -4 6 0 8 9 5 9 -4 36 -10 62 -13z m836 5 c0 -5 -2 -10 -4
-10 -3 0 -8 5 -11 10 -3 6 -1 10 4 10 6 0 11 -4 11 -10z m-1560 -10 c0 -5 -5
-10 -11 -10 -5 0 -7 5 -4 10 3 6 8 10 11 10 2 0 4 -4 4 -10z m840 -29 c13 -48
13 -50 -10 -48 -11 1 -20 7 -20 15 0 7 -5 10 -11 6 -8 -4 -8 -9 0 -17 18 -18
13 -37 -9 -37 -24 0 -26 26 -5 54 8 11 15 29 15 41 0 36 29 25 40 -14z m-533
14 c9 -24 -1 -27 -15 -5 -8 13 -8 20 -2 20 6 0 13 -7 17 -15z m1400 -21 c1 -5
-1 -15 -5 -22 -10 -15 -42 -5 -42 13 0 22 40 30 47 9z m39 -19 c-3 -9 -11 -13
-16 -10 -8 5 -7 11 1 21 14 18 24 11 15 -11z m-799 1 c-5 -16 -27 -19 -27 -3
0 7 7 14 15 14 9 0 14 -5 12 -11z m373 0 c0 -2 -7 -7 -16 -10 -8 -3 -12 -2 -9
4 6 10 25 14 25 6z m490 0 c0 -3 -4 -8 -10 -11 -5 -3 -10 -1 -10 4 0 6 5 11
10 11 6 0 10 -2 10 -4z m70 -12 c0 -2 -7 -4 -15 -4 -8 0 -15 4 -15 10 0 5 7 7
15 4 8 -4 15 -8 15 -10z m-3177 -6 c3 -10 8 -10 21 1 15 13 19 13 27 0 10 -17
12 -130 1 -144 -4 -5 -31 -11 -61 -13 -48 -3 -52 -1 -38 13 9 8 20 15 26 15 6
0 11 4 11 8 0 5 -27 9 -60 10 -34 1 -60 -3 -60 -8 0 -6 6 -10 14 -10 8 0 16
-7 20 -15 7 -18 -1 -19 -43 -4 -19 7 -36 22 -42 36 -12 32 -12 83 1 83 6 0 10
-4 10 -10 0 -16 14 -12 38 10 12 11 35 20 54 20 18 0 40 5 48 10 20 13 28 12
33 -2z m1207 -42 c0 -40 -18 -57 -48 -49 -27 7 -27 5 3 54 29 45 45 43 45 -5z
m905 -16 c-3 -5 -16 -10 -29 -10 -12 0 -27 -5 -34 -12 -7 -7 -12 -8 -12 -2 0
18 19 30 51 32 19 2 28 -2 24 -8z m35 -6 c0 -8 -4 -12 -10 -9 -5 3 -10 10 -10
16 0 5 5 9 10 9 6 0 10 -7 10 -16z m473 9 c-7 -2 -19 -2 -25 0 -7 3 -2 5 12 5
14 0 19 -2 13 -5z m-1222 -16 c-6 -8 -8 -17 -4 -20 3 -4 -1 -7 -10 -7 -22 0
-22 27 1 33 9 3 19 5 21 6 2 0 -2 -5 -8 -12z m-766 -4 c-11 -3 -26 -10 -33
-15 -9 -8 -11 -7 -6 6 4 10 16 16 33 15 20 -1 22 -2 6 -6z m2035 -4 c0 -6 9
-9 20 -6 11 3 20 1 20 -4 0 -5 -13 -9 -30 -9 -20 0 -30 5 -30 15 0 8 5 15 10
15 6 0 10 -5 10 -11z m-630 -29 c0 -5 -9 -8 -19 -7 -15 1 -17 4 -9 14 11 13
28 9 28 -7z m45 10 c3 -6 -4 -10 -17 -10 -18 0 -20 2 -8 10 19 12 18 12 25 0z
m-930 -36 c0 -10 -8 -20 -18 -22 -22 -4 -35 27 -16 39 20 12 34 5 34 -17z
m1651 -9 c6 -19 7 -35 3 -35 -10 0 -15 9 -23 43 -9 39 7 33 20 -8z m-1438 13
c-2 -6 -12 -12 -22 -14 -14 -2 -15 0 -5 12 14 17 32 19 27 2z m1362 -35 c0
-26 -16 -12 -18 15 -1 21 0 23 8 12 5 -8 10 -21 10 -27z m-2890 -9 c0 -8 -5
-12 -10 -9 -6 4 -8 11 -5 16 9 14 15 11 15 -7z m2210 2 c0 -3 -4 -8 -10 -11
-5 -3 -10 -1 -10 4 0 6 5 11 10 11 6 0 10 -2 10 -4z m-930 -16 c0 -5 -4 -10
-10 -10 -5 0 -10 5 -10 10 0 6 5 10 10 10 6 0 10 -4 10 -10z m-1483 -32 c-3
-7 -5 -2 -5 12 0 14 2 19 5 13 2 -7 2 -19 0 -25z m3123 22 c0 -5 -4 -10 -10
-10 -5 0 -10 5 -10 10 0 6 5 10 10 10 6 0 10 -4 10 -10z m-2883 -17 c3 -7 -3
-9 -16 -6 -12 3 -21 10 -21 15 0 13 32 6 37 -9z m1508 -3 c3 -5 1 -10 -4 -10
-6 0 -11 5 -11 10 0 6 2 10 4 10 3 0 8 -4 11 -10z m-1748 -82 c-3 -7 -5 -2 -5
12 0 14 2 19 5 13 2 -7 2 -19 0 -25z m1017 0 c13 -22 -9 -48 -40 -48 -19 0
-24 5 -24 25 0 23 25 47 44 42 5 -2 14 -10 20 -19z m3002 -45 c-10 -10 -19 5
-10 18 6 11 8 11 12 0 2 -7 1 -15 -2 -18z m71 -475 c-3 -8 -6 -5 -6 6 -1 11 2
17 5 13 3 -3 4 -12 1 -19z m123 -93 c0 -2 -9 -9 -20 -15 -16 -9 -20 -8 -20 5
0 8 9 15 20 15 11 0 20 -2 20 -5z m-263 -142 c-3 -10 -5 -4 -5 12 0 17 2 24 5
18 2 -7 2 -21 0 -30z"/>
<path d="M3572 1634 c10 -10 20 -16 22 -13 3 3 -5 11 -17 18 -21 13 -21 12 -5
-5z"/>
<path d="M4205 1449 c-10 -43 -1 -46 12 -4 6 19 7 35 3 35 -5 0 -11 -14 -15
-31z"/>
<path d="M4520 1460 c0 -6 7 -10 15 -10 8 0 15 2 15 4 0 2 -7 6 -15 10 -8 3
-15 1 -15 -4z"/>
<path d="M4760 1440 c0 -5 14 -10 31 -10 17 0 28 4 24 10 -3 6 -17 10 -31 10
-13 0 -24 -4 -24 -10z"/>
<path d="M2126 1348 c-21 -29 -11 -37 15 -11 13 13 17 23 11 27 -6 3 -18 -4
-26 -16z"/>
<path d="M2175 1360 c-3 -5 -1 -10 4 -10 6 0 11 5 11 10 0 6 -2 10 -4 10 -3 0
-8 -4 -11 -10z"/>
<path d="M2020 1340 c0 -5 5 -10 10 -10 6 0 10 5 10 10 0 6 -4 10 -10 10 -5 0
-10 -4 -10 -10z"/>
<path d="M4735 1178 c-52 -27 -51 -25 -31 -47 13 -14 16 -28 11 -55 -7 -33 -5
-36 11 -29 26 10 44 29 44 47 0 8 5 18 10 21 12 7 14 85 3 85 -5 -1 -26 -10
-48 -22z"/>
<path d="M3898 1153 c7 -3 16 -2 19 1 4 3 -2 6 -13 5 -11 0 -14 -3 -6 -6z"/>
<path d="M3858 1133 c-11 -3 -18 -14 -18 -29 0 -29 16 -32 25 -4 3 11 13 20
21 20 8 0 12 5 9 10 -6 10 -9 11 -37 3z"/>
<path d="M3975 1130 c3 -5 15 -10 26 -10 11 0 17 5 14 10 -3 6 -15 10 -26 10
-11 0 -17 -4 -14 -10z"/>
<path d="M3496 1103 c-8 -21 -8 -23 7 -23 7 0 20 8 29 19 15 17 14 19 -8 19
-12 0 -25 -7 -28 -15z"/>
<path d="M3959 1107 c22 -22 12 -33 -29 -29 -38 4 -40 3 -40 -23 0 -19 -6 -28
-22 -33 -21 -5 -21 -6 -2 -13 10 -4 35 -7 54 -7 22 0 27 2 13 5 -30 6 -29 27
2 41 28 13 55 6 55 -14 0 -8 3 -13 8 -13 18 3 32 -2 48 -18 20 -21 28 -23 124
-28 41 -2 108 -7 148 -11 50 -4 76 -3 86 6 19 15 11 36 -17 45 -12 4 -24 8
-27 10 -3 1 -13 5 -23 10 -9 4 -30 3 -45 -3 -55 -21 -92 -25 -98 -9 -3 9 -12
18 -19 21 -8 3 -12 0 -9 -7 3 -8 -9 -12 -38 -12 -37 0 -43 3 -46 23 -3 19 -9
22 -48 22 -36 0 -44 3 -44 19 0 11 -9 21 -21 24 -17 4 -19 3 -10 -6z"/>
<path d="M4440 1070 c0 -5 -8 -10 -17 -10 -37 0 -42 -15 -12 -32 29 -17 30
-17 40 6 6 13 21 29 33 34 19 10 18 11 -11 11 -18 1 -33 -3 -33 -9z"/>
<path d="M3780 1020 c0 -5 5 -10 11 -10 5 0 7 5 4 10 -3 6 -8 10 -11 10 -2 0
-4 -4 -4 -10z"/>
<path d="M4912 550 c0 -14 2 -19 5 -12 2 6 2 18 0 25 -3 6 -5 1 -5 -13z"/>
<path d="M4870 519 c0 -5 5 -7 10 -4 6 3 10 8 10 11 0 2 -4 4 -10 4 -5 0 -10
-5 -10 -11z"/>
<path d="M4797 407 c-11 -29 -9 -43 4 -30 6 6 9 19 7 29 -3 18 -4 18 -11 1z"/>
<path d="M1326 1294 c-5 -12 -2 -15 10 -10 8 3 18 6 20 6 3 0 2 5 -1 10 -9 15
-22 12 -29 -6z"/>
<path d="M4354 4741 c7 -10 -29 -21 -64 -20 -20 1 -18 3 10 10 25 6 15 7 -35
3 -38 -2 -90 -9 -115 -15 -42 -11 -48 -17 -85 -81 -59 -104 -92 -188 -104
-266 -17 -107 -15 -115 22 -137 17 -10 40 -28 49 -40 l18 -20 19 25 c11 14 23
39 26 55 13 64 27 93 45 98 11 3 20 1 20 -3 0 -13 64 -28 94 -23 18 4 26 1 26
-9 0 -18 -31 -48 -51 -48 -27 0 -41 -17 -34 -39 5 -18 14 -21 56 -21 28 0 60
-5 72 -11 26 -14 137 -21 137 -8 0 5 9 9 20 9 16 0 20 7 22 38 0 20 1 45 0 55
-1 10 5 17 17 17 19 0 31 -18 31 -49 0 -33 37 -69 65 -64 13 3 23 9 20 13 -7
12 29 22 49 14 12 -5 16 0 16 19 0 14 -4 28 -10 32 -5 3 -7 11 -5 18 8 20 -9
36 -45 42 -50 9 -62 25 -19 25 18 0 51 3 72 6 35 6 37 5 38 -22 1 -27 2 -26
13 10 11 36 18 42 77 66 80 31 88 55 36 104 -36 34 -108 61 -191 72 -40 6 -51
12 -67 38 -10 17 -19 27 -19 22 0 -5 -10 0 -22 11 -13 11 -45 28 -73 38 -27
10 -57 24 -66 31 -17 15 -74 19 -65 5z m-128 -232 c-43 -22 -80 -38 -83 -35
-5 5 137 76 152 75 6 0 -25 -18 -69 -40z"/>
<path d="M1929 4730 c-30 -4 -64 -12 -75 -19 -16 -10 -14 -10 11 -4 17 5 197
8 400 7 276 -1 331 1 215 6 -283 13 -494 17 -551 10z"/>
<path d="M2708 4703 c6 -2 18 -2 25 0 6 3 1 5 -13 5 -14 0 -19 -2 -12 -5z"/>
<path d="M2933 4693 c15 -2 37 -2 50 0 12 2 0 4 -28 4 -27 0 -38 -2 -22 -4z"/>
<path d="M970 4588 c-223 -247 -284 -307 -327 -322 -36 -12 -43 -12 -54 0 -6
8 -17 14 -24 14 -6 0 -20 8 -29 19 -16 17 -16 22 4 72 34 90 33 91 -75 103
-67 8 -178 36 -190 48 -6 6 47 9 152 6 159 -3 162 -3 187 21 24 23 25 26 9 43
-12 14 -31 18 -76 18 -34 0 -86 5 -116 10 -94 17 -349 50 -391 50 l-40 0 0
-439 c0 -430 0 -439 20 -444 11 -3 35 -1 53 4 17 4 45 11 60 14 22 4 26 9 19
21 -12 21 -3 64 14 64 17 0 25 -14 26 -50 1 -17 11 -39 25 -52 23 -22 24 -22
43 -2 15 14 20 34 21 75 1 30 -1 64 -4 75 -4 10 1 28 9 39 15 20 15 20 33 -4
14 -19 27 -24 55 -23 20 1 36 -3 36 -8 0 -17 28 1 33 21 13 48 60 27 73 -33 7
-30 25 -36 41 -15 5 6 20 58 33 115 21 90 27 102 45 102 12 0 32 11 45 25 13
14 31 24 39 23 11 -2 17 7 19 30 2 19 -1 32 -8 32 -29 0 15 58 166 218 119
126 164 180 164 198 0 13 -1 24 -3 24 -2 0 -41 -42 -87 -92z"/>
<path d="M3688 4653 c7 -3 16 -2 19 1 4 3 -2 6 -13 5 -11 0 -14 -3 -6 -6z"/>
<path d="M3930 4182 c0 -20 5 -44 10 -52 7 -11 10 -7 10 18 0 17 5 32 10 32 6
0 8 -15 4 -40 -4 -26 -2 -45 6 -55 16 -20 30 -19 30 1 0 13 3 14 14 5 11 -9
15 -6 18 16 3 16 8 35 12 44 9 21 -34 53 -81 62 -32 6 -33 6 -33 -31z"/>
<path d="M4068 4108 c13 -36 3 -58 -29 -65 -16 -3 -26 -10 -23 -15 4 -6 19 -7
35 -4 22 4 27 2 22 -9 -5 -14 -22 -20 -52 -16 -7 2 -10 -2 -6 -9 4 -7 18 -10
32 -7 29 5 38 -13 90 -188 20 -66 44 -129 54 -141 11 -11 19 -24 19 -29 0 -5
7 -16 16 -26 8 -9 22 -50 30 -91 8 -40 19 -81 24 -90 6 -10 7 -18 3 -18 -17 0
-104 65 -127 95 -24 31 -25 39 -22 119 2 46 7 89 10 94 3 6 1 23 -4 38 l-11
27 -33 -32 c-18 -18 -43 -54 -56 -80 -22 -47 -24 -49 -95 -70 -40 -11 -84 -21
-98 -21 -15 0 -31 -9 -41 -25 -9 -14 -25 -25 -35 -25 -10 0 -34 -11 -53 -24
-20 -13 -52 -29 -72 -36 -20 -6 -36 -17 -36 -23 0 -8 4 -7 12 1 20 20 32 13
13 -8 -10 -11 -21 -17 -26 -15 -10 7 -61 -79 -134 -223 -51 -101 -58 -121 -60
-182 -3 -74 -17 -127 -45 -175 -10 -16 -21 -53 -25 -81 -7 -56 -9 -54 87 -84
48 -14 46 -39 -4 -91 -21 -21 -38 -43 -38 -49 0 -5 -16 -9 -36 -8 -37 1 -54
-12 -54 -45 0 -10 -11 -22 -24 -27 -18 -7 -23 -14 -19 -29 5 -21 -11 -29 -22
-11 -10 16 -28 11 -21 -6 8 -20 -11 -54 -29 -54 -18 0 -19 -12 -3 -28 9 -9 5
-12 -17 -12 -17 0 -40 -3 -52 -6 -18 -5 -20 -10 -12 -36 7 -25 4 -33 -17 -53
-15 -14 -27 -36 -28 -50 -1 -23 -2 -24 -13 -8 -7 9 -13 25 -13 36 0 31 -25 13
-28 -21 -4 -36 30 -107 57 -122 11 -5 78 -11 150 -12 l130 -3 46 45 c68 66
104 118 195 285 127 234 131 239 141 224 13 -21 10 -107 -6 -174 -8 -33 -14
-77 -15 -97 0 -20 -14 -94 -30 -164 -17 -71 -29 -133 -26 -139 2 -7 62 -16
152 -23 209 -17 206 -17 198 13 -3 14 -2 25 4 25 5 0 17 -11 26 -25 18 -27 34
-33 33 -13 -2 51 3 58 37 58 31 0 33 -2 30 -30 -2 -16 1 -30 7 -30 6 0 8 -4 4
-9 -8 -14 26 -19 390 -56 319 -32 596 -64 618 -71 21 -7 21 -15 2 -61 -8 -19
-15 -37 -15 -39 0 -8 49 -4 54 5 7 11 55 559 56 641 1 25 28 -16 80 -122 26
-53 54 -119 61 -147 12 -49 13 -49 29 -28 10 12 29 45 43 73 14 28 42 66 61
85 27 25 33 36 24 46 -6 7 -16 13 -24 13 -19 0 -43 38 -37 60 7 26 -13 34 -45
17 -31 -15 -52 -12 -52 7 0 16 -50 71 -72 79 -10 4 -18 13 -18 21 0 9 18 16
58 21 88 11 243 53 263 71 14 13 16 21 8 36 -6 11 -9 31 -6 45 3 19 -1 26 -18
33 -24 9 -39 36 -25 45 4 3 15 2 23 -1 13 -5 13 3 -4 46 -10 28 -30 67 -42 88
-13 20 -26 46 -29 57 -3 11 -9 28 -13 38 -7 17 -6 18 13 6 11 -7 18 -19 14
-27 -4 -11 -1 -13 8 -7 10 6 12 3 8 -12 -3 -12 -1 -27 4 -34 22 -31 -1 85 -26
133 -16 31 -24 58 -20 71 4 13 2 17 -5 13 -6 -4 -14 1 -17 11 -15 44 -57 123
-65 123 -5 0 -9 9 -9 19 0 10 -7 22 -15 25 -9 3 -15 12 -13 19 6 26 -96 147
-123 147 -11 0 -19 4 -19 10 0 12 27 2 65 -24 l29 -20 -19 26 c-11 15 -26 28
-33 28 -7 0 -40 14 -73 30 -60 31 -114 46 -201 57 -33 4 -48 10 -48 20 0 9 -6
13 -15 9 -8 -3 -35 3 -60 14 -25 11 -47 19 -50 19 -20 1 -65 35 -65 49 0 15
-2 15 -10 2 -6 -10 -10 -11 -10 -2 0 21 -19 13 -35 -15 -16 -27 -16 -27 -10
-3 18 71 18 111 -1 131 -16 18 -17 25 -6 65 7 24 12 50 12 56 0 19 -29 -25
-30 -44 0 -11 -8 -18 -20 -18 -16 0 -20 7 -20 38 0 41 -13 68 -27 59 -6 -4
-19 0 -29 8 -15 10 -16 16 -7 26 14 14 6 39 -13 39 -19 0 -18 10 3 26 10 7 15
16 10 20 -7 8 -81 10 -106 3 -10 -3 -17 6 -21 26 l-5 30 -33 -47 c-39 -56 -46
-100 -8 -53 20 25 26 28 40 16 9 -7 16 -18 16 -24 0 -13 -31 -36 -48 -37 -14
0 -59 -48 -78 -83 l-12 -20 -6 20 c-4 11 -3 29 0 39 7 18 7 18 -13 2 -24 -22
-52 -23 -59 -3 -4 10 -13 13 -24 10 -13 -4 -20 1 -25 15 -3 11 -10 20 -15 20
-14 0 -61 50 -55 60 3 4 -2 11 -11 14 -8 3 -13 10 -10 14 6 10 -21 52 -34 52
-6 0 -6 -10 -2 -22z m485 -118 c8 0 8 -3 0 -11 -13 -13 -56 -2 -47 12 3 6 13
8 21 5 8 -3 20 -6 26 -6z m45 -66 c21 -14 23 -21 17 -72 -4 -32 -9 -65 -12
-75 -6 -23 -42 -19 -64 7 -13 15 -19 17 -37 7 -28 -15 -74 -14 -97 2 -24 18
-14 23 82 38 80 13 82 14 81 41 l-1 28 -76 0 c-90 0 -86 15 9 28 36 5 67 10
70 11 3 0 16 -6 28 -15z m479 -380 c-3 -3 -12 -4 -19 -1 -8 3 -5 6 6 6 11 1
17 -2 13 -5z m470 -746 c-3 -8 -6 -5 -6 6 -1 11 2 17 5 13 3 -3 4 -12 1 -19z
m-1427 -348 c0 -16 -2 -30 -4 -30 -2 0 -6 14 -8 30 -3 17 -1 30 4 30 4 0 8
-13 8 -30z m-7 -101 c-9 -35 -23 -31 -23 7 0 30 2 34 14 25 8 -7 12 -21 9 -32z
m-786 -49 c2 -21 -11 -27 -22 -10 -7 11 2 30 13 30 4 0 8 -9 9 -20z m-187 -50
c-1 -12 -4 -11 -15 4 -8 10 -12 23 -8 29 7 11 23 -12 23 -33z m997 -46 c2 -7
-3 -19 -12 -27 -15 -16 -21 -58 -7 -56 21 4 31 -3 26 -16 -4 -11 -19 -15 -51
-13 -41 1 -44 3 -40 24 2 13 -1 22 -6 21 -6 -1 -13 6 -15 15 -3 14 3 17 30 15
36 -2 52 16 18 21 -22 4 -27 18 -7 26 20 8 60 2 64 -10z m-1027 -14 c-6 -11
-15 -20 -21 -20 -6 0 -6 7 1 20 6 11 15 20 21 20 6 0 6 -7 -1 -20z m941 -110
c6 0 8 -4 5 -9 -8 -12 -46 -2 -46 11 0 6 7 7 16 4 9 -3 20 -6 25 -6z"/>
<path d="M3960 4066 c0 -2 7 -9 15 -16 9 -7 15 -8 15 -2 0 5 -7 12 -15 16 -8
3 -15 4 -15 2z"/>
<path d="M4340 3980 c-8 -16 -8 -18 4 -14 17 6 30 34 16 34 -5 0 -14 -9 -20
-20z"/>
<path d="M5550 3738 c0 -35 17 -153 25 -177 4 -9 11 -6 26 13 15 19 27 25 38
20 9 -3 35 -6 58 -5 35 2 44 -2 63 -29 12 -16 25 -30 30 -30 5 0 19 18 30 40
35 68 54 46 71 -80 l11 -82 -28 -29 c-15 -16 -44 -37 -63 -47 -72 -35 -41 -58
63 -47 59 7 65 9 71 34 11 43 24 51 81 51 77 0 104 -13 104 -50 0 -24 -4 -30
-22 -31 -23 0 -23 0 1 -10 31 -12 209 -41 230 -37 11 2 24 38 47 128 17 69 29
129 26 134 -9 17 -384 -14 -424 -35 -47 -24 -49 -17 -45 121 2 79 -1 134 -7
140 -6 6 -77 10 -176 10 -134 0 -170 3 -188 16 -21 15 -22 14 -22 -18z"/>
<path d="M465 3687 c-3 -6 -4 -50 -3 -97 2 -61 7 -85 16 -85 7 0 17 -7 22 -15
12 -19 16 -8 30 92 13 89 4 118 -36 118 -13 0 -27 -6 -29 -13z"/>
<path d="M5990 3591 c-28 -53 1 -67 44 -22 23 24 25 29 11 35 -28 10 -44 7
-55 -13z"/>
<path d="M566 3428 c-14 -50 -26 -128 -26 -174 l0 -54 33 0 c49 0 67 28 67
100 0 55 -2 62 -25 72 -16 7 -25 19 -25 34 0 26 -18 42 -24 22z"/>
<path d="M5346 3422 c6 -4 25 -27 42 -51 18 -24 32 -40 32 -34 0 15 -63 93
-75 93 -6 0 -6 -3 1 -8z"/>
<path d="M1160 3375 c0 -8 5 -15 10 -15 6 0 10 7 10 15 0 8 -4 15 -10 15 -5 0
-10 -7 -10 -15z"/>
<path d="M1070 3345 c0 -19 5 -35 10 -35 6 0 10 16 10 35 0 19 -4 35 -10 35
-5 0 -10 -16 -10 -35z"/>
<path d="M1245 3360 c-4 -7 -3 -16 3 -22 14 -14 47 -6 47 12 0 18 -40 26 -50
10z"/>
<path d="M1237 3242 c-88 -2 -117 -6 -114 -15 2 -8 36 -12 110 -14 58 0 111
-4 116 -8 9 -5 71 29 71 39 0 1 -15 2 -32 2 -18 -1 -86 -2 -151 -4z"/>
<path d="M543 3124 c-16 -42 13 -75 137 -157 36 -24 87 -58 113 -76 27 -18 50
-32 51 -30 2 2 6 23 9 47 5 39 3 44 -27 67 -18 14 -36 25 -39 25 -8 0 -62 37
-114 76 -21 17 -57 37 -81 46 -37 15 -44 15 -49 2z"/>
<path d="M5590 2828 c0 -7 5 -20 10 -28 8 -12 10 -11 10 7 0 12 -4 25 -10 28
-5 3 -10 0 -10 -7z"/>
<path d="M917 2014 c-12 -13 -7 -90 6 -109 19 -25 37 -11 36 28 -2 62 -22 101
-42 81z"/>
<path d="M5150 1169 c0 -5 5 -7 10 -4 6 3 10 8 10 11 0 2 -4 4 -10 4 -5 0 -10
-5 -10 -11z"/>
<path d="M1282 683 c2 -21 7 -38 13 -38 5 0 10 17 10 38 1 26 -2 37 -12 37
-10 0 -13 -11 -11 -37z"/>
<path d="M1367 714 c-4 -4 -7 -16 -7 -26 0 -15 6 -19 28 -16 19 2 27 9 27 23
0 20 -33 33 -48 19z"/>
</g>
</svg>
