<?xml version="1.0" standalone="no"?>
<!DOCTYPE svg PUBLIC "-//W3C//DTD SVG 20010904//EN"
 "http://www.w3.org/TR/2001/REC-SVG-20010904/DTD/svg10.dtd">
<svg version="1.0" xmlns="http://www.w3.org/2000/svg"
 width="360.000000pt" height="540.000000pt" viewBox="0 0 360.000000 540.000000"
 preserveAspectRatio="xMidYMid meet">

<g transform="translate(0.000000,540.000000) scale(0.100000,-0.100000)"
fill="#000000" stroke="none">
<path d="M0 4925 c0 -286 4 -475 9 -475 13 0 319 -39 359 -45 20 -4 32 -12 32
-22 0 -13 -9 -15 -60 -10 -33 4 -72 10 -87 13 -25 7 -26 6 -20 -27 9 -45 -2
-59 -51 -66 -23 -3 -47 -12 -53 -19 -6 -8 -26 -14 -45 -14 -54 0 -84 -16 -84
-45 0 -16 6 -25 15 -25 9 0 15 9 15 25 0 28 26 34 61 13 17 -11 22 -10 30 5 6
9 19 17 29 17 11 0 20 4 20 9 0 6 18 9 40 8 38 -1 50 -10 31 -21 -10 -6 -7
-77 3 -95 9 -15 -21 -51 -42 -51 -10 0 -12 -7 -8 -25 5 -21 3 -25 -14 -25 -13
0 -28 -12 -38 -30 -9 -17 -24 -32 -33 -35 -24 -8 -49 5 -42 21 4 11 0 12 -18
5 -13 -4 -25 -18 -27 -30 -2 -11 -8 -21 -13 -21 -16 0 -10 -29 9 -39 16 -9 16
-10 -1 -16 -13 -6 -17 -19 -17 -61 0 -47 2 -54 20 -54 11 0 20 5 20 10 0 6 8
10 17 10 31 0 83 24 88 41 5 13 14 16 45 12 48 -7 90 3 90 20 0 7 18 31 41 52
22 22 48 54 56 70 24 44 94 125 104 119 5 -3 5 -13 -1 -23 -7 -15 -6 -18 8
-17 21 1 30 -58 12 -79 -13 -16 1 -36 30 -47 11 -4 7 -9 -12 -17 -16 -6 -28
-16 -28 -22 0 -6 -7 -8 -17 -5 -17 7 -17 6 -1 -10 17 -17 18 -17 38 1 23 20
24 17 10 -20 -8 -21 -14 -24 -35 -19 -17 4 -32 1 -43 -9 -9 -8 -36 -20 -59
-26 -49 -13 -54 -26 -18 -43 14 -6 25 -15 25 -20 0 -4 3 -8 7 -7 17 3 53 -14
53 -25 1 -20 28 -48 40 -41 8 5 8 10 0 20 -13 16 5 24 39 16 21 -6 22 -8 7
-20 -20 -17 -21 -31 0 -31 8 0 12 -5 8 -11 -4 -7 -10 -7 -16 -1 -6 6 -17 8
-24 5 -11 -4 -12 -8 -3 -20 16 -18 0 -34 -35 -36 -21 -2 -26 -7 -26 -29 0 -15
-4 -30 -10 -33 -9 -6 -14 8 -11 28 0 4 -3 7 -8 7 -5 0 -9 -16 -9 -36 0 -20 -6
-41 -12 -48 -10 -8 -11 -8 -5 3 5 9 4 12 -3 7 -7 -4 -12 -14 -12 -23 0 -9 -6
-13 -15 -9 -8 3 -21 -4 -30 -17 -8 -12 -15 -17 -15 -12 0 5 -5 4 -12 -3 -18
-18 -28 -15 -28 8 0 21 -15 27 -25 9 -5 -6 -12 -4 -20 8 -12 16 -13 15 -8 -10
3 -15 0 -34 -7 -42 -16 -20 -20 -65 -5 -59 21 8 24 -43 5 -61 -10 -9 -20 -27
-23 -41 -4 -21 -1 -24 28 -24 18 0 36 6 39 13 4 6 17 30 31 52 13 22 27 48 31
58 9 25 21 21 39 -13 20 -39 19 -47 -5 -25 -23 21 -25 10 -6 -36 14 -35 7 -79
-14 -79 -9 0 -12 6 -14 39 -1 8 -7 16 -14 19 -8 2 -10 -2 -6 -13 4 -9 -2 -25
-12 -38 -28 -32 -44 -64 -40 -79 1 -7 1 -10 -1 -5 -3 4 -16 7 -29 7 -15 0 -24
6 -24 15 0 9 -10 29 -22 46 -25 33 -31 110 -10 117 6 2 12 8 12 14 0 6 -6 6
-15 -2 -23 -19 -30 13 -17 69 8 29 9 57 3 76 -9 32 -17 23 -23 -25 -3 -22 -8
-25 -43 -24 -22 0 -48 4 -57 8 -15 7 -18 3 -18 -21 0 -26 7 -33 60 -58 33 -16
60 -32 60 -37 0 -4 -7 -5 -15 -1 -18 6 -44 -23 -45 -49 0 -10 -14 -33 -30 -51
-35 -40 -41 -87 -11 -87 22 0 45 -25 36 -40 -3 -5 -1 -10 6 -10 7 0 9 -3 6 -7
-11 -10 13 -33 34 -33 24 0 25 -43 1 -85 -19 -34 -48 -41 -45 -10 1 11 0 27
-3 35 -8 23 -34 -16 -34 -51 0 -15 -4 -31 -10 -34 -17 -11 -11 -37 11 -42 18
-5 20 -12 18 -57 -1 -28 1 -59 5 -68 11 -24 36 -23 36 2 0 11 4 20 9 20 12 0
12 -72 0 -91 -5 -8 -24 -13 -49 -13 -28 1 -40 -3 -40 -12 0 -9 11 -14 29 -14
16 0 37 -7 45 -16 17 -17 22 -49 6 -39 -6 4 -10 -15 -10 -49 0 -30 -4 -57 -9
-60 -4 -3 -6 -17 -3 -31 5 -29 -21 -75 -43 -75 -13 0 -15 -24 -15 -149 l0
-148 117 -22 c65 -12 133 -24 152 -26 18 -2 41 -7 51 -10 43 -14 56 -13 56 3
0 10 2 51 3 92 3 58 5 68 11 45 4 -16 8 -46 9 -66 1 -24 9 -43 26 -59 14 -13
25 -28 25 -34 0 -6 -7 -3 -14 7 -20 26 -35 21 -27 -9 6 -22 50 -51 266 -171
143 -80 350 -195 460 -257 200 -113 525 -290 855 -466 155 -83 182 -94 235
-98 62 -3 323 38 750 119 272 52 255 47 255 74 0 20 9 24 103 44 109 24 109
24 205 35 l62 8 0 778 c0 613 -3 780 -12 784 -10 5 -10 7 0 12 7 3 12 26 12
57 0 32 -4 47 -9 39 -7 -11 -9 -11 -14 2 -4 10 -1 16 8 16 12 0 15 18 15 96
l0 96 -47 -6 c-27 -3 -140 -15 -253 -26 -237 -24 -618 -67 -672 -76 -30 -5
-38 -3 -38 8 0 12 19 17 88 22 254 21 584 63 593 77 7 11 11 11 17 1 7 -10 35
-9 143 3 74 8 141 15 150 15 14 0 16 23 18 189 l2 189 -41 7 c-53 9 -53 29 0
22 l40 -5 0 241 0 242 -83 33 c-161 63 -411 178 -415 190 -6 18 20 14 79 -12
30 -13 65 -27 78 -31 l25 -8 -27 32 c-34 40 -35 64 -4 59 14 -2 23 -11 25 -25
4 -30 16 -29 37 3 14 22 15 28 4 35 -12 8 -11 11 1 19 8 5 20 10 25 10 19 0
62 45 69 73 7 31 30 35 64 11 15 -10 32 -14 49 -9 22 5 24 3 18 -12 -4 -10
-12 -31 -17 -46 l-10 -28 -30 33 c-19 21 -31 29 -34 21 -3 -7 -12 -13 -20 -13
-8 0 -17 -7 -20 -15 -4 -8 -14 -15 -24 -15 -27 0 -32 -28 -9 -48 26 -21 72
-121 64 -140 -3 -8 11 -20 41 -34 37 -16 51 -18 71 -9 18 8 25 8 28 -2 2 -6 6
-19 8 -27 3 -8 6 26 6 76 1 73 -2 93 -14 98 -8 3 -15 10 -15 17 0 6 7 9 15 5
13 -5 15 21 15 195 l0 199 -22 -14 c-42 -26 -380 -158 -558 -217 -150 -50
-171 -59 -150 -67 118 -46 160 -66 160 -78 0 -8 -8 -14 -17 -14 -21 0 -167 50
-202 69 -16 9 -43 11 -85 7 -33 -3 -171 -13 -306 -21 -277 -17 -332 -23 -324
-36 7 -12 -10 -11 -22 1 -10 10 -200 -3 -284 -20 -25 -5 -94 -11 -155 -15 -60
-3 -128 -10 -150 -15 -22 -5 -60 -10 -85 -10 -58 0 -83 -17 -311 -212 -101
-86 -205 -173 -231 -195 -162 -133 -326 -271 -422 -356 -94 -83 -115 -97 -136
-92 -14 4 -36 8 -50 9 -18 2 -24 8 -22 22 6 29 12 31 30 7 16 -20 20 -21 53
-9 44 15 67 33 175 132 82 74 82 74 73 111 -10 48 0 59 28 27 15 -17 18 -24 7
-24 -8 0 -14 -8 -14 -17 0 -14 4 -12 25 7 22 20 23 25 10 32 -28 16 -16 30 22
26 36 -3 38 -2 38 29 0 18 7 40 17 49 17 17 38 12 38 -9 0 -8 -3 -7 -9 2 -5 7
-14 11 -19 7 -14 -8 -4 -36 12 -36 10 0 183 139 266 214 19 17 47 41 62 52
l27 21 -22 10 c-28 13 -69 -1 -61 -21 10 -26 -14 -26 -31 0 -12 18 -13 29 -6
38 8 9 6 18 -4 32 -14 18 -16 18 -26 2 -23 -39 -55 -10 -43 39 6 21 4 24 -12
21 -13 -3 -18 -11 -17 -26 2 -14 -3 -22 -12 -22 -19 0 -19 2 0 46 20 48 49 44
53 -8 3 -35 5 -37 32 -32 20 5 38 0 59 -16 23 -16 39 -20 61 -15 25 5 31 3 38
-15 8 -20 15 -16 113 65 57 47 113 97 124 111 12 14 31 24 46 24 23 0 25 4 25
39 -1 22 -4 43 -8 47 -5 4 -8 23 -8 43 0 30 8 43 52 83 30 28 61 48 74 48 38
0 38 20 -1 36 -25 10 -41 26 -51 49 -7 18 -18 36 -24 40 -5 3 -10 27 -10 53 0
43 4 49 39 74 33 24 45 45 95 167 32 78 62 141 66 141 14 0 -10 -95 -40 -153
-33 -65 -40 -98 -16 -77 8 6 16 21 18 33 2 15 12 23 32 27 24 4 31 12 41 50
29 104 53 155 83 176 l31 21 -23 22 c-12 11 -34 21 -48 21 -30 0 -58 47 -36
61 23 15 36 10 80 -29 24 -21 52 -44 62 -52 31 -26 107 -94 149 -133 22 -21
49 -43 59 -48 10 -5 64 -47 121 -93 73 -59 118 -88 157 -100 30 -10 65 -29 78
-42 26 -30 29 -72 5 -90 -16 -12 -16 -15 -3 -24 22 -15 30 -12 30 10 0 28 10
25 66 -14 103 -73 300 -204 319 -214 11 -5 38 -13 60 -16 47 -8 134 19 470
146 116 44 229 87 252 95 l43 15 0 354 0 354 -1800 0 -1800 0 0 -475z m1654
260 c-4 -8 -8 -15 -10 -15 -2 0 -4 7 -4 15 0 8 4 15 10 15 5 0 7 -7 4 -15z
m-234 -554 c0 -6 -11 -40 -24 -78 -13 -37 -34 -102 -46 -143 -31 -104 -55
-148 -86 -156 -26 -7 -109 0 -204 16 -30 5 -113 19 -185 30 -225 36 -260 42
-275 51 -45 24 50 18 323 -21 232 -33 305 -40 319 -31 10 6 24 11 31 11 13 0
128 288 127 318 0 6 5 12 10 12 6 0 10 -4 10 -9z m2091 -184 c-13 -13 -26 -3
-16 12 3 6 11 8 17 5 6 -4 6 -10 -1 -17z m-3046 -57 c6 -4 31 -11 57 -14 38
-6 47 -11 52 -32 4 -14 4 -34 1 -45 -4 -11 2 -30 14 -48 17 -24 18 -31 7 -46
-10 -15 -21 -17 -58 -11 -26 4 -49 13 -52 21 -3 8 -13 11 -25 8 -15 -4 -21 -1
-21 11 0 10 9 16 25 16 30 0 85 26 85 40 0 5 -12 13 -27 16 -16 4 -32 9 -38
13 -10 6 -16 7 -35 10 -5 0 -10 9 -10 20 0 10 -7 24 -15 31 -30 25 6 34 40 10z
m2875 0 c0 -5 -4 -10 -10 -10 -5 0 -10 5 -10 10 0 6 5 10 10 10 6 0 10 -4 10
-10z m245 -20 c3 -5 -1 -10 -9 -10 -9 0 -16 5 -16 10 0 6 4 10 9 10 6 0 13 -4
16 -10z m-779 -25 c3 -8 14 -17 25 -20 28 -9 25 -45 -3 -45 -31 0 -589 -47
-660 -56 l-57 -7 3 39 4 39 58 6 c33 4 79 7 104 7 l45 0 -40 -13 -40 -14 45 2
c36 2 44 5 42 19 -4 23 9 25 203 38 94 6 181 13 195 14 58 7 71 5 76 -9z
m-2390 -29 c18 -14 18 -15 -9 -21 -27 -7 -27 -8 -12 -32 16 -24 16 -25 -4 -18
-16 5 -23 1 -30 -18 -11 -29 -31 -44 -31 -24 0 17 18 74 33 105 12 26 25 28
53 8z m3015 -9 c-13 -13 -26 -3 -16 12 3 6 11 8 17 5 6 -4 6 -10 -1 -17z m69
-62 c0 -8 -6 -15 -14 -15 -20 0 -29 17 -14 23 22 9 28 7 28 -8z m-1943 -21
c-3 -3 -12 -4 -19 -1 -8 3 -5 6 6 6 11 1 17 -2 13 -5z m293 -4 c0 -14 -63 -29
-77 -17 -7 5 -10 13 -7 18 7 12 84 11 84 -1z m88 -2 c19 -19 14 -31 -12 -24
-16 4 -24 2 -23 -7 1 -34 -4 -57 -13 -57 -13 0 -13 41 0 74 10 28 29 33 48 14z
m1098 -15 c-10 -10 -19 5 -10 18 6 11 8 11 12 0 2 -7 1 -15 -2 -18z m-1451
-13 c-19 -18 -63 -28 -212 -45 -43 -5 -53 -3 -53 9 0 8 8 17 18 20 17 5 146
23 212 29 19 2 39 5 45 5 5 1 1 -7 -10 -18z m1415 -30 c12 -8 11 -10 -7 -10
-13 0 -23 5 -23 10 0 13 11 13 30 0z m-1370 -20 c0 -5 -11 -10 -25 -10 -14 0
-25 5 -25 10 0 6 11 10 25 10 14 0 25 -4 25 -10z m-1175 -10 c-3 -5 -15 -10
-26 -10 -11 0 -17 5 -14 10 3 6 15 10 26 10 11 0 17 -4 14 -10z m2595 -5 c7
-9 8 -15 2 -15 -5 0 -12 7 -16 15 -3 8 -4 15 -2 15 2 0 9 -7 16 -15z m-2803
-51 c-9 -9 -28 6 -21 18 4 6 10 6 17 -1 6 -6 8 -13 4 -17z m2738 6 c3 -5 1
-10 -4 -10 -6 0 -11 5 -11 10 0 6 2 10 4 10 3 0 8 -4 11 -10z m105 0 c0 -5 -2
-10 -4 -10 -3 0 -8 5 -11 10 -3 6 -1 10 4 10 6 0 11 -4 11 -10z m-2820 -40 c0
-5 -4 -10 -10 -10 -5 0 -10 5 -10 10 0 6 5 10 10 10 6 0 10 -4 10 -10z m560
-5 c10 -13 9 -15 -9 -15 -12 0 -21 6 -21 15 0 8 4 15 9 15 5 0 14 -7 21 -15z
m210 5 c0 -5 -7 -10 -15 -10 -8 0 -15 5 -15 10 0 6 7 10 15 10 8 0 15 -4 15
-10z m980 -37 c0 -10 -32 -43 -42 -43 -12 0 -10 24 4 38 13 13 38 16 38 5z
m-1853 -23 c-4 -16 -1 -18 24 -13 33 6 36 1 13 -26 -31 -36 -66 -5 -48 43 9
23 17 20 11 -4z m105 -32 c-7 -7 -12 -8 -12 -2 0 14 12 26 19 19 2 -3 -1 -11
-7 -17z m1786 -18 c-7 -11 -16 -20 -20 -20 -5 0 -3 9 4 20 7 11 16 20 20 20 5
0 3 -9 -4 -20z m-1918 -1 c0 -5 -17 -17 -37 -26 -24 -10 -32 -17 -23 -20 42
-12 42 -17 5 -24 -46 -8 -60 0 -50 31 10 33 105 68 105 39z m100 -19 c0 -5 -4
-10 -10 -10 -5 0 -10 5 -10 10 0 6 5 10 10 10 6 0 10 -4 10 -10z m2040 -104
c17 -43 29 -80 27 -82 -3 -4 -40 85 -63 151 -18 51 8 2 36 -69z m1035 42 c-1
-13 -7 -23 -12 -23 -6 0 -15 -3 -19 -7 -8 -9 -54 -11 -54 -2 0 3 12 20 27 39
20 25 31 31 43 25 9 -5 16 -19 15 -32z m-2792 -18 c-3 -11 -10 -20 -17 -19
-30 4 -39 -3 -17 -12 34 -13 13 -31 -27 -23 -35 7 -37 11 -18 36 26 35 87 49
79 18z m505 -3 c2 -9 -8 -31 -22 -48 -28 -33 -33 -28 -11 11 22 38 19 53 -10
48 -14 -3 -25 -1 -25 4 0 18 65 4 68 -15z m2363 -34 c-9 -16 -10 -16 -11 -1 0
9 3 25 7 35 7 16 8 17 11 1 2 -10 -1 -25 -7 -35z m-1736 27 c-3 -5 -11 -10
-16 -10 -6 0 -7 5 -4 10 3 6 11 10 16 10 6 0 7 -4 4 -10z m-705 -4 c0 -3 -4
-8 -10 -11 -5 -3 -10 -1 -10 4 0 6 5 11 10 11 6 0 10 -2 10 -4z m402 -19 c17
-27 8 -33 -21 -15 -26 16 -49 4 -57 -29 -4 -15 -17 -40 -30 -55 -12 -15 -25
-45 -29 -68 -4 -22 -11 -42 -16 -46 -15 -9 2 77 22 111 10 16 21 47 25 68 4
26 14 42 28 47 25 11 68 3 78 -13z m-372 -12 c-7 -9 -15 -13 -18 -10 -3 2 1
11 8 20 7 9 15 13 18 10 3 -2 -1 -11 -8 -20z m2059 -41 c1 -7 -5 -14 -13 -17
-14 -6 -14 -2 -6 58 2 11 18 -24 19 -41z m-1981 -1 c-14 -52 -20 -55 -14 -8 6
49 4 45 15 45 6 0 5 -15 -1 -37z m-103 -22 c-4 -17 -10 -31 -15 -31 -5 0 -4
15 1 32 5 18 9 35 9 37 0 2 3 2 6 -2 3 -3 3 -19 -1 -36z m1130 -39 c-2 -2 -17
5 -33 17 -17 12 -35 21 -41 21 -12 0 -15 23 -4 34 4 3 24 -10 45 -31 21 -20
36 -39 33 -41z m1004 37 c-19 -12 -24 -2 -8 17 9 11 14 13 17 4 3 -7 -2 -16
-9 -21z m-1395 14 c3 -4 -5 -16 -19 -27 -16 -14 -29 -37 -34 -66 -7 -35 -9
-39 -10 -15 -1 33 33 115 47 115 5 0 12 -3 16 -7z m124 -46 c5 -17 6 -52 2
-77 l-7 -45 -12 33 c-10 25 -19 32 -40 32 -15 0 -31 -4 -36 -9 -11 -10 -55 3
-55 16 0 11 81 53 102 53 21 0 32 17 16 23 -8 3 -6 6 4 6 11 1 20 -10 26 -32z
m532 -58 c17 -41 56 -137 85 -214 30 -77 100 -257 155 -400 56 -143 116 -303
135 -355 120 -342 431 -1204 467 -1296 l44 -111 -20 -41 c-21 -40 -22 -40
-106 -56 -47 -9 -121 -21 -165 -27 -44 -6 -172 -26 -285 -45 -113 -19 -259
-44 -325 -54 -66 -11 -130 -23 -142 -26 -18 -5 -23 -2 -23 12 0 17 18 22 148
42 81 13 183 30 227 37 44 8 190 33 325 56 318 53 330 56 330 83 0 11 -38 124
-84 251 -94 255 -86 234 -324 915 -169 484 -256 717 -446 1207 -20 51 -36 96
-36 99 0 15 11 -5 40 -77z m777 26 c0 -26 6 -52 15 -62 8 -10 18 -29 21 -42 5
-20 3 -23 -19 -18 -23 4 -25 2 -20 -19 9 -35 -9 -29 -24 7 -10 23 -10 33 -1
42 9 9 14 8 21 -3 19 -31 20 0 1 36 -28 51 -28 104 -1 104 4 0 7 -20 7 -45z
m-517 20 c-7 -8 -16 -15 -21 -15 -5 0 -6 7 -3 15 4 8 13 15 21 15 13 0 13 -3
3 -15z m410 -5 c0 -5 -7 -10 -15 -10 -8 0 -15 5 -15 10 0 6 7 10 15 10 8 0 15
-4 15 -10z m-1737 -94 c-18 -24 -30 -31 -35 -23 -4 6 0 19 8 28 8 9 12 24 8
33 -4 10 -1 16 9 16 8 0 18 8 23 18 6 14 8 12 12 -10 2 -19 -5 -38 -25 -62z
m1795 47 c2 -19 -4 -38 -18 -54 l-21 -24 7 30 c4 17 8 43 7 58 0 37 21 29 25
-10z m79 5 c-3 -8 -6 -5 -6 6 -1 11 2 17 5 13 3 -3 4 -12 1 -19z m-117 7 c0
-3 -4 -13 -9 -23 -5 -9 -12 -25 -15 -34 -6 -20 -36 -14 -36 8 0 8 -4 14 -10
14 -5 0 -10 5 -10 11 0 5 4 8 9 5 5 -3 11 1 15 9 5 13 56 22 56 10z m-1342
-56 c-17 -10 -28 -2 -21 17 4 11 8 12 20 3 11 -10 11 -14 1 -20z m882 11 c0
-5 -4 -10 -10 -10 -5 0 -10 5 -10 10 0 6 5 10 10 10 6 0 10 -4 10 -10z m-1776
-10 c33 -12 34 -30 1 -30 -15 0 -25 6 -25 14 0 8 -6 17 -12 19 -25 10 10 7 36
-3z m2402 -58 c-9 -8 -13 0 -19 38 l-6 35 15 -34 c8 -18 13 -36 10 -39z m-225
23 c-1 -15 -24 -12 -29 3 -3 9 2 13 12 10 10 -1 17 -7 17 -13z m268 -25 c0
-10 -3 -8 -9 5 -12 27 -12 43 0 25 5 -8 9 -22 9 -30z m-1875 24 c9 -3 16 -16
16 -29 0 -22 -2 -22 -40 -13 -54 14 -53 37 2 47 3 0 13 -2 22 -5z m1171 -25
c-9 -17 -19 -28 -22 -25 -8 8 17 56 29 56 5 0 1 -14 -7 -31z m-529 10 c3 -6 2
-15 -4 -21 -7 -7 -14 -3 -21 11 -10 17 -9 21 3 21 8 0 18 -5 22 -11z m-961
-39 c3 -5 1 -10 -4 -10 -6 0 -11 5 -11 10 0 6 2 10 4 10 3 0 8 -4 11 -10z
m333 -23 c6 -5 12 -18 11 -30 l0 -22 -11 23 c-12 25 -45 37 -82 30 -18 -4 -22
-1 -19 12 4 14 10 15 46 6 23 -6 48 -15 55 -19z m302 23 c0 -5 -5 -10 -11 -10
-5 0 -7 5 -4 10 3 6 8 10 11 10 2 0 4 -4 4 -10z m1410 -33 c0 -5 -7 -4 -15 3
-8 7 -15 20 -15 29 1 13 3 13 15 -3 8 -11 15 -24 15 -29z m150 24 c0 -6 -4
-13 -10 -16 -5 -3 -10 1 -10 9 0 9 5 16 10 16 6 0 10 -4 10 -9z m310 -1 c-14
-4 -34 -8 -45 -9 -16 -1 -17 1 -5 9 8 5 29 9 45 9 29 -1 29 -1 5 -9z m-1846
-15 c3 -8 1 -15 -4 -15 -6 0 -10 7 -10 15 0 8 2 15 4 15 2 0 6 -7 10 -15z
m1491 -5 c3 -5 1 -10 -4 -10 -6 0 -11 5 -11 10 0 6 2 10 4 10 3 0 8 -4 11 -10z
m-2169 -20 c15 0 24 -6 24 -15 0 -18 -2 -19 -45 -1 -34 14 -51 34 -19 22 9 -3
27 -6 40 -6z m311 -26 c3 -8 -1 -22 -8 -29 -12 -12 -14 -10 -16 15 -2 32 13
41 24 14z m-711 -51 c-7 -7 -26 7 -26 19 0 6 6 6 15 -2 9 -7 13 -15 11 -17z
m2714 17 c0 -5 -6 -10 -14 -10 -7 0 -19 -7 -26 -15 -13 -15 -30 -12 -30 6 0
10 35 27 58 28 6 1 12 -3 12 -9z m-3067 -17 c11 -10 -13 -33 -34 -33 -12 0
-19 7 -19 20 0 14 7 20 23 20 13 0 27 -3 30 -7z m2376 -7 c-2 -2 -15 -9 -29
-15 -24 -11 -24 -11 -6 3 16 13 49 24 35 12z m131 1 c0 -2 -10 -12 -21 -23
-22 -19 -22 -19 -8 4 12 19 29 30 29 19z m386 -64 c-11 -11 -19 6 -11 24 8 17
8 17 12 0 3 -10 2 -21 -1 -24z m41 5 c-3 -8 -6 -5 -6 6 -1 11 2 17 5 13 3 -3
4 -12 1 -19z m-2795 -38 c16 -31 16 -36 3 -50 -25 -25 -50 -1 -51 49 0 52 23
53 48 1z m2512 24 c11 -27 7 -84 -8 -112 -16 -31 -54 -68 -61 -60 -7 7 44 98
55 98 5 0 2 13 -6 29 -14 27 -10 61 6 61 4 0 11 -7 14 -16z m-2044 -74 c-9
-17 -30 -28 -30 -16 0 16 15 36 26 36 12 0 12 -4 4 -20z m447 -27 c-3 -10 -5
-4 -5 12 0 17 2 24 5 18 2 -7 2 -21 0 -30z m-1186 -10 c12 -15 12 -16 -1 -8
-8 4 -4 -4 10 -19 21 -23 22 -29 10 -37 -13 -8 -13 -10 -1 -18 21 -14 5 -41
-24 -41 -24 0 -25 3 -25 54 0 48 7 86 15 86 1 0 9 -8 16 -17z m1880 -1 c-13
-2 -27 0 -32 5 -6 6 3 7 23 4 28 -4 29 -6 9 -9z m-1621 -7 c8 5 11 4 6 -3 -7
-11 -46 -13 -46 -2 0 14 14 20 21 9 4 -6 12 -8 19 -4z m-96 -21 c9 -8 16 -21
16 -28 0 -6 15 -16 33 -21 21 -7 33 -17 35 -31 3 -19 -1 -21 -29 -19 -18 1
-38 10 -44 18 -7 9 -14 14 -17 12 -13 -14 -34 42 -29 78 2 12 19 8 35 -9z
m1406 -3 c0 -16 -13 -20 -31 -10 -27 14 -23 27 6 21 14 -2 25 -8 25 -11z
m-810 -11 c-6 -11 -17 -20 -25 -20 -20 0 -19 10 3 26 25 19 34 17 22 -6z m402
-60 c1 -19 -1 -37 -7 -40 -6 -3 -11 17 -13 50 -2 60 13 52 20 -10z m56 38 c-7
-13 -14 -25 -16 -28 -2 -2 -7 2 -12 10 -7 11 -3 18 13 27 29 16 29 16 15 -9z
m-188 -23 c-7 -8 -17 -15 -23 -15 -5 0 -2 9 8 20 21 23 35 19 15 -5z m-950
-15 c0 -5 -4 -10 -10 -10 -5 0 -10 5 -10 10 0 6 5 10 10 10 6 0 10 -4 10 -10z
m2313 -30 c-4 -4 -60 -13 -123 -18 -210 -19 -653 -62 -800 -77 -80 -8 -201
-20 -270 -25 -69 -6 -210 -19 -315 -30 -104 -11 -248 -24 -320 -30 -71 -6
-155 -17 -185 -25 -30 -8 -66 -17 -80 -21 -48 -13 -6 12 49 29 56 18 186 33
811 92 370 35 758 72 1060 101 85 8 156 17 158 19 3 2 9 2 14 -1 5 -4 6 -10 1
-14z m-2279 -6 c15 -40 -29 -83 -64 -64 -11 6 -20 16 -20 23 0 8 4 7 10 -3 9
-14 25 -7 25 10 0 12 28 50 36 50 4 0 10 -7 13 -16z m3250 -117 c-2 -7 7 -24
21 -37 14 -13 25 -30 25 -38 0 -7 -11 0 -25 16 -14 17 -40 34 -58 38 l-32 7
30 13 c39 17 46 17 39 1z m-3348 -24 c18 -25 17 -36 -2 -29 -14 5 -15 4 -5 -8
11 -13 16 -12 34 10 14 15 28 23 37 19 15 -6 60 -69 60 -84 0 -5 7 -14 15 -21
13 -11 13 -14 -2 -26 -27 -20 -42 -17 -81 17 -23 20 -38 27 -40 20 -2 -7 -15
-16 -28 -21 -17 -7 -24 -17 -24 -36 0 -15 -3 -24 -7 -21 -15 15 -41 108 -36
128 4 12 0 25 -8 30 -12 8 -11 12 5 24 27 20 66 19 82 -2z m2224 -25 c0 -19
-2 -20 -10 -8 -13 19 -13 30 0 30 6 0 10 -10 10 -22z m-1080 -42 c-16 -16 -22
-18 -32 -8 -15 15 -1 28 32 28 20 0 20 0 0 -20z m444 -1 c-17 -13 -17 -14 -1
-15 9 0 17 -6 17 -14 0 -14 -31 -45 -36 -36 -1 3 -6 1 -11 -4 -5 -5 -3 -6 5
-2 7 4 12 1 12 -8 0 -9 -6 -16 -14 -16 -8 0 -17 -6 -19 -12 -3 -8 -6 -5 -6 6
-1 29 42 116 58 116 11 0 9 -4 -5 -15z m724 -10 c-3 -3 -9 2 -12 12 -6 14 -5
15 5 6 7 -7 10 -15 7 -18z m-665 -4 c3 -11 -1 -22 -8 -24 -8 -4 -10 3 -7 19 5
29 8 30 15 5z m1692 -19 c-8 -8 -25 10 -25 26 0 13 2 13 14 -4 8 -10 13 -21
11 -22z m-2881 13 c3 -8 1 -15 -4 -15 -6 0 -10 7 -10 15 0 8 2 15 4 15 2 0 6
-7 10 -15z m1731 5 c3 -5 2 -10 -4 -10 -5 0 -13 5 -16 10 -3 6 -2 10 4 10 5 0
13 -4 16 -10z m55 -22 c0 -5 -4 -8 -10 -8 -5 0 -10 10 -10 23 0 18 2 19 10 7
5 -8 10 -18 10 -22z m470 11 c24 -20 25 -20 1 -9 -13 7 -34 10 -47 7 -23 -4
-31 3 -17 16 12 13 38 7 63 -14z m-1700 2 c0 -5 -7 -12 -16 -15 -14 -5 -15 -4
-4 9 14 17 20 19 20 6z m691 -14 c-10 -9 -11 -8 -5 6 3 10 9 15 12 12 3 -3 0
-11 -7 -18z m622 -9 c4 -12 5 -23 4 -25 -7 -7 -47 29 -42 38 11 17 33 9 38
-13z m-610 -38 c3 -11 2 -18 -3 -15 -4 3 -10 14 -13 25 -3 11 -2 18 3 15 4 -3
10 -14 13 -25z m489 -52 c-4 -88 -17 -99 -45 -39 -14 32 -15 43 -6 65 17 36
27 32 32 -11 l4 -38 0 40 c-1 34 10 75 17 63 1 -2 0 -38 -2 -80z m-1162 53
c14 -27 12 -41 -2 -16 -12 19 -13 18 -19 -10 -6 -29 -7 -29 -8 8 -1 40 12 49
29 18z m27 -3 c-3 -8 -6 -5 -6 6 -1 11 2 17 5 13 3 -3 4 -12 1 -19z m1326 1
c4 -16 3 -18 -9 -8 -16 13 -19 29 -5 29 5 0 11 -9 14 -21z m757 6 c0 -8 -7
-15 -15 -15 -26 0 -18 20 13 29 1 1 2 -6 2 -14z m-2211 -36 c-20 -12 -22 -4
-8 23 12 21 13 21 17 4 2 -10 -2 -22 -9 -27z m-760 -5 c-15 -19 -40 -18 -33 1
4 8 10 12 15 9 5 -3 9 0 9 6 0 6 5 8 10 5 8 -5 7 -11 -1 -21z m1447 -2 c-17
-16 -18 -16 -5 5 7 12 15 20 18 17 3 -2 -3 -12 -13 -22z m-1158 -11 c4 -28
-13 -20 -21 9 -3 14 -1 20 6 17 7 -2 14 -14 15 -26z m1125 12 c3 -5 -1 -14 -8
-20 -11 -10 -13 -9 -12 7 1 20 12 26 20 13z m124 1 c-3 -3 -12 -4 -19 -1 -8 3
-5 6 6 6 11 1 17 -2 13 -5z m-1623 -36 c27 -36 40 -105 19 -100 -7 1 -13 -2
-13 -7 0 -5 -12 -12 -26 -15 -19 -5 -33 -1 -48 13 -12 12 -26 21 -30 21 -8 0
-3 -49 9 -86 5 -17 2 -23 -17 -27 -32 -9 -48 16 -48 74 0 59 13 96 48 132 36
38 74 36 106 -5z m26 12 c0 -5 -2 -10 -4 -10 -3 0 -8 5 -11 10 -3 6 -1 10 4
10 6 0 11 -4 11 -10z m1565 0 c-4 -6 -11 -8 -16 -5 -5 4 -9 2 -9 -4 0 -6 -7
-8 -16 -4 -13 5 -13 7 -2 14 18 12 50 11 43 -1z m1029 -6 c5 -14 4 -15 -9 -4
-17 14 -19 20 -6 20 5 0 12 -7 15 -16z m-1014 -19 c-7 -8 -18 -15 -24 -15 -6
0 -2 7 8 15 25 19 32 19 16 0z m-1523 -52 c-3 -10 -5 -4 -5 12 0 17 2 24 5 18
2 -7 2 -21 0 -30z m983 23 c0 -2 -12 -12 -27 -21 l-28 -18 19 21 c17 20 36 29
36 18z m-194 -33 c-7 -7 -26 7 -26 19 0 6 6 6 15 -2 9 -7 13 -15 11 -17z
m1324 5 c0 -6 -6 -5 -15 2 -8 7 -15 14 -15 16 0 2 7 1 15 -2 8 -4 15 -11 15
-16z m-213 -35 c-3 -10 -5 -2 -5 17 0 19 2 27 5 18 2 -10 2 -26 0 -35z m50 15
c-3 -8 -6 -5 -6 6 -1 11 2 17 5 13 3 -3 4 -12 1 -19z m-605 -30 c-7 -7 -12 -8
-12 -2 0 6 3 14 7 17 3 4 9 5 12 2 2 -3 -1 -11 -7 -17z m708 -8 c0 -5 -7 -10
-15 -10 -8 0 -24 -6 -35 -12 -16 -10 -22 -10 -32 1 -8 8 -8 11 -2 8 7 -4 27 0
45 8 41 17 39 17 39 5z m-1280 -10 c0 -5 -4 -10 -10 -10 -5 0 -10 5 -10 10 0
6 5 10 10 10 6 0 10 -4 10 -10z m1995 0 c3 -5 -1 -10 -9 -10 -9 0 -16 5 -16
10 0 6 4 10 9 10 6 0 13 -4 16 -10z m-101 -44 c-4 -18 2 -29 27 -50 25 -21 29
-30 19 -36 -14 -9 -34 12 -60 63 -12 25 -12 30 0 37 21 13 21 13 14 -14z
m-2659 -13 c-12 -32 -14 -52 -4 -58 15 -10 10 -35 -7 -35 -9 0 -12 -5 -8 -11
4 -7 1 -10 -7 -7 -19 7 -13 87 8 110 20 23 27 23 18 1z m3097 -55 c-9 -9 -12
-4 -11 23 0 32 1 33 11 11 8 -17 8 -26 0 -34z m-3278 2 c19 0 21 -21 4 -38 -9
-9 -9 -12 0 -12 7 0 12 -7 12 -16 0 -8 -4 -12 -10 -9 -5 3 -10 1 -10 -4 0 -6
-12 -11 -26 -11 -23 0 -25 3 -19 29 3 16 7 44 7 62 1 27 3 30 13 15 7 -9 20
-16 29 -16z m1920 -1 c-10 -16 -24 -9 -24 12 0 18 2 19 15 9 8 -7 12 -16 9
-21z m273 -45 c-3 -3 -12 -4 -19 -1 -8 3 -5 6 6 6 11 1 17 -2 13 -5z m-358
-38 c47 -25 55 -41 34 -70 -23 -32 -33 -32 -33 0 0 17 -4 23 -12 18 -8 -5 -9
-2 -5 9 5 13 1 17 -18 17 -13 0 -27 5 -30 10 -5 8 -11 7 -21 -1 -19 -16 -18
-4 2 15 19 20 47 20 83 2z m-1655 -57 c-3 -47 -16 -65 -36 -53 -7 5 -20 7 -30
6 -26 -5 -29 12 -8 45 12 20 29 33 47 36 15 2 28 5 29 6 1 0 0 -18 -2 -40z
m-195 22 c18 -11 5 -31 -20 -31 -12 0 -19 7 -19 20 0 21 16 26 39 11z m2394
-11 c9 -11 17 -25 17 -30 0 -5 8 -7 18 -3 14 5 15 3 5 -7 -21 -23 -43 -20 -49
6 -3 13 -10 24 -15 24 -5 0 -9 7 -9 15 0 21 12 19 33 -5z m-2376 -48 c-15 -15
-31 -22 -41 -19 -24 9 -19 24 9 31 14 4 31 15 38 27 10 17 12 17 15 3 2 -9 -7
-28 -21 -42z m1278 38 c-4 -11 0 -34 9 -50 14 -29 14 -31 -9 -46 -19 -13 -27
-13 -44 -2 -27 16 -27 44 -1 60 11 7 20 20 20 29 0 18 9 29 22 29 5 0 6 -9 3
-20z m430 10 c3 -5 1 -10 -4 -10 -6 0 -11 5 -11 10 0 6 2 10 4 10 3 0 8 -4 11
-10z m45 -11 c0 -6 -4 -7 -10 -4 -5 3 -10 11 -10 16 0 6 5 7 10 4 6 -3 10 -11
10 -16z m485 11 c3 -5 1 -10 -4 -10 -6 0 -11 5 -11 10 0 6 2 10 4 10 3 0 8 -4
11 -10z m-1585 -4 c0 -3 -4 -8 -10 -11 -5 -3 -10 -1 -10 4 0 6 5 11 10 11 6 0
10 -2 10 -4z m463 -26 c-3 -11 -12 -20 -19 -20 -12 0 -12 4 -2 20 7 11 16 20
19 20 4 0 5 -9 2 -20z m33 -3 c-3 -14 1 -32 9 -43 20 -27 20 -51 0 -34 -8 7
-15 22 -15 34 0 17 -2 18 -10 6 -5 -8 -12 -11 -16 -7 -4 4 -2 13 4 19 7 7 12
20 12 30 0 10 5 18 11 18 7 0 9 -9 5 -23z m2254 -17 c0 -5 -5 -10 -11 -10 -5
0 -7 5 -4 10 3 6 8 10 11 10 2 0 4 -4 4 -10z m-2820 -62 c0 -9 -5 -20 -11 -24
-8 -4 -9 0 -4 15 8 25 -19 30 -29 5 -4 -12 -10 -13 -19 -6 -6 6 -15 11 -19 11
-11 1 -12 4 -4 29 8 23 26 31 26 10 0 -8 6 -6 17 5 16 16 18 16 30 -5 7 -13
12 -31 13 -40z m1205 42 c10 -11 16 -20 13 -20 -3 0 -13 9 -23 20 -10 11 -16
20 -13 20 3 0 13 -9 23 -20z m405 6 c0 -2 -8 -10 -17 -17 -16 -13 -17 -12 -4
4 13 16 21 21 21 13z m-2162 -38 c-2 -15 -11 -24 -25 -26 -19 -3 -23 1 -23 22
0 21 5 26 26 26 21 0 25 -4 22 -22z m3352 -18 c0 -5 -5 -10 -11 -10 -5 0 -7 5
-4 10 3 6 8 10 11 10 2 0 4 -4 4 -10z m-1140 -13 c0 -7 -7 -22 -15 -33 -8 -10
-15 -27 -15 -37 0 -15 -4 -16 -20 -7 -19 10 -19 11 8 50 28 41 42 50 42 27z
m-495 -57 c-5 -15 -13 -20 -26 -17 -10 3 -24 -1 -30 -9 -9 -11 -15 -11 -25 -3
-19 15 -18 29 2 29 8 0 12 -4 9 -10 -3 -5 -1 -10 4 -10 6 0 11 5 11 10 0 6 9
19 21 31 25 25 45 13 34 -21z m530 30 c3 -5 14 -10 24 -10 10 0 24 -7 31 -15
7 -8 17 -12 24 -8 6 3 3 -3 -6 -14 -10 -11 -18 -24 -18 -29 0 -13 -39 -36 -50
-29 -6 4 -10 19 -10 35 0 22 5 29 23 32 20 3 19 5 -10 18 -18 8 -33 18 -33 22
0 11 18 10 25 -2z m125 -9 c0 -5 -7 -11 -14 -14 -10 -4 -13 -1 -9 9 6 15 23
19 23 5z m-2460 -21 c0 -5 -10 -12 -22 -16 -13 -4 -26 -12 -30 -18 -4 -7 -9
-4 -14 7 -9 25 12 45 41 39 14 -2 25 -8 25 -12z m988 -131 c-7 -5 -20 -9 -28
-9 -11 1 -9 6 8 19 12 11 23 25 23 33 1 7 4 2 6 -11 3 -13 -1 -27 -9 -32z
m342 43 c0 -5 -11 -14 -25 -20 -16 -7 -25 -8 -25 -1 0 5 10 14 23 19 29 11 27
11 27 2z m-677 -9 c-7 -2 -19 -2 -25 0 -7 3 -2 5 12 5 14 0 19 -2 13 -5z m243
-68 c-11 -8 -24 -15 -30 -15 -5 0 -1 7 10 15 10 8 24 14 29 14 6 0 1 -6 -9
-14z m39 -25 c6 -10 -76 -97 -111 -117 -19 -10 -20 -9 -16 13 2 14 28 43 61
69 64 51 58 48 66 35z m2182 4 c-3 -3 -12 -4 -19 -1 -8 3 -5 6 6 6 11 1 17 -2
13 -5z m-832 -14 c3 -5 -1 -20 -9 -32 -11 -15 -12 -26 -5 -40 11 -20 -1 -24
-18 -7 -8 8 -8 20 -3 35 5 13 7 31 4 39 -7 17 21 21 31 5z m890 -9 c3 -5 1
-12 -5 -16 -5 -3 -10 1 -10 9 0 18 6 21 15 7z m-91 -29 c-4 -19 1 -34 15 -51
27 -30 23 -45 -13 -49 -27 -3 -27 -3 -21 45 8 55 14 83 20 83 3 0 2 -12 -1
-28z m-674 7 c0 -12 -60 -72 -67 -66 -8 9 10 37 25 37 8 0 12 3 9 7 -8 7 11
33 24 33 5 0 9 -5 9 -11z m-830 -19 c0 -5 -13 -10 -29 -10 -32 0 -46 -21 -28
-40 9 -9 8 -11 -8 -8 -13 2 -20 12 -22 30 -1 24 2 27 35 31 20 2 40 4 45 5 4
1 7 -2 7 -8z m730 -11 c0 -11 -4 -17 -10 -14 -5 3 -10 13 -10 21 0 8 5 14 10
14 6 0 10 -9 10 -21z m-1265 -39 c-9 -17 -27 -35 -40 -40 -18 -7 -25 -17 -25
-35 0 -15 -6 -25 -14 -25 -11 0 -12 8 -6 35 12 52 43 99 70 105 32 8 35 -1 15
-40z m2396 17 c-8 -8 -11 -7 -11 4 0 20 13 34 18 19 3 -7 -1 -17 -7 -23z
m-1891 3 c0 -5 -4 -10 -10 -10 -5 0 -10 5 -10 10 0 6 5 10 10 10 6 0 10 -4 10
-10z m-454 -27 c-10 -10 -19 5 -10 18 6 11 8 11 12 0 2 -7 1 -15 -2 -18z
m-168 -21 c2 -7 -3 -12 -12 -12 -9 0 -16 7 -16 16 0 17 22 14 28 -4z m136 -35
c-3 -9 -10 -17 -15 -17 -11 0 -12 34 -2 44 11 11 24 -9 17 -27z m1241 -18 c-6
-9 -35 -1 -35 10 0 4 3 11 7 14 8 9 34 -13 28 -24z m-1449 -16 c-10 -10 -19 5
-10 18 6 11 8 11 12 0 2 -7 1 -15 -2 -18z m1414 -35 c0 -5 -11 -8 -25 -8 -14
0 -25 4 -25 9 0 5 11 8 25 7 14 0 25 -4 25 -8z m14 -46 c-7 -36 -24 -41 -42
-12 -10 17 -8 21 16 34 15 8 28 13 30 12 1 -2 -1 -17 -4 -34z m236 -132 c0 -5
-7 -10 -15 -10 -8 0 -15 5 -15 10 0 6 7 10 15 10 8 0 15 -4 15 -10z m162 -21
c-2 -13 -10 -31 -18 -39 -12 -12 -16 -12 -29 5 -20 27 -19 35 5 35 12 0 20 7
20 16 0 9 6 14 13 11 6 -2 11 -15 9 -28z m-832 -43 c0 -3 -4 -8 -10 -11 -5 -3
-10 -1 -10 4 0 6 5 11 10 11 6 0 10 -2 10 -4z m682 -16 c7 -11 21 -20 30 -20
22 0 23 -8 1 -32 -24 -27 -58 -22 -82 11 -26 36 -26 40 2 51 32 13 36 12 49
-10z m-719 -164 c3 -8 16 -16 29 -18 21 -4 21 -5 5 -13 -14 -6 -26 -1 -45 19
-20 20 -23 26 -10 26 9 0 18 -6 21 -14z"/>
<path d="M2448 4303 c7 -3 16 -2 19 1 4 3 -2 6 -13 5 -11 0 -14 -3 -6 -6z"/>
<path d="M1770 3660 c0 -5 5 -10 11 -10 5 0 7 5 4 10 -3 6 -8 10 -11 10 -2 0
-4 -4 -4 -10z"/>
<path d="M2896 3165 c-9 -26 -7 -32 5 -12 6 10 9 21 6 23 -2 3 -7 -2 -11 -11z"/>
<path d="M1946 4949 l-19 -60 22 -20 c11 -11 21 -28 21 -38 0 -45 67 -48 95
-5 12 18 24 24 52 24 l37 0 -24 17 c-14 9 -53 44 -88 77 -34 34 -66 62 -70 63
-4 2 -15 -24 -26 -58z"/>
<path d="M1950 4726 c-14 -18 -6 -50 13 -44 15 6 22 37 10 49 -6 6 -15 4 -23
-5z"/>
<path d="M1760 4670 c0 -5 4 -10 9 -10 6 0 13 5 16 10 3 6 -1 10 -9 10 -9 0
-16 -4 -16 -10z"/>
<path d="M2400 4641 c0 -5 -10 -13 -22 -17 -21 -6 -21 -7 -3 -20 10 -8 32 -14
48 -14 36 0 67 -16 67 -36 0 -9 6 -14 13 -11 24 8 11 32 -38 69 -51 39 -65 45
-65 29z"/>
<path d="M2029 4633 c-20 -2 -45 -13 -55 -24 -18 -20 -18 -21 1 -35 18 -13 21
-12 38 11 13 17 28 25 48 25 19 0 29 5 29 15 0 8 -6 14 -12 13 -7 -1 -29 -3
-49 -5z"/>
<path d="M1840 4621 c0 -19 -65 -49 -95 -45 -16 3 -37 0 -45 -6 -12 -9 -7 -18
33 -53 36 -32 49 -51 54 -79 3 -21 1 -43 -4 -50 -12 -16 -1 -63 15 -62 7 1 19
2 27 3 26 2 37 48 21 80 -14 26 -13 28 15 45 33 19 39 41 9 33 -24 -6 -36 8
-45 56 -6 31 -5 37 10 37 17 0 44 26 45 43 0 4 -9 7 -20 7 -11 0 -20 -4 -20
-9z"/>
<path d="M1562 4548 c5 -15 28 -18 29 -3 0 6 -7 12 -17 13 -10 3 -15 -1 -12
-10z"/>
<path d="M2089 4518 c-21 -18 -49 -64 -49 -82 0 -9 -12 -18 -27 -21 -62 -13
-74 -40 -19 -40 16 0 31 -6 33 -12 5 -13 63 -19 63 -6 0 3 -7 14 -15 23 -14
15 -14 18 0 30 8 7 15 28 15 47 0 19 5 43 10 54 12 22 10 24 -11 7z"/>
<path d="M1940 4505 c0 -8 7 -15 15 -15 8 0 15 7 15 15 0 8 -7 15 -15 15 -8 0
-15 -7 -15 -15z"/>
<path d="M2440 4439 c0 -5 5 -7 10 -4 6 3 10 8 10 11 0 2 -4 4 -10 4 -5 0 -10
-5 -10 -11z"/>
<path d="M1565 4420 c-4 -6 -2 -17 4 -23 15 -15 25 -2 13 19 -7 12 -11 13 -17
4z"/>
<path d="M2710 4420 c0 -5 -12 -11 -27 -13 -17 -2 -10 -5 20 -6 47 -1 64 12
27 22 -11 3 -20 1 -20 -3z"/>
<path d="M0 4365 c0 -41 3 -55 13 -52 6 2 11 13 9 24 -2 17 7 21 68 32 38 7
68 16 65 21 -3 4 -31 11 -62 14 -32 4 -66 9 -75 12 -16 5 -18 -2 -18 -51z"/>
<path d="M173 4343 c-20 -7 -15 -23 7 -23 11 0 20 4 20 9 0 13 -12 19 -27 14z"/>
<path d="M3290 4220 c0 -5 7 -10 16 -10 8 0 12 5 9 10 -3 6 -10 10 -16 10 -5
0 -9 -4 -9 -10z"/>
<path d="M3375 4180 c3 -5 8 -10 11 -10 2 0 4 5 4 10 0 6 -5 10 -11 10 -5 0
-7 -4 -4 -10z"/>
<path d="M440 4051 c0 -5 5 -13 10 -16 6 -3 10 -2 10 4 0 5 -4 13 -10 16 -5 3
-10 2 -10 -4z"/>
<path d="M90 4023 c1 -27 1 -27 15 -9 19 25 19 36 0 36 -10 0 -15 -10 -15 -27z"/>
<path d="M224 3788 c-11 -13 -27 -27 -36 -31 -22 -8 -23 -21 -4 -36 11 -10 19
-7 36 11 11 12 16 24 10 26 -5 2 -10 8 -10 13 0 4 6 6 13 3 15 -5 44 23 33 33
-3 3 -6 0 -6 -8 0 -11 -2 -12 -9 -1 -6 11 -12 8 -27 -10z m-14 -42 c0 -3 -4
-8 -10 -11 -5 -3 -10 -1 -10 4 0 6 5 11 10 11 6 0 10 -2 10 -4z"/>
<path d="M0 3740 c0 -16 4 -30 10 -30 5 0 8 13 7 30 -3 39 -17 39 -17 0z"/>
<path d="M130 3729 c0 -5 5 -7 10 -4 6 3 10 8 10 11 0 2 -4 4 -10 4 -5 0 -10
-5 -10 -11z"/>
<path d="M87 3688 c-5 -17 -9 -19 -20 -10 -24 20 -27 1 -6 -41 l21 -40 13 24
c31 54 36 72 23 81 -20 12 -25 10 -31 -14z"/>
<path d="M0 3611 l0 -62 38 7 c20 4 38 7 39 8 0 0 -17 25 -38 55 l-39 54 0
-62z"/>
<path d="M435 3650 c-3 -5 -1 -10 4 -10 6 0 11 5 11 10 0 6 -2 10 -4 10 -3 0
-8 -4 -11 -10z"/>
<path d="M171 3594 c0 -11 3 -14 6 -6 3 7 2 16 -1 19 -3 4 -6 -2 -5 -13z"/>
<path d="M296 3573 c-6 -14 -5 -15 5 -6 7 7 10 15 7 18 -3 3 -9 -2 -12 -12z"/>
<path d="M200 3559 c0 -12 5 -19 12 -17 18 6 20 25 3 31 -10 5 -15 0 -15 -14z"/>
<path d="M116 3555 c7 -17 55 -38 65 -28 4 4 -10 15 -31 24 -28 12 -37 13 -34
4z"/>
<path d="M242 3546 c-19 -21 -20 -24 -4 -19 10 2 23 13 30 24 17 26 2 24 -26
-5z"/>
<path d="M307 3509 c7 -7 15 -10 18 -7 3 3 -2 9 -12 12 -14 6 -15 5 -6 -5z"/>
<path d="M0 1532 c0 -272 2 -493 4 -491 2 2 29 74 59 159 79 221 116 320 195
527 39 101 68 191 65 202 -8 30 -44 42 -230 80 l-93 18 0 -495z"/>
<path d="M375 1950 c-3 -5 -1 -10 4 -10 6 0 11 5 11 10 0 6 -2 10 -4 10 -3 0
-8 -4 -11 -10z"/>
<path d="M390 1915 c0 -8 -5 -15 -11 -15 -5 0 -8 -4 -4 -9 3 -6 -1 -25 -10
-43 -10 -23 -13 -25 -9 -8 26 106 -93 -213 -153 -410 -20 -63 -43 -131 -53
-150 -10 -19 -48 -125 -84 -234 l-66 -200 0 -178 c0 -167 1 -178 20 -188 26
-14 26 -40 0 -47 -19 -5 -20 -14 -20 -123 0 -96 3 -119 15 -124 19 -7 19 -26
0 -26 -12 0 -15 -16 -15 -80 l0 -80 35 0 c19 0 35 5 35 10 0 6 7 10 16 10 8 0
12 -4 9 -10 -4 -6 34 -10 106 -10 l112 0 108 61 c59 33 115 69 125 80 15 17
16 21 2 37 -34 39 -39 58 -19 84 11 13 19 33 18 44 -2 15 4 19 28 19 29 0 30
-2 40 -62 6 -34 13 -64 17 -68 3 -4 69 27 146 68 131 70 189 105 291 176 24
17 52 31 63 31 10 0 28 10 40 22 12 12 33 22 47 22 24 1 26 4 23 39 -2 22 1
37 7 37 6 0 11 -13 11 -30 0 -16 2 -30 4 -30 2 0 177 88 389 195 466 236 437
229 557 126 44 -38 93 -72 109 -76 27 -6 53 -35 31 -35 -6 0 -10 -4 -10 -10 0
-14 27 -13 32 2 5 14 42 5 86 -22 30 -18 32 -23 26 -55 -7 -39 -6 -40 31 -23
22 10 28 8 48 -10 16 -15 30 -19 46 -15 41 11 73 -60 34 -74 -23 -9 -33 -23
-33 -50 0 -14 6 -23 15 -23 8 0 15 -9 15 -20 0 -18 4 -17 35 11 38 35 43 53
20 75 -23 24 -19 79 8 97 23 16 24 15 -28 32 -8 2 -15 12 -15 20 0 13 10 16
48 15 70 -3 82 -1 82 11 0 5 -9 9 -19 7 -10 -2 -28 5 -39 15 -17 15 -19 24
-11 50 12 41 85 114 121 123 16 3 41 12 56 20 15 8 37 14 48 14 12 0 33 9 47
20 27 22 72 27 155 17 49 -5 44 -2 66 -45 19 -38 25 -37 32 3 8 45 23 65 49
65 30 0 41 16 24 37 -11 13 -10 18 8 33 20 16 21 21 10 49 -6 17 -14 31 -18
31 -12 0 -190 -37 -374 -79 -99 -22 -265 -54 -370 -71 -184 -29 -305 -53 -339
-66 -10 -4 -16 -1 -16 9 0 9 -14 17 -37 22 -20 3 -66 21 -102 40 -83 42 -670
362 -816 445 -228 130 -265 149 -265 133 0 -8 -6 -13 -12 -10 -7 2 -12 11 -10
19 2 11 -47 43 -155 103 -87 49 -218 123 -292 166 -73 44 -135 79 -137 79 -2
0 -4 -7 -4 -15z m210 -344 c-7 -14 -21 -21 -40 -21 -28 0 -29 -2 -20 -26 6
-14 10 -27 10 -29 0 -2 -18 -1 -39 2 -33 5 -40 2 -45 -15 -4 -11 -5 -25 -4
-32 2 -7 -5 -14 -16 -15 -28 -5 -44 -24 -27 -34 10 -7 10 -11 -4 -22 -9 -8
-26 -22 -37 -33 -16 -14 -22 -16 -28 -5 -11 17 -41 -7 -38 -30 2 -11 -7 -17
-31 -21 -33 -5 -43 -15 -56 -54 -7 -25 -17 -14 -21 24 -4 35 12 70 50 114 14
16 26 32 26 36 0 20 36 20 52 0 14 -18 18 -19 18 -6 0 9 7 16 16 16 11 0 13 6
9 19 -7 23 27 51 61 51 31 0 50 25 27 35 -17 6 -17 7 0 16 13 8 15 14 7 30 -8
15 -7 19 3 19 8 0 20 7 27 14 6 8 33 16 58 18 52 3 64 -12 42 -51z m0 -80
c-19 -28 -40 -41 -40 -25 0 8 54 62 59 58 2 -1 -7 -17 -19 -33z m300 35 c0 -3
-4 -8 -10 -11 -5 -3 -10 -1 -10 4 0 6 5 11 10 11 6 0 10 -2 10 -4z m-39 -19
c-6 -8 -8 -16 -5 -20 3 -3 -6 -13 -20 -22 -14 -10 -26 -26 -26 -36 0 -22 -18
-25 -26 -5 -8 21 27 76 48 76 10 0 18 5 18 10 0 6 5 10 11 10 8 0 9 -4 0 -13z
m279 -32 c14 -16 10 -18 -14 -9 -9 3 -16 10 -16 15 0 14 16 11 30 -6z m-376
-125 c-3 -53 0 -69 11 -74 25 -9 17 -24 -11 -18 -21 4 -25 9 -19 29 4 16 0 35
-10 50 -13 20 -14 30 -5 58 7 22 16 32 25 29 10 -4 12 -23 9 -74z m186 70 c0
-5 -2 -10 -4 -10 -3 0 -8 5 -11 10 -3 6 -1 10 4 10 6 0 11 -4 11 -10z m120
-62 c0 -19 -2 -20 -10 -8 -13 19 -13 30 0 30 6 0 10 -10 10 -22z m-181 -1 c6
-8 14 -28 17 -45 6 -28 4 -32 -15 -32 -11 0 -21 6 -21 14 0 7 -3 28 -6 45 -7
33 5 41 25 18z m-404 -76 c3 -5 1 -12 -5 -16 -5 -3 -10 1 -10 9 0 18 6 21 15
7z m-165 -11 c0 -5 -7 -10 -15 -10 -8 0 -15 5 -15 10 0 6 7 10 15 10 8 0 15
-4 15 -10z m200 -66 c0 -9 -5 -14 -12 -12 -18 6 -21 28 -4 28 9 0 16 -7 16
-16z m558 -26 c23 -11 42 -26 42 -33 0 -12 -59 -55 -92 -68 -14 -5 -17 -15
-13 -51 3 -31 0 -48 -10 -56 -9 -8 -15 -31 -15 -60 0 -33 -5 -50 -15 -53 -19
-8 -30 10 -16 27 17 21 1 26 -31 10 -15 -8 -34 -14 -41 -12 -6 1 -22 -3 -34
-10 -28 -15 -63 4 -81 44 -13 27 2 61 43 96 19 16 19 17 2 18 -25 0 -16 24 11
28 26 4 28 15 7 36 -19 18 -19 26 0 26 8 0 20 12 28 26 32 61 124 74 215 32z
m-804 13 c7 -10 -22 -37 -30 -28 -9 8 3 37 15 37 5 0 12 -4 15 -9z m106 -11
c0 -5 -9 -10 -19 -10 -11 0 -23 5 -26 10 -4 6 5 10 19 10 14 0 26 -4 26 -10z
m-150 -50 c0 -10 -4 -22 -10 -25 -5 -3 -10 -17 -10 -31 0 -17 -5 -24 -19 -24
-23 0 -40 22 -23 28 7 2 12 13 12 25 0 24 28 59 41 51 5 -3 9 -14 9 -24z
m1344 -26 c23 -9 20 -24 -4 -24 -11 0 -20 -7 -20 -15 0 -8 5 -15 10 -15 6 0
10 -7 10 -15 0 -23 -61 -8 -85 21 -12 13 -28 24 -38 24 -9 0 -17 7 -17 15 0
12 14 15 64 15 35 0 71 -3 80 -6z m-1254 -18 c0 -8 -4 -17 -8 -20 -13 -8 -35
11 -28 23 10 16 36 14 36 -3z m893 -50 c33 -25 36 -31 22 -39 -12 -6 -22 -4
-33 8 -9 9 -24 21 -33 28 -9 7 -19 26 -23 42 -6 30 -6 30 11 10 10 -11 35 -34
56 -49z m157 43 c0 -5 -4 -9 -10 -9 -5 0 -10 7 -10 16 0 8 5 12 10 9 6 -3 10
-10 10 -16z m-882 -21 c18 -16 15 -23 -12 -26 -13 -1 -30 6 -39 16 -14 16 -13
17 11 19 15 1 33 -3 40 -9z m1188 -39 c0 -24 4 -56 8 -71 6 -22 4 -29 -10 -35
-15 -6 -15 -7 4 -14 27 -10 28 -26 2 -34 -11 -3 -20 -15 -20 -26 0 -23 -18
-25 -26 -4 -4 8 -12 15 -20 15 -8 0 -11 -6 -8 -15 4 -10 -3 -18 -20 -25 -14
-5 -26 -17 -26 -26 0 -9 -9 -18 -20 -21 -26 -7 -26 -21 2 -25 12 -2 23 -9 26
-15 5 -18 -27 -28 -48 -15 -13 8 -21 7 -31 -3 -19 -19 -39 -5 -43 31 -3 22 4
35 28 56 l31 27 -29 24 c-20 16 -27 29 -23 40 9 23 34 21 49 -3 15 -24 26 -25
64 -5 16 8 41 15 57 15 15 0 27 5 27 11 0 6 -12 9 -27 7 -23 -2 -29 1 -31 22
-2 14 -9 31 -14 38 -8 9 -3 15 21 23 32 11 42 29 16 29 -8 0 -15 5 -15 10 0 6
9 10 19 10 10 0 22 7 25 16 12 30 31 8 32 -37z m-1396 6 c0 -12 -28 -35 -44
-35 -11 0 -6 26 6 38 17 17 38 15 38 -3z m-145 -25 c-3 -5 -11 -10 -16 -10 -6
0 -7 5 -4 10 3 6 11 10 16 10 6 0 7 -4 4 -10z m222 -5 c3 -9 -2 -22 -13 -30
-11 -7 -16 -16 -12 -20 10 -10 48 14 48 30 0 10 10 15 30 15 21 0 30 -5 30
-17 0 -9 7 -24 15 -33 33 -36 3 -56 -77 -50 -15 1 -43 -6 -62 -15 -29 -14 -37
-24 -41 -54 -10 -63 -20 -93 -30 -91 -6 0 -8 19 -6 43 l3 42 -22 -20 c-18 -17
-21 -28 -18 -67 3 -27 3 -48 0 -48 -15 0 -31 40 -32 76 0 42 25 78 50 72 7 -2
13 11 14 34 4 47 22 71 49 62 17 -5 19 -3 12 12 -13 34 -10 48 15 61 32 17 39
16 47 -2z m942 -9 c9 -10 9 -16 1 -21 -12 -7 -40 11 -40 26 0 14 26 10 39 -5z
m168 2 c37 -13 42 -42 8 -44 -11 -1 -29 -4 -41 -8 -15 -4 -26 1 -42 23 -11 16
-18 31 -15 35 10 10 54 7 90 -6z m-762 -78 c-14 -15 -21 -17 -32 -9 -18 16
-16 36 5 48 12 7 21 6 31 -4 13 -13 12 -17 -4 -35z m-110 -11 c12 -19 -5 -23
-22 -6 -16 16 -16 17 -1 17 9 0 20 -5 23 -11z m-61 -15 c4 -9 4 -19 2 -21 -9
-10 -46 9 -46 23 0 19 36 18 44 -2z m864 10 c38 -11 24 -24 -22 -22 -34 2 -42
6 -34 16 12 13 22 15 56 6z m-18 -104 c0 -5 -7 -10 -15 -10 -8 0 -15 5 -15 10
0 6 7 10 15 10 8 0 15 -4 15 -10z m-620 -47 c0 -37 -24 -22 -28 17 -3 30 -2
32 12 21 9 -8 16 -25 16 -38z m102 9 c7 -9 25 -23 41 -29 32 -15 34 -28 6 -43
-18 -10 -26 -6 -60 30 -38 40 -43 60 -14 60 8 0 20 -8 27 -18z m298 4 c0 -17
-27 -29 -35 -16 -4 6 -3 15 0 20 9 15 35 12 35 -4z m-1080 -66 c0 -5 -4 -10
-10 -10 -5 0 -10 5 -10 10 0 6 5 10 10 10 6 0 10 -4 10 -10z m205 -30 c-3 -5
-17 -10 -31 -10 -13 0 -24 5 -24 10 0 6 14 10 31 10 17 0 28 -4 24 -10z m595
-51 c0 -12 -27 -11 -35 1 -11 17 5 32 21 19 8 -6 14 -15 14 -20z m60 15 c0
-11 -5 -14 -16 -10 -9 3 -20 6 -25 6 -5 0 -9 5 -9 10 0 6 11 10 25 10 16 0 25
-6 25 -16z m86 2 c8 -8 14 -22 14 -30 0 -24 24 -19 35 6 6 13 18 24 28 26 13
3 17 -4 17 -31 0 -26 -5 -36 -25 -45 -14 -6 -25 -18 -25 -27 0 -17 -9 -19 -29
-6 -8 5 -24 6 -35 2 -12 -5 -27 -6 -33 -4 -15 6 -17 39 -3 48 6 3 10 19 10 34
0 42 19 53 46 27z m154 4 c0 -5 -7 -10 -16 -10 -8 0 -12 5 -9 10 3 6 10 10 16
10 5 0 9 -4 9 -10z m-550 -20 c0 -5 -9 -10 -21 -10 -11 0 -17 5 -14 10 3 6 13
10 21 10 8 0 14 -4 14 -10z m102 -5 c7 -9 19 -22 26 -30 39 -43 -14 -67 -64
-28 -19 14 -34 29 -34 34 0 5 0 12 -1 17 0 6 29 18 53 21 4 1 13 -6 20 -14z
m483 -26 c9 -38 -2 -49 -37 -42 -32 6 -35 19 -12 51 21 31 41 27 49 -9z
m-1092 -40 c18 -20 27 -26 27 -16 0 33 24 29 56 -9 37 -43 39 -54 22 -87 -6
-12 -14 -29 -18 -37 -4 -8 -15 -15 -25 -15 -24 0 -31 48 -10 65 19 16 20 50 1
50 -8 0 -18 -4 -21 -10 -20 -32 -68 3 -80 58 -9 42 11 43 48 1z m508 5 c8 -8
20 -14 26 -14 18 0 46 -39 40 -55 -8 -19 -24 -19 -59 -1 -27 14 -28 14 -28 -9
0 -38 -20 -40 -52 -6 -16 17 -33 31 -39 31 -6 0 -6 7 1 19 14 26 13 31 -5 25
-8 -4 -15 -2 -15 4 0 30 98 35 131 6z m-261 -94 c0 -11 -7 -20 -15 -20 -15 0
-21 21 -8 33 12 13 23 7 23 -13z m130 3 c0 -5 14 -17 30 -28 31 -21 41 -55 16
-55 -16 0 -66 60 -66 78 0 7 5 12 10 12 6 0 10 -3 10 -7z m295 -41 c2 -33 -18
-46 -47 -30 -35 19 -55 17 -79 -8 -25 -27 -39 -30 -57 -12 -23 23 30 67 75 59
6 -1 14 3 18 9 4 6 25 10 48 8 34 -3 41 -7 42 -26z m-710 -56 c23 -16 14 -46
-14 -46 -11 0 -25 9 -31 20 -20 36 9 53 45 26z m616 -23 c-6 -10 -12 -30 -16
-45 -8 -39 -20 -35 -23 8 -3 43 3 54 29 54 15 0 17 -4 10 -17z m-491 -108 c0
-8 -4 -15 -10 -15 -5 0 -7 7 -4 15 4 8 8 15 10 15 2 0 4 -7 4 -15z m10 -96 c0
-12 -9 -37 -21 -55 -35 -58 -98 -38 -70 22 9 21 14 23 31 14 26 -14 40 -6 33
20 -4 14 0 20 11 20 10 0 16 -8 16 -21z"/>
<path d="M517 1571 c-19 -32 -23 -56 -7 -46 6 3 10 15 10 25 0 10 5 20 12 22
6 2 9 10 7 16 -2 7 -12 0 -22 -17z"/>
<path d="M557 553 c-8 -7 21 -43 34 -43 5 0 3 11 -3 25 -11 26 -19 30 -31 18z"/>
<path d="M3538 1227 c-21 -6 -38 -15 -38 -20 0 -5 6 -7 14 -4 8 3 31 9 50 13
20 3 36 10 36 15 0 11 -13 10 -62 -4z"/>
<path d="M3312 1183 c-35 -8 -61 -17 -58 -20 8 -8 135 18 142 28 7 11 -6 10
-84 -8z"/>
<path d="M3532 1193 c-49 -6 -67 -51 -79 -200 -2 -35 -8 -63 -13 -63 -9 0 -60
-105 -60 -123 0 -5 19 11 43 36 31 34 52 47 82 52 84 14 95 26 68 73 -16 28
-16 33 5 96 12 36 22 82 22 101 0 37 2 36 -68 28z"/>
<path d="M1970 828 c-170 -76 -688 -350 -863 -457 -35 -21 -119 -69 -188 -106
-68 -37 -178 -98 -244 -135 -66 -38 -145 -82 -175 -99 l-55 -31 1249 0 1248 0
-133 140 c-74 78 -163 173 -198 213 -87 100 -451 466 -474 479 -14 7 -33 6
-65 -3 -35 -10 -47 -10 -50 -1 -4 14 -19 14 -52 0z"/>
<path d="M3165 802 c-11 -11 -101 -19 -118 -10 -12 6 -23 6 -30 0 -7 -6 -39
-17 -71 -26 -70 -18 -84 -29 -66 -50 10 -13 9 -17 -4 -22 -15 -6 -23 -44 -10
-44 4 0 25 15 48 33 23 18 59 39 82 46 36 12 46 11 79 -5 37 -17 38 -17 51 2
27 39 37 45 67 42 42 -4 66 -48 78 -139 7 -59 6 -74 -8 -97 -10 -15 -22 -30
-28 -34 -5 -4 -8 -23 -7 -42 3 -30 -1 -37 -27 -51 -21 -10 -31 -23 -31 -38 0
-28 -107 -137 -134 -137 -11 0 -43 -8 -72 -17 -98 -30 -138 18 -69 81 41 38
48 72 13 62 -13 -3 -40 -6 -60 -6 -25 0 -45 -8 -63 -24 l-27 -25 26 -33 c14
-18 65 -72 114 -120 81 -80 112 -102 112 -80 0 4 30 38 66 75 63 66 68 69 118
71 76 3 88 -6 81 -58 -9 -55 6 -62 80 -39 l54 17 -34 23 c-19 13 -42 23 -52
23 -31 0 -43 21 -43 71 0 35 5 51 18 61 12 9 19 26 19 53 1 63 13 102 39 126
21 19 27 21 49 11 14 -7 28 -12 30 -12 10 0 4 39 -6 46 -7 4 -9 23 -5 50 4 32
2 44 -7 44 -13 0 -124 118 -143 153 -9 16 -23 21 -57 22 -26 2 -49 0 -52 -3z"/>
<path d="M3542 680 c-7 -11 -19 -20 -27 -20 -27 0 -16 -18 15 -25 39 -8 50 0
50 36 0 34 -19 38 -38 9z"/>
<path d="M2802 635 c24 -36 41 -40 46 -12 2 9 -9 22 -27 31 -42 22 -44 20 -19
-19z"/>
<path d="M3493 459 c-8 -8 1 -29 33 -79 59 -91 57 -132 -6 -165 -26 -14 -28
-18 -18 -35 10 -15 24 -20 55 -20 l43 0 0 124 0 124 -35 21 c-19 11 -35 25
-35 31 0 13 -23 13 -37 -1z"/>
<path d="M3445 133 l-30 -5 34 -14 c18 -8 37 -11 42 -8 14 8 11 34 -3 33 -7
-1 -26 -4 -43 -6z"/>
</g>
</svg>
