<?xml version="1.0" standalone="no"?>
<!DOCTYPE svg PUBLIC "-//W3C//DTD SVG 20010904//EN"
 "http://www.w3.org/TR/2001/REC-SVG-20010904/DTD/svg10.dtd">
<svg version="1.0" xmlns="http://www.w3.org/2000/svg"
 width="740.000000pt" height="740.000000pt" viewBox="0 0 740.000000 740.000000"
 preserveAspectRatio="xMidYMid meet">

<g transform="translate(0.000000,740.000000) scale(0.100000,-0.100000)"
fill="#000000" stroke="none">
<path d="M4186 6483 c-12 -13 -6 -32 13 -38 11 -3 36 -24 58 -46 l38 -40 74 6
c66 6 174 32 144 34 -7 1 -13 8 -13 16 0 8 -6 15 -14 15 -7 0 -19 7 -26 15
-20 24 -53 18 -83 -15 -16 -16 -32 -30 -36 -30 -4 0 -28 14 -54 30 -26 17 -52
30 -57 30 -5 0 -15 7 -23 15 -8 8 -17 11 -21 8z"/>
<path d="M4025 6009 c22 -22 59 -52 81 -65 60 -36 232 -216 255 -268 13 -30
28 -47 47 -54 15 -5 62 -24 104 -41 l77 -33 -19 -26 c-54 -73 -24 -187 60
-229 57 -30 94 -29 157 2 l51 26 26 -26 c35 -34 85 -55 149 -60 51 -4 54 -6
136 -92 112 -118 206 -241 281 -368 35 -58 64 -105 67 -105 2 0 13 5 25 11 16
9 24 7 44 -12 20 -19 27 -21 49 -11 14 7 30 23 37 37 6 14 15 25 20 25 23 0 3
18 -32 29 -53 16 -107 71 -116 116 -9 52 1 114 24 135 23 21 104 60 126 60 8
0 18 5 21 10 8 13 71 13 98 -1 12 -6 38 -27 58 -46 l36 -34 25 38 c14 21 26
43 27 48 1 6 18 18 38 28 24 13 32 21 24 27 -7 4 -12 10 -12 14 3 24 -1 38
-18 55 -10 10 -22 32 -25 47 -6 26 -3 31 26 43 l32 14 -25 10 c-22 9 -19 11
33 24 l56 15 -14 34 c-16 38 -17 44 -6 43 18 -3 48 2 60 10 11 7 11 12 1 28
-10 17 -9 24 4 44 10 13 17 35 17 49 0 33 22 63 65 90 33 20 39 40 12 40 -7 0
-6 -4 3 -10 8 -5 11 -10 5 -11 -66 -5 -139 -25 -177 -49 -18 -10 -36 -16 -41
-13 -5 3 5 12 22 19 43 18 39 30 -9 26 -22 -2 -46 1 -54 7 -10 8 -16 8 -26 -4
-7 -8 -23 -15 -36 -15 -12 0 -26 -4 -29 -10 -10 -17 -25 -11 -25 10 0 25 -9
25 -26 3 -12 -16 -13 -11 -14 35 0 49 -23 112 -41 112 -4 0 -10 12 -13 26 -4
14 -15 35 -25 46 -17 17 -23 18 -57 8 -67 -19 -236 -50 -245 -44 -5 3 -9 13
-9 22 -1 16 -2 16 -14 0 -12 -16 -15 -14 -37 20 -13 20 -29 37 -34 37 -6 0
-16 4 -23 8 -7 5 -47 3 -89 -3 -43 -7 -99 -9 -125 -6 -44 6 -48 5 -69 -23
l-22 -30 -18 23 c-10 13 -35 31 -56 41 -37 18 -37 18 -57 -8 -12 -15 -56 -39
-105 -59 -70 -28 -87 -39 -103 -68 -12 -23 -17 -46 -14 -68 3 -21 1 -30 -6
-26 -7 4 -9 33 -6 76 3 41 2 64 -3 57 -7 -11 -9 -9 -9 6 0 15 -11 25 -37 34
-21 8 -50 22 -65 33 -15 11 -37 20 -48 21 -11 1 -20 5 -20 9 0 4 -3 7 -7 6
-14 -4 -108 26 -138 44 -22 13 -51 18 -112 18 -45 0 -93 4 -108 10 -17 7 -24
7 -20 0 14 -23 -15 -8 -38 20 -14 17 -29 30 -33 30 -5 0 10 -18 31 -41z m2164
-352 c-2 -1 -14 -10 -26 -20 -14 -12 -23 -15 -28 -8 -3 6 4 15 17 20 21 9 47
14 37 8z m-64 -27 c3 -5 3 -25 -1 -45 -7 -39 -32 -48 -41 -15 -3 11 -9 20 -14
20 -5 0 -9 7 -9 16 0 10 5 14 15 10 9 -3 18 1 21 9 7 17 20 19 29 5z m-1115
-37 c10 -9 -18 -38 -40 -41 -34 -5 -47 14 -25 38 16 18 47 20 65 3z m818 -63
c45 -32 72 -75 72 -112 -1 -22 -1 -22 -12 -3 -19 33 -50 50 -101 55 -48 5 -48
5 -29 25 20 22 19 45 -3 45 -8 0 -17 5 -20 10 -14 23 55 8 93 -20z m-502 -114
c15 -38 -57 -88 -90 -63 -21 16 -11 52 17 65 32 15 67 14 73 -2z m719 -37 c11
-16 1 -19 -13 -3 -7 8 -8 14 -3 14 5 0 13 -5 16 -11z"/>
<path d="M3346 5982 c-10 -20 -22 -50 -27 -66 -10 -35 7 -122 26 -130 11 -4
14 19 17 112 2 64 3 118 3 119 -1 2 -10 -14 -19 -35z"/>
<path d="M3920 5972 c0 -48 71 -94 115 -74 14 7 25 16 25 22 0 14 -70 56 -107
63 -27 5 -33 3 -33 -11z m85 -22 c3 -5 2 -10 -4 -10 -5 0 -13 5 -16 10 -3 6
-2 10 4 10 5 0 13 -4 16 -10z"/>
<path d="M6115 5809 c-4 -6 -5 -12 -2 -15 2 -3 7 2 10 11 7 17 1 20 -8 4z"/>
<path d="M1830 5766 c0 -19 -12 -29 -62 -53 -70 -34 -142 -95 -156 -133 -14
-39 -3 -91 29 -132 32 -40 34 -50 19 -79 -11 -19 -11 -19 -50 1 -39 20 -56 38
-24 26 8 -3 12 -2 9 4 -10 16 -21 12 -55 -17 -63 -52 -60 -61 47 -170 52 -54
116 -125 141 -158 112 -147 301 -355 308 -340 2 6 24 42 48 80 l43 70 60 6
c37 3 75 15 97 28 35 22 86 79 86 97 0 5 4 15 9 23 8 12 14 8 35 -16 42 -50
119 -83 193 -83 69 0 106 14 138 51 12 15 14 19 3 11 -14 -12 -15 -9 -8 23 9
42 -6 92 -31 100 -26 9 -99 80 -99 98 0 21 49 79 61 71 18 -11 76 36 99 79
l23 44 -23 51 -23 51 -28 -39 c-31 -43 -67 -60 -80 -39 -12 19 -11 36 2 58 7
10 9 29 6 42 -5 21 -17 27 -69 39 -35 8 -90 14 -123 13 -67 -1 -125 25 -125
57 0 10 -8 28 -18 40 -14 18 -21 20 -44 11 -14 -5 -55 -13 -90 -17 -34 -3 -83
-15 -107 -25 -71 -31 -82 -27 -114 41 -39 84 -127 144 -127 86z m75 -286 c37
-14 43 -39 16 -62 -31 -24 -82 -23 -115 3 -34 27 -33 37 7 54 39 17 57 18 92
5z m301 -219 c-3 -5 7 -11 22 -14 16 -3 38 -14 51 -24 20 -17 21 -21 10 -46
-20 -45 -52 -60 -102 -46 -23 6 -45 16 -49 23 -16 25 -8 55 21 72 17 10 27 23
24 31 -3 7 2 13 12 13 9 0 14 -4 11 -9z"/>
<path d="M3350 5751 c0 -6 5 -13 10 -16 6 -3 10 1 10 9 0 9 -4 16 -10 16 -5 0
-10 -4 -10 -9z"/>
<path d="M2774 5676 c-9 -25 0 -61 16 -61 22 0 26 60 5 69 -9 3 -18 0 -21 -8z"/>
<path d="M1070 5535 c-7 -8 -16 -12 -22 -9 -14 9 -38 -16 -38 -40 0 -11 -1
-30 -1 -41 -1 -11 12 -75 27 -143 21 -91 30 -117 36 -102 4 12 12 18 18 15 5
-3 10 0 10 7 0 8 3 9 8 2 7 -10 25 -13 84 -16 19 -1 25 -5 21 -17 -4 -13 -3
-13 5 -2 7 10 6 21 -3 35 -15 23 -22 112 -11 137 5 11 -3 28 -23 52 -17 19
-31 42 -31 51 0 8 -12 22 -27 29 l-27 14 24 8 c23 7 23 8 5 21 -24 18 -40 18
-55 -1z"/>
<path d="M6380 4794 c-27 -23 -31 -32 -29 -73 2 -71 -37 -365 -56 -412 -5 -13
5 -21 41 -35 l47 -18 18 23 c22 26 25 61 7 79 -20 20 -11 140 22 274 38 159
39 188 6 188 -14 0 -39 -12 -56 -26z"/>
<path d="M954 4795 c-4 -8 -13 -15 -20 -15 -19 0 -43 -52 -27 -57 6 -2 9 -13
6 -24 -3 -10 0 -26 7 -34 6 -8 36 -58 66 -112 30 -54 52 -86 49 -72 -6 24 -4
26 32 24 21 -1 48 2 59 6 12 4 26 3 32 -3 6 -6 16 -7 26 -1 15 8 14 12 -8 36
-13 14 -32 50 -42 79 -16 49 -53 98 -74 98 -5 0 -12 9 -15 20 -3 11 -18 23
-31 26 -18 5 -22 10 -15 17 18 18 13 27 -14 27 -14 0 -28 -7 -31 -15z"/>
<path d="M1557 4423 c-10 -9 -9 -41 1 -47 5 -3 9 8 10 24 1 32 -1 34 -11 23z"/>
<path d="M1302 4338 c6 -18 28 -21 28 -4 0 9 -7 16 -16 16 -9 0 -14 -5 -12
-12z"/>
<path d="M1451 4267 c-6 -8 -8 -16 -5 -20 7 -7 -41 -39 -81 -52 -69 -24 -203
-127 -317 -243 -65 -65 -118 -125 -118 -133 0 -8 -12 -27 -26 -42 -55 -60 -88
-187 -74 -287 16 -114 70 -215 176 -329 l57 -62 41 44 c75 81 175 109 260 73
96 -40 170 -160 170 -276 0 -63 7 -80 34 -80 8 0 10 8 6 24 -3 15 -1 27 8 33
8 4 25 24 38 43 57 81 150 137 243 147 l55 6 -24 69 c-34 102 -71 277 -85 403
-15 144 -5 417 20 550 11 55 17 102 15 104 -2 2 -4 0 -4 -6 0 -6 -24 -2 -55 9
-92 31 -263 24 -309 -13 -35 -27 -42 -23 -10 4 16 14 24 29 20 35 -9 16 -21
15 -35 -1z m223 -33 c9 -3 16 -12 16 -20 0 -8 6 -14 13 -14 8 0 7 -3 -3 -10
-19 -12 -58 -2 -88 21 -20 16 -21 18 -5 22 28 7 50 8 67 1z m94 -251 c4 -43
-52 -97 -123 -118 -62 -18 -105 -19 -105 -4 0 6 32 42 72 80 50 47 81 69 102
72 46 6 51 3 54 -30z m-503 -53 c18 -8 18 -9 -5 -9 -14 0 -32 4 -40 9 -12 8
-12 10 5 9 11 0 29 -4 40 -9z m-45 -70 c18 -12 2 -12 -25 0 -13 6 -15 9 -5 9
8 0 22 -4 30 -9z m392 -872 c-7 -7 -12 -8 -12 -2 0 14 12 26 19 19 2 -3 -1
-11 -7 -17z"/>
<path d="M5657 4225 c13 -85 13 -85 63 -36 25 23 38 39 30 35 -8 -5 -27 -7
-42 -5 -18 1 -28 -2 -29 -11 0 -7 -7 3 -14 22 l-14 35 6 -40z"/>
<path d="M2924 4001 c-124 -6 -143 -12 -166 -54 -10 -20 -10 -20 16 0 25 20
122 50 132 41 2 -3 -12 -42 -33 -86 -25 -54 -44 -81 -55 -82 -21 0 -35 -20
-14 -20 21 0 20 -5 -8 -78 -13 -34 -27 -75 -31 -92 -6 -28 -5 -30 24 -30 25 0
31 4 31 20 0 12 12 57 26 100 l27 80 63 0 c34 0 66 5 69 10 4 6 -17 10 -55 10
-59 0 -61 1 -55 23 4 12 22 49 39 82 30 55 36 60 70 63 45 4 66 -11 67 -47 l1
-26 13 30 c23 48 19 65 -12 63 -16 -1 -82 -4 -149 -7z"/>
<path d="M3600 3919 c-7 -11 -9 -23 -6 -26 6 -6 55 29 56 40 0 16 -40 6 -50
-14z"/>
<path d="M3721 3909 c-11 -12 -25 -34 -31 -50 -10 -23 -19 -29 -44 -30 -23 -1
-25 -3 -8 -6 27 -5 27 -3 -3 -63 -30 -60 -82 -120 -102 -120 -23 0 -11 62 26
133 25 48 27 57 13 57 -27 0 -37 -11 -77 -88 -38 -73 -74 -110 -95 -97 -17 11
-11 38 25 113 31 66 33 72 15 72 -20 0 -39 -26 -94 -122 -73 -130 -121 -88
-56 50 l29 62 -24 0 c-20 0 -30 -11 -55 -62 -33 -67 -75 -118 -97 -118 -23 0
-14 55 21 124 l33 67 -26 -3 c-30 -4 -64 -58 -82 -131 -24 -100 15 -127 82
-57 41 43 52 49 43 25 -4 -8 -3 -26 0 -40 9 -37 47 -32 92 10 20 19 38 35 40
35 1 0 4 -15 6 -32 5 -49 32 -48 86 4 25 24 42 35 38 25 -10 -31 4 -67 26 -67
20 0 70 46 116 105 15 20 21 23 16 10 -3 -11 -9 -39 -11 -62 -4 -34 -2 -44 11
-49 27 -11 63 12 100 63 45 61 47 79 3 21 -35 -46 -70 -57 -74 -23 -2 11 7 49
20 85 21 60 25 65 57 71 31 6 32 7 8 8 -34 1 -34 5 -3 59 26 47 12 60 -24 21z"/>
<path d="M4694 3903 c-13 -14 -27 -37 -30 -50 -5 -17 -14 -23 -38 -24 -23 -1
-25 -3 -8 -6 12 -2 22 -7 22 -10 0 -18 -73 -133 -102 -159 -64 -62 -118 -54
-118 17 0 33 4 42 21 46 15 4 17 8 8 14 -17 10 15 57 54 79 58 32 61 -36 4
-71 -28 -17 -29 -19 -10 -19 12 0 34 10 49 23 22 19 26 29 20 50 -8 33 -42 43
-91 27 -36 -12 -55 -34 -118 -135 -30 -47 -80 -88 -58 -46 21 38 13 69 -24 96
-39 31 -52 60 -35 80 14 17 56 20 65 4 4 -5 -1 -19 -11 -31 -19 -20 -19 -20 6
-17 19 3 26 11 28 31 4 32 -22 43 -74 34 -60 -12 -72 -71 -25 -121 41 -43 47
-69 20 -94 -37 -35 -75 -21 -67 23 4 21 2 26 -11 24 -9 -2 -17 -15 -19 -31 -3
-22 2 -29 25 -38 50 -19 113 -2 155 42 36 38 49 47 47 32 -7 -44 20 -73 69
-73 50 0 92 28 130 86 l32 48 -6 -62 c-6 -53 -4 -63 10 -68 23 -9 63 14 89 51
l21 30 -27 -24 c-30 -27 -57 -22 -56 11 0 13 10 50 22 83 20 55 25 61 57 66
30 6 31 7 8 8 -35 1 -35 16 -3 64 21 30 23 37 10 37 -9 0 -27 -12 -41 -27z"/>
<path d="M3044 3835 c-4 -8 -1 -22 6 -29 9 -11 8 -21 -4 -45 -9 -16 -16 -34
-16 -38 1 -4 10 9 21 30 13 25 26 37 41 37 20 0 20 1 5 18 -10 10 -17 24 -17
30 0 17 -30 15 -36 -3z"/>
<path d="M3835 3828 c-46 -26 -46 -62 0 -118 40 -48 43 -62 15 -90 -35 -35
-76 -20 -68 24 4 21 2 26 -11 24 -10 -2 -16 -14 -16 -33 0 -26 5 -31 37 -39
74 -18 148 28 197 122 20 38 6 24 -28 -28 -33 -51 -84 -94 -62 -51 20 36 13
68 -21 96 -18 15 -37 34 -41 41 -12 21 11 54 38 54 33 0 41 -17 19 -42 -19
-20 -19 -20 6 -17 28 4 41 46 18 60 -18 12 -59 11 -83 -3z"/>
<path d="M2533 3784 c-8 -22 10 -49 32 -49 10 0 22 7 28 16 15 24 1 49 -28 49
-15 0 -28 -7 -32 -16z"/>
<path d="M4913 3784 c-8 -22 10 -49 32 -49 10 0 22 7 28 16 15 24 1 49 -28 49
-15 0 -28 -7 -32 -16z"/>
<path d="M4730 3710 c-6 -11 -8 -20 -6 -20 3 0 10 9 16 20 6 11 8 20 6 20 -3
0 -10 -9 -16 -20z"/>
<path d="M5703 3610 c0 -25 2 -35 4 -22 2 12 2 32 0 45 -2 12 -4 2 -4 -23z"/>
<path d="M5713 3543 c9 -9 19 -14 23 -11 10 10 -6 28 -24 28 -15 0 -15 -1 1
-17z"/>
<path d="M1656 2771 c-20 -22 -15 -51 8 -51 25 0 41 39 24 56 -12 13 -17 12
-32 -5z"/>
<path d="M1630 2700 c0 -11 2 -20 4 -20 2 0 6 9 9 20 3 11 1 20 -4 20 -5 0 -9
-9 -9 -20z"/>
<path d="M1657 2690 c-4 -14 -6 -45 -6 -70 1 -44 2 -43 10 15 9 64 7 96 -4 55z"/>
<path d="M1396 2639 c-28 -33 -35 -86 -14 -107 20 -20 35 -14 47 19 13 39 15
119 2 119 -5 0 -21 -14 -35 -31z m25 -62 c-8 -8 -11 -7 -11 4 0 20 13 34 18
19 3 -7 -1 -17 -7 -23z"/>
<path d="M5870 2651 c0 -18 39 -75 40 -58 0 12 -28 77 -34 77 -4 0 -6 -9 -6
-19z"/>
<path d="M1586 2612 c-23 -65 -25 -73 -10 -61 11 9 14 8 14 -9 0 -14 -5 -20
-13 -16 -10 4 -12 -3 -9 -26 2 -16 8 -32 12 -35 9 -6 30 81 30 125 0 34 -15
48 -24 22z"/>
<path d="M5950 2616 c0 -26 12 -46 23 -39 6 4 8 0 4 -11 -8 -20 12 -56 30 -56
18 0 16 51 -3 78 -21 30 -54 48 -54 28z"/>
<path d="M1488 2590 c-12 -40 -10 -106 3 -93 5 5 9 34 7 64 -2 42 -5 48 -10
29z"/>
<path d="M4970 2570 c0 -5 9 -10 19 -10 27 0 78 -45 100 -89 10 -20 28 -82 40
-139 11 -56 25 -111 31 -121 5 -11 42 -41 82 -68 40 -26 83 -58 95 -71 l21
-23 -5 22 c-5 17 -3 20 7 14 8 -5 11 -4 7 2 -3 5 1 38 9 73 12 51 12 69 2 99
-17 49 -55 99 -98 127 -19 13 -62 44 -95 69 -33 26 -73 56 -88 68 -63 49 -127
72 -127 47z m275 -310 c3 -5 2 -10 -4 -10 -5 0 -13 5 -16 10 -3 6 -2 10 4 10
5 0 13 -4 16 -10z"/>
<path d="M5827 2574 c-17 -18 -7 -83 19 -113 31 -37 44 -39 44 -8 0 35 -11 67
-21 61 -5 -3 -6 1 -3 9 6 16 -28 62 -39 51z"/>
<path d="M1628 2560 c-13 -31 -17 -80 -8 -80 13 0 23 42 18 71 -3 17 -6 20
-10 9z"/>
<path d="M2149 2548 c-20 -5 -50 -24 -67 -41 -30 -32 -31 -34 -34 -153 l-3
-121 32 7 c47 11 118 55 147 92 22 29 29 32 71 29 32 -2 45 1 41 8 -4 6 -14
11 -22 11 -8 0 -14 4 -14 9 0 5 -8 12 -19 16 -14 4 -20 19 -24 64 -4 32 -9 65
-13 74 -7 19 -38 20 -95 5z"/>
<path d="M4805 2542 c-28 -9 -70 -29 -95 -44 -46 -27 -148 -126 -168 -165 -11
-20 -9 -22 29 -28 l41 -7 -30 -32 c-16 -17 -33 -41 -37 -54 -5 -19 -2 -24 25
-33 24 -9 28 -14 19 -25 -13 -15 -4 -34 16 -34 9 0 12 -6 9 -15 -5 -11 1 -15
19 -15 32 0 42 -14 22 -30 -13 -11 -13 -15 0 -33 8 -12 25 -27 37 -34 15 -8
18 -12 8 -13 -20 0 -23 -37 -4 -44 12 -5 12 -9 2 -26 -11 -17 -10 -22 7 -34
32 -23 12 -28 -87 -20 -51 5 -82 10 -68 12 14 2 29 7 33 11 10 10 -69 36 -135
46 -47 6 -61 18 -35 28 6 3 2 6 -10 6 -33 1 -53 12 -53 27 0 20 -39 17 -82 -5
-20 -10 -40 -15 -45 -10 -4 4 -6 -18 -5 -51 l4 -58 36 -7 c99 -18 162 -74 177
-156 5 -26 14 -40 32 -48 21 -10 24 -9 22 6 -3 35 1 39 41 38 l39 0 -24 -21
c-14 -12 -21 -24 -18 -28 4 -4 2 -11 -5 -15 -10 -6 -7 -15 12 -38 52 -62 59
-125 22 -194 -14 -27 -23 -62 -23 -87 0 -23 1 -42 2 -42 2 0 26 16 55 35 29
19 59 36 69 36 9 1 21 2 26 4 6 1 21 3 35 4 20 1 22 3 10 11 -11 7 -5 9 22 6
21 -2 42 -7 48 -11 6 -4 25 -8 42 -9 20 -2 39 -12 52 -29 12 -15 27 -27 34
-27 6 0 9 -7 6 -15 -4 -9 1 -17 12 -21 11 -4 28 -19 40 -32 l21 -26 44 17 c32
12 50 28 67 56 24 44 28 61 11 61 -5 0 -8 -4 -5 -9 4 -5 -2 -7 -12 -4 -35 9
-21 39 16 34 6 -1 12 4 12 11 0 8 -10 14 -21 15 -25 2 -53 -22 -44 -37 4 -6
-1 -7 -10 -3 -13 4 -15 14 -11 35 5 26 4 27 -14 18 -25 -13 -30 -13 -30 4 0 7
-6 19 -14 25 -15 12 -10 55 5 45 5 -3 6 -10 3 -16 -4 -6 -1 -9 5 -7 14 5 14 8
5 44 -5 20 -9 23 -24 15 -9 -5 -21 -6 -25 -2 -5 4 -5 -1 -2 -10 8 -22 -1 -22
-27 -3 -28 21 -38 19 -30 -7 6 -21 3 -20 -24 7 -18 17 -32 40 -32 52 0 12 -5
25 -11 29 -8 4 -9 -1 -4 -16 5 -15 4 -20 -4 -16 -7 5 -9 1 -5 -8 3 -9 2 -16
-4 -16 -17 0 -35 29 -29 49 3 14 1 18 -9 14 -17 -6 -46 16 -38 29 3 5 12 7 20
4 8 -3 14 -1 14 4 0 10 -14 14 -38 11 -7 -1 -11 4 -10 11 2 6 -4 12 -12 13
-21 0 -24 31 -6 57 l16 22 6 -32 c6 -32 28 -47 22 -16 -2 10 3 19 11 22 10 3
12 0 8 -11 -3 -9 -2 -19 2 -21 13 -8 44 31 36 44 -6 9 -10 9 -15 -1 -7 -10
-12 -10 -23 -1 -7 7 -17 9 -21 5 -7 -7 -26 14 -26 29 0 4 12 6 28 4 15 -2 19
-1 10 1 -29 7 -21 31 15 42 39 13 98 7 112 -12 5 -8 20 -17 32 -21 22 -7 103
-128 103 -153 0 -6 -10 -9 -22 -6 -23 5 -23 5 -3 -10 11 -8 17 -19 12 -23 -4
-4 -12 -3 -19 4 -8 8 -16 1 -29 -26 -11 -20 -19 -37 -19 -37 0 -1 7 -2 15 -2
8 0 15 4 15 9 0 4 9 8 20 8 11 0 20 7 20 15 0 8 4 15 10 15 5 0 9 4 7 9 -1 5
3 8 8 8 6 -1 9 -9 8 -17 -1 -8 5 -19 13 -23 8 -5 12 -13 8 -18 -4 -6 -10 -6
-19 1 -9 7 -16 6 -24 -4 -17 -20 3 -30 30 -15 24 12 39 0 39 -33 0 -32 26 -19
48 25 25 49 50 90 76 130 24 36 26 62 15 219 -9 131 -27 198 -53 198 -9 0 -16
6 -16 14 0 8 -7 16 -15 20 -8 3 -15 15 -15 27 0 13 -18 37 -45 61 -25 22 -51
50 -57 62 -7 11 -15 78 -18 149 -5 127 -5 127 -35 151 -16 13 -43 26 -60 29
-16 3 -39 8 -50 11 -11 3 -43 -2 -70 -12z m-65 -702 c0 -5 -11 -10 -24 -10
-34 0 -71 -15 -93 -38 -18 -19 -18 -19 -37 -1 -19 19 -19 19 0 19 19 1 19 1 0
15 -19 14 -18 15 12 15 18 0 32 -4 32 -9 0 -5 21 -3 48 4 60 17 62 17 62 5z
m-20 -80 c0 -5 -8 -10 -17 -10 -15 0 -16 2 -3 10 19 12 20 12 20 0z m-130 -30
c0 -5 -7 -10 -16 -10 -8 0 -12 5 -9 10 3 6 10 10 16 10 5 0 9 -4 9 -10z m95
-10 c3 -5 1 -10 -4 -10 -6 0 -11 5 -11 10 0 6 2 10 4 10 3 0 8 -4 11 -10z m15
-90 c0 -5 -2 -10 -4 -10 -3 0 -8 5 -11 10 -3 6 -1 10 4 10 6 0 11 -4 11 -10z
m140 -140 c0 -5 -2 -10 -4 -10 -3 0 -8 5 -11 10 -3 6 -1 10 4 10 6 0 11 -4 11
-10z m-65 -20 c-3 -5 -12 -10 -18 -10 -7 0 -6 4 3 10 19 12 23 12 15 0z m55
-5 c11 -13 10 -14 -4 -9 -9 3 -16 10 -16 15 0 13 6 11 20 -6z m50 5 c0 -5 -4
-10 -10 -10 -5 0 -10 5 -10 10 0 6 5 10 10 10 6 0 10 -4 10 -10z m87 -25 c-4
-8 -2 -17 3 -20 13 -8 13 -25 -1 -25 -5 0 -7 5 -4 10 3 6 1 10 -4 10 -6 0 -11
9 -11 20 0 11 5 20 11 20 6 0 9 -7 6 -15z"/>
<path d="M2310 2405 c0 -8 4 -15 10 -15 5 0 7 7 4 15 -4 8 -8 15 -10 15 -2 0
-4 -7 -4 -15z"/>
<path d="M2392 2404 c-16 -7 -42 -57 -42 -82 0 -34 -35 -65 -86 -78 -27 -7
-76 -19 -109 -27 -33 -9 -96 -20 -139 -26 -44 -6 -93 -18 -109 -26 -35 -17
-40 -18 -33 -6 3 5 -6 12 -20 15 -17 5 -24 12 -20 21 3 8 9 22 12 30 10 26
-35 18 -61 -11 -32 -34 -40 -77 -39 -196 l2 -98 -47 -1 -46 -1 49 -9 c69 -11
79 -32 20 -40 -25 -3 -49 -11 -54 -19 -7 -11 -14 -10 -43 3 -71 34 -133 8
-162 -67 -12 -32 -23 -46 -36 -46 -11 0 -19 4 -19 9 0 5 -22 12 -49 16 -62 8
-99 -11 -131 -68 -30 -53 -24 -150 13 -206 39 -59 110 -101 170 -101 66 0 160
49 195 102 15 23 33 38 45 38 54 0 177 94 177 135 0 23 13 18 35 -15 11 -16
23 -29 26 -27 3 1 26 27 51 57 97 120 259 228 378 251 48 9 62 8 113 -11 31
-12 71 -33 88 -48 30 -24 32 -25 45 -8 71 97 153 149 264 164 38 6 52 10 32
11 -19 0 -35 7 -39 16 -3 9 -20 22 -37 29 -63 26 -104 72 -117 133 -9 39 -18
57 -31 61 -10 2 -18 11 -18 18 0 8 -8 14 -19 14 -10 0 -29 16 -42 35 -13 20
-35 41 -49 48 -27 13 -96 20 -118 11z m-837 -684 c3 -5 -7 -12 -22 -16 -15 -3
-34 -7 -40 -10 -19 -5 -16 14 5 25 22 13 49 14 57 1z"/>
<path d="M4136 2062 c5 -4 22 -18 37 -32 l29 -25 -19 32 c-10 20 -26 33 -37
33 -11 0 -16 -3 -10 -8z"/>
<path d="M1414 2035 c-18 -14 -18 -14 9 -16 15 -1 33 -2 39 -3 7 -1 14 7 16
17 4 22 -36 23 -64 2z"/>
<path d="M1500 2020 c0 -14 9 -24 30 -31 17 -6 30 -14 30 -18 0 -11 69 -45 77
-38 3 4 -1 7 -10 7 -8 0 -41 23 -71 51 -48 44 -56 48 -56 29z"/>
<path d="M5617 1943 c-4 -3 -7 -19 -7 -34 0 -21 6 -30 23 -34 54 -13 158 -20
232 -14 l80 6 -73 1 c-78 2 -162 26 -211 61 -32 23 -35 24 -44 14z"/>
<path d="M3515 1890 c-3 -5 -28 -21 -54 -36 -63 -34 -72 -65 -28 -96 41 -30
67 -92 61 -148 -5 -39 -40 -99 -80 -135 -6 -5 -21 -24 -33 -42 -19 -28 -26
-31 -59 -27 -56 7 -114 40 -141 79 -19 28 -24 50 -26 102 -1 65 -2 67 -31 76
-16 5 -60 8 -99 7 -44 0 -80 4 -100 14 -124 62 -251 102 -291 92 -20 -5 -22
-14 -28 -108 -8 -129 -9 -137 -17 -132 -4 2 -12 -17 -19 -41 -7 -25 -16 -45
-21 -45 -4 0 -10 -9 -14 -20 -3 -11 -22 -35 -40 -55 -44 -45 -37 -44 22 1 27
20 60 41 76 46 15 6 27 14 27 20 0 5 -5 6 -12 2 -7 -4 -8 -3 -4 5 4 6 2 18 -4
26 -21 25 0 16 23 -10 21 -23 25 -24 72 -14 60 12 160 5 233 -16 l52 -16 38
40 c35 37 114 72 129 58 5 -6 -12 -76 -25 -101 -8 -15 -8 -64 1 -59 4 2 7 -6
7 -18 0 -22 -1 -22 -32 7 -24 21 -21 17 10 -20 23 -26 52 -70 65 -97 l23 -49
44 45 c24 25 50 45 57 45 7 0 22 5 33 12 30 19 126 -17 168 -62 37 -39 37 -45
7 -165 -21 -82 -27 -90 -76 -116 -52 -26 -114 -24 -166 5 -23 13 -44 21 -47
18 -16 -15 -2 -31 40 -47 56 -21 129 -16 216 15 90 32 107 28 174 -36 67 -63
124 -94 174 -93 l35 0 -36 13 c-66 23 -107 55 -129 101 -36 75 -19 141 75 287
32 50 53 63 127 77 38 7 53 5 77 -10 16 -10 35 -27 41 -38 6 -12 18 -21 26
-21 13 0 14 9 9 54 -8 62 -2 78 55 135 22 22 40 44 40 48 0 26 -78 93 -107 93
-6 0 -13 -18 -17 -41 -18 -113 -118 -190 -226 -173 -51 8 -77 33 -115 110 -17
32 -33 61 -38 62 -4 2 -14 16 -22 31 -28 55 21 181 83 210 22 11 21 13 -40 59
-35 27 -66 44 -69 39 -3 -4 -12 5 -18 21 -12 30 -46 48 -56 32z"/>
<path d="M5958 1873 c7 -3 16 -2 19 1 4 3 -2 6 -13 5 -11 0 -14 -3 -6 -6z"/>
<path d="M5880 1715 c-7 -9 -10 -32 -7 -62 3 -26 3 -40 0 -30 -3 12 -10 16
-20 13 -10 -4 -13 -2 -10 6 19 48 19 48 -3 48 -26 0 -59 -16 -83 -42 -10 -10
-22 -16 -28 -13 -5 3 -17 1 -26 -4 -10 -6 -12 -11 -5 -11 14 0 17 -30 2 -30
-5 0 -13 8 -19 17 -7 13 -14 15 -29 7 -17 -7 -18 -13 -9 -34 5 -14 10 -32 11
-40 1 -8 9 -16 19 -18 16 -3 17 -1 8 17 -10 17 -9 20 4 15 8 -4 15 -10 15 -15
0 -6 7 -6 18 0 20 11 62 4 62 -10 0 -16 45 -4 60 15 14 20 14 20 20 -3 3 -13
16 -28 29 -33 21 -7 23 -6 17 17 -4 14 -2 25 4 25 5 0 10 -7 10 -16 0 -8 5
-12 10 -9 13 8 2 54 -19 80 -15 18 -15 19 2 6 9 -8 19 -12 20 -10 2 2 9 15 15
29 11 22 12 19 9 -28 -2 -29 0 -55 6 -59 15 -9 35 24 30 50 -3 17 2 26 21 35
21 9 26 19 26 47 0 28 -4 35 -19 35 -11 0 -23 5 -26 10 -10 16 -101 12 -115
-5z m77 -42 c-11 -10 -27 8 -27 30 l0 21 16 -22 c9 -13 14 -26 11 -29z m-207
-93 c0 -5 -4 -10 -10 -10 -5 0 -10 5 -10 10 0 6 5 10 10 10 6 0 10 -4 10 -10z"/>
<path d="M4960 1655 c0 -9 6 -12 15 -9 8 4 12 10 9 15 -8 14 -24 10 -24 -6z"/>
<path d="M4860 1631 c0 -8 -7 -11 -15 -7 -8 3 -15 1 -15 -4 0 -6 6 -10 14 -10
17 0 31 18 22 27 -3 4 -6 1 -6 -6z"/>
<path d="M4870 1566 c0 -2 8 -10 18 -17 15 -13 16 -12 3 4 -13 16 -21 21 -21
13z"/>
<path d="M5262 1455 c-27 -34 -27 -45 -1 -98 22 -42 153 -180 162 -171 3 3 4
-3 4 -12 -1 -12 12 -25 38 -38 80 -39 351 -32 386 11 9 11 -2 13 -64 13 -148
0 -269 44 -359 132 -29 28 -67 57 -85 65 -28 11 -33 19 -33 46 -1 17 -7 43
-14 56 l-13 23 -21 -27z"/>
<path d="M5047 1452 c1 -8 3 -15 3 -17 0 -2 9 -1 20 2 11 3 17 10 14 15 -3 5
-12 7 -19 4 -8 -3 -16 -2 -18 2 -2 4 -2 1 0 -6z"/>
<path d="M5080 1408 c0 -4 12 -8 26 -8 14 0 23 4 19 9 -6 11 -45 10 -45 -1z"/>
<path d="M4472 1318 c-24 -11 -42 -21 -39 -24 10 -10 64 9 75 27 7 10 11 19
10 18 -2 0 -23 -10 -46 -21z"/>
<path d="M2429 1298 c-13 -18 -30 -39 -39 -46 -8 -8 -9 -11 -2 -7 6 3 12 2 12
-4 0 -9 -22 -29 -66 -59 -11 -7 -1 -4 21 7 32 15 47 32 72 80 35 68 36 77 2
29z"/>
<path d="M4498 1179 c-9 -24 -22 -79 -29 -122 -10 -68 -10 -86 6 -140 9 -34
19 -67 21 -74 11 -41 198 -83 371 -83 120 0 157 12 196 63 l27 35 -28 -13
c-35 -17 -92 -9 -93 14 0 12 -2 12 -9 -4 -7 -17 -9 -17 -9 -2 -1 10 -9 17 -21
17 -10 0 -24 8 -30 18 -8 14 -9 11 -5 -13 3 -16 2 -23 -1 -15 -4 8 -16 22 -28
31 -17 14 -22 14 -34 3 -17 -18 -27 -18 -43 2 -7 8 -21 13 -31 11 -10 -3 -21
-1 -24 5 -3 5 -20 6 -36 3 -17 -4 -33 -3 -37 2 -3 6 -19 16 -36 24 -25 12 -30
21 -31 49 -1 49 -12 76 -37 89 -21 11 -21 11 2 5 l25 -7 -27 32 c-15 18 -27
37 -27 42 0 5 -3 8 -7 7 -9 -3 -12 12 -6 29 3 7 3 18 1 24 -2 7 -11 -8 -20
-32z"/>
<path d="M2445 1185 c-14 -13 -25 -36 -25 -50 0 -15 -4 -24 -10 -20 -13 8 -13
-11 1 -77 14 -65 48 -137 98 -203 21 -27 43 -67 50 -87 21 -64 90 -89 244 -89
92 0 144 11 190 43 39 28 34 44 -7 19 -18 -12 -40 -21 -47 -21 -11 0 -11 2 1
10 27 17 35 67 29 176 l-6 106 -49 41 c-27 23 -62 56 -79 74 -36 38 -77 57
-188 83 -115 28 -171 27 -202 -5z"/>
<path d="M4728 1162 c-48 -21 -52 -59 -11 -91 22 -18 90 -38 109 -32 3 1 14
-7 23 -18 10 -12 22 -21 26 -21 5 0 -1 10 -12 23 -11 12 -26 37 -33 55 -7 18
-21 39 -32 46 -11 8 -21 21 -22 30 -3 24 -8 25 -48 8z"/>
<path d="M4961 1164 c0 -11 3 -14 6 -6 3 7 2 16 -1 19 -3 4 -6 -2 -5 -13z"/>
<path d="M2230 1140 c-32 -11 -88 -19 -135 -20 -74 -2 -77 -3 -40 -12 81 -20
231 5 243 40 5 15 0 14 -68 -8z"/>
<path d="M4991 1108 c-1 -16 3 -28 8 -28 6 0 9 -8 8 -18 -1 -17 42 -97 48 -90
2 2 -3 28 -10 58 -7 30 -14 46 -15 35 -1 -13 -8 -4 -20 25 -17 40 -19 42 -19
18z"/>
<path d="M4050 1060 c0 -16 7 -30 16 -34 28 -11 168 -5 204 9 35 13 34 13 -20
8 -43 -4 -72 0 -128 20 l-72 25 0 -28z"/>
<path d="M1904 1030 c-37 -15 -92 -89 -103 -139 -12 -59 -1 -110 36 -163 15
-22 32 -49 38 -59 26 -50 166 -52 235 -4 69 48 95 90 95 153 0 49 -3 56 -34
80 -18 15 -54 48 -80 73 -25 25 -56 51 -68 57 -25 14 -88 15 -119 2z m110 -42
c11 -21 13 -35 6 -42 -6 -6 -15 3 -25 27 -18 42 -18 47 -6 47 5 0 17 -14 25
-32z"/>
<path d="M3058 955 c-14 -38 -15 -49 -4 -70 l13 -25 13 31 c11 25 11 35 1 51
-7 12 -8 17 -2 13 12 -7 13 1 3 28 -6 14 -11 8 -24 -28z"/>
<path d="M5030 952 c0 -12 19 -26 26 -19 2 2 -2 10 -11 17 -9 8 -15 8 -15 2z"/>
<path d="M5062 928 c-17 -17 -15 -28 5 -21 12 5 15 2 10 -9 -3 -10 0 -19 9
-22 17 -7 18 11 1 42 -10 17 -15 20 -25 10z"/>
<path d="M4915 900 c-3 -5 -1 -10 4 -10 6 0 11 5 11 10 0 6 -2 10 -4 10 -3 0
-8 -4 -11 -10z"/>
</g>
</svg>
