<?xml version="1.0" encoding="UTF-8"?> <svg xmlns="http://www.w3.org/2000/svg" width="113" height="138" viewBox="0 0 113 138"><title>LOGO/logo-chiquita-stroke</title><g fill="none" fill-rule="evenodd"><path d="M56.255 138c-10.477 0-19.605-1.839-27.132-5.462-6.984-3.363-12.781-8.355-17.231-14.84C4.119 106.373.232 90.64.01 69.596c-.226-21.22 3.385-37.125 11.04-48.628 4.387-6.591 10.178-11.692 17.212-15.16C35.845 2.07 45.099.118 55.766.005 56.1.002 56.424 0 56.753 0c10.476 0 19.603 1.837 27.129 5.461 6.982 3.363 12.779 8.355 17.228 14.84 7.769 11.322 11.655 27.054 11.88 48.094.227 21.22-3.383 37.125-11.038 48.63-4.386 6.592-10.177 11.694-17.212 15.163-7.583 3.74-16.837 5.694-27.506 5.807-.329.003-.649.005-.974.005h-.005z" fill="#FFDF00"></path><path d="M56.203 125.743c-8.605-.001-16.102-1.498-22.284-4.449-5.736-2.738-10.497-6.805-14.152-12.086-6.384-9.223-9.576-22.037-9.759-39.176-.186-17.281 2.78-30.235 9.067-39.603 3.603-5.369 8.36-9.523 14.137-12.347 6.228-3.045 13.828-4.635 22.59-4.726.273-.003.54-.004.81-.004 8.604 0 16.1 1.496 22.281 4.448 5.735 2.738 10.496 6.804 14.15 12.085 6.38 9.222 9.573 22.034 9.757 39.17.187 17.28-2.778 30.235-9.065 39.605-3.602 5.369-8.359 9.524-14.137 12.349-6.228 3.046-13.829 4.638-22.591 4.73-.27.002-.533.004-.8.004h-.004z" fill="#005CA8"></path><g fill="#FFDF00"><path d="M56.928 118.426c-17.778.177-28.671-6.402-34.486-18.936-.038 0-.071.003-.11.003-1.315 0-2.442-.116-3.42-.32 6.23 14.773 18.439 22.554 38.048 22.347 19.194-.2 31.132-7.905 37.168-22.207-1.143.29-3.515.294-3.515.294-5.642 12.12-16.3 18.635-33.685 18.819m41.589-43.183c.079-1.997.106-4.052.084-6.171-.363-33.478-12.935-51.812-42.772-51.503-29.837.313-42.006 18.904-41.643 52.389.024 2.08.093 3.859.213 5.823.47-1.321 1.541-2.059 3.063-2.688a144.825 144.825 0 0 1-.073-3.175c-.34-31.482 9.95-48.972 38.475-49.275 28.523-.295 39.19 16.98 39.531 48.466.019 1.763 0 3.476-.05 5.15.282-.092.577-.16.891-.155 1.17.022 1.764.452 2.281 1.139"></path><path d="M38.672 32.014c.229.218.634.492.878.532.664.113.974.454.538.427-1.404-.092-2.76 1.13-3.135 1.866-.534 1.04-.942 2.49.518 3.057.517.199 2.08-.064 2.7-.31.651-.284 1.54-.91 1.801.38.254 1.3 1.287 2.508 1.845 3.08.522.539 1.537 1.156 2.551 1.65.763.372 1.255.69 1.327 1.725.068 1.045.553 1.546.823 1.779.335.29.61.684.14 1.679-.172.414-.58 1.108-.196 1.613.386.514 1.552.573 1.788-.012.439-1.062.722-.95 1.037-.421.212.35.156.404.163 1.26.01.845-.1 1.463-1.62 1.633-1.996.233-2.18-.712-3.91-1.016-.617-.107-2.38-.36-3.835.289-.836.379-1.31.605-1.303 1.39.006.231.612 1.077-.102 1.142-.562.054-1.764.398-2.341 1.292-.103.199-.234.72-.024 1.024.212.305.665.44-.196.545-.48.058-1.882.83-2.182 1.718-.306.894-.247 2.262 1.04 2.902.417.202 1.909.092 2.523 0 .871-.13.936.163.497.85-.073.135-.235.51-.439.855-.202.349-.463.676.136 1.558 1.512 2.207 3.519 4.242 6.133 6.27 1.745 1.344 2.755 2.044 3.486 2.515.35.197 1.053.796 1.41.953.449.2 1.38.273 2.378-.348.999-.625 1.831-1.115 3.802-1.037.656.024.735-.43-.168-.728-.866-.264-2.037-.973-3.424-.825-.412.037-1.212.325-1.56.398-.379.108-1.208.194-1.802-.273-.418-.305-1.714-1.454-2.288-2.215-.425-.561-2.75-3.42-3.14-3.991-.456-.65-1.434-1.072-.558-2.435.349-.74.621-.965 1.428-.221.245.233.994.338 1.936.154.473-.094 1.22.223 1.798 1.184.333.566 1.224.719 3.398.524 1.35-.118 2.682-2.856 1.555-4.812-.3-.523-.93-.753-.935-1.372-.007-.61.199-.854 1.094-.54.392.144.474-.501.017-1.269-.183-.3-.396-.757-1.2-1.036-.634-.216-1.023-.732.289-.621.69.046 1.563-.812 1.624-1.455.095-.689-.089-1.774-.683-2.415-.178-.2-.005-.687.305-.65.31.035 1.266-.016 1.478.014.206.034 1.065.207 1.507-.93.032-.133.115-.338.115-.437-.005-.139-.57-.056-.837-.111-.169-.036-.292-.053-.78-.317-.207-.102-.417-.34-.628-.607-.316-.411-.548-.595.112-.65.474-.037.769-.123 1.098-.305.19-.107.594-.284 1.455-.194-.182-.556-.093-.443.29-1.032-1.212-1.574-.545-2.582-.275-2.761.416-.269.628-.446.805-.616.135-.127.16-.638-.072-.92-.245-.303-.828-.587-1.555-.572-.76.009-2.817.063-3.266.07-2.005.042-2.458 2.956-2.562 3.604-.108.74.1.474.145 2.338.044.649-.368 1.344-.591.459-.098-.396-.494-.478-.599-.548-.14-.103-1.006-.996-1.58-2.838-.466-1.498-.64-1.002-2.133-1.918-1.078-.661-2.642-1.764-3.348-3.965-.437-1.354.641-1.224 1.122-1.2 8.625 1.076 14.074.47 18.696-.736 1.032-.253 2.518-.541 1.85 1.15-.663 1.685-1.611 2.836-4.039 4.304-.386.234-1.495.906-.846 1.217.118.062.775-.093.775-.093s-.15.356-.532.533c-.058.087-.102.139 0 .168.421.125.861-.176.658.24-.066.138-1.037.324-1.033.602-.062.951-.01.07.25 1.432.256 1.296-1.274 3.341-2.117 4.876-.413.743-.85 1.216.052 2.206.952 1.04 2.141 2.493 2.635 3.235.459.716 1.02 2.666.092 5.296-.187.53-.147 1.056-1.235 2.808-.578.958-.632 2.01-.052 3.413.407.978 1.739 4.01 3.2 4.953 1.183.734 1.853-.355.85-1.005-.569-.362-2.66-3.338-3.197-4.845-.287-.854-.435-1.574.21-2.465.515-.727 1.563-.527 2.59-.15.628.238 1.85.495 2.701-.644.309-.413.586-.352.607-2.092-.004-.486-.035-.76.466-.742 1.731.066 2.62-.366 2.983-1.944.401-1.544.11-2.53 0-2.97-.107-.448-.155-.688.262-.803.447-.067 2.335-.222 2.84-1.55.538-1.373.952-3.742-.209-5.473-.173-.27-.864-.595-1.12-1.754-.074-.407-.159-.528-.579-1.138-.14-.208-.746-.851-1.27-.949-.209-.037-.418-.23-.418-.408-.038-.204-.004-.769.308-1.313.062-.174 1.044-2.415 1.79-3.75.51-.928 2.185-4.655 2.662-5.363.315-.467.53-.91 1.167-1.206 1.003-.479 1.61-.933 1.95-1.11.346-.175 1.955-1.18 2.718-2.118.254-.303-.168-.655-.719-.463-.599.219-1.3.888-2.334 1.244-.324.117-1.056.264-1.365.228-.931-.102-1.322-.454-1.537-1.238-.126-.447-.664-1.058-1.021-.582-.18.246.455 2.235-.259 3.577-.712 1.34-1.413 3.472-5.063 8.424-.34.45-.814 1.547-1.92 1.728-1.102.19-2.126.25-2.722.995-.736.925-1.184.468-1.188.164.03-.345-.01-.592.731-1.19.913-.745 2.723-2.36 3.467-4.043.404-.858.851-1.655-.06-2.766-.314-.339-.312-1.015.312-1.188a14.594 14.594 0 0 1 1.642-.344c.323-.302-.39-.418-.786-.422-.154 0-1.038.076-.927-.687.043-.268.578-.64.677-.945.101-.305-.03-.356-.475-.26-.325.067-.477.263-.685.304-.207.035-.433.06-.54-.143-.103-.202-.191-.684-.297-.889-.074-.163-.103-.268-.275.042-.167.306-.158.863-.365 1.072-.453.088-.744-.071-.671-.478.197-1.128.579-2.345-.158-3.563-.217-.376-1.166-1.043-2.257-.039-.243.206-.048.34-1.192.24-1.006-.097-1.029.522-1.572.8-.657.335-.672.517-.836.666-.507.453-.318.675-1.396.102-1.39-.774-3.631-.173-4.694.699-.274.173-.791.716-1.485.139-.211-.166-1.118-.689-1.879-.784-.8-.06-.832-.063-.943-.438-.112-.372.06-.915.02-1.188-.03-.279-.66.122-.743.807-.221-.007-.176.25-.493-.018-.244-.203-.454-.266-.595-.437-.105-.134-.406-.067-.273.17.373.684.191.838.199 1.044 0 .166-1.349-.003-1.554 0-.177.006-.177.122-.104.135.575.174.666.47.97.622.207.093-.376.354-.84.185-.85-.323-2.841-.656-4.308-.287-.845.22-2.096 1.363-.97 2.387"></path><path d="M58.708 44.182c.24.113.094.21.537.138.146-.35.468-.619.193-1.384-.089.01-.35.275-.35.275s.03.49-.38.971m-.413 3.27c-.422-.29-.902-.266-1.31-.04-.383.205-.624.205-.95.246.273.176.276.556.782.486.437-.053.494.09.922.054.356-.04.474-.42.556-.746"></path></g><g fill="#005CA8"><path d="M49.025 48.792c.004.276.56.547.83.102.24-.408.1-.797.098-.963-.042-.377-.62-.856-.763-.097-.053.29-.166.652-.165.958m5.263-7.035c.79-.031 1.012.228 1.363.428.359.2.832-.185.257-.377-.626-.223-.464-.402-.924-.407-.782-.01-1.429.383-.696.356m.14 1.001c-.27.1-.051.441-.858.156-.154.104.236.44.126.534-.07.054-.355.2-.744.147-.464-.064.096.234.48.474.244.17 1.077.22 1.43-.372.129-.22-.003-.761.2-.857.593-.009.664.367.72.585.036.13-.09.647-.047.819-.003.137.24.173.293-.24.023-.172.113-.353.05-.615-.062-.261-.316-.75-.808-.838-.362-.088-.66.146-.842.207M39.434 31.007c-.102.177.01.691.318.791.313.098 3.435.576 3.918.637.483.066.795-.013.924-.485.102-.45.065-.75-.285-.925-.87-.431-3.5-.68-4.156-.538-.448.075-.615.351-.72.52m-.463 5.789c.623-.174 1.444-.63 2.205-.733.794-.149 1.93-.402 2.693-.414.793-.014 1.08-.263.653-1.11-.374-.744.108-1.324-1.173-1.342-1.94-.081-2.703.257-3.802.98-.652.42-1.388 1.16-1.59 1.475-.481.685.049 1.465 1.015 1.144m7.992-6.553c-.893.523-1.402 1.074-1.36 2.268.054 1.2.506 2.35.891 2.856.173.276.244.446.42.444.21 0 2.887.416 3.126.416.24-.013.913-.044 1.017-.115.138-.1.528-.966.629-1.14.102-.17.035-.803.035-1.01-.005-.2-.575-2.31-1.998-3.213-.458-.307-1.832-1.061-2.76-.506m4.942 1.363c.14.373.89 1.528 1.03 1.694.137.173.241.035.308.029.106-.034.538-.346.716-.381.202-.067.652-.282.756-.285.133-.004.128-.437.199-.502.034-.032 1.29-1.11 1.424-1.283.168-.205.476-.681-.354-.948-.737-.242-1.218-.348-2.432-.018a3.396 3.396 0 0 0-1.504.84.898.898 0 0 0-.143.854m5.266 1.822a2.964 2.964 0 0 0-1.28-.112c-.623.055-2.259.615-2.939 1.63-.228.36-.933 1.223-.1 1.248.83.033 2.7-.038 3.01-.053.313-.018.516-.16.64-.401.095-.214.69-1.583.811-1.862.093-.21.177-.365-.142-.45m2.084-4.796c-.617.59-2.114 2.618-2.352 2.962-.242.34-.688.693-.028.887.276.065.94.27 1.145.332.207.063.484.131.62-.08.138-.205 1.02-1.68 1.593-2.913.474-1.065-.362-1.772-.978-1.188m2.613-.838c-.368.73-1.134 2.606-1.436 3.223-.374.724-.222.476.192.409.446-.112 1.708-.432 2.049-.607.343-.173.219-.48.221-.652-.002-.174.018-1.5.047-2.12-.007-.577-.55-1.286-1.073-.253m-2.871 8.042c.657-.1 2.799-.294 3.283-.404.516-.15 2.028-.601 2.307-.815.307-.233.444-.55.16-1.028-.246-.436-.709-1.563-2.263-1.514-1.52.019-3.627.556-4.4 2.749-.267.825.22 1.165.913 1.012M43.152 53.819c.72.099 1.414.082 2.057.51.934.604 1.761.51 2.49.506.763-.044 1.622-.608 2.732-.008.798.273 1.012.286 1.362-.186.284-.383.424-.98-.338-1.352-.735-.336-1.228-.369-2.209-.538-.925-.147-1.775.056-2.3-.208-.798-.433-2.772-.686-3.527-.373-.729.285-.659.387-.897.627-.272.31-.358.884.63 1.022"></path><path d="M40.668 55.32c-.415.547.12.858.666.938.92.16 2.04.266 2.95.768.932.54 1.973.704 2.84.66.895-.082 1.649.139 2.628.215 1.038.075 1.822-.05 2.132-.498.303-.451.097-1.267-.632-1.639-.764-.404-1.223-.583-1.979-.54-.768.039-.969.475-1.487.549-.487.035-1.03.094-1.97-.51-1.009-.672-2.385-.93-3.283-.816-.519.036-1.46.317-1.865.873m-3.008 3.349c-.231.656.17 1.384 1.09 1.399.69.019 1.12-.298 1.601-.438.452-.106 1.386-.013 2.012.457.63.471 2.273 1.306 3.548 1.289.658-.006 2.14-.04 3.466.934.417.306 1.712 1.517 2.983.506.93-.746.674-1.27.46-1.989-.255-.87-1.63-1.495-2.05-1.76-.593-.403-1.645-.632-3.16-.21-.603.171-1.71.19-2.929-.548-1.25-.772-1.671-1.04-2.431-1.239-.798-.23-2.19-.02-2.84.226-.488.181-1.51.72-1.75 1.373m26.393-12.954c.418-.002 1.026-.673 1.517.043.492.712.7 1.222.91 1.491.25.308.55.495.722.488.133 0 .709-.025.921.525.247.578.387.913.667 1.083.279.173.77.82.497 1.377-.238.581-.24 1.037-.222 1.59.044 1.472 1.358 1.623 1.775 1.481.55-.208 1.33-1.114 1.462-1.493.168-.412.33-1.471.257-1.875-.04-.447-.725-1.277-1.213-1.621-.456-.302-.45-.574-.515-1.515-.07-.918-.568-1.879-1.362-2.036-.797-.172-1.06.007-1.173-.879-.11-.882-1.494-1.716-2.43-1.708-.968-.02-1.99.035-2.841 1.338-.576.896-.01 1.793 1.028 1.71"></path><path d="M61.19 48.245c.004.24.646.935 1.31 1.029.69.063 2.46.728 2.512 2.41.01.607-.019 1.553.44 2.195.455.644.584 1.534.353 2.526-.063.343-.46 1.27.173 2.24.389.58 2.31.727 2.644-.477.371-1.165.555-3.82-.107-4.731-.597-.853-1.33-1.146-.865-2.758.168-.681-.108-1.919-.975-2.047-1.108-.2-1.467-.667-1.816-1.359-.35-.71-1.962-1.024-2.792-.775-.48.142-1.025.415-.876 1.747"></path><path d="M60.818 50.442c-.652.34-.918.966-.988 1.384-.064.4.12 1.558.471 1.96.384.441 1.637 1.147 1.51 2.102-.03.443.256 1.115.762 1.49.271.206.473.894.072 1.749-.41.86-.578 2.106-.506 2.582.114.652 1.114 1.004 1.945.93.83-.083 1.438-1.072 1.507-1.352.102-.307.104-1.472-.463-2.425-.528-.918-.955-1.255-.482-2.18.508-.96.396-2.844-.33-3.29-.84-.524-1.015-.625-1.06-1.476-.003-.276-.15-.89-.532-1.264-.49-.473-1.08-.667-1.906-.21"></path></g><path d="M92.408 93.497v-5.568l-1.793.835c-.401.205-1.131.741-1.131 1.481v4.03c0 .64.868 1.048 1.43.95 0 0 1.494-.06 1.494-1.728zm-3.02 3.885c-.927-.07-3.239-.29-3.493-2.932-.068-.69-.068-1.24-.068-2.164 0-3.126.471-3.84 1.964-4.591 1.122-.569 3.785-1.808 4.113-1.978.341-.17.504-.401.504-.74v-2.032c0-.574-.028-1.163-1.464-1.171-1.407-.009-1.425.631-1.425 1.201v1.787a.735.735 0 0 1-.63.617h-2.127a.718.718 0 0 1-.633-.63v-1.717c0-1.74 1.36-3.317 4.785-3.317 3.358 0 5.207 1.107 5.207 5.262v9.202s.032 1.813.499 2.149c0 0 .164.203.173.443v.034s.033.277-.258.277h-2.088s-.51.082-.585-.62c-1.11.913-2.844.935-2.844.935l-1.63-.015zm-61.751-8.138h-2.43c-.356.038-.667.313-.667.829v2.935c0 .936-.054 2.058-2.476 2.058-2.478 0-2.478-1.335-2.484-2.058V78.65c0-1.27 1.083-1.542 2.514-1.542 1.43 0 2.505.473 2.505 1.475v3.22a.74.74 0 0 0 .687.654H27.5c.398-.028.704-.29.711-.688v-3.138c0-3.425-2.962-3.84-6.155-3.832-4.254.01-6.898 1.55-6.898 4.433v13.497c0 2.19 1.443 4.602 6.945 4.602 4.579 0 6.311-1.567 6.311-4.344v-2.932c-.027-.569-.202-.81-.812-.81m13.254 4.84s.142 1.813.534 2.266c0 0 .14.159.151.399v.041s.034.281-.272.281l-3.275-.013s-.87-.521-.85-2.388l.021-3.305v-7.979c0-.826-.398-1.405-1.414-1.388-1.78.031-2.127 2.756-2.127 2.756l.02 11.701a.749.749 0 0 1-.686.632h-2.36a.755.755 0 0 1-.694-.653V78.09s-.102-2.423 2.974-2.863c.41-.061.685.067.703.377v6.289c1.062-1.954 2.672-2.2 3.22-2.2 1.697 0 4.06.811 4.06 3.414l-.005 10.978zm36.334-9.482L77.198 80c.003-.17-.164-.323-.385-.307-.142-.01-.236.008-.4.02-3.324.384-2.972 2.884-2.972 2.884v12.098c-.006 2.415.763 2.387.763 2.387H77.6c.31 0 .272-.285.272-.285v-.04a.652.652 0 0 0-.18-.406c-.392-.538-.5-2.288-.5-2.288v-9.459zm-30.521 0L46.675 80c.004-.17-.164-.323-.385-.307-.142-.01-.235.008-.4.02-3.324.384-2.972 2.884-2.972 2.884v12.098c-.005 2.415.764 2.387.764 2.387h3.395c.31 0 .272-.285.272-.285v-.04c-.012-.247-.15-.406-.15-.406-.358-.495-.53-2.288-.53-2.288v-9.459zm37.055-2.359h.973c.29 0 .608-.252.617-.556v-1.199c-.017-.3-.342-.567-.643-.562h-.947v-4.4c.003-.17-.134-.313-.364-.29-.18-.008-.251-.003-.4.003-3.14.34-2.917 2.865-2.917 2.865l-.007 1.822h-.935c-.341 0-.645.283-.645.605v1.115c0 .313.304.597.626.597h.961V94.71c-.01 2.395.637 2.368.637 2.368h3.465c.303 0 .268-.284.268-.284v-.039a.686.686 0 0 0-.15-.401c-.48-.541-.54-2.268-.54-2.268v-11.84zM55.496 94.032l.008-11.112s.01-1.016-1.817-1.016c-1.788 0-1.776 1.004-1.776 1.004v11.135c-.01 0 .003.97 1.792.97 1.512 0 1.744-.642 1.786-.891.01-.056.007-.09.007-.09m4.037 11.047h-3.266s-.658.182-.664-2.233l.008-1.068V100.1l-.003-3.765-.009.001s-.018.829-2.65.829c-4.482 0-4.443-3.127-4.443-3.127l-.022-11.371s-.342-3.11 4.948-3.11c3.033 0 3.317 1.108 3.317 1.108s.366-.506.76-.758c.285-.182.57-.298.89-.348.645-.1.705.481.705.481l.005 2.624v13.6h-.006l-.007 5.844s.05 1.834.556 2.145c0 0 .136.27.145.507v.039s.036.28-.264.28m12.399-8.85c-.303-.503-.448-.623-.472-1.804V80.723s.07-.73-.913-.73h-1.862s-.922-.05-.922.734v13.282s0 1.044-1.652 1.044c-1.693 0-1.686-1.044-1.686-1.044V83.146h-.005V80.19c.01-.295-.26-.474-.697-.382-3.039.44-2.843 2.94-2.843 2.94v.4h-.002v11.619s.023 2.627 4.867 2.627c2.786 0 3.335-1.058 3.335-1.058s.365.82 1.423.82h1.254s.405.044.524-.209c.077-.205-.106-.316-.35-.719m23.21-17.557l-.028-2.263c.143.003.355 0 .642 0 .284-.004.44-.004.473-.004.18.01.33.045.454.113.204.106.307.288.308.532 0 .196-.05.33-.155.422a.738.738 0 0 1-.398.15.956.956 0 0 1 .328.125c.135.111.203.274.205.509l.007.2a.197.197 0 0 0 .005.071.185.185 0 0 0 .016.062l.02.069-.573.004a1.474 1.474 0 0 1-.041-.312 1.125 1.125 0 0 0-.038-.277.266.266 0 0 0-.173-.163.537.537 0 0 0-.205-.035l-.132-.007h-.123l.006.804h-.598zm1.07-1.823a.868.868 0 0 0-.343-.047h-.147l.004.665.235-.011a.61.61 0 0 0 .329-.079c.077-.064.114-.154.114-.277-.002-.122-.066-.207-.191-.25zm1.285 2.13c-.4.387-.877.583-1.44.593a2.022 2.022 0 0 1-1.48-.578c-.4-.384-.603-.863-.61-1.444-.007-.598.202-1.097.627-1.496.404-.375.873-.56 1.418-.57.569.002 1.06.19 1.467.59.409.393.617.872.624 1.438a1.958 1.958 0 0 1-.606 1.467zm-2.69-2.616a1.624 1.624 0 0 0-.482 1.181c.008.47.178.872.519 1.208a1.63 1.63 0 0 0 1.205.478c.468-.002.87-.173 1.204-.512.327-.334.49-.74.487-1.21a1.63 1.63 0 0 0-.51-1.17 1.633 1.633 0 0 0-1.215-.502c-.47.002-.879.177-1.208.527zm-49.834 2.504c1.343 0 1.904-.387 1.904-2.323 0-1.845-.533-2.322-1.904-2.322-1.626 0-1.837.77-1.837 2.384 0 1.957.585 2.261 1.837 2.261m30.521 0c1.344 0 1.905-.387 1.905-2.323 0-1.845-.533-2.322-1.905-2.322-1.625 0-1.836.77-1.836 2.384 0 1.957.585 2.261 1.836 2.261" fill="#FEFEFE"></path></g></svg> 