<?xml version="1.0" standalone="no"?>
<!DOCTYPE svg PUBLIC "-//W3C//DTD SVG 20010904//EN"
 "http://www.w3.org/TR/2001/REC-SVG-20010904/DTD/svg10.dtd">
<svg version="1.0" xmlns="http://www.w3.org/2000/svg"
 width="826.000000pt" height="516.000000pt" viewBox="0 0 826.000000 516.000000"
 preserveAspectRatio="xMidYMid meet">

<g transform="translate(0.000000,516.000000) scale(0.100000,-0.100000)"
fill="#000000" stroke="none">
<path d="M4564 5002 c3 -5 -10 -13 -29 -16 l-35 -7 0 -118 0 -119 40 -4 c23
-2 45 -1 51 2 6 4 8 58 7 136 -3 117 -5 129 -22 132 -10 2 -16 0 -12 -6z"/>
<path d="M4040 4865 l0 -125 90 0 91 0 -3 123 -3 122 -87 3 -88 3 0 -126z"/>
<path d="M3955 4643 c33 -2 65 -9 70 -15 7 -7 -15 -9 -75 -5 -52 4 -79 3 -70
-3 9 -5 114 -13 234 -18 203 -9 220 -11 235 -30 17 -21 171 -65 189 -53 5 3
10 34 11 69 l2 62 -328 -2 c-180 -1 -301 -3 -268 -5z"/>
<path d="M6080 4350 l0 -110 65 0 c52 0 69 4 85 20 29 29 25 90 -6 90 -18 0
-17 10 1 34 19 26 19 32 -5 56 -16 16 -33 20 -80 20 l-60 0 0 -110z m98 48
c-2 -15 -11 -24 -25 -26 -19 -3 -23 1 -23 22 0 21 5 26 26 26 21 0 25 -4 22
-22z m10 -70 c19 -19 14 -38 -10 -47 -33 -12 -48 -3 -48 30 0 24 4 29 23 29
13 0 28 -5 35 -12z"/>
<path d="M6290 4350 l0 -110 25 0 c23 0 25 4 25 40 0 52 20 53 57 0 27 -39 29
-40 90 -40 56 0 62 2 65 23 3 19 9 22 43 22 34 0 40 -3 43 -22 3 -18 10 -23
32 -23 l28 0 -36 110 c-36 110 -37 111 -67 108 -28 -3 -31 -8 -64 -105 -20
-57 -39 -103 -42 -103 -4 0 -22 18 -39 41 l-33 40 22 20 c12 11 21 32 21 49 0
42 -32 60 -107 60 l-63 0 0 -110z m116 55 c9 -21 -14 -45 -42 -45 -20 0 -24 5
-24 30 0 27 3 30 30 30 18 0 33 -6 36 -15z m208 -57 c6 -25 4 -28 -19 -28 -23
0 -25 3 -19 28 4 15 9 31 12 35 6 13 18 -4 26 -35z"/>
<path d="M6730 4350 c0 -103 1 -110 20 -110 18 0 20 7 20 75 0 41 3 75 8 75 4
0 25 -34 47 -75 35 -66 43 -75 67 -75 l28 0 0 110 0 110 -25 0 c-23 0 -24 -4
-27 -62 l-3 -63 -35 62 c-32 57 -38 63 -67 63 l-33 0 0 -110z"/>
<path d="M6970 4350 l0 -110 55 0 c61 0 108 19 125 49 5 11 10 38 10 61 0 23
-5 50 -10 61 -17 30 -64 49 -125 49 l-55 0 0 -110z m122 53 c23 -20 24 -80 1
-105 -9 -10 -29 -18 -45 -18 l-28 0 0 70 c0 69 0 70 27 70 14 0 35 -7 45 -17z"/>
<path d="M5986 4056 c101 -44 43 -250 -95 -338 -47 -29 -49 -38 -3 -14 135 71
213 310 116 355 -14 6 -30 11 -37 11 -7 -1 2 -7 19 -14z"/>
<path d="M5899 4037 c-67 -45 -126 -170 -136 -289 -6 -67 -6 -68 -35 -68 -79
0 -148 63 -148 137 0 38 5 50 35 80 30 30 40 34 77 32 26 -2 43 1 46 9 5 17
-72 16 -107 -2 -66 -35 -87 -132 -41 -195 26 -38 90 -70 136 -71 29 0 32 -3
36 -43 9 -82 59 -148 110 -147 7 1 -1 7 -19 15 -38 16 -62 59 -70 124 -5 47
-5 48 28 59 l34 11 -34 -5 -34 -6 6 61 c13 124 79 264 141 302 17 11 26 19 20
19 -6 0 -26 -10 -45 -23z"/>
<path d="M6072 4009 c19 -25 24 -46 26 -119 4 -95 -5 -155 -38 -242 -24 -64
-81 -135 -124 -154 -17 -7 -25 -13 -18 -14 25 0 70 30 105 71 72 84 116 255
95 371 -10 54 -42 118 -59 118 -5 0 1 -14 13 -31z"/>
<path d="M7337 3905 c-8 -19 13 -31 23 -14 9 14 4 29 -10 29 -4 0 -10 -7 -13
-15z"/>
<path d="M6179 3883 c-3 -66 -5 -90 -12 -123 l-6 -35 11 33 c25 73 46 5 23
-75 -9 -30 -14 -62 -11 -69 8 -22 44 -16 57 9 12 22 12 22 -9 4 -30 -27 -34
-7 -15 67 17 64 17 66 -4 94 -17 23 -20 38 -16 75 4 31 2 47 -6 47 -6 0 -12
-12 -12 -27z"/>
<path d="M7080 3895 c0 -8 7 -15 15 -15 8 0 15 7 15 15 0 8 -7 15 -15 15 -8 0
-15 -7 -15 -15z"/>
<path d="M6326 3821 c-16 -17 -83 -181 -69 -167 4 4 12 -7 19 -24 17 -39 36
-38 68 3 l26 32 0 -32 c0 -37 19 -44 41 -15 13 15 12 16 -2 4 -26 -20 -29 4
-13 94 13 74 18 153 7 112 -6 -22 -19 -23 -27 -3 -8 21 -29 19 -50 -4z m54
-55 c0 -49 -43 -146 -64 -146 -25 0 -29 19 -16 85 15 80 45 132 65 115 9 -7
15 -30 15 -54z"/>
<path d="M6476 3823 c-2 -10 -8 -38 -11 -63 -4 -25 -16 -62 -27 -84 -11 -21
-14 -35 -7 -31 9 6 10 1 7 -19 -3 -16 -1 -26 7 -26 6 0 17 29 24 68 13 73 53
152 76 152 19 0 19 -31 0 -94 -8 -27 -15 -67 -15 -88 0 -35 3 -39 22 -36 12 2
33 18 45 37 19 28 23 30 23 13 0 -57 35 -69 70 -24 l21 27 -7 -35 c-4 -19 -19
-50 -35 -68 -46 -52 -52 -112 -11 -112 22 0 39 34 52 101 8 43 64 137 83 138
4 1 7 -8 7 -20 0 -55 58 -81 92 -41 18 19 48 77 48 89 -1 4 -8 -5 -17 -22 -24
-46 -44 -65 -68 -65 -26 0 -35 17 -35 66 0 22 5 34 14 34 8 0 28 16 46 36 35
40 37 77 5 82 -28 4 -60 -33 -79 -91 -16 -48 -63 -127 -76 -127 -4 0 2 47 13
105 18 99 17 138 -2 106 -6 -9 -11 -10 -15 -2 -21 33 -70 -10 -90 -80 -16 -53
-51 -125 -66 -134 -20 -12 -23 29 -6 99 20 89 20 115 -1 123 -11 4 -26 -4 -46
-28 l-29 -34 6 33 c6 33 -9 46 -18 15z m250 -66 c-7 -65 -43 -139 -65 -135
-32 7 -13 143 27 190 12 14 18 16 30 6 10 -9 13 -25 8 -61z m164 48 c0 -26
-40 -75 -60 -75 -13 0 -6 28 17 73 17 35 43 36 43 2z m-208 -316 c-9 -36 -34
-46 -40 -16 -2 9 7 34 20 55 20 32 23 34 26 16 2 -12 -1 -37 -6 -55z"/>
<path d="M7076 3830 c-21 -54 -34 -100 -27 -100 4 0 2 -31 -5 -69 -10 -52 -23
-82 -49 -117 -41 -54 -45 -97 -8 -102 27 -4 37 15 53 93 9 43 21 71 46 99 29
33 34 36 34 18 0 -54 41 -73 62 -27 14 31 26 32 30 3 5 -38 35 -34 60 9 l23
38 3 -37 c3 -29 7 -38 22 -38 10 0 26 10 34 22 24 34 19 45 -6 13 -17 -22 -23
-24 -29 -12 -8 13 11 149 27 200 4 13 2 18 -7 15 -8 -3 -21 -36 -30 -74 -16
-73 -38 -123 -62 -143 -25 -20 -28 15 -8 122 21 115 5 128 -19 16 -23 -105
-61 -173 -76 -134 -4 9 1 56 10 104 19 103 19 111 7 111 -5 0 -14 -29 -21 -65
-12 -66 -69 -172 -78 -147 -2 8 4 53 13 102 16 82 17 138 1 100z m-53 -302
c-10 -54 -22 -80 -36 -75 -17 6 -12 52 10 81 25 35 34 32 26 -6z"/>
<path d="M7436 3821 c-15 -17 -72 -161 -58 -146 4 3 11 -11 17 -32 9 -31 16
-39 39 -41 31 -4 71 26 82 62 6 19 8 17 19 -13 24 -72 77 -68 118 8 15 27 27
53 27 57 -1 5 -12 -12 -25 -38 -32 -61 -57 -76 -85 -48 -31 31 -26 76 9 95 53
27 82 97 47 111 -25 9 -52 -13 -70 -58 -44 -108 -71 -153 -94 -156 -43 -6 -55
15 -49 86 5 66 30 117 58 117 18 0 24 -47 10 -74 -7 -13 -8 -22 -1 -26 12 -8
22 33 18 76 -4 41 -34 51 -62 20z m194 -10 c0 -21 -46 -81 -62 -81 -13 0 -2
47 18 78 18 27 44 29 44 3z"/>
<path d="M4854 3725 c0 -49 1 -71 3 -48 2 23 2 64 0 90 -2 26 -3 8 -3 -42z"/>
<path d="M4824 3619 c-3 -5 7 -9 22 -9 15 0 24 3 20 7 -11 11 -35 12 -42 2z"/>
<path d="M4795 3589 c-16 -4 -48 -12 -70 -17 -36 -7 -28 -9 65 -16 93 -7 102
-9 85 -22 -17 -12 -5 -14 98 -14 110 0 117 1 117 20 0 18 -7 20 -78 20 -58 0
-86 5 -115 20 -40 21 -55 23 -102 9z"/>
<path d="M3170 3545 c0 -22 4 -25 33 -25 23 0 28 3 17 10 -17 11 -14 14 25 28
28 10 27 10 -22 11 -50 1 -53 0 -53 -24z"/>
<path d="M3930 3540 c0 -19 7 -20 189 -20 184 0 189 1 184 20 -5 19 -14 20
-189 20 -177 0 -184 -1 -184 -20z"/>
<path d="M3448 3340 c-22 -13 -41 -74 -33 -102 8 -26 34 -58 47 -58 4 0 -1 9
-12 20 -33 33 -30 95 6 128 26 23 22 29 -8 12z"/>
<path d="M3510 3343 c35 -13 50 -37 50 -79 0 -34 -5 -47 -26 -63 -15 -12 -22
-21 -15 -21 6 0 20 9 31 20 43 43 15 152 -37 149 -14 0 -15 -2 -3 -6z"/>
<path d="M3753 3297 c22 -18 22 -47 -1 -47 -24 0 -62 -28 -62 -45 0 -24 35
-37 64 -23 23 10 26 17 26 59 0 40 -4 50 -22 59 -21 10 -21 10 -5 -3z m17 -77
c0 -10 -10 -24 -21 -31 -17 -9 -25 -8 -38 6 -15 15 -15 17 3 31 29 20 56 18
56 -6z"/>
<path d="M3992 3294 c-43 -30 -20 -124 31 -124 9 0 19 5 22 10 3 6 10 10 16
10 16 0 10 -29 -11 -50 -11 -11 -16 -20 -11 -20 6 0 17 10 25 22 18 25 23 164
7 153 -5 -3 -7 -21 -4 -40 4 -26 1 -41 -12 -55 -36 -40 -75 -18 -75 42 0 40
27 65 56 54 9 -3 12 -1 9 4 -9 14 -27 12 -53 -6z"/>
<path d="M4710 3290 c-55 -55 8 -152 70 -109 11 8 7 9 -16 4 -22 -4 -36 -1
-48 10 -30 30 -20 45 29 45 37 0 45 3 45 18 0 21 -29 52 -48 52 -7 0 -21 -9
-32 -20z m54 -6 c25 -25 19 -34 -24 -34 -44 0 -48 5 -23 32 20 22 27 22 47 2z"/>
<path d="M6321 3289 c-17 -14 -19 -19 -7 -19 25 0 24 -137 -1 -143 -10 -3 5
-5 32 -4 28 0 40 2 28 4 -21 4 -22 10 -25 93 l-3 88 -24 -19z"/>
<path d="M6446 3294 c-22 -21 -24 -119 -5 -156 10 -19 54 -24 78 -9 23 15 27
125 7 156 -19 29 -56 33 -80 9z m63 -8 c19 -22 10 -136 -11 -150 -31 -19 -52
15 -52 79 2 73 32 108 63 71z"/>
<path d="M6589 3294 c-18 -22 -23 -114 -7 -144 17 -31 68 -39 89 -14 19 23 19
135 0 157 -17 21 -64 22 -82 1z m65 -16 c29 -41 18 -133 -17 -144 -30 -9 -47
20 -47 82 0 75 33 107 64 62z"/>
<path d="M6732 3298 c-6 -6 -12 -27 -12 -45 0 -26 6 -36 25 -45 37 -17 57 5
53 56 -3 35 -6 41 -28 44 -14 2 -31 -3 -38 -10z m54 -25 c8 -29 -6 -58 -27
-58 -9 0 -15 14 -17 43 -3 37 -1 42 17 42 14 0 23 -9 27 -27z"/>
<path d="M6830 3224 c-49 -95 -58 -115 -43 -99 18 18 105 185 96 185 -4 0 -28
-39 -53 -86z"/>
<path d="M3611 3235 l2 -60 6 46 c4 26 12 53 18 61 10 11 8 14 -8 14 -17 0
-19 -7 -18 -61z"/>
<path d="M3708 3293 c7 -3 16 -2 19 1 4 3 -2 6 -13 5 -11 0 -14 -3 -6 -6z"/>
<path d="M3831 3235 l2 -60 6 49 c4 28 14 54 25 61 15 12 15 13 -8 11 -25 -1
-26 -3 -25 -61z"/>
<path d="M3908 3288 c7 -7 13 -35 14 -62 1 -46 2 -47 5 -12 5 48 -3 86 -19 86
-9 0 -9 -3 0 -12z"/>
<path d="M4126 3278 c-41 -58 17 -135 74 -98 11 7 6 8 -16 4 -25 -5 -35 -2
-48 17 -24 35 -20 39 30 39 43 0 45 1 42 27 -2 14 -10 28 -18 31 -12 4 -13 2
-2 -9 24 -25 14 -39 -29 -39 l-41 0 16 25 c20 31 13 33 -8 3z"/>
<path d="M4320 3220 c-5 -78 -7 -85 -30 -97 -24 -12 -24 -13 -3 -13 33 0 44
32 41 118 l-4 77 -4 -85z"/>
<path d="M4382 3249 c-2 -64 12 -86 50 -73 13 4 26 7 31 6 4 -1 6 26 5 61 l-2
62 -3 -52 c-3 -39 -9 -56 -23 -63 -34 -18 -49 -2 -53 58 l-3 57 -2 -56z"/>
<path d="M4523 3240 c0 -36 2 -50 4 -32 2 17 2 47 0 65 -2 17 -4 3 -4 -33z"/>
<path d="M4590 3285 c-19 -22 -8 -25 13 -3 9 10 13 18 8 18 -5 0 -14 -7 -21
-15z"/>
<path d="M4575 3225 c3 -16 11 -34 16 -39 17 -18 15 -1 -4 34 -19 35 -19 35
-12 5z"/>
<path d="M6866 3205 c-18 -49 4 -89 46 -83 20 3 23 9 23 48 0 43 -1 45 -31 48
-22 2 -33 -2 -38 -13z m59 -35 c0 -28 -4 -35 -20 -35 -16 0 -21 8 -23 38 -3
35 -1 38 20 35 19 -2 23 -9 23 -38z"/>
<path d="M4359 3093 c-1 -10 0 -28 1 -40 1 -16 -4 -23 -15 -23 -13 0 -16 6
-12 26 3 16 1 22 -5 16 -16 -16 -4 -47 20 -50 20 -3 22 1 22 42 0 44 -9 66
-11 29z"/>
<path d="M3644 3065 c-10 -25 4 -47 28 -43 24 3 36 34 20 50 -6 6 -8 0 -5 -16
4 -19 1 -26 -11 -26 -22 0 -33 30 -15 41 10 6 11 9 1 9 -7 0 -15 -7 -18 -15z"/>
<path d="M3720 3050 c0 -16 2 -30 4 -30 2 0 6 14 8 30 3 17 1 30 -4 30 -4 0
-8 -13 -8 -30z"/>
<path d="M3820 3050 c0 -16 2 -30 4 -30 2 0 6 14 8 30 3 17 1 30 -4 30 -4 0
-8 -13 -8 -30z"/>
<path d="M3858 3050 c2 -16 6 -30 8 -30 2 0 4 14 4 30 0 17 -4 30 -8 30 -5 0
-7 -13 -4 -30z"/>
<path d="M3886 3073 c7 -4 14 -19 17 -33 4 -22 5 -21 4 4 -1 17 -9 31 -17 33
-10 3 -11 2 -4 -4z"/>
<path d="M3962 3050 c0 -19 2 -27 5 -17 2 9 2 25 0 35 -3 9 -5 1 -5 -18z"/>
<path d="M3991 3038 c0 -24 3 -37 6 -30 2 6 10 12 18 12 7 0 18 6 24 14 12 15
5 46 -11 46 -6 0 -5 -6 2 -15 14 -17 5 -35 -17 -35 -11 0 -14 7 -11 25 3 14 1
25 -3 25 -5 0 -9 -19 -8 -42z"/>
<path d="M4060 3071 c0 -5 7 -14 15 -21 8 -7 12 -17 8 -23 -4 -6 -1 -7 6 -3 9
6 9 12 -3 25 -9 10 -13 21 -9 24 3 4 1 7 -5 7 -7 0 -12 -4 -12 -9z"/>
<path d="M4111 3068 c-2 -28 10 -48 30 -48 10 0 19 4 19 9 0 5 -8 8 -17 7 -10
0 -20 9 -24 24 -4 14 -7 18 -8 8z"/>
<path d="M4219 3046 c4 -29 5 -30 11 -7 8 35 28 37 33 4 4 -27 4 -27 6 4 1 29
-2 32 -27 31 -26 -1 -28 -4 -23 -32z"/>
<path d="M4394 3065 c-9 -23 3 -45 25 -45 11 0 22 9 26 20 7 23 -1 40 -18 40
-8 0 -7 -3 2 -9 18 -11 7 -41 -15 -41 -12 0 -15 7 -12 25 6 28 1 33 -8 10z"/>
<path d="M4460 3070 c0 -5 5 -10 10 -10 6 0 10 5 10 10 0 6 -4 10 -10 10 -5 0
-10 -4 -10 -10z"/>
<path d="M4494 3065 c-10 -25 4 -47 28 -43 24 3 36 34 20 50 -6 6 -8 0 -5 -16
4 -19 1 -26 -11 -26 -22 0 -33 30 -15 41 10 6 11 9 1 9 -7 0 -15 -7 -18 -15z"/>
<path d="M4570 3069 c0 -5 5 -7 10 -4 6 3 10 8 10 11 0 2 -4 4 -10 4 -5 0 -10
-5 -10 -11z"/>
<path d="M3750 3051 c0 -5 8 -15 18 -22 15 -12 16 -12 5 2 -7 9 -10 19 -6 22
3 4 1 7 -5 7 -7 0 -12 -4 -12 -9z"/>
<path d="M6173 2935 c1 -49 2 -68 4 -42 3 39 9 50 29 59 31 15 37 7 45 -55 l6
-52 1 50 c2 65 -8 80 -46 72 -29 -6 -31 -4 -35 26 -2 18 -4 -8 -4 -58z"/>
<path d="M6680 2995 c0 -21 -5 -25 -28 -25 -38 0 -52 -17 -52 -61 0 -44 16
-59 58 -56 l32 2 0 83 c0 45 -2 82 -5 82 -3 0 -5 -11 -5 -25z m-2 -77 c2 -29
-1 -39 -18 -48 -28 -15 -50 3 -50 39 0 33 18 53 45 49 15 -2 21 -12 23 -40z"/>
<path d="M7450 2941 c0 -44 5 -83 10 -86 6 -4 10 25 10 79 0 51 -4 86 -10 86
-6 0 -10 -33 -10 -79z"/>
<path d="M5760 2929 c0 -51 4 -78 10 -74 6 3 10 21 10 40 0 32 2 34 38 38 l37
4 -37 1 c-35 2 -38 4 -38 31 0 27 4 30 38 34 34 3 33 4 -10 5 l-48 2 0 -81z"/>
<path d="M6802 2928 l2 -83 5 75 6 75 38 -72 c20 -40 42 -73 47 -73 6 0 10 34
10 80 0 52 -4 80 -11 80 -8 0 -10 -20 -7 -60 2 -33 1 -60 -2 -60 -3 0 -19 27
-35 60 -41 86 -55 80 -53 -22z"/>
<path d="M7059 2983 c-3 -50 4 -109 13 -120 6 -7 18 -13 27 -13 14 1 14 2 -1
11 -13 7 -18 23 -18 54 0 37 3 44 23 48 l22 4 -22 2 c-13 0 -23 8 -23 16 0 21
-20 19 -21 -2z"/>
<path d="M5882 2910 c1 -58 2 -60 5 -16 3 37 8 49 24 53 10 3 19 9 19 14 0 13
-17 11 -26 -2 -4 -8 -9 -7 -15 2 -5 9 -8 -11 -7 -51z"/>
<path d="M5962 2958 c-20 -20 -15 -86 7 -98 25 -13 58 -13 66 0 4 7 -2 9 -18
5 -16 -4 -30 -1 -41 10 -25 26 -19 35 25 35 38 0 40 1 37 28 -2 22 -9 28 -33
30 -17 2 -36 -3 -43 -10z m66 -20 c3 -15 -4 -18 -32 -18 -38 0 -44 8 -24 28
17 17 52 11 56 -10z"/>
<path d="M6077 2963 c-4 -3 -7 -16 -7 -28 0 -17 8 -24 31 -29 22 -4 30 -11 27
-23 -3 -13 -12 -18 -38 -16 -23 1 -29 -1 -19 -8 21 -13 46 -11 63 7 24 23 20
33 -20 50 -40 17 -41 39 -1 39 15 -1 27 3 27 7 0 10 -54 11 -63 1z"/>
<path d="M6394 2961 c41 -9 43 -26 4 -37 -28 -8 -33 -14 -33 -39 0 -28 2 -30
40 -30 39 1 40 2 43 37 5 54 -12 78 -51 77 l-32 -1 29 -7z m36 -65 c0 -16 -7
-27 -20 -31 -41 -13 -57 29 -17 45 33 13 37 12 37 -14z"/>
<path d="M6482 2905 c1 -53 2 -55 5 -15 5 50 17 70 44 70 19 0 26 -16 32 -80
3 -26 4 -23 5 15 2 65 -6 76 -51 73 l-37 -3 2 -60z"/>
<path d="M6950 2962 c0 -4 12 -8 27 -7 38 0 39 -20 1 -31 -28 -8 -33 -14 -33
-39 0 -28 2 -30 43 -31 l42 -1 0 47 c0 25 -5 51 -12 58 -13 13 -68 17 -68 4z
m60 -66 c0 -26 -20 -39 -45 -30 -22 9 -18 33 8 44 33 13 37 12 37 -14z"/>
<path d="M7144 2915 l1 -60 38 0 37 -1 -2 61 c-1 55 -2 56 -5 13 -7 -88 -59
-93 -66 -6 -4 52 -4 52 -3 -7z"/>
<path d="M7262 2910 l1 -65 6 50 c5 42 10 51 29 53 12 2 22 8 22 13 0 11 -11
11 -30 -1 -9 -6 -17 -5 -22 3 -4 7 -7 -17 -6 -53z"/>
<path d="M7340 2961 c0 -5 9 -7 20 -4 11 3 27 -1 36 -8 14 -11 11 -14 -23 -24
-31 -8 -39 -16 -41 -38 -3 -28 -2 -29 55 -31 32 -1 33 0 33 41 0 61 -7 73 -46
73 -19 0 -34 -4 -34 -9z m68 -64 c5 -22 -35 -42 -54 -26 -20 16 -17 28 9 39
28 11 41 8 45 -13z"/>
<path d="M6753 2745 c0 -27 2 -38 4 -22 2 15 2 37 0 50 -2 12 -4 0 -4 -28z"/>
<path d="M7034 2741 c1 -30 6 -46 16 -48 10 -3 11 -2 3 4 -6 4 -13 26 -16 48
-4 40 -4 40 -3 -4z"/>
<path d="M7374 2741 c1 -30 6 -46 16 -48 10 -3 11 -2 3 4 -6 4 -13 26 -16 48
-4 40 -4 40 -3 -4z"/>
<path d="M5863 2744 c-8 -22 10 -49 33 -49 21 0 33 40 17 56 -6 6 -8 -3 -5
-22 4 -26 2 -30 -14 -27 -13 2 -19 12 -19 31 1 31 -3 34 -12 11z"/>
<path d="M5941 2723 c2 -35 2 -35 6 -8 3 16 10 33 16 37 8 5 6 8 -5 8 -14 0
-18 -8 -17 -37z"/>
<path d="M5983 2744 c-8 -22 9 -48 33 -51 14 -2 12 0 -5 7 -18 8 -22 16 -19
35 6 28 1 33 -9 9z"/>
<path d="M6026 2747 c3 -10 9 -15 12 -12 3 3 0 11 -7 18 -10 9 -11 8 -5 -6z"/>
<path d="M6060 2749 c0 -5 5 -7 10 -4 6 3 10 8 10 11 0 2 -4 4 -10 4 -5 0 -10
-5 -10 -11z"/>
<path d="M6098 2728 c2 -15 5 -28 7 -28 2 0 5 13 7 28 2 17 -1 29 -7 29 -6 0
-9 -12 -7 -29z"/>
<path d="M6139 2722 c5 -34 6 -35 9 -8 2 16 0 32 -5 37 -5 5 -7 -7 -4 -29z"/>
<path d="M6213 2725 c0 -22 2 -30 4 -17 2 12 2 30 0 40 -3 9 -5 -1 -4 -23z"/>
<path d="M6240 2713 c0 -27 4 -43 8 -38 4 6 16 15 27 21 11 6 21 20 22 30 2
15 1 14 -7 -3 -5 -13 -17 -23 -26 -23 -12 0 -15 7 -12 30 3 17 1 30 -4 30 -4
0 -8 -21 -8 -47z"/>
<path d="M6310 2745 c0 -8 2 -15 4 -15 2 0 6 7 10 15 3 8 1 15 -4 15 -6 0 -10
-7 -10 -15z"/>
<path d="M6372 2735 c0 -16 2 -22 5 -12 2 9 2 23 0 30 -3 6 -5 -1 -5 -18z"/>
<path d="M6421 2737 c-1 -18 -8 -31 -23 -37 -13 -5 -16 -9 -8 -9 28 -1 42 15
37 45 l-4 29 -2 -28z"/>
<path d="M6450 2730 c0 -16 2 -30 4 -30 2 0 6 14 8 30 3 17 1 30 -4 30 -4 0
-8 -13 -8 -30z"/>
<path d="M6488 2723 c2 -18 5 -33 7 -33 2 0 5 15 7 33 2 20 -1 34 -7 34 -6 0
-9 -14 -7 -34z"/>
<path d="M6529 2722 c5 -34 6 -35 9 -8 2 16 0 32 -5 37 -5 5 -7 -7 -4 -29z"/>
<path d="M6673 2744 c-8 -22 10 -49 33 -49 21 0 33 40 17 56 -6 6 -8 -3 -5
-22 4 -26 2 -30 -14 -27 -13 2 -19 12 -19 31 1 31 -3 34 -12 11z"/>
<path d="M6775 2739 c-5 -13 -1 -27 8 -36 17 -17 47 -11 47 9 0 10 -3 9 -9 -1
-15 -24 -44 -5 -37 24 8 30 0 33 -9 4z"/>
<path d="M6853 2725 c0 -22 2 -30 4 -17 2 12 2 30 0 40 -3 9 -5 -1 -4 -23z"/>
<path d="M6941 2747 c0 -10 6 -20 14 -23 18 -7 20 -21 3 -27 -8 -2 -7 -3 2 -3
20 2 26 36 6 36 -8 0 -17 8 -19 18 -4 16 -5 16 -6 -1z"/>
<path d="M7003 2725 c0 -22 2 -30 4 -17 2 12 2 30 0 40 -3 9 -5 -1 -4 -23z"/>
<path d="M7154 2752 c3 -5 0 -13 -6 -15 -9 -4 -10 -6 -1 -6 17 -1 25 16 12 25
-7 4 -9 3 -5 -4z"/>
<path d="M7190 2749 c0 -5 5 -7 10 -4 6 3 10 8 10 11 0 2 -4 4 -10 4 -5 0 -10
-5 -10 -11z"/>
<path d="M7228 2723 c2 -18 5 -33 7 -33 2 0 5 15 7 33 2 20 -1 34 -7 34 -6 0
-9 -14 -7 -34z"/>
<path d="M7269 2722 c5 -34 6 -35 9 -8 2 16 0 32 -5 37 -5 5 -7 -7 -4 -29z"/>
<path d="M7336 2745 c4 -8 8 -15 10 -15 2 0 4 7 4 15 0 8 -4 15 -10 15 -5 0
-7 -7 -4 -15z"/>
<path d="M6340 2723 c17 -8 11 -21 -12 -26 -20 -5 -20 -5 2 -4 26 2 35 28 12
33 -7 1 -8 0 -2 -3z"/>
<path d="M7114 2719 c-3 -6 -2 -15 4 -21 12 -12 52 -1 52 15 0 8 -3 8 -12 -1
-17 -17 -41 -15 -34 3 6 17 0 20 -10 4z"/>
<path d="M6600 2711 c0 -10 19 -25 25 -20 1 2 -3 10 -11 17 -8 7 -14 8 -14 3z"/>
<path d="M7308 2698 c6 -6 18 -8 28 -6 14 3 12 5 -9 10 -19 3 -25 2 -19 -4z"/>
<path d="M4077 2673 c-13 -12 -7 -80 9 -119 26 -64 32 -67 69 -37 l33 26 -51
66 c-27 36 -51 67 -52 69 -1 1 -5 -1 -8 -5z"/>
<path d="M3625 2626 c-12 -8 -16 -19 -11 -31 6 -15 8 -15 26 8 30 38 23 51
-15 23z"/>
<path d="M7293 2580 c0 -30 2 -43 4 -27 2 15 2 39 0 55 -2 15 -4 2 -4 -28z"/>
<path d="M6254 2581 c1 -30 6 -46 16 -48 10 -3 11 -2 3 4 -6 4 -13 26 -16 48
-4 40 -4 40 -3 -4z"/>
<path d="M6360 2605 c0 -8 4 -15 10 -15 5 0 7 7 4 15 -4 8 -8 15 -10 15 -2 0
-4 -7 -4 -15z"/>
<path d="M7350 2600 c0 -5 5 -10 11 -10 5 0 7 5 4 10 -3 6 -8 10 -11 10 -2 0
-4 -4 -4 -10z"/>
<path d="M5988 2593 c7 -3 16 -2 19 1 4 3 -2 6 -13 5 -11 0 -14 -3 -6 -6z"/>
<path d="M6029 2562 c5 -34 6 -35 9 -8 2 16 0 32 -5 37 -5 5 -7 -7 -4 -29z"/>
<path d="M6055 2590 c-3 -5 3 -15 15 -22 23 -15 26 -25 8 -31 -8 -2 -7 -3 2
-3 24 2 24 33 -1 39 -11 3 -18 10 -14 16 3 6 4 11 1 11 -3 0 -8 -4 -11 -10z"/>
<path d="M6156 2587 c3 -10 9 -15 12 -12 3 3 0 11 -7 18 -10 9 -11 8 -5 -6z"/>
<path d="M6190 2589 c0 -5 5 -7 10 -4 6 3 10 8 10 11 0 2 -4 4 -10 4 -5 0 -10
-5 -10 -11z"/>
<path d="M6293 2584 c-8 -22 9 -48 33 -51 14 -2 12 0 -5 7 -18 8 -22 16 -19
35 6 28 1 33 -9 9z"/>
<path d="M6336 2587 c3 -10 9 -15 12 -12 3 3 0 11 -7 18 -10 9 -11 8 -5 -6z"/>
<path d="M6414 2571 c0 -21 7 -36 16 -38 10 -3 11 -2 3 4 -6 4 -13 22 -16 38
-4 27 -5 27 -3 -4z"/>
<path d="M6453 2565 c0 -22 2 -30 4 -17 2 12 2 30 0 40 -3 9 -5 -1 -4 -23z"/>
<path d="M6482 2563 c1 -37 1 -37 5 -6 3 19 11 34 21 36 12 3 10 5 -5 6 -20 1
-23 -3 -21 -36z"/>
<path d="M6605 2590 c3 -5 0 -10 -7 -10 -9 0 -10 -2 -2 -8 7 -4 14 -16 17 -27
3 -12 5 -4 6 18 0 20 -4 37 -10 37 -5 0 -7 -4 -4 -10z"/>
<path d="M6644 2586 c-9 -23 -1 -49 16 -53 12 -4 13 -3 1 5 -8 6 -12 20 -9 36
6 28 1 35 -8 12z"/>
<path d="M6750 2553 c0 -27 4 -43 8 -37 4 6 15 13 25 17 9 3 17 12 16 19 0 10
-2 10 -6 1 -2 -7 -12 -13 -20 -13 -11 0 -14 8 -11 30 3 17 1 30 -4 30 -4 0 -8
-21 -8 -47z"/>
<path d="M6785 2590 c3 -5 8 -10 11 -10 2 0 4 5 4 10 0 6 -5 10 -11 10 -5 0
-7 -4 -4 -10z"/>
<path d="M6823 2565 c0 -22 2 -30 4 -17 2 12 2 30 0 40 -3 9 -5 -1 -4 -23z"/>
<path d="M6854 2580 c1 -8 10 -16 21 -17 15 -1 15 0 3 3 -9 3 -19 11 -21 17
-2 7 -3 5 -3 -3z"/>
<path d="M6913 2565 c0 -22 2 -30 4 -17 2 12 2 30 0 40 -3 9 -5 -1 -4 -23z"/>
<path d="M6945 2589 c-4 -6 -5 -12 -2 -15 2 -3 7 2 10 11 7 17 1 20 -8 4z"/>
<path d="M7002 2570 c0 -19 2 -27 5 -17 2 9 2 25 0 35 -3 9 -5 1 -5 -18z"/>
<path d="M7031 2563 c2 -35 2 -35 6 -8 3 16 10 33 16 37 8 5 6 8 -5 8 -14 0
-18 -8 -17 -37z"/>
<path d="M7079 2562 c5 -34 6 -35 9 -8 2 16 0 32 -5 37 -5 5 -7 -7 -4 -29z"/>
<path d="M7105 2580 c-8 -25 13 -53 33 -45 10 4 12 0 8 -10 -3 -9 -2 -13 4
-10 12 8 13 85 1 85 -4 0 -6 -11 -4 -24 6 -27 -13 -44 -30 -27 -9 9 -8 16 1
31 7 11 8 20 3 20 -5 0 -13 -9 -16 -20z"/>
<path d="M7224 2586 c-3 -8 -4 -23 -2 -33 3 -11 6 -6 9 15 6 34 2 42 -7 18z"/>
<path d="M7322 2570 c0 -19 2 -27 5 -17 2 9 2 25 0 35 -3 9 -5 1 -5 -18z"/>
<path d="M5961 2567 c-1 -23 -30 -34 -42 -16 -6 10 -9 11 -9 1 0 -20 30 -26
47 -9 8 8 13 21 10 29 -4 9 -6 7 -6 -5z"/>
<path d="M6180 2564 c0 -17 27 -37 42 -31 8 4 7 6 -4 6 -9 1 -22 9 -27 19 -6
9 -11 12 -11 6z"/>
<path d="M6573 2556 c1 -11 9 -21 17 -23 10 -3 11 -2 4 4 -6 4 -14 15 -17 23
-5 11 -6 9 -4 -4z"/>
<path d="M6943 2550 c2 -8 12 -16 23 -17 13 -2 15 -1 4 4 -8 3 -19 11 -23 17
-6 7 -7 6 -4 -4z"/>
<path d="M5858 2538 c5 -5 16 -8 23 -6 8 3 3 7 -10 11 -17 4 -21 3 -13 -5z"/>
<path d="M6128 2538 c6 -6 18 -8 28 -6 14 3 12 5 -9 10 -19 3 -25 2 -19 -4z"/>
<path d="M6370 2540 c0 -5 5 -10 11 -10 5 0 7 5 4 10 -3 6 -8 10 -11 10 -2 0
-4 -4 -4 -10z"/>
<path d="M7360 2540 c0 -5 5 -10 11 -10 5 0 7 5 4 10 -3 6 -8 10 -11 10 -2 0
-4 -4 -4 -10z"/>
<path d="M3582 2515 c-14 -31 -15 -35 -3 -35 8 0 23 51 17 58 -2 1 -8 -9 -14
-23z"/>
<path d="M6858 2533 c7 -3 16 -2 19 1 4 3 -2 6 -13 5 -11 0 -14 -3 -6 -6z"/>
<path d="M7248 2533 c7 -3 16 -2 19 1 4 3 -2 6 -13 5 -11 0 -14 -3 -6 -6z"/>
<path d="M3982 2303 c-10 -26 -10 -26 -11 -5 -1 13 -5 20 -11 17 -6 -4 -10
-12 -8 -18 1 -7 -2 -23 -6 -36 -7 -19 -10 -21 -18 -10 -7 10 -8 7 -5 -12 3
-22 0 -25 -19 -21 -12 2 -25 -1 -28 -7 -4 -6 -16 -11 -26 -11 -18 0 -50 -29
-102 -90 -19 -21 -53 -26 -77 -11 -29 19 -48 0 -63 -60 -8 -32 -11 -59 -8 -59
4 0 27 7 50 15 84 30 129 14 165 -55 8 -16 21 -28 28 -26 6 2 40 10 75 16 34
7 64 16 67 20 2 3 -2 43 -10 88 -15 85 -9 195 15 256 6 16 9 31 6 33 -2 2 -9
-8 -14 -24z"/>
<path d="M1630 2183 c0 -6 5 -15 10 -18 6 -4 7 -12 3 -18 -4 -7 0 -6 10 2 18
14 24 2 7 -15 -6 -6 0 -20 18 -40 15 -17 36 -42 48 -55 62 -72 168 -128 305
-163 103 -25 156 -21 239 18 l71 35 -76 60 c-42 34 -81 59 -86 56 -13 -8 -11
-16 2 -13 6 2 14 -3 16 -9 6 -15 -23 -18 -32 -3 -3 6 -15 10 -26 10 -13 0 -18
-4 -13 -11 5 -8 -1 -10 -17 -6 -77 17 -160 39 -200 52 -26 8 -55 15 -65 15
-27 0 -85 22 -114 43 -13 9 -30 17 -37 17 -7 0 -13 7 -13 16 0 10 -6 14 -15
10 -8 -3 -19 2 -24 12 -6 9 -11 12 -11 5z m70 -83 c5 0 11 -8 15 -17 4 -12 -5
-7 -24 11 -17 16 -27 34 -24 39 4 6 11 1 16 -11 6 -12 13 -22 17 -22z"/>
<path d="M2180 2164 c0 -8 -8 -14 -17 -14 -15 0 -14 -2 3 -15 10 -8 15 -15 9
-15 -14 0 137 -99 153 -100 7 0 11 -4 7 -9 -5 -9 13 -27 20 -19 2 2 -3 33 -11
69 -14 61 -18 67 -57 89 -51 27 -107 35 -107 14z"/>
<path d="M3385 2040 c2 -16 7 -35 10 -41 8 -11 75 -43 80 -37 2 2 -19 27 -46
56 -47 51 -48 52 -44 22z"/>
<path d="M1385 1987 c-13 -11 -16 -21 -11 -42 l7 -28 35 34 c18 18 34 37 34
41 0 13 -45 9 -65 -5z"/>
<path d="M1192 1895 c-1 -94 -1 -95 23 -95 29 0 34 19 21 84 -7 37 -6 51 2 54
19 6 14 16 -16 35 l-29 16 -1 -94z"/>
<path d="M3955 1909 l-40 -19 40 6 c46 8 55 12 55 25 0 12 -8 11 -55 -12z"/>
<path d="M4818 1796 c-37 -40 -64 -76 -61 -80 4 -3 23 -6 43 -6 29 0 45 8 81
42 24 23 46 41 49 41 3 -1 5 9 5 23 -1 21 -28 53 -45 54 -3 0 -35 -33 -72 -74z"/>
<path d="M1330 1823 c-9 -20 -21 -32 -30 -30 -20 3 -20 -37 0 -41 31 -6 52 21
48 63 l-4 40 -14 -32z"/>
<path d="M6593 1759 c-17 -5 -44 -23 -60 -39 -28 -30 -47 -86 -32 -95 11 -8
59 5 59 16 0 5 12 15 28 24 51 28 84 64 77 85 -7 22 -22 23 -72 9z"/>
<path d="M1208 1710 c-16 -17 -28 -38 -28 -47 0 -9 3 -13 8 -7 4 5 23 26 41
47 22 23 29 37 20 37 -7 0 -26 -14 -41 -30z"/>
<path d="M1337 1712 c-14 -15 -14 -24 -3 -67 l13 -50 4 65 c3 36 4 66 4 68 -1
1 -9 -6 -18 -16z"/>
<path d="M6748 1685 c-84 -56 -142 -125 -159 -187 -5 -20 -14 -40 -19 -43 -6
-3 -10 -13 -10 -21 0 -9 -14 -36 -32 -62 -35 -51 -35 -52 -73 -99 -14 -17 -28
-44 -31 -61 -5 -25 -2 -30 17 -35 14 -4 30 0 39 8 9 8 22 15 29 15 37 0 181
134 181 168 0 10 11 29 25 42 14 13 25 32 25 42 0 10 3 18 8 18 8 0 32 62 68
177 28 91 18 96 -68 38z m-108 -379 c0 -2 -8 -10 -17 -17 -16 -13 -17 -12 -4
4 13 16 21 21 21 13z"/>
<path d="M4245 1674 c64 -52 214 -78 281 -48 27 11 24 12 -31 7 -67 -6 -153 9
-224 38 -37 15 -42 16 -26 3z"/>
<path d="M3941 1571 c-8 -5 -11 -16 -8 -25 6 -15 28 -17 187 -16 167 2 180 3
180 20 0 10 -7 21 -16 24 -25 9 -327 7 -343 -3z"/>
<path d="M4960 1570 c-69 -3 -119 -7 -112 -8 7 -1 10 -6 7 -12 -3 -5 -32 -10
-63 -10 -31 0 -64 -5 -72 -11 -11 -7 40 -9 175 -4 104 3 191 8 193 10 2 2 2
12 0 22 -3 17 -12 18 -128 13z"/>
<path d="M1887 1505 c-9 -13 -13 -26 -8 -29 4 -3 13 6 20 21 15 34 10 37 -12
8z"/>
<path d="M1860 1421 c0 -22 -5 -43 -12 -47 -8 -5 -9 -1 -5 12 6 16 5 17 -5 4
-22 -26 -66 -50 -93 -50 -14 0 -28 -6 -31 -14 -3 -8 -13 -12 -25 -9 -12 4 -19
0 -19 -9 0 -8 -12 -21 -26 -28 -22 -12 -27 -12 -34 0 -8 12 -10 10 -10 -7 0
-13 -5 -23 -11 -23 -5 0 -7 6 -3 12 5 7 -8 3 -27 -10 -21 -13 -33 -28 -31 -39
2 -16 1 -16 -13 1 -8 11 -15 23 -15 28 0 4 -6 8 -14 8 -9 0 -12 -7 -9 -19 6
-23 -16 -38 -29 -20 -7 10 -8 8 -5 -9 5 -19 3 -21 -9 -11 -11 9 -14 8 -14 -5
0 -9 -7 -16 -15 -16 -8 0 -15 8 -15 17 0 12 -3 14 -11 6 -14 -14 -3 -33 17
-33 9 0 14 -6 11 -12 -2 -7 -18 -12 -35 -12 -27 2 -30 -1 -30 -25 1 -46 -2
-53 -17 -47 -9 3 -15 0 -15 -9 0 -8 12 -18 26 -21 19 -5 23 -9 12 -16 -10 -6
-7 -13 16 -30 15 -12 33 -27 39 -33 8 -8 18 -3 38 19 43 48 93 41 277 -38 46
-20 80 -31 76 -24 -5 8 3 9 29 5 25 -4 41 -1 51 8 7 8 16 11 20 8 10 -10 7 3
-15 80 -13 44 -23 116 -26 187 -3 66 -11 119 -17 123 -7 6 -5 7 5 4 13 -4 18
4 23 39 3 24 8 55 12 69 4 15 2 25 -5 25 -6 0 -11 -17 -11 -39z m-105 -111
c-3 -5 -10 -10 -16 -10 -5 0 -9 5 -9 10 0 6 7 10 16 10 8 0 12 -4 9 -10z
m-185 -80 c0 -5 -4 -10 -10 -10 -5 0 -10 5 -10 10 0 6 5 10 10 10 6 0 10 -4
10 -10z m-163 -166 c-3 -3 -12 -4 -19 -1 -8 3 -5 6 6 6 11 1 17 -2 13 -5z"/>
<path d="M1410 1234 c0 -8 5 -12 10 -9 6 3 10 10 10 16 0 5 -4 9 -10 9 -5 0
-10 -7 -10 -16z"/>
<path d="M1445 1240 c-3 -5 -1 -10 4 -10 6 0 11 5 11 10 0 6 -2 10 -4 10 -3 0
-8 -4 -11 -10z"/>
<path d="M1295 1000 c-3 -5 -2 -10 4 -10 5 0 13 5 16 10 3 6 2 10 -4 10 -5 0
-13 -4 -16 -10z"/>
<path d="M1875 885 l-30 -13 55 -25 c30 -14 57 -23 59 -21 5 5 -39 74 -47 73
-4 0 -20 -7 -37 -14z"/>
<path d="M1315 881 c-6 -10 49 -41 72 -41 8 0 11 -5 7 -11 -3 -6 9 -3 27 7
l34 17 -60 19 c-70 21 -72 21 -80 9z"/>
<path d="M5029 783 c-14 -7 -55 -14 -90 -16 -35 -2 -74 -9 -86 -15 -12 -7 -29
-12 -37 -12 -9 0 -16 -4 -16 -8 0 -5 -33 -17 -72 -27 -147 -38 -1084 -31
-1210 9 -25 8 -64 26 -85 40 -21 14 -60 29 -87 32 -43 6 -50 5 -71 -20 -19
-22 -27 -25 -47 -17 -22 8 -31 4 -69 -35 -51 -52 -50 -52 51 -84 112 -35 400
-59 721 -62 152 -1 205 3 419 35 135 19 326 43 425 52 202 18 279 29 345 48
l44 13 -59 14 c-33 7 -61 15 -63 16 -2 1 2 12 8 24 15 27 11 30 -21 13z"/>
<path d="M2899 529 c-41 -16 -81 -29 -89 -29 -12 0 -13 -2 -1 -9 25 -16 178
-24 216 -11 37 12 47 29 18 31 -12 0 -14 2 -5 6 9 3 6 9 -10 17 -46 24 -56 24
-129 -5z"/>
</g>
</svg>
