<?xml version="1.0" standalone="no"?>
<!DOCTYPE svg PUBLIC "-//W3C//DTD SVG 20010904//EN"
 "http://www.w3.org/TR/2001/REC-SVG-20010904/DTD/svg10.dtd">
<svg version="1.0" xmlns="http://www.w3.org/2000/svg"
 width="740.000000pt" height="889.000000pt" viewBox="0 0 740.000000 889.000000"
 preserveAspectRatio="xMidYMid meet">

<g transform="translate(0.000000,889.000000) scale(0.100000,-0.100000)"
fill="#000000" stroke="none">
<path d="M5432 7000 c0 -19 2 -27 5 -17 2 9 2 25 0 35 -3 9 -5 1 -5 -18z"/>
<path d="M2969 6661 c-2 -6 -36 -14 -74 -17 -45 -3 -82 -13 -103 -26 -18 -11
-31 -22 -30 -24 2 -2 33 6 68 17 40 13 81 19 106 16 47 -5 129 -56 139 -87 3
-10 12 -17 19 -14 9 4 15 -10 20 -45 4 -30 12 -51 19 -51 7 0 20 -9 30 -20 15
-17 15 -20 1 -20 -8 0 -13 -4 -9 -9 8 -14 -13 -55 -37 -70 -17 -10 -22 -9 -38
9 -10 12 -21 17 -24 11 -9 -13 12 -94 39 -156 12 -28 28 -75 36 -105 16 -65
16 -67 18 -79 0 -5 16 -12 34 -16 71 -13 113 -27 137 -45 l25 -19 -25 5 c-14
3 -39 12 -57 20 -17 8 -62 14 -100 14 -104 0 -149 -26 -282 -161 -61 -62 -111
-116 -111 -119 0 -3 -4 -11 -9 -19 -7 -11 -21 -3 -68 36 -65 56 -212 162 -258
186 -54 29 -180 74 -239 87 -45 9 -81 9 -158 0 -55 -6 -106 -14 -114 -17 -31
-11 -12 -33 41 -48 30 -8 81 -22 113 -31 87 -24 173 -64 209 -97 17 -16 60
-48 95 -71 39 -26 62 -48 62 -59 -1 -9 11 -28 27 -42 16 -13 46 -46 66 -72 20
-26 39 -50 42 -53 11 -9 91 -108 91 -112 0 -2 -21 -5 -47 -7 -26 -1 -62 -11
-80 -23 -30 -18 -83 -76 -83 -91 0 -3 -22 -42 -49 -86 -73 -120 -131 -261
-143 -344 -5 -40 -8 -115 -6 -167 l4 -95 39 -27 c24 -17 81 -38 145 -55 58
-15 108 -32 112 -37 4 -6 10 -7 14 -3 4 4 12 3 18 -2 6 -5 27 -12 46 -15 47
-9 53 -11 65 -17 6 -4 28 -12 50 -19 22 -7 46 -17 53 -23 9 -7 12 -3 12 17 0
15 6 26 14 26 7 0 27 3 45 6 l31 6 -16 -31 c-15 -30 -11 -57 6 -46 5 3 12 0
15 -6 4 -5 13 -8 21 -5 7 3 16 1 20 -5 3 -6 12 -8 20 -5 7 3 16 1 19 -5 4 -5
12 -9 18 -8 7 1 19 -1 27 -4 8 -3 53 -16 100 -28 98 -24 259 -29 525 -16 349
18 356 16 290 -50 -32 -32 -39 -35 -49 -22 -9 13 -15 13 -36 2 -25 -12 -25
-13 -2 -13 12 0 22 -4 22 -9 0 -11 -39 -22 -44 -12 -3 4 -25 6 -50 5 -38 -2
-46 0 -46 14 -1 15 -2 15 -13 2 -7 -9 -20 -14 -29 -12 -20 4 -25 -14 -5 -21 6
-3 2 -6 -9 -6 -26 -1 -37 -24 -21 -40 8 -8 8 -11 -2 -11 -11 0 -11 -3 -1 -15
10 -12 10 -15 -2 -15 -8 0 -20 6 -27 13 -10 10 -11 7 -6 -15 8 -32 -11 -57
-39 -50 -15 4 -18 1 -13 -12 4 -10 7 -20 7 -23 0 -3 6 0 14 6 9 7 17 8 20 3 3
-6 -1 -12 -9 -16 -8 -3 -12 -12 -9 -21 3 -8 1 -15 -5 -15 -6 0 -10 -3 -10 -7
4 -23 -2 -43 -11 -38 -15 10 -12 -2 6 -20 13 -12 14 -19 5 -28 -16 -16 -14
-25 7 -30 14 -4 14 -6 -5 -12 -24 -8 -33 -50 -13 -57 6 -2 12 -28 15 -58 3
-51 5 -55 29 -58 14 -2 26 -8 26 -13 0 -5 8 -9 17 -9 15 0 14 -2 -3 -15 -15
-11 -16 -14 -4 -15 11 0 17 -11 18 -35 2 -31 0 -35 -23 -35 -14 0 -25 -4 -25
-10 0 -5 -10 -10 -22 -10 l-22 0 22 -20 c25 -24 29 -50 7 -50 -9 0 -15 -9 -15
-21 0 -18 2 -19 15 -9 13 10 15 9 15 -12 0 -13 7 -34 16 -46 8 -12 12 -27 9
-32 -4 -6 1 -23 11 -38 10 -15 17 -39 15 -54 -2 -20 2 -28 13 -28 9 0 16 -8
16 -17 0 -14 -2 -15 -9 -4 -7 11 -11 10 -20 -5 -9 -16 -12 -17 -20 -4 -15 22
-21 8 -12 -26 5 -16 10 -21 10 -11 1 24 21 22 21 -3 0 -11 4 -20 9 -20 5 0 7
-9 4 -20 -3 -12 1 -22 11 -26 9 -3 16 -13 16 -21 0 -8 -4 -11 -10 -8 -19 12
-32 -6 -14 -19 15 -11 14 -15 -11 -34 -25 -20 -27 -24 -12 -35 18 -13 36 -116
37 -205 0 -38 -4 -54 -15 -59 -22 -8 -45 -56 -36 -72 11 -17 -10 -61 -28 -61
-11 0 -10 -4 3 -19 20 -22 4 -40 -19 -21 -8 7 -15 8 -15 3 0 -5 11 -16 25 -23
18 -10 22 -16 13 -21 -7 -5 -21 -1 -32 9 -19 17 -19 16 -2 -10 11 -16 13 -28
7 -32 -6 -4 -8 -20 -4 -37 4 -21 2 -29 -7 -27 -22 5 -23 -23 -1 -29 12 -3 23
-15 26 -27 9 -47 10 -96 2 -96 -5 0 -7 -7 -3 -15 4 -10 -1 -15 -17 -16 l-22 0
22 -15 c18 -13 20 -20 13 -39 -6 -16 -5 -25 3 -29 8 -3 6 -9 -7 -17 -15 -9
-16 -13 -5 -21 10 -7 8 -8 -9 -5 -20 5 -21 3 -11 -10 16 -18 -3 -33 -43 -33
-18 0 -28 -5 -28 -15 0 -8 -7 -15 -15 -15 -19 0 -19 -19 0 -26 8 -4 12 -10 9
-15 -3 -5 -9 -7 -14 -4 -21 13 -59 -8 -74 -40 -11 -23 -25 -35 -46 -40 -16 -4
-32 -15 -35 -26 -4 -10 -15 -19 -26 -19 -12 0 -24 -12 -33 -34 -11 -26 -19
-33 -33 -30 -29 8 -50 -22 -35 -47 10 -16 10 -21 -2 -25 -21 -8 -29 -36 -14
-47 9 -6 8 -7 -4 -3 -25 8 -34 -15 -13 -31 11 -7 13 -13 7 -13 -14 0 -62 -40
-62 -52 0 -4 8 -8 18 -8 22 -1 52 -23 52 -39 0 -8 -8 -10 -20 -6 -15 5 -22 0
-30 -19 -12 -32 -27 -34 -33 -3 -3 21 -4 21 -12 3 -6 -13 -5 -21 3 -24 7 -2
12 -11 12 -21 0 -9 5 -22 12 -29 9 -9 8 -12 -5 -12 -19 0 -24 -20 -4 -21 6 0
0 -6 -14 -12 -14 -7 -34 -19 -44 -27 -15 -12 -18 -12 -26 3 -15 26 -43 20 -67
-13 -17 -22 -19 -30 -8 -30 9 0 12 -7 9 -20 -4 -17 -14 -20 -54 -20 -26 0 -60
5 -75 12 -22 10 -28 10 -39 -5 -13 -18 -55 -24 -55 -7 0 6 10 10 23 11 22 0
22 0 -2 10 -14 5 -44 10 -67 11 -45 1 -58 6 -60 26 -1 6 -2 19 -2 27 -2 11
-14 15 -46 15 -42 0 -78 -19 -39 -21 14 0 15 -2 3 -6 -8 -3 -23 -12 -32 -20
-12 -11 -33 -13 -77 -10 -34 3 -63 1 -66 -3 -8 -13 -90 15 -87 29 1 7 -2 10
-7 7 -5 -3 -26 11 -48 32 -89 86 -195 157 -304 205 l-56 25 -16 83 c-8 46 -19
92 -23 103 -7 17 -5 17 25 2 23 -13 31 -13 32 -4 1 7 2 20 3 28 0 8 -1 17 -4
20 -25 25 -70 103 -70 122 0 48 -13 98 -23 91 -14 -9 -2 178 28 412 13 105 20
191 15 193 -4 2 -2 15 6 30 8 15 14 42 14 61 l0 34 -26 -24 c-25 -24 -26 -24
-41 -4 -11 14 -17 16 -20 7 -4 -9 -9 -10 -17 -2 -9 7 -35 4 -87 -9 -50 -13
-81 -16 -97 -10 -13 5 -39 9 -59 9 -28 0 -33 -3 -25 -13 9 -10 4 -16 -23 -26
-19 -7 -35 -19 -35 -27 0 -21 -13 -17 -40 11 -23 25 -51 25 -30 0 14 -17 4
-54 -21 -78 -11 -10 -19 -26 -19 -36 0 -20 -32 -61 -47 -61 -5 0 -23 33 -39
73 -15 39 -33 75 -39 79 -12 9 -85 10 -85 2 0 -4 7 -12 15 -18 13 -10 12 -17
-10 -60 -26 -52 -25 -66 6 -66 31 0 160 -48 201 -75 21 -14 50 -25 65 -25 51
0 104 -21 144 -57 70 -63 119 -199 119 -329 0 -44 -3 -52 -17 -50 -38 6 -48
-26 -63 -187 -4 -54 -13 -104 -19 -111 -6 -7 -9 -15 -6 -17 2 -3 -4 -5 -13 -6
-57 -6 -131 -27 -136 -39 -3 -8 -1 -14 5 -14 6 0 7 -4 4 -10 -3 -5 -8 -19 -10
-30 -3 -18 0 -20 18 -14 28 8 55 21 87 39 14 8 32 15 40 15 8 0 20 10 25 23 6
12 20 23 33 25 23 3 31 35 12 47 -14 9 18 53 52 71 20 10 33 12 46 5 16 -10
16 -10 0 -11 -10 0 -18 -7 -18 -15 0 -8 8 -15 18 -16 9 0 2 -5 -15 -10 -18 -5
-33 -15 -33 -22 0 -8 -4 -7 -10 3 -8 13 -10 13 -10 -2 0 -9 4 -19 10 -23 6 -4
6 -15 0 -31 -7 -17 -7 -23 0 -19 25 15 7 -12 -20 -30 -19 -13 -25 -22 -17 -27
7 -4 15 0 19 10 5 12 7 10 7 -11 1 -15 7 -36 13 -47 28 -45 -49 -57 -122 -20
-27 14 -53 20 -70 16 -15 -2 -32 0 -39 7 -8 8 -14 8 -23 -1 -9 -9 -9 -12 1
-12 7 0 9 -5 6 -11 -4 -5 4 -19 17 -31 12 -11 22 -24 21 -29 -2 -5 4 -9 12 -9
9 0 18 -7 21 -15 4 -8 12 -15 20 -15 8 0 14 -5 14 -11 0 -6 9 -9 20 -6 10 3
20 1 22 -3 4 -10 44 -20 113 -27 56 -6 143 10 194 35 43 21 97 23 140 6 44
-18 60 -18 35 1 -10 8 -14 15 -7 15 6 0 19 3 27 6 12 5 15 2 10 -10 -4 -9 -1
-16 6 -16 10 0 10 -3 0 -15 -7 -8 -8 -15 -3 -15 8 0 43 -51 43 -64 0 -4 -11 1
-25 10 -31 20 -32 8 -3 -23 15 -17 19 -26 11 -34 -8 -8 -13 -8 -17 0 -11 17
-36 13 -36 -5 0 -11 -6 -13 -19 -9 -14 4 -20 0 -23 -12 -3 -15 -9 -13 -37 14
-39 39 -43 40 -35 9 3 -14 2 -31 -2 -38 -5 -7 -7 -37 -5 -65 2 -34 -1 -53 -8
-53 -6 0 -11 7 -11 15 0 8 -4 15 -10 15 -12 0 -13 -52 -1 -65 15 -17 33 -102
26 -124 -8 -27 -22 -27 -30 -1 -10 32 -25 23 -25 -14 0 -42 -15 -54 -30 -26
-12 23 -42 26 -59 6 -7 -8 -24 -17 -39 -21 -41 -10 -62 -34 -62 -70 0 -40 21
-61 47 -46 25 13 46 -1 37 -23 -4 -10 -2 -21 5 -25 17 -11 2 -97 -22 -127 -18
-23 -21 -24 -37 -9 -15 14 -18 14 -30 0 -7 -9 -20 -15 -29 -13 -9 1 -22 -1
-29 -6 -8 -5 -19 1 -30 14 l-18 22 -17 -26 c-11 -16 -27 -26 -41 -26 -14 0
-30 -10 -39 -23 -13 -20 -23 -23 -73 -22 -33 1 -62 0 -67 -3 -11 -5 55 -48 94
-60 115 -36 171 -43 330 -43 90 0 186 3 214 6 50 6 50 5 112 -53 38 -35 79
-64 102 -70 84 -26 232 -8 303 36 55 34 121 46 176 32 26 -6 88 -14 137 -16
89 -4 91 -4 148 -48 48 -37 70 -46 130 -57 112 -19 317 11 341 50 8 12 -38 48
-82 67 l-33 14 17 29 c13 22 41 39 118 72 56 23 105 46 110 50 5 5 47 -28 95
-74 74 -71 94 -85 146 -100 89 -25 210 -37 390 -37 220 0 367 15 485 51 105
31 275 101 300 125 12 10 49 13 148 13 103 0 137 4 154 16 13 8 31 15 40 15
10 0 23 11 28 25 10 26 16 28 130 45 113 16 120 19 120 39 0 18 37 41 65 41 8
0 15 6 15 13 0 16 95 107 112 108 33 2 50 9 79 33 17 14 36 27 42 27 7 1 17 2
22 4 6 1 14 3 18 3 5 1 2 9 -7 17 -14 14 -13 19 4 48 11 18 20 44 20 60 0 17
5 27 15 27 8 0 19 9 25 20 6 11 26 30 46 43 l35 24 -39 0 c-58 0 -82 11 -82
38 0 12 -6 25 -14 28 -14 6 -38 85 -30 99 3 4 0 8 -6 8 -8 0 -7 6 1 21 6 12 8
31 4 43 -4 11 -10 58 -14 104 -5 62 -3 82 7 82 6 0 12 4 12 9 0 15 -18 23 -25
11 -4 -6 -12 -4 -22 6 -15 15 -15 18 7 34 13 10 20 22 16 29 -6 8 -12 9 -20 2
-9 -8 -18 -6 -32 4 -10 8 -14 15 -8 15 6 0 11 7 11 16 0 10 -7 14 -19 11 -11
-3 -18 0 -18 9 0 8 -9 14 -20 14 -11 0 -20 4 -20 9 0 14 47 22 72 12 13 -5 35
-12 51 -15 15 -4 27 -12 27 -18 0 -9 -3 -9 -12 0 -16 16 -48 15 -48 0 0 -27
17 -40 40 -33 19 6 22 4 17 -9 -9 -24 5 -19 26 9 16 23 16 24 0 34 -16 9 -16
10 4 11 12 0 26 -6 30 -14 7 -12 13 -12 41 -1 17 8 32 19 32 25 0 5 -15 10
-32 10 -30 1 -31 2 -16 14 10 7 15 16 12 19 -3 3 3 3 15 0 12 -3 21 -12 21
-19 0 -17 5 -17 31 -3 11 5 16 15 13 21 -4 6 13 -3 38 -20 44 -30 79 -67 105
-108 10 -17 18 -12 95 66 90 92 180 238 204 331 7 27 17 55 21 62 4 6 9 39 10
72 2 33 5 93 9 133 3 45 1 84 -5 101 -6 14 -13 53 -15 86 -3 55 -41 164 -52
152 -3 -2 4 -29 16 -58 11 -30 20 -58 20 -63 0 -12 -60 76 -60 89 0 6 -7 24
-16 40 -9 17 -17 46 -17 65 -2 27 -7 36 -23 38 -12 2 -32 22 -49 52 -16 28
-32 50 -36 50 -3 0 -18 11 -33 25 -15 14 -34 25 -42 25 -17 0 -19 17 -1 23 6
2 -4 7 -23 12 -19 4 -45 16 -57 28 -53 48 -6 -25 55 -85 23 -24 24 -28 9 -28
-10 0 -16 3 -14 8 3 4 -5 8 -17 8 l-23 2 24 -24 c23 -23 30 -44 16 -44 -5 0
-39 23 -78 50 -38 27 -87 61 -107 76 -50 36 -164 64 -285 71 -57 3 -103 9
-103 14 0 15 -82 20 -153 9 -97 -15 -110 -21 -68 -30 19 -5 45 -4 58 1 13 5
23 5 23 0 0 -5 -6 -11 -12 -14 -8 -3 -6 -7 7 -12 11 -3 34 -12 50 -19 27 -12
23 -13 -43 -8 -57 4 -81 1 -112 -13 -22 -10 -40 -22 -40 -26 0 -4 -16 -13 -35
-19 l-36 -12 1 -61 c2 -94 -10 -495 -16 -557 -5 -41 -8 -50 -15 -37 -6 11 -6
24 1 36 5 11 10 28 10 38 0 15 -2 16 -10 3 -10 -16 -14 -8 -10 24 1 11 -3 17
-12 14 -8 -3 -13 -20 -13 -44 0 -50 -11 -69 -31 -53 -11 9 -14 6 -14 -16 0
-15 7 -33 16 -39 23 -17 7 -46 -26 -46 -19 0 -31 -6 -35 -19 -3 -10 -24 -38
-46 -62 -22 -24 -47 -60 -56 -79 -8 -19 -27 -47 -41 -63 -14 -15 -23 -27 -19
-27 4 0 -9 -29 -28 -65 -29 -54 -35 -74 -35 -126 0 -51 4 -67 22 -86 l22 -24
-44 6 c-25 3 -60 8 -77 11 -25 4 -33 1 -33 -11 0 -17 -31 -20 -47 -4 -8 8 -19
-1 -39 -30 -30 -42 -42 -50 -41 -28 1 34 -4 57 -13 57 -5 0 -10 -7 -10 -15 0
-8 -6 -15 -14 -15 -8 0 -22 -10 -31 -22 -15 -21 -17 -22 -26 -5 -5 9 -17 17
-24 17 -8 0 -15 3 -16 8 -7 61 -18 88 -26 64 -4 -9 -18 1 -43 28 -21 23 -49
47 -61 54 -13 6 -29 22 -36 36 -7 13 -25 36 -41 50 -16 14 -27 31 -25 38 6 16
-14 16 -20 0 -3 -8 -6 -6 -6 5 -1 9 -7 17 -15 17 -7 0 -26 12 -41 28 -19 18
-29 23 -32 15 -5 -15 -33 -17 -33 -3 0 6 5 10 12 10 9 0 9 3 1 11 -6 6 -9 17
-7 24 6 15 -48 28 -57 13 -7 -11 -54 16 -54 30 1 10 -64 33 -100 36 -63 5 -65
6 -58 23 5 12 2 15 -8 11 -8 -3 -49 0 -91 7 -78 14 -148 49 -148 74 0 8 2 12
6 9 3 -3 26 5 51 18 32 16 51 20 63 14 9 -5 30 -8 46 -7 24 2 28 7 26 26 -2
15 0 21 7 16 16 -9 53 5 48 18 -2 7 -19 14 -38 17 -20 3 -34 11 -34 19 0 24
-32 38 -55 23 -17 -10 -20 -10 -20 4 0 9 7 22 16 28 12 9 13 17 5 39 -16 40
-14 47 12 47 13 0 28 5 35 12 16 16 15 9 -3 -42 -16 -45 -13 -62 7 -42 20 20
25 13 22 -29 l-4 -42 41 6 c39 5 41 4 35 -19 -6 -24 0 -29 27 -19 10 5 13 18
9 53 -6 67 18 145 48 152 13 3 25 11 28 18 3 9 -3 11 -21 7 -14 -4 -28 -2 -32
5 -5 8 -10 8 -21 -1 -11 -9 -14 -7 -14 14 0 13 -7 38 -15 53 -8 16 -15 37 -15
46 0 25 -17 31 -29 11 -10 -17 -11 -16 -17 5 -3 12 -13 22 -21 22 -8 0 -11 4
-8 10 3 5 15 10 26 10 25 0 27 46 2 53 -17 4 -17 5 0 6 9 0 17 8 17 17 0 11 8
14 33 12 26 -2 31 0 29 15 -2 12 4 17 20 18 l23 0 -22 9 c-35 14 -27 21 17 14
27 -4 40 -3 40 5 0 6 -7 11 -16 11 -10 0 -14 6 -10 15 4 10 -1 15 -14 15 -11
0 -20 -6 -20 -14 0 -9 -8 -12 -25 -8 -31 6 -33 22 -2 22 19 1 20 2 6 13 -8 7
-18 22 -21 34 -5 20 -3 22 18 17 20 -5 24 -2 24 16 0 17 4 21 20 17 11 -3 23
-1 26 4 3 5 10 7 15 4 5 -4 9 -2 9 3 0 10 -45 21 -94 23 -26 1 -23 3 17 11 47
10 65 28 28 28 -11 0 -23 4 -26 10 -4 6 7 10 25 10 18 0 29 4 25 10 -3 6 -24
10 -45 10 -51 0 -60 16 -13 25 23 4 38 2 43 -5 8 -13 20 9 20 38 1 22 47 55
67 48 12 -5 13 -9 3 -21 -16 -19 -14 -21 32 -28 23 -3 38 -1 41 6 2 8 5 8 11
-1 4 -7 3 -12 -2 -12 -5 0 -7 -11 -5 -23 3 -14 -2 -31 -12 -40 -15 -15 -15
-18 -1 -33 9 -8 16 -22 16 -31 0 -8 6 -13 13 -11 8 3 14 38 17 109 3 57 8 109
12 114 14 23 -11 37 -68 40 -33 1 -62 3 -66 4 -12 2 -9 36 4 49 9 9 9 12 1 12
-7 0 -15 -5 -19 -11 -3 -6 -17 -8 -30 -5 -13 4 -24 3 -23 -1 4 -21 -3 -20 -30
5 -15 15 -37 32 -47 38 -16 9 -17 15 -7 35 19 39 25 69 14 69 -6 0 -11 4 -11
9 0 6 17 11 38 13 31 3 37 7 36 26 0 17 5 22 23 22 13 0 23 -4 23 -10 0 -5 14
-10 30 -10 34 0 39 17 15 54 -14 21 -13 24 9 45 21 20 25 21 33 7 7 -12 15
-13 38 -7 19 6 23 10 11 10 -19 1 -19 2 -1 21 14 16 16 23 7 32 -7 7 -12 20
-12 30 0 13 -10 20 -30 25 -16 3 -30 8 -30 10 0 15 33 33 59 33 17 0 31 5 31
10 0 6 -4 10 -10 10 -6 0 -5 10 2 25 6 14 16 25 22 25 6 0 4 5 -4 10 -10 6
-11 10 -2 10 6 0 21 9 32 20 11 11 27 20 35 20 20 0 19 10 -2 27 -16 13 -16
14 9 9 21 -5 30 -1 39 15 16 31 -4 48 -31 24 -15 -14 -23 -15 -34 -6 -10 8
-16 9 -21 1 -9 -15 -35 -12 -35 4 0 8 7 16 15 20 8 3 15 15 15 26 0 11 -7 23
-15 26 -8 4 -15 12 -15 20 0 8 7 14 15 14 19 0 19 9 0 34 -20 27 -19 36 5 36
14 0 20 -7 21 -22 0 -15 2 -18 6 -8 3 8 13 23 21 33 11 13 13 20 5 28 -6 6 -9
17 -7 23 3 7 -4 21 -16 31 -25 23 -26 51 -1 58 14 3 21 15 23 43 2 20 8 39 14
41 7 2 11 -4 10 -13 0 -9 5 -19 12 -21 6 -3 12 3 12 11 0 9 -6 25 -12 37 -11
17 -10 22 7 35 11 8 20 22 20 31 0 11 29 25 102 48 56 18 117 39 135 48 18 8
44 18 58 22 37 11 104 41 200 89 47 24 96 42 108 41 13 -1 26 4 29 12 3 7 11
13 19 13 8 0 14 4 14 9 0 10 76 55 112 67 62 19 91 36 78 44 -9 6 -24 2 -41
-11 -29 -20 -59 -25 -59 -9 0 6 3 10 8 10 4 0 7 31 8 69 1 38 5 77 9 87 14 32
14 44 0 44 -23 0 -38 -40 -36 -102 0 -14 -6 -32 -14 -38 -8 -7 -15 -21 -15
-31 0 -10 -4 -20 -10 -24 -5 -3 -7 -12 -4 -20 8 -20 -22 -30 -41 -15 -10 9
-12 17 -6 24 6 7 8 22 4 34 -3 14 -1 22 7 22 10 0 11 15 7 60 -5 47 -4 60 7
60 13 0 26 48 26 103 0 15 5 27 10 27 6 0 10 14 10 30 0 17 5 30 11 30 5 0 8
4 4 9 -3 5 -2 12 3 15 4 2 9 19 10 38 2 18 7 34 11 36 5 2 7 12 4 22 -3 11 -2
28 2 37 5 10 8 28 9 40 1 12 4 24 8 28 4 4 2 19 -3 33 -7 18 -6 27 2 32 8 6 8
13 0 28 -15 28 -14 32 5 32 12 0 14 4 7 13 -15 19 -13 88 3 94 8 3 14 12 14
19 0 11 -6 9 -22 -6 -15 -14 -22 -31 -21 -55 1 -19 -5 -39 -12 -45 -8 -6 -12
-17 -9 -25 3 -7 0 -16 -6 -20 -8 -5 -8 -11 1 -21 16 -19 4 -44 -21 -44 -19 0
-20 5 -16 60 3 33 7 64 11 69 3 5 -1 12 -7 14 -10 4 -10 8 1 15 11 8 9 14 -8
31 -28 28 -27 33 7 25 l27 -6 -30 25 c-26 22 -28 26 -12 32 16 7 15 10 -10 32
-25 23 -25 27 -10 38 15 10 15 14 3 24 -11 9 -15 8 -20 -4 -9 -25 -31 -17 -43
16 -12 31 -12 31 17 25 33 -6 42 9 10 17 -26 7 -36 35 -21 59 6 10 9 23 6 28
-3 5 1 23 9 39 15 28 14 29 -7 34 -12 3 -37 3 -54 2 l-33 -3 0 101 c0 93 2
104 23 124 13 12 54 68 92 125 62 93 166 234 242 328 15 18 23 31 17 28 -10
-7 -99 -115 -281 -341 -45 -56 -88 -109 -96 -118 -7 -8 -16 -23 -20 -32 -3 -9
-11 -17 -17 -17 -6 0 -9 -4 -6 -9 3 -4 -20 -34 -51 -65 -49 -49 -58 -55 -64
-39 -4 10 -5 21 -2 26 11 18 -19 4 -41 -20 -22 -24 -23 -29 -12 -52 51 -101
60 -140 44 -192 -14 -49 -85 -122 -132 -136 -48 -15 -222 6 -254 30 -7 5 -34
7 -61 3 -36 -5 -51 -3 -54 6 -3 7 -6 3 -6 -8 -1 -18 -7 -22 -42 -22 -43 -1
-69 -15 -69 -38 0 -8 -8 -14 -18 -14 -10 0 -24 -6 -31 -12 -11 -10 -14 -10
-18 0 -3 6 -17 12 -31 12 -22 0 -24 -2 -12 -11 12 -9 12 -10 -3 -5 -10 3 -25
6 -32 6 -7 0 -18 14 -24 30 -9 27 -14 30 -50 30 -40 0 -40 0 -36 33 4 28 0 37
-26 56 -25 18 -40 22 -71 18 -29 -4 -38 -2 -35 7 4 9 -3 11 -20 8 -17 -3 -24
-1 -19 6 4 7 -3 10 -21 8 -15 -2 -36 2 -46 8 -12 8 -20 8 -25 0 -4 -6 -15 -13
-24 -17 -21 -7 -24 -33 -5 -40 6 -3 3 -6 -9 -6 -15 -1 -26 10 -40 41 -10 23
-39 69 -63 102 l-44 60 6 75 c4 42 18 115 32 163 l25 87 -32 68 c-18 37 -33
74 -34 81 -4 22 -86 112 -118 129 -17 9 -46 16 -65 17 -31 1 -39 8 -75 60 -23
33 -57 72 -76 87 -40 31 -86 46 -91 30z m1871 -668 c0 -10 -10 -29 -21 -43
l-20 -25 16 39 c8 21 15 40 15 42 0 2 2 4 5 4 3 0 5 -8 5 -17z m-1706 -107
c-9 -27 -22 -36 -56 -36 -35 0 -35 12 -2 43 32 30 68 26 58 -7z m-73 -97 c12
-19 6 -55 -8 -52 -6 1 -10 -8 -8 -22 1 -14 -2 -25 -6 -25 -5 0 -9 -8 -10 -17
0 -10 -3 -13 -5 -6 -3 7 -12 9 -21 6 -12 -5 -14 -1 -8 17 5 16 4 20 -5 15 -6
-4 -10 -18 -7 -32 3 -18 1 -23 -9 -19 -8 3 -14 1 -14 -4 0 -6 4 -10 9 -10 14
0 21 -29 9 -36 -7 -4 -8 -3 -4 4 14 23 -31 12 -54 -13 -14 -15 -33 -25 -45
-23 -18 3 -20 10 -19 59 2 85 9 103 61 143 43 34 53 37 92 33 24 -3 47 -11 52
-18z m597 -157 c12 -8 21 -16 20 -17 -8 -7 -67 8 -63 16 3 4 -3 13 -12 19 -15
9 -14 10 7 4 14 -4 35 -14 48 -22z m1317 -32 c3 -5 1 -10 -4 -10 -6 0 -11 5
-11 10 0 6 2 10 4 10 3 0 8 -4 11 -10z m-2226 -90 c-9 -70 -5 -268 8 -335 3
-20 2 -27 -5 -20 -30 29 -39 338 -12 409 17 45 20 27 9 -54z m1168 44 c-3 -3
-12 -4 -19 -1 -8 3 -5 6 6 6 11 1 17 -2 13 -5z m748 -264 c-13 -14 -13 -19 -3
-23 9 -3 6 -12 -12 -32 -14 -16 -20 -25 -13 -21 21 12 23 -11 3 -29 -21 -19
-28 -41 -10 -30 16 10 12 -15 -5 -31 -17 -17 -21 -39 -5 -29 14 9 13 -8 -2
-23 -23 -23 -28 -12 -28 56 0 60 4 74 37 129 20 34 40 60 45 57 5 -3 2 -14 -7
-24z m415 -29 c0 -11 -4 -22 -9 -25 -4 -3 -6 -17 -3 -31 2 -15 0 -25 -7 -25
-7 0 -9 -9 -5 -24 3 -13 1 -26 -4 -30 -5 -3 -7 -17 -5 -31 4 -16 0 -27 -10
-31 -8 -3 -13 -13 -10 -24 3 -10 0 -21 -6 -24 -5 -4 -7 -14 -4 -22 7 -19 -12
-33 -36 -27 -22 6 -23 33 -2 34 10 0 12 2 4 6 -19 7 -16 53 2 53 11 0 14 7 9
24 -3 13 -1 27 5 30 5 4 8 15 6 26 -2 11 1 20 7 20 5 0 8 6 5 14 -3 7 0 24 7
38 7 13 12 34 11 46 -1 17 4 22 22 22 16 0 23 -6 23 -19z m-2540 -56 c0 -8 -8
-15 -17 -15 -16 -1 -16 -2 1 -15 11 -8 16 -15 11 -15 -5 0 -4 -5 3 -12 17 -17
15 -28 -5 -22 -10 3 -7 -1 7 -9 14 -9 28 -13 32 -11 5 3 8 0 8 -6 0 -6 -6 -13
-13 -16 -7 -2 -12 -20 -11 -44 0 -25 -5 -45 -15 -53 -12 -10 -13 -9 -6 3 6 12
6 13 -6 2 -12 -11 -12 -14 1 -22 13 -8 13 -11 1 -19 -7 -5 -11 -13 -8 -17 8
-15 -12 -56 -24 -48 -7 4 -9 3 -6 -4 4 -5 3 -21 -2 -34 -8 -20 -10 -21 -16 -6
-6 16 -8 16 -23 1 -15 -15 -17 -14 -23 8 -4 14 -7 17 -8 8 -1 -9 -8 -19 -15
-22 -23 -9 -29 29 -16 97 17 78 89 234 103 220 3 -3 3 3 0 14 -3 14 1 22 16
27 12 3 19 11 16 16 -4 5 -1 9 4 9 6 0 11 -7 11 -15z m2464 -288 c-6 -18 -22
-21 -48 -11 -23 9 -20 33 7 43 27 11 51 -8 41 -32z m-20 -36 c6 -8 -22 -38
-27 -30 -1 2 -9 12 -16 22 -12 15 -11 17 12 17 14 0 28 -4 31 -9z m-19 -51 c4
-6 4 -17 1 -25 -6 -17 -36 -9 -36 10 0 7 -6 16 -12 18 -7 3 -1 6 14 6 15 1 30
-4 33 -9z m-2533 -24 c6 4 8 2 5 -4 -4 -5 -16 -8 -26 -5 -16 4 -17 8 -8 18 10
11 13 10 15 -1 2 -8 8 -11 14 -8z m2378 -26 c0 -5 -2 -10 -4 -10 -3 0 -8 5
-11 10 -3 6 -1 10 4 10 6 0 11 -4 11 -10z m140 -15 c0 -19 -11 -19 -36 0 -18
14 -18 14 9 15 17 0 27 -5 27 -15z m-20 -52 c0 -11 -4 -11 -20 -3 -11 6 -20
15 -20 19 0 5 9 7 20 4 11 -3 20 -12 20 -20z m-10 -49 c0 -17 -22 -14 -28 4
-2 7 3 12 12 12 9 0 16 -7 16 -16z m-657 -395 c4 -16 3 -18 -9 -8 -16 13 -19
29 -5 29 5 0 11 -9 14 -21z m-573 -269 c-20 -13 -33 -13 -25 0 3 6 14 10 23
10 15 0 15 -2 2 -10z m-60 -174 c0 -3 -4 -8 -10 -11 -5 -3 -10 -1 -10 4 0 6 5
11 10 11 6 0 10 -2 10 -4z m5 -145 c3 -5 1 -12 -5 -16 -5 -3 -10 1 -10 9 0 18
6 21 15 7z m-8 -63 c-3 -8 -6 -5 -6 6 -1 11 2 17 5 13 3 -3 4 -12 1 -19z m483
-44 c0 -6 -7 -14 -15 -18 -8 -3 -15 -12 -15 -21 0 -8 -4 -15 -10 -15 -13 0
-13 13 1 43 11 25 39 33 39 11z m-143 -10 c3 -10 -136 -38 -145 -30 -8 9 28
38 42 33 7 -3 28 -2 47 3 39 9 51 8 56 -6z m73 -15 c0 -20 -15 -26 -24 -10 -8
13 4 42 15 35 5 -3 9 -14 9 -25z m-72 -51 c-2 -6 -10 -14 -16 -16 -7 -2 -10 2
-6 12 7 18 28 22 22 4z m162 -428 c12 -8 9 -10 -13 -10 -16 0 -26 4 -22 10 8
12 16 12 35 0z m50 -48 c0 -15 -11 -21 -27 -15 -12 5 -12 7 -1 14 17 11 28 11
28 1z m-425 -32 c3 -5 2 -10 -4 -10 -5 0 -13 5 -16 10 -3 6 -2 10 4 10 5 0 13
-4 16 -10z m1980 -150 c4 -6 -6 -10 -22 -10 -22 0 -25 2 -13 10 19 12 27 12
35 0z m132 -7 c3 -10 -11 -13 -51 -13 -49 0 -66 7 -52 21 11 10 100 3 103 -8z
m-1965 -40 c5 -26 -3 -63 -13 -63 -15 0 -22 27 -15 55 7 29 23 33 28 8z m28
-113 c19 0 9 -15 -20 -32 -17 -9 -30 -24 -30 -33 0 -9 -9 -15 -21 -15 -15 0
-19 4 -15 16 3 9 6 22 6 30 0 8 8 14 18 14 13 0 14 2 4 9 -12 7 -12 12 -1 29
13 21 13 21 32 2 10 -11 22 -20 27 -20z m2432 -5 c6 -14 14 -25 18 -25 10 0
50 -40 50 -51 0 -5 -15 1 -32 14 -43 32 -83 52 -74 38 8 -12 -6 -15 -17 -5 -7
8 22 54 34 54 5 0 15 -11 21 -25z m-4507 -25 c-3 -5 -11 -10 -16 -10 -6 0 -7
5 -4 10 3 6 11 10 16 10 6 0 7 -4 4 -10z m2005 -110 c0 -5 -4 -10 -10 -10 -5
0 -10 5 -10 10 0 6 5 10 10 10 6 0 10 -4 10 -10z m17 -126 c-3 -3 -12 -4 -19
-1 -8 3 -5 6 6 6 11 1 17 -2 13 -5z m-3 -33 c3 -5 -5 -11 -19 -13 -20 -4 -23
-3 -14 8 13 16 25 18 33 5z m64 -64 c20 5 21 2 18 -35 -4 -54 -11 -62 -54 -62
-28 0 -33 3 -24 12 15 15 16 55 2 63 -8 5 -7 11 1 21 8 10 16 11 23 5 7 -6 22
-8 34 -4z m-48 -127 c0 -5 -4 -10 -10 -10 -5 0 -10 5 -10 10 0 6 5 10 10 10 6
0 10 -4 10 -10z m-110 -49 c0 -6 -4 -13 -10 -16 -5 -3 -10 1 -10 9 0 9 5 16
10 16 6 0 10 -4 10 -9z m1400 -141 c0 -5 -2 -10 -4 -10 -3 0 -8 5 -11 10 -3 6
-1 10 4 10 6 0 11 -4 11 -10z m-3376 -266 c9 -23 0 -29 -20 -14 -12 11 -17 11
-23 1 -6 -10 -10 -9 -14 4 -4 9 -3 14 1 11 4 -2 14 -1 22 5 21 13 27 11 34 -7z
m-74 -4 c0 -5 -2 -10 -4 -10 -3 0 -8 5 -11 10 -3 6 -1 10 4 10 6 0 11 -4 11
-10z m3990 -100 c-25 -16 -50 -12 -43 7 4 11 3 14 -5 9 -7 -4 -12 -3 -12 3 0
16 44 18 60 4 13 -12 13 -15 0 -23z m-97 -54 c68 -40 120 -98 138 -155 6 -20
16 -40 21 -46 6 -6 7 -3 3 10 -6 18 -5 18 5 2 6 -9 9 -21 6 -26 -3 -5 1 -14 9
-21 8 -7 15 -18 15 -24 0 -6 -5 -4 -10 4 -5 8 -13 15 -19 15 -5 0 -17 10 -27
22 -11 12 -28 23 -39 23 -27 3 -65 -10 -65 -22 0 -5 -4 -6 -10 -3 -13 8 -13
-8 0 -21 5 -5 12 -23 14 -39 5 -39 16 -65 27 -65 5 0 9 -7 9 -15 0 -8 -4 -15
-10 -15 -5 0 -10 6 -10 13 0 9 -3 8 -9 -2 -6 -9 -11 -10 -15 -2 -4 6 -11 11
-16 11 -12 0 57 -69 103 -104 31 -24 37 -26 37 -11 0 14 5 12 26 -10 l26 -28
-18 -61 c-18 -63 -43 -105 -45 -76 -1 8 -2 22 -3 30 -2 8 -4 24 -5 35 -1 11
-9 -5 -17 -35 -18 -68 -15 -104 10 -108 10 -2 16 0 12 6 -6 11 33 81 46 82 17
1 19 -52 4 -84 -9 -19 -16 -40 -16 -48 0 -7 -9 -24 -20 -38 l-20 -25 0 28 c0
27 -30 41 -30 15 0 -10 -2 -10 -9 0 -6 10 -10 8 -14 -8 -4 -15 -11 -21 -21
-17 -8 3 -18 2 -21 -3 -3 -5 -12 -7 -19 -4 -12 5 -19 23 -32 87 -2 10 -11 25
-19 34 -8 8 -13 18 -10 23 3 5 1 11 -4 14 -15 10 -24 -13 -12 -28 9 -11 6 -12
-16 -8 -16 2 -35 11 -43 18 -19 16 -80 15 -98 -3 -11 -11 -11 -16 3 -30 14
-14 18 -14 26 -2 5 8 9 17 9 22 0 11 20 8 20 -3 0 -12 -50 -59 -62 -60 -4 0
-5 6 -2 14 3 9 -3 17 -15 21 -11 3 -30 18 -41 33 -18 22 -23 24 -30 12 -8 -12
-10 -12 -10 -1 0 8 -8 20 -17 27 -15 11 -16 15 -4 23 11 7 11 9 0 14 -10 4 -8
6 4 6 14 1 17 -4 12 -19 -8 -24 10 -27 19 -4 9 23 -16 75 -32 69 -8 -3 -16 4
-19 16 -4 13 -11 18 -20 14 -10 -3 -13 -1 -10 9 5 13 -21 46 -36 46 -3 0 -17
-11 -31 -25 -14 -14 -27 -25 -30 -25 -2 0 -6 20 -7 44 -2 24 -1 42 3 40 7 -4
21 14 24 31 1 6 6 19 10 29 6 16 4 18 -11 13 -17 -7 -17 -6 -2 15 9 13 27 44
39 70 14 30 31 49 45 53 12 3 27 15 34 26 10 20 11 20 32 2 11 -10 17 -12 13
-6 -8 15 50 83 71 83 8 0 11 5 8 10 -3 6 -22 10 -42 10 -26 0 -34 -4 -30 -14
4 -11 -2 -14 -24 -14 -16 1 -29 5 -29 9 0 5 -8 6 -17 3 -14 -4 -13 -2 2 7 11
8 22 14 25 15 24 5 50 23 77 51 27 29 29 33 10 27 -21 -6 -20 -4 3 19 37 34
47 37 125 33 55 -2 81 -9 118 -30z m-3506 -193 c3 -7 -3 -9 -16 -6 -12 3 -21
10 -21 15 0 13 32 6 37 -9z m-73 1 c25 -10 19 -22 -15 -29 -38 -9 -49 1 -23
20 23 17 19 16 38 9z m2216 -34 c80 -28 140 -71 140 -99 0 -6 3 -11 8 -11 12
0 77 -63 108 -105 l29 -40 -28 18 -28 18 13 -23 c7 -12 21 -28 30 -35 17 -13
61 -79 65 -98 1 -5 5 -21 8 -35 6 -25 6 -25 -18 4 -14 16 -28 42 -31 57 -4 19
-12 29 -24 29 -16 0 -15 -7 15 -67 18 -38 33 -75 33 -83 0 -9 4 -20 10 -26 9
-9 -3 -130 -14 -141 -3 -3 -11 7 -18 22 -11 24 -13 25 -19 8 -4 -10 -8 -33 -8
-50 -1 -18 -5 -33 -10 -33 -6 0 -9 8 -9 18 2 30 -14 166 -19 176 -4 5 -1 6 5
2 14 -8 15 -1 5 34 l-7 25 -6 -25 c-7 -30 -34 -33 -37 -5 -3 19 -3 19 5 1 6
-15 11 -16 16 -7 5 8 2 19 -8 29 -14 15 -17 15 -32 -3 -14 -18 -15 -18 -10 -2
3 10 6 32 6 49 0 24 3 28 13 19 8 -6 18 -7 22 -3 5 4 6 2 2 -3 -3 -6 1 -19 9
-30 13 -18 14 -17 8 15 -10 60 -24 98 -41 112 -12 9 -15 9 -9 1 12 -20 -1 -15
-30 12 -15 14 -33 25 -40 25 -17 0 -16 3 -5 -38 5 -17 7 -32 4 -32 -3 0 -27
18 -53 40 -47 39 -98 65 -108 55 -3 -3 15 -23 39 -45 24 -22 38 -40 32 -40 -7
0 -13 5 -13 10 0 6 -5 10 -11 10 -7 0 -8 -7 -4 -17 15 -35 23 -98 15 -113 -5
-9 -1 -29 12 -53 l20 -40 -27 7 c-17 4 -24 3 -20 -4 3 -5 0 -10 -8 -10 -8 0
-17 8 -21 18 -3 9 -9 23 -12 30 -4 8 0 10 10 6 9 -3 16 -2 16 4 0 21 -13 42
-26 42 -8 0 -11 -6 -8 -15 4 -8 -1 -26 -10 -40 -15 -23 -15 -26 -1 -31 8 -3
15 -12 15 -20 0 -7 8 -18 18 -23 9 -6 12 -11 7 -11 -6 0 -16 5 -22 11 -6 6
-19 12 -29 13 -11 2 -19 12 -20 22 -2 39 -4 45 -14 39 -5 -3 -10 -1 -10 4 0 6
5 11 10 11 6 0 10 5 10 10 0 6 -3 9 -7 9 -26 -4 -30 4 -26 54 3 42 2 50 -9 39
-7 -7 -13 -18 -13 -25 -1 -13 -13 -63 -22 -87 -3 -10 -10 -3 -18 20 -13 33
-14 34 -14 8 -1 -15 -6 -30 -11 -33 -6 -4 -7 -11 -4 -17 4 -6 -1 -17 -11 -25
-11 -7 -20 -25 -22 -41 -12 -102 -36 -203 -47 -199 -6 3 -19 0 -28 -5 -12 -5
-18 -5 -18 2 0 5 7 10 15 10 8 0 15 5 15 10 0 6 -4 10 -10 10 -17 0 -11 38 8
49 14 9 15 12 3 20 -10 6 -12 24 -9 64 2 31 1 54 -4 51 -4 -3 -8 -1 -8 4 0 6
7 12 15 16 15 6 22 76 7 76 -14 0 -32 -38 -20 -42 6 -2 -2 -10 -18 -16 -16 -7
-39 -27 -51 -45 -25 -36 -30 -62 -10 -52 6 4 5 1 -3 -7 -8 -7 -15 -17 -15 -23
0 -20 -27 -85 -35 -85 -4 0 -10 11 -12 25 -4 17 -1 25 8 25 7 0 11 6 8 14 -3
8 0 25 7 38 7 13 12 27 11 32 -2 5 1 12 6 15 5 3 12 23 16 43 6 32 4 37 -9 32
-8 -3 -15 -11 -16 -18 -1 -6 -2 -20 -3 -31 -1 -16 -7 -20 -31 -18 -18 2 -24 0
-15 -5 21 -10 21 -37 -1 -51 -12 -7 -19 -7 -19 -1 0 5 5 10 10 10 18 0 11 18
-9 25 -12 4 -18 12 -14 21 3 7 0 14 -7 14 -6 0 -8 5 -4 11 3 6 0 15 -7 20 -21
13 -26 11 -32 -12 -3 -12 -10 -18 -16 -14 -6 3 -9 11 -6 16 4 5 1 9 -4 9 -6 0
-11 10 -11 23 0 12 -9 30 -20 40 -11 9 -20 13 -20 7 0 -5 7 -13 16 -18 15 -8
15 -11 -4 -30 -11 -11 -23 -29 -27 -41 -3 -12 -11 -21 -16 -21 -6 0 -7 10 -4
23 6 17 5 19 -5 10 -19 -18 -38 -5 -32 23 2 14 0 24 -7 24 -6 0 -11 -11 -11
-24 0 -14 -6 -31 -14 -39 -8 -7 -16 -25 -18 -38 -3 -19 -6 -16 -11 16 -4 22
-11 57 -16 77 -10 45 -3 101 13 95 7 -3 11 9 11 33 0 21 7 47 16 57 8 10 24
38 34 63 19 44 118 150 141 150 7 0 14 7 18 15 3 8 13 15 23 14 16 0 16 -1 -2
-9 -19 -8 -19 -9 2 -9 12 -1 24 -5 27 -10 3 -5 20 -7 38 -6 45 4 45 4 24 20
-19 15 -19 15 3 15 12 0 20 4 17 9 -7 11 23 25 46 22 12 -2 16 3 12 13 -11 28
20 18 50 -16 16 -18 36 -36 45 -40 14 -6 14 -7 -2 -7 -17 -1 -17 -3 2 -27 23
-29 28 -49 10 -38 -6 3 -32 8 -57 10 -26 1 -80 6 -119 10 -62 5 -73 4 -73 -9
0 -9 -15 -20 -32 -27 -49 -16 -74 -38 -61 -51 8 -8 16 -6 29 10 13 14 30 21
56 21 38 0 88 17 100 34 8 13 62 -4 61 -19 0 -5 14 -20 31 -33 l31 -23 -59 7
c-42 5 -57 4 -52 -4 4 -6 14 -9 24 -6 14 5 13 3 -3 -10 -11 -9 -25 -14 -32
-12 -7 3 -19 -1 -27 -9 -8 -8 -22 -12 -30 -9 -11 4 -16 1 -16 -10 0 -9 -5 -16
-12 -16 -6 0 -8 -3 -5 -6 4 -4 12 -2 19 4 14 11 43 -10 30 -22 -3 -4 1 -4 11
0 15 5 15 9 5 22 -11 13 -10 15 10 10 12 -4 28 -1 35 7 25 24 56 27 85 7 44
-30 59 -33 65 -11 4 15 2 19 -9 15 -8 -3 -14 -1 -14 4 0 14 47 12 56 -2 4 -6
0 -16 -9 -23 -21 -15 -22 -25 -3 -25 8 0 17 13 21 29 5 22 10 28 26 24 17 -5
19 0 19 38 0 28 -6 50 -19 63 -11 12 -22 35 -25 51 -4 17 -3 24 0 18 11 -24
23 -13 35 30 11 41 23 57 44 57 6 0 4 -4 -3 -9 -16 -10 -12 -43 5 -49 7 -2 15
2 18 10 20 57 26 68 37 68 7 0 51 -14 98 -30z m-2109 3 c13 -16 12 -17 -3 -4
-10 7 -18 15 -18 17 0 8 8 3 21 -13z m2623 -29 c3 -8 2 -12 -4 -9 -5 3 -19 1
-31 -5 -11 -7 -23 -9 -26 -7 -2 3 8 12 24 20 15 8 29 15 29 16 1 1 5 -6 8 -15z
m-1024 -10 c0 -2 -12 -4 -26 -4 -14 0 -23 4 -20 9 6 8 46 4 46 -5z m2099 -33
c8 -6 9 -11 3 -15 -7 -4 -8 -16 -1 -35 6 -16 9 -51 7 -77 -3 -48 -3 -48 -17
-24 -10 16 -10 25 -3 28 15 5 4 59 -20 100 -19 31 -19 32 -1 32 10 0 24 -4 32
-9z m-2780 -235 c7 -25 17 -46 22 -46 5 0 4 12 -1 26 l-10 27 82 -5 c138 -8
188 -41 188 -124 0 -30 -38 -104 -54 -104 -7 0 -23 -18 -36 -41 -35 -57 -50
-71 -69 -63 -37 15 -156 16 -199 1 -40 -14 -45 -14 -60 2 -53 57 -81 89 -97
116 -10 17 -27 40 -38 52 -27 30 -16 64 30 96 45 31 144 67 186 67 31 0 31 4
11 55 -7 19 -6 19 12 3 11 -9 25 -37 33 -62z m1346 -76 c3 -5 1 -10 -4 -10 -6
0 -11 5 -11 10 0 6 2 10 4 10 3 0 8 -4 11 -10z m1420 -10 c3 -5 1 -10 -4 -10
-6 0 -11 5 -11 10 0 6 2 10 4 10 3 0 8 -4 11 -10z m-3848 -62 c-3 -8 -6 -5 -6
6 -1 11 2 17 5 13 3 -3 4 -12 1 -19z m588 -13 c0 -22 -14 -28 -34 -16 -12 8
-13 12 -1 26 16 20 35 14 35 -10z m2042 -17 c-3 -8 -6 -5 -6 6 -1 11 2 17 5
13 3 -3 4 -12 1 -19z m-300 -43 c0 -8 -4 -12 -9 -9 -4 3 -8 9 -8 15 0 5 4 9 8
9 5 0 9 -7 9 -15z m-436 -18 c-10 -9 -11 -8 -5 6 3 10 9 15 12 12 3 -3 0 -11
-7 -18z m-1286 4 c3 -6 10 -43 15 -83 8 -67 7 -77 -15 -125 -13 -29 -29 -53
-34 -53 -21 0 -39 47 -51 133 -12 86 -12 89 11 113 23 24 63 32 74 15z m1035
-1 c0 -5 -5 -10 -11 -10 -5 0 -7 5 -4 10 3 6 8 10 11 10 2 0 4 -4 4 -10z m40
-20 c0 -5 -4 -10 -10 -10 -5 0 -10 5 -10 10 0 6 5 10 10 10 6 0 10 -4 10 -10z
m-179 -23 c-10 -9 -11 -8 -5 6 3 10 9 15 12 12 3 -3 0 -11 -7 -18z m974 13 c3
-5 1 -10 -4 -10 -6 0 -11 5 -11 10 0 6 2 10 4 10 3 0 8 -4 11 -10z m945 -9
c-12 -24 -29 -35 -38 -26 -4 4 4 15 17 26 29 24 34 24 21 0z m-1103 -23 c-3
-8 -6 -5 -6 6 -1 11 2 17 5 13 3 -3 4 -12 1 -19z m173 -19 c0 -5 -4 -9 -10 -9
-5 0 -10 7 -10 16 0 8 5 12 10 9 6 -3 10 -10 10 -16z m-300 -9 c0 -5 -4 -10
-10 -10 -5 0 -10 5 -10 10 0 6 5 10 10 10 6 0 10 -4 10 -10z m397 -52 c-3 -8
-6 -5 -6 6 -1 11 2 17 5 13 3 -3 4 -12 1 -19z m-733 -6 c3 -5 -1 -9 -9 -9 -8
0 -15 4 -15 9 0 4 4 8 9 8 6 0 12 -4 15 -8z m-799 -28 c11 -12 14 -25 10 -43
-9 -38 -64 -91 -94 -91 -57 0 -81 68 -38 107 50 45 94 55 122 27z m-1238 -51
c-3 -10 -5 -4 -5 12 0 17 2 24 5 18 2 -7 2 -21 0 -30z m1981 -19 c-3 -14 -5
-12 -10 9 -3 19 -2 25 4 19 6 -6 8 -18 6 -28z m512 -9 c0 -8 -4 -15 -10 -15
-5 0 -7 7 -4 15 4 8 8 15 10 15 2 0 4 -7 4 -15z m-2132 -41 c2 -30 -2 -45 -18
-59 -11 -10 -20 -24 -20 -31 0 -26 -22 -25 -51 2 -37 35 -36 48 4 95 23 27 39
37 57 36 22 -2 25 -7 28 -43z m2642 2 c0 -3 -4 -8 -10 -11 -5 -3 -10 -1 -10 4
0 6 5 11 10 11 6 0 10 -2 10 -4z m-2002 -105 c-3 -24 -9 -27 -78 -43 -41 -9
-91 -16 -110 -17 -41 -1 -110 16 -110 28 0 14 76 31 139 31 60 0 63 1 104 45
l42 44 8 -30 c4 -17 7 -43 5 -58z"/>
<path d="M2905 5609 c-4 -6 -5 -12 -2 -15 2 -3 7 2 10 11 7 17 1 20 -8 4z"/>
<path d="M2390 4895 c0 -8 5 -15 10 -15 6 0 10 7 10 15 0 8 -4 15 -10 15 -5 0
-10 -7 -10 -15z"/>
<path d="M3916 2293 c-9 -10 -7 -53 3 -53 11 0 21 49 11 55 -4 2 -10 2 -14 -2z"/>
<path d="M5453 1439 c11 -7 23 -7 35 0 14 9 11 10 -18 10 -29 0 -32 -1 -17
-10z"/>
<path d="M5676 1437 c3 -10 9 -15 12 -12 3 3 0 11 -7 18 -10 9 -11 8 -5 -6z"/>
<path d="M5448 1414 c-5 -4 -38 -11 -72 -13 -4 -1 2 -9 15 -20 13 -10 29 -17
35 -14 6 2 14 -3 18 -12 3 -9 10 -14 15 -10 10 6 26 -33 18 -42 -3 -2 2 -13
11 -24 18 -20 57 -26 67 -9 3 6 0 10 -7 10 -22 0 -14 52 10 68 21 14 32 40 12
27 -5 -3 -10 3 -10 14 0 27 -15 34 -33 16 -13 -13 -16 -13 -27 0 -12 15 -42
20 -52 9z"/>
<path d="M5591 1378 c7 -16 16 -28 21 -28 13 0 10 9 -13 33 l-21 22 13 -27z"/>
<path d="M5550 1240 c0 -5 7 -10 15 -10 8 0 15 5 15 10 0 6 -7 10 -15 10 -8 0
-15 -4 -15 -10z"/>
<path d="M5555 1131 c1 -11 7 -26 14 -35 9 -11 10 -16 2 -16 -15 0 -14 -27 2
-33 6 -3 3 -6 -8 -6 -18 -1 -18 -3 5 -21 41 -32 59 -26 53 18 -6 51 -11 64
-23 57 -5 -3 -10 1 -10 10 0 15 -22 45 -33 45 -2 0 -3 -9 -2 -19z"/>
<path d="M5520 1091 c0 -5 5 -13 10 -16 6 -3 10 -2 10 4 0 5 -4 13 -10 16 -5
3 -10 2 -10 -4z"/>
<path d="M5698 1078 c9 -9 15 -9 24 0 9 9 7 12 -12 12 -19 0 -21 -3 -12 -12z"/>
<path d="M5786 1041 c-4 -7 -5 -15 -2 -18 9 -9 19 4 14 18 -4 11 -6 11 -12 0z"/>
<path d="M5340 931 c0 -5 5 -13 10 -16 6 -3 10 -2 10 4 0 5 -4 13 -10 16 -5 3
-10 2 -10 -4z"/>
<path d="M5665 880 c-12 -20 13 -69 36 -70 4 0 7 12 7 28 0 40 -27 67 -43 42z"/>
<path d="M4283 1263 c9 -2 23 -2 30 0 6 3 -1 5 -18 5 -16 0 -22 -2 -12 -5z"/>
<path d="M4330 1250 c-13 -8 -12 -10 3 -10 9 0 17 5 17 10 0 12 -1 12 -20 0z"/>
<path d="M4310 1166 c49 -30 73 -37 84 -26 13 13 -8 30 -39 30 -11 0 -31 3
-45 6 l-25 6 25 -16z"/>
<path d="M3725 1163 c-11 -3 -25 -9 -32 -14 -7 -7 -13 -5 -16 3 -3 7 -5 4 -4
-8 1 -18 5 -20 32 -14 16 4 44 14 60 23 29 16 29 16 5 15 -14 0 -34 -3 -45 -5z"/>
<path d="M3590 1145 c-10 -12 -10 -15 4 -15 9 0 16 7 16 15 0 8 -2 15 -4 15
-2 0 -9 -7 -16 -15z"/>
<path d="M3773 1143 c-15 -5 -17 -23 -4 -23 5 0 11 7 15 15 3 8 4 15 3 14 -1
0 -8 -3 -14 -6z"/>
<path d="M4433 1098 c15 -21 34 -52 41 -70 13 -30 14 -30 25 -11 9 18 5 26
-22 54 -53 56 -76 69 -44 27z"/>
<path d="M4160 1116 c0 -2 7 -6 15 -10 8 -3 15 -1 15 4 0 6 -7 10 -15 10 -8 0
-15 -2 -15 -4z"/>
<path d="M3856 1048 c-18 -25 -21 -48 -6 -48 5 0 15 9 22 20 7 11 19 20 27 20
11 0 11 3 1 15 -17 20 -26 19 -44 -7z"/>
<path d="M3940 1039 c0 -5 5 -7 10 -4 6 3 10 8 10 11 0 2 -4 4 -10 4 -5 0 -10
-5 -10 -11z"/>
<path d="M3588 1030 c-16 -10 -58 -70 -58 -84 0 -15 29 -4 42 17 14 23 39 77
35 77 -1 0 -10 -5 -19 -10z"/>
<path d="M4186 984 c-10 -26 -7 -41 9 -41 10 0 15 10 15 29 0 30 -14 38 -24
12z"/>
<path d="M3975 980 c3 -5 1 -10 -4 -10 -6 0 -11 -4 -11 -8 0 -4 8 -8 19 -8 12
0 17 6 13 18 -2 10 -9 18 -14 18 -5 0 -6 -4 -3 -10z"/>
<path d="M3490 911 c0 -5 7 -12 16 -15 14 -5 15 -4 4 9 -14 17 -20 19 -20 6z"/>
<path d="M3828 912 c-18 -3 -26 -32 -9 -32 10 0 36 29 30 33 -2 2 -12 2 -21
-1z"/>
<path d="M4552 880 c0 -14 2 -19 5 -12 2 6 2 18 0 25 -3 6 -5 1 -5 -13z"/>
<path d="M3876 881 c-4 -7 -5 -15 -2 -18 9 -9 19 4 14 18 -4 11 -6 11 -12 0z"/>
<path d="M3825 6500 c-3 -5 -1 -10 4 -10 6 0 11 5 11 10 0 6 -2 10 -4 10 -3 0
-8 -4 -11 -10z"/>
<path d="M4070 6440 c-9 -6 -10 -10 -3 -10 6 0 15 5 18 10 8 12 4 12 -15 0z"/>
<path d="M3852 6422 c-20 -13 43 -68 74 -64 14 2 31 -2 39 -8 11 -9 12 -7 9 7
-3 11 -15 20 -27 20 -12 1 -27 10 -34 19 -12 17 -13 17 -13 1 0 -23 -20 -22
-21 1 -1 9 -1 20 0 25 1 9 -11 9 -27 -1z"/>
<path d="M4112 6423 c-8 -3 9 -17 40 -32 29 -15 86 -51 127 -80 96 -69 107
-73 80 -27 -34 57 -74 87 -174 127 -34 13 -59 17 -73 12z"/>
<path d="M3837 6383 c6 -16 5 -16 -10 -4 -26 21 -32 6 -8 -20 13 -14 19 -31
16 -43 -3 -12 -2 -15 1 -8 3 6 13 12 22 12 15 1 15 2 0 11 -10 5 -18 15 -18
20 0 6 4 8 9 5 5 -4 7 3 4 14 -3 11 -9 23 -14 26 -5 3 -6 -3 -2 -13z"/>
<path d="M3706 6378 c-18 -10 -21 -34 -6 -43 6 -4 10 -3 9 2 -1 4 -1 15 0 23
2 20 20 0 24 -28 3 -22 27 -54 27 -36 0 5 4 4 8 -2 4 -6 18 -15 32 -19 l25 -7
-27 21 c-14 11 -32 21 -40 21 -8 0 -14 9 -14 20 0 11 6 20 13 20 18 0 5 27
-16 33 -10 2 -26 0 -35 -5z"/>
<path d="M3783 6346 c-9 -11 -7 -13 13 -13 20 0 22 2 13 13 -13 16 -11 16 -26
0z"/>
<path d="M3875 6340 c3 -5 8 -10 11 -10 2 0 4 5 4 10 0 6 -5 10 -11 10 -5 0
-7 -4 -4 -10z"/>
<path d="M3920 6343 c0 -13 76 -80 98 -85 26 -7 26 -7 10 43 -13 44 -23 49
-34 17 -4 -15 -1 -25 12 -35 14 -10 15 -13 3 -13 -9 0 -24 18 -35 40 -11 24
-26 40 -36 40 -10 0 -18 -3 -18 -7z"/>
<path d="M4066 6335 c4 -8 8 -15 10 -15 2 0 4 7 4 15 0 8 -4 15 -10 15 -5 0
-7 -7 -4 -15z"/>
<path d="M4110 6317 c0 -8 9 -22 20 -32 23 -21 25 -16 8 20 -12 27 -28 34 -28
12z"/>
<path d="M3706 6307 c7 -19 -6 -23 -23 -6 -9 9 -14 5 -19 -15 -8 -35 18 -68
38 -47 11 10 10 11 -4 6 -11 -4 -18 -2 -18 4 0 6 6 11 14 11 8 0 17 8 21 17 6
16 8 15 26 -7 14 -18 17 -19 11 -5 -6 11 -20 29 -32 40 -18 16 -20 16 -14 2z"/>
<path d="M4050 6313 c0 -6 8 -17 18 -24 16 -13 16 -13 2 6 -8 11 -16 22 -17
24 -2 2 -3 0 -3 -6z"/>
<path d="M4164 6297 c-3 -8 -1 -36 4 -63 9 -46 10 -47 12 -14 1 19 3 45 4 58
3 26 -11 40 -20 19z"/>
<path d="M3841 6274 c0 -11 3 -14 6 -6 3 7 2 16 -1 19 -3 4 -6 -2 -5 -13z"/>
<path d="M4231 6261 c-9 -6 -10 -11 -2 -15 6 -4 11 -1 12 6 0 7 4 4 9 -7 7
-16 9 -17 9 -3 1 21 -11 29 -28 19z"/>
<path d="M4140 6255 c0 -5 5 -17 10 -25 5 -8 10 -10 10 -5 0 6 -5 17 -10 25
-5 8 -10 11 -10 5z"/>
<path d="M3725 6240 c-3 -5 -1 -10 4 -10 6 0 11 5 11 10 0 6 -2 10 -4 10 -3 0
-8 -4 -11 -10z"/>
<path d="M4010 6241 c0 -5 5 -13 10 -16 6 -3 10 -2 10 4 0 5 -4 13 -10 16 -5
3 -10 2 -10 -4z"/>
<path d="M4198 6210 c2 -22 8 -40 13 -40 5 0 9 -15 10 -32 1 -31 2 -31 8 -8 6
21 8 22 14 8 9 -25 26 -23 20 2 -3 11 -9 20 -14 20 -5 0 -9 17 -9 38 -1 35 -2
36 -15 18 -14 -19 -15 -19 -15 7 0 15 -3 27 -8 27 -4 0 -6 -18 -4 -40z"/>
<path d="M4259 6218 c-9 -35 -7 -47 7 -41 12 4 15 1 12 -13 -2 -10 3 -26 12
-34 9 -8 19 -22 23 -30 3 -9 6 -5 6 11 1 15 7 32 15 38 8 7 12 21 9 31 -7 26
-23 26 -18 0 2 -11 0 -22 -6 -25 -5 -4 -9 3 -9 13 0 15 -48 62 -51 50z"/>
<path d="M3678 6195 c19 -37 49 -58 77 -51 25 6 36 25 13 22 -7 0 -13 4 -13 9
0 11 8 11 45 1 l25 -7 -25 20 c-14 11 -32 21 -41 21 -18 0 -33 -26 -23 -41 13
-21 -21 -7 -43 19 -17 18 -22 20 -15 7z"/>
<path d="M4357 6172 c3 -11 11 -23 19 -26 19 -7 18 1 -5 26 l-20 20 6 -20z"/>
<path d="M3790 6151 c0 -5 14 -14 31 -20 46 -16 48 -14 11 9 -37 22 -42 24
-42 11z"/>
<path d="M4337 6133 c-15 -14 -6 -23 22 -23 17 0 33 5 37 12 5 8 2 9 -9 5 -9
-3 -19 -2 -22 3 -7 12 -19 13 -28 3z"/>
<path d="M3735 6120 c3 -5 17 -10 31 -10 14 0 22 4 19 10 -3 6 -17 10 -31 10
-14 0 -22 -4 -19 -10z"/>
<path d="M4243 6098 c9 -24 -4 -30 -20 -10 -13 15 -13 15 -4 -5 17 -33 13 -38
-11 -17 l-23 19 19 -22 c24 -29 32 -29 39 -2 4 16 11 20 26 16 14 -3 21 0 21
9 0 8 -4 14 -9 14 -5 0 -17 3 -27 7 -13 5 -16 3 -11 -9z"/>
<path d="M4396 6101 c-3 -5 1 -11 9 -15 9 -3 15 0 15 9 0 16 -16 20 -24 6z"/>
<path d="M3784 6088 c-3 -4 7 -13 23 -18 72 -27 84 -33 72 -40 -8 -6 -6 -11 7
-19 17 -9 17 -10 2 -11 -11 0 -15 -5 -12 -15 4 -8 1 -15 -5 -15 -6 0 -11 7
-11 15 0 8 -9 15 -19 15 -11 0 -22 4 -26 9 -3 6 4 8 15 6 11 -2 18 0 15 6 -4
5 -13 9 -22 9 -9 0 -13 6 -9 15 3 10 -1 15 -13 15 -30 0 -15 -31 40 -86 37
-37 52 -45 61 -36 9 9 14 7 24 -6 10 -14 15 -15 25 -4 19 18 46 15 70 -9 11
-11 26 -18 32 -15 9 3 9 5 0 5 -7 1 -13 8 -13 17 0 9 -5 12 -12 8 -8 -5 -9 -2
-5 10 4 10 2 16 -6 15 -6 -1 -22 -1 -35 0 -19 1 -22 5 -17 21 4 12 2 20 -5 20
-6 0 -8 -5 -4 -12 5 -8 2 -9 -10 -5 -10 4 -20 7 -23 7 -3 0 0 7 7 15 10 12 6
20 -19 46 -17 17 -29 35 -25 40 3 5 0 9 -5 9 -6 0 -11 -7 -11 -15 0 -8 -4 -15
-10 -15 -5 0 -10 6 -10 13 0 15 -57 19 -66 5z m148 -114 c20 -7 32 -34 15 -34
-14 1 -57 35 -57 45 0 4 6 4 13 1 6 -3 20 -9 29 -12z"/>
<path d="M4440 6081 c0 -5 5 -13 10 -16 6 -4 8 -10 5 -14 -2 -5 3 -17 11 -27
9 -10 13 -13 9 -6 -3 6 -1 12 5 12 23 0 3 -25 -23 -28 -24 -3 -80 27 -99 53
-5 6 -8 3 -8 -7 0 -9 -6 -19 -12 -21 -7 -3 2 -11 20 -18 17 -8 32 -18 32 -24
0 -18 63 -45 95 -41 17 2 33 -1 37 -8 6 -8 8 -7 8 2 0 7 -10 16 -22 21 l-22 8
23 12 23 13 -26 27 c-14 15 -26 32 -26 39 0 6 -9 16 -20 22 -12 7 -20 7 -20 1z
m10 -111 c8 -5 12 -11 9 -14 -3 -3 -14 1 -25 9 -21 16 -8 20 16 5z"/>
<path d="M4375 6070 c-3 -5 -2 -10 3 -10 5 0 21 -12 36 -26 25 -25 26 -26 26
-6 0 12 -10 28 -22 36 -26 19 -35 20 -43 6z"/>
<path d="M4300 6030 c-11 -7 -12 -12 -3 -21 16 -16 32 -8 24 13 -4 12 -10 15
-21 8z"/>
<path d="M4200 6000 c0 -5 5 -10 10 -10 6 0 10 5 10 10 0 6 -4 10 -10 10 -5 0
-10 -4 -10 -10z"/>
<path d="M4280 5986 c0 -2 9 -6 20 -9 11 -3 18 -1 14 4 -5 9 -34 13 -34 5z"/>
<path d="M4343 5975 c0 -8 2 -13 5 -10 2 2 18 -3 34 -11 17 -9 32 -13 34 -11
3 2 -9 10 -26 17 -16 7 -27 16 -24 21 3 5 -1 9 -9 9 -7 0 -14 -7 -14 -15z"/>
<path d="M4370 5931 c0 -6 -8 -11 -17 -11 -12 0 -8 -6 12 -16 17 -8 40 -25 53
-37 12 -11 31 -21 42 -22 11 -1 29 -10 40 -20 16 -15 19 -15 15 -3 -6 16 -53
43 -69 39 -13 -3 -38 22 -28 28 5 3 -4 16 -20 29 -15 13 -28 19 -28 13z"/>
<path d="M5238 5919 c12 -14 22 -34 22 -45 0 -10 7 -28 15 -38 8 -11 15 -30
15 -42 0 -12 7 -25 16 -28 21 -8 24 -8 24 5 0 5 -4 8 -9 4 -6 -3 -13 11 -17
32 -8 42 -41 101 -70 123 -13 10 -12 7 4 -11z"/>
<path d="M4485 5915 c30 -24 96 -57 103 -51 3 3 -12 13 -34 22 -21 9 -34 19
-27 21 7 2 22 -1 35 -8 21 -11 22 -11 9 5 -10 12 -24 16 -40 13 -14 -3 -35 -1
-46 4 -20 10 -20 10 0 -6z"/>
<path d="M3930 5901 c0 -5 15 -20 33 -33 58 -44 59 -44 55 -2 -3 37 -4 38 -45
41 -24 1 -43 -1 -43 -6z"/>
<path d="M4474 5887 c19 -12 39 -31 64 -61 14 -17 52 -22 52 -7 0 10 -60 49
-105 68 -22 9 -25 9 -11 0z"/>
<path d="M4058 5882 c-29 -3 -40 -32 -13 -32 9 0 15 -9 15 -21 0 -24 25 -48
95 -89 63 -37 84 -39 27 -3 -31 20 -39 30 -31 40 6 6 8 17 4 23 -3 5 1 10 9
10 19 0 34 -22 18 -28 -8 -2 -8 -8 0 -22 17 -26 42 -7 28 21 -6 10 -9 22 -8
26 1 4 -2 18 -6 31 -7 22 -8 22 -22 5 -12 -17 -13 -17 -14 0 0 9 -5 17 -11 17
-5 0 -7 -4 -4 -10 3 -5 1 -10 -4 -10 -6 0 -11 11 -11 24 0 25 -4 26 -72 18z
m52 -78 c0 -8 -4 -12 -10 -9 -5 3 -10 13 -10 21 0 8 5 12 10 9 6 -3 10 -13 10
-21z"/>
<path d="M4257 5842 c3 -12 9 -25 14 -28 14 -8 11 10 -6 32 -13 18 -14 18 -8
-4z"/>
<path d="M4350 5835 c13 -14 27 -25 31 -25 5 0 -2 11 -15 25 -13 14 -27 25
-31 25 -5 0 2 -11 15 -25z"/>
<path d="M4481 5808 c30 -26 65 -78 53 -78 -4 0 -16 8 -27 18 -19 16 -20 16
-8 -5 6 -12 18 -26 27 -31 9 -5 15 -12 15 -15 -3 -23 0 -37 9 -37 7 0 7 6 0
20 -8 15 -8 20 2 20 9 0 9 3 -2 10 -22 14 -5 23 20 10 27 -14 52 -6 44 15 -3
8 -1 15 5 15 8 0 8 6 -1 19 -7 11 -15 18 -20 15 -4 -3 -19 3 -33 12 -14 9 -29
13 -33 9 -4 -4 -2 -9 3 -12 30 -11 37 -21 28 -38 -7 -12 -13 -14 -17 -6 -4 6
-2 11 5 11 7 0 -6 13 -27 28 -53 38 -75 48 -43 20z m119 -73 c7 -9 8 -15 2
-15 -5 0 -12 7 -16 15 -3 8 -4 15 -2 15 2 0 9 -7 16 -15z"/>
<path d="M4405 5810 c-4 -6 -1 -9 7 -8 7 2 12 -3 10 -10 -1 -8 2 -11 8 -7 8 5
7 11 -1 21 -14 17 -16 17 -24 4z"/>
<path d="M4250 5790 c-1 -14 -4 -36 -5 -48 -1 -14 7 -32 19 -43 22 -21 63 -35
73 -25 4 3 -1 6 -10 6 -9 0 -17 4 -17 8 0 5 -7 17 -16 28 -15 18 -15 18 -10 0
6 -16 4 -17 -9 -6 -18 15 -20 40 -4 40 8 0 8 4 1 13 -5 6 -12 21 -15 32 -4 17
-5 16 -7 -5z"/>
<path d="M4290 5792 c0 -13 60 -70 64 -62 2 3 11 -2 22 -10 18 -14 18 -14 5 3
-7 9 -19 17 -26 17 -7 0 -24 14 -39 32 -14 17 -26 27 -26 20z"/>
<path d="M4401 5741 c-1 -19 36 -78 55 -85 10 -4 13 -2 8 7 -6 9 -4 9 8 -1 13
-10 17 -10 21 0 4 10 6 10 6 1 1 -7 6 -13 11 -13 18 0 10 32 -15 62 -14 16
-25 26 -25 22 0 -4 8 -17 17 -28 13 -16 11 -15 -9 3 -24 21 -28 22 -34 7 -8
-20 -24 -21 -24 -1 0 8 5 15 10 15 6 0 10 5 10 11 0 8 -4 8 -14 0 -11 -9 -15
-9 -19 1 -4 10 -6 10 -6 -1z"/>
<path d="M5030 5730 c0 -5 5 -10 10 -10 6 0 10 5 10 10 0 6 -4 10 -10 10 -5 0
-10 -4 -10 -10z"/>
<path d="M4316 5706 c3 -9 12 -16 20 -16 7 0 18 -8 24 -17 9 -15 10 -14 4 6
-4 17 -3 21 6 16 8 -5 11 -4 6 3 -4 6 -13 9 -21 5 -9 -3 -22 0 -30 7 -13 11
-14 10 -9 -4z"/>
<path d="M5270 5691 c0 -11 -6 -22 -12 -24 -8 -3 -8 -6 -2 -6 6 -1 19 7 28 18
15 16 15 19 1 24 -10 4 -15 0 -15 -12z"/>
<path d="M5264 5583 c1 -31 -4 -66 -11 -79 -13 -26 -3 -33 16 -11 16 19 20
121 5 134 -9 9 -11 -1 -10 -44z"/>
<path d="M5120 5621 c0 -5 5 -13 10 -16 6 -3 10 -2 10 4 0 5 -4 13 -10 16 -5
3 -10 2 -10 -4z"/>
<path d="M2446 5472 c-3 -5 5 -19 17 -32 19 -21 22 -32 17 -75 -3 -27 -9 -56
-13 -62 -14 -22 4 -14 39 16 18 16 41 34 50 39 17 10 17 12 -1 51 -10 23 -23
45 -28 48 -6 3 -7 1 -3 -5 4 -7 3 -12 -3 -12 -6 0 -15 9 -21 20 -11 20 -44 27
-54 12z"/>
<path d="M5246 5459 c-10 -32 -27 -171 -22 -176 11 -12 18 6 18 51 1 25 5 46
11 46 5 0 7 10 4 22 -4 12 -1 28 5 35 8 10 8 17 0 25 -8 8 -12 8 -16 -3z"/>
<path d="M5209 5263 c-1 -5 -1 -15 0 -25 1 -9 -3 -19 -9 -23 -5 -3 -10 -17
-10 -30 0 -13 -4 -26 -9 -29 -5 -3 -12 -27 -16 -52 -6 -44 -15 -72 -37 -121
-6 -11 -8 -25 -4 -31 3 -5 -1 -17 -8 -28 -17 -23 -10 -44 15 -44 17 0 25 21
20 53 0 4 4 7 10 7 6 0 9 10 8 23 -1 12 1 30 6 40 4 10 2 24 -6 33 -10 13 -9
16 9 21 17 4 20 9 12 23 -13 25 -13 30 5 30 13 0 13 3 3 21 -11 17 -10 22 5
33 11 9 15 20 11 31 -4 10 -1 20 6 25 11 7 11 12 2 23 -7 7 -9 17 -5 20 3 4 3
7 0 7 -4 0 -8 -3 -8 -7z"/>
<path d="M5390 5092 c0 -8 322 -93 351 -92 16 1 -203 66 -271 81 -25 5 -53 12
-62 15 -10 3 -18 1 -18 -4z"/>
<path d="M5878 4973 c6 -2 18 -2 25 0 6 3 1 5 -13 5 -14 0 -19 -2 -12 -5z"/>
<path d="M5940 4960 c34 -11 60 -11 35 0 -11 5 -29 8 -40 8 -16 0 -15 -2 5 -8z"/>
<path d="M6015 4940 c11 -5 27 -9 35 -9 9 0 8 4 -5 9 -11 5 -27 9 -35 9 -9 0
-8 -4 5 -9z"/>
<path d="M6108 4913 c7 -3 16 -2 19 1 4 3 -2 6 -13 5 -11 0 -14 -3 -6 -6z"/>
<path d="M2196 4664 c9 -27 25 -58 36 -69 20 -20 20 -20 14 14 -3 18 -6 44 -6
58 0 14 -4 22 -11 18 -5 -4 -19 1 -30 10 -18 18 -19 17 -3 -31z"/>
<path d="M4300 4100 c0 -5 5 -10 10 -10 6 0 10 5 10 10 0 6 -4 10 -10 10 -5 0
-10 -4 -10 -10z"/>
<path d="M4305 4070 c-3 -5 1 -10 10 -10 9 0 13 5 10 10 -3 6 -8 10 -10 10 -2
0 -7 -4 -10 -10z"/>
<path d="M3560 4030 c0 -5 5 -10 10 -10 6 0 10 5 10 10 0 6 -4 10 -10 10 -5 0
-10 -4 -10 -10z"/>
<path d="M4525 3980 c-4 -6 -3 -16 3 -22 6 -6 12 -6 17 2 4 6 3 16 -3 22 -6 6
-12 6 -17 -2z"/>
<path d="M4358 3955 c8 -43 54 -27 51 18 0 7 -4 2 -9 -10 -12 -28 -30 -30 -30
-3 0 11 -4 20 -9 20 -4 0 -6 -11 -3 -25z"/>
<path d="M4320 3870 c0 -5 9 -10 20 -10 11 0 20 5 20 10 0 6 -9 10 -20 10 -11
0 -20 -4 -20 -10z"/>
<path d="M4665 3870 c-3 -5 -1 -10 4 -10 6 0 11 5 11 10 0 6 -2 10 -4 10 -3 0
-8 -4 -11 -10z"/>
<path d="M3613 3543 c-4 -10 -11 -21 -17 -25 -6 -4 -8 -10 -4 -13 10 -11 48
19 48 37 0 23 -19 23 -27 1z"/>
<path d="M3595 3480 c3 -5 8 -10 11 -10 2 0 4 5 4 10 0 6 -5 10 -11 10 -5 0
-7 -4 -4 -10z"/>
<path d="M4124 3329 c-3 -5 -17 -9 -32 -10 -23 0 -24 -1 -7 -8 11 -4 34 -7 52
-5 19 1 33 -3 35 -10 2 -7 12 -10 23 -7 18 5 14 9 -22 27 -24 12 -46 17 -49
13z"/>
<path d="M4030 3275 c0 -8 5 -15 10 -15 6 0 10 7 10 15 0 8 -4 15 -10 15 -5 0
-10 -7 -10 -15z"/>
<path d="M4126 3243 c-12 -13 -5 -21 14 -16 11 3 49 -3 85 -12 46 -13 69 -15
76 -8 8 8 1 14 -23 21 -41 13 -144 22 -152 15z"/>
<path d="M3987 3234 c-8 -8 1 -24 14 -24 5 0 9 7 9 15 0 15 -12 20 -23 9z"/>
<path d="M4149 3193 c-17 -4 -43 -73 -28 -73 5 0 9 5 9 11 0 6 7 9 15 5 8 -3
15 -2 15 3 0 4 12 13 27 20 27 12 27 13 8 27 -10 8 -21 13 -24 13 -3 -1 -13
-3 -22 -6z"/>
<path d="M4480 3085 c0 -8 5 -15 10 -15 6 0 10 7 10 15 0 8 -4 15 -10 15 -5 0
-10 -7 -10 -15z"/>
<path d="M4337 3067 c-11 -29 -9 -43 4 -30 6 6 9 19 7 29 -3 18 -4 18 -11 1z"/>
<path d="M4461 3054 c0 -11 3 -14 6 -6 3 7 2 16 -1 19 -3 4 -6 -2 -5 -13z"/>
<path d="M4530 3054 l-25 -15 25 7 c14 3 29 10 35 15 15 14 -7 10 -35 -7z"/>
<path d="M4480 3015 c0 -25 14 -34 24 -16 8 12 -3 41 -15 41 -5 0 -9 -11 -9
-25z"/>
<path d="M4644 3001 c3 -5 24 -11 45 -13 31 -3 37 -1 29 9 -12 15 -82 18 -74
4z"/>
<path d="M4405 2980 c-3 -5 -15 -10 -26 -10 -27 0 -24 -13 11 -50 33 -36 50
-32 50 10 0 49 -19 76 -35 50z"/>
<path d="M4480 2960 c0 -5 4 -10 9 -10 6 0 13 5 16 10 3 6 -1 10 -9 10 -9 0
-16 -4 -16 -10z"/>
<path d="M4634 2955 c-3 -8 -3 -19 0 -24 4 -6 -3 -15 -14 -21 -19 -10 -19 -12
-4 -41 17 -34 39 -34 39 1 0 18 8 26 35 34 l35 10 -37 4 c-42 4 -50 17 -17 27
17 6 19 9 8 16 -21 13 -39 11 -45 -6z"/>
<path d="M4480 2920 c0 -5 4 -10 9 -10 5 0 18 -3 28 -6 16 -5 16 -4 -1 10 -23
18 -36 20 -36 6z"/>
<path d="M4230 2890 c0 -16 4 -30 8 -30 5 0 7 14 4 30 -2 17 -6 30 -8 30 -2 0
-4 -13 -4 -30z"/>
<path d="M4801 2884 c0 -11 3 -14 6 -6 3 7 2 16 -1 19 -3 4 -6 -2 -5 -13z"/>
<path d="M4555 2859 c-10 -15 1 -23 20 -15 9 3 13 10 10 16 -8 13 -22 13 -30
-1z"/>
<path d="M4495 2810 c-3 -6 1 -7 9 -4 18 7 21 14 7 14 -6 0 -13 -4 -16 -10z"/>
<path d="M4381 2794 c0 -11 3 -14 6 -6 3 7 2 16 -1 19 -3 4 -6 -2 -5 -13z"/>
<path d="M6152 2784 c10 -10 20 -15 24 -12 3 4 -5 12 -18 18 -22 12 -22 12 -6
-6z"/>
<path d="M4160 2775 c0 -8 5 -15 10 -15 6 0 10 7 10 15 0 8 -4 15 -10 15 -5 0
-10 -7 -10 -15z"/>
<path d="M4247 2783 c-12 -11 -8 -23 8 -23 8 0 15 7 15 15 0 16 -12 20 -23 8z"/>
<path d="M3998 2773 c7 -3 16 -2 19 1 4 3 -2 6 -13 5 -11 0 -14 -3 -6 -6z"/>
<path d="M4045 2749 c-10 -15 3 -25 16 -12 7 7 7 13 1 17 -6 3 -14 1 -17 -5z"/>
<path d="M4350 2744 c0 -9 5 -14 12 -12 18 6 21 28 4 28 -9 0 -16 -7 -16 -16z"/>
<path d="M3978 2743 c7 -3 16 -2 19 1 4 3 -2 6 -13 5 -11 0 -14 -3 -6 -6z"/>
<path d="M1358 2728 c-36 -12 -41 -53 -5 -43 30 10 40 20 35 37 -2 12 -9 13
-30 6z"/>
<path d="M1430 2725 c-11 -13 -8 -14 21 -8 75 14 87 21 38 22 -30 1 -51 -4
-59 -14z"/>
<path d="M1260 2695 c-17 -45 -14 -56 15 -43 28 13 32 32 10 54 -13 14 -16 12
-25 -11z"/>
<path d="M890 2580 c-9 -6 -10 -10 -3 -10 6 0 15 5 18 10 8 12 4 12 -15 0z"/>
<path d="M3620 2539 c0 -5 5 -7 10 -4 6 3 10 8 10 11 0 2 -4 4 -10 4 -5 0 -10
-5 -10 -11z"/>
<path d="M3938 2543 c7 -3 16 -2 19 1 4 3 -2 6 -13 5 -11 0 -14 -3 -6 -6z"/>
<path d="M803 2525 c-7 -8 -8 -16 -2 -22 7 -7 5 -12 -6 -17 -9 -3 -13 -2 -10
4 11 18 -22 10 -39 -9 -12 -13 -14 -21 -6 -26 14 -8 -28 -68 -44 -62 -7 3 -12
-10 -13 -35 -1 -32 2 -38 15 -34 10 3 41 10 71 16 30 6 56 12 58 14 2 2 -7 13
-21 24 -14 10 -23 22 -19 25 3 4 -2 9 -11 13 -16 6 -23 34 -8 34 13 0 47 -27
47 -37 0 -20 52 -110 78 -134 15 -14 27 -33 27 -41 0 -8 9 -23 20 -33 11 -10
20 -24 20 -30 0 -27 74 -35 84 -9 9 23 7 39 -6 71 -6 15 -10 33 -9 40 2 15
-65 115 -85 126 -8 4 -14 14 -14 22 0 8 -6 12 -14 9 -8 -3 -20 3 -27 13 -8 10
-29 29 -47 42 -23 16 -30 26 -22 31 7 4 8 10 4 13 -5 3 -14 -1 -21 -8z"/>
<path d="M4820 2511 c0 -12 5 -21 10 -21 6 0 10 6 10 14 0 8 -4 18 -10 21 -5
3 -10 -3 -10 -14z"/>
<path d="M3959 2515 c-1 -3 -2 -9 -3 -14 0 -5 -4 -13 -8 -17 -11 -11 -10 -52
2 -59 6 -3 11 4 12 17 2 42 3 47 11 54 10 11 9 24 -3 24 -5 0 -11 -2 -11 -5z"/>
<path d="M3991 2474 c0 -11 3 -14 6 -6 3 7 2 16 -1 19 -3 4 -6 -2 -5 -13z"/>
<path d="M4230 2420 c0 -5 14 -10 30 -10 17 0 30 5 30 10 0 6 -13 10 -30 10
-16 0 -30 -4 -30 -10z"/>
<path d="M4130 2410 c0 -5 4 -10 9 -10 6 0 13 5 16 10 3 6 -1 10 -9 10 -9 0
-16 -4 -16 -10z"/>
<path d="M5195 2394 c9 -9 19 -13 23 -10 3 4 0 11 -8 16 -24 15 -33 11 -15 -6z"/>
<path d="M657 2367 c-4 -10 -7 -28 -7 -40 1 -20 2 -20 11 -4 6 10 9 28 7 40
-3 20 -4 20 -11 4z"/>
<path d="M4180 2370 c0 -5 7 -10 15 -10 8 0 15 5 15 10 0 6 -7 10 -15 10 -8 0
-15 -4 -15 -10z"/>
<path d="M4076 2354 c-4 -10 -1 -14 6 -12 15 5 23 28 10 28 -5 0 -13 -7 -16
-16z"/>
<path d="M4120 2355 c-10 -12 -9 -15 7 -15 10 0 24 -5 31 -12 6 -6 15 -8 19
-4 4 4 1 11 -7 16 -8 6 -10 10 -5 10 10 0 -15 20 -26 20 -4 0 -12 -7 -19 -15z"/>
<path d="M5256 2301 c-4 -7 -5 -15 -2 -18 9 -9 19 4 14 18 -4 11 -6 11 -12 0z"/>
<path d="M4006 2289 c-11 -35 -13 -59 -6 -59 9 0 23 61 15 68 -2 3 -6 -1 -9
-9z"/>
<path d="M4180 2280 c0 -5 14 -10 30 -10 17 0 30 5 30 10 0 6 -13 10 -30 10
-16 0 -30 -4 -30 -10z"/>
<path d="M4125 2260 c4 -6 11 -8 16 -5 14 9 11 15 -7 15 -8 0 -12 -5 -9 -10z"/>
<path d="M4165 2240 c3 -5 10 -10 16 -10 5 0 9 5 9 10 0 6 -7 10 -16 10 -8 0
-12 -4 -9 -10z"/>
<path d="M5187 2243 c-12 -11 -8 -23 8 -23 8 0 15 7 15 15 0 16 -12 20 -23 8z"/>
<path d="M800 2190 c0 -11 7 -20 15 -20 17 0 18 2 9 24 -9 23 -24 20 -24 -4z"/>
<path d="M3990 2187 c0 -14 4 -28 8 -31 9 -5 8 41 -1 51 -4 3 -7 -5 -7 -20z"/>
<path d="M1101 2168 c-5 -14 -5 -26 1 -29 6 -4 5 -9 -3 -12 -10 -4 -10 -6 2
-6 9 -1 20 6 23 15 4 10 2 13 -6 8 -7 -5 -9 1 -4 20 8 32 -1 35 -13 4z"/>
<path d="M1156 2151 c-4 -7 -5 -15 -2 -18 9 -9 19 4 14 18 -4 11 -6 11 -12 0z"/>
<path d="M4045 2150 c4 -6 11 -8 16 -5 14 9 11 15 -7 15 -8 0 -12 -5 -9 -10z"/>
<path d="M3926 2081 c-4 -5 -2 -12 3 -15 5 -4 12 -2 15 3 4 5 2 12 -3 15 -5 4
-12 2 -15 -3z"/>
<path d="M6110 1520 c0 -5 7 -7 15 -4 8 4 15 8 15 10 0 2 -7 4 -15 4 -8 0 -15
-4 -15 -10z"/>
<path d="M6150 1070 c0 -5 5 -10 11 -10 5 0 7 5 4 10 -3 6 -8 10 -11 10 -2 0
-4 -4 -4 -10z"/>
<path d="M1584 786 c-8 -22 -2 -27 16 -16 12 7 12 12 3 21 -10 10 -14 9 -19
-5z"/>
</g>
</svg>
