<?xml version="1.0" standalone="no"?>
<!DOCTYPE svg PUBLIC "-//W3C//DTD SVG 20010904//EN"
 "http://www.w3.org/TR/2001/REC-SVG-20010904/DTD/svg10.dtd">
<svg version="1.0" xmlns="http://www.w3.org/2000/svg"
 width="740.000000pt" height="493.000000pt" viewBox="0 0 740.000000 493.000000"
 preserveAspectRatio="xMidYMid meet">

<g transform="translate(0.000000,493.000000) scale(0.100000,-0.100000)"
fill="#000000" stroke="none">
<path d="M0 3746 l0 -1185 58 -21 c31 -12 131 -47 222 -77 172 -57 209 -72
178 -73 -38 0 -363 91 -440 125 -16 6 -18 0 -18 -67 l0 -74 66 -43 c76 -48 70
-48 272 -5 62 13 122 26 132 27 28 4 37 17 20 28 -10 6 2 7 38 3 48 -6 52 -5
52 14 0 40 50 121 97 157 47 36 153 75 202 75 15 0 32 5 37 10 6 6 35 11 65
11 172 2 270 -1 280 -6 6 -4 38 -8 72 -10 108 -4 160 -17 215 -51 29 -19 62
-34 75 -34 53 0 468 52 532 67 86 20 276 81 291 94 7 6 10 19 7 29 -3 11 -1
20 5 20 6 0 8 9 5 20 -3 11 -1 20 5 20 5 0 9 8 8 18 -1 12 5 16 24 14 23 -2
24 -2 6 11 -19 14 -19 14 0 25 10 6 18 13 16 17 -4 8 136 138 165 153 12 7 33
12 47 12 14 0 56 12 93 26 79 30 156 29 220 -3 21 -11 64 -32 97 -48 60 -30
86 -59 108 -125 6 -19 22 -51 35 -71 21 -33 24 -49 26 -150 1 -119 -14 -178
-57 -222 -16 -16 -15 -16 31 -11 26 3 73 10 103 16 102 19 118 20 157 8 21 -7
54 -24 73 -39 38 -29 43 -32 122 -79 121 -72 172 -150 171 -262 -1 -36 -9 -82
-17 -102 -9 -21 -16 -56 -16 -78 0 -48 -19 -97 -56 -146 -20 -25 -24 -38 -16
-43 16 -9 -84 -75 -115 -77 -13 0 -26 -4 -30 -7 -16 -16 -41 -4 -69 33 -29 39
-48 53 -38 26 3 -9 -3 -17 -17 -21 -27 -9 -49 -29 -49 -44 0 -6 -4 -11 -10
-11 -5 0 -10 -7 -10 -15 0 -25 -17 -17 -40 20 -12 19 -27 32 -32 29 -6 -4 -8
-2 -5 3 4 6 0 16 -7 23 -8 6 -18 26 -22 43 -3 18 -15 40 -25 50 -24 22 -25 47
-1 47 13 1 11 4 -8 15 -17 9 -27 10 -32 3 -4 -8 -12 -6 -23 5 -9 10 -25 22
-36 28 -16 8 -18 13 -9 24 9 11 7 20 -7 39 -10 14 -22 26 -27 26 -9 0 11 -29
29 -42 7 -5 7 -8 0 -9 -39 -5 -52 -2 -70 14 -10 10 -25 15 -33 12 -7 -2 -10 0
-7 5 10 16 -5 50 -21 50 -18 0 -18 9 2 48 8 17 16 41 17 53 2 26 28 40 86 46
l46 4 -3 -46 c-3 -26 1 -52 8 -60 10 -12 9 -15 -4 -15 -10 0 -16 -8 -16 -22 0
-21 0 -21 -15 -2 -11 13 -14 14 -13 4 4 -21 20 -31 34 -19 7 6 21 4 39 -5 35
-18 48 -11 42 20 -2 13 1 25 7 28 6 2 4 5 -4 5 -20 1 -50 56 -50 89 1 22 4 18
16 -18 20 -58 35 -74 24 -26 -7 32 -6 35 7 25 13 -11 14 -8 7 27 -3 21 -3 36
1 32 10 -9 35 10 35 26 0 6 -4 5 -9 -3 -6 -10 -13 -10 -28 -2 -11 5 -23 8 -25
5 -3 -2 -11 2 -18 11 -7 8 -21 15 -31 15 -10 0 -23 8 -28 17 -9 15 -12 16 -20
4 -6 -9 -18 -11 -35 -7 -24 6 -25 8 -11 22 8 8 15 17 15 19 0 1 -25 2 -57 1
-35 0 -58 -6 -60 -13 -3 -8 4 -13 16 -13 13 0 21 -6 21 -16 0 -13 -3 -14 -15
-4 -8 6 -19 9 -25 5 -5 -3 -10 0 -10 7 0 11 -2 10 -9 0 -5 -9 -10 2 -14 33 -5
45 -21 70 -39 59 -4 -3 -8 -3 -8 0 0 3 19 15 42 27 28 14 52 19 75 16 18 -3
31 -3 29 1 -3 4 9 14 25 21 16 7 29 16 29 19 -1 15 -140 106 -140 92 0 -6 -8
-10 -17 -10 -14 0 -13 -4 7 -25 23 -24 23 -24 1 -20 -11 2 -26 7 -31 10 -11 7
-96 15 -200 19 l-65 2 2 30 c2 28 2 28 -20 -11 -22 -38 -26 -40 -86 -49 -72
-9 -106 1 -122 36 -9 21 -9 21 -6 -5 4 -26 3 -27 -13 -12 -10 9 -26 16 -36 15
-11 0 -102 -5 -203 -10 -205 -9 -311 -25 -311 -45 0 -8 -5 -26 -10 -40 -8 -22
-13 -25 -25 -15 -8 6 -23 9 -35 5 -14 -4 -22 -1 -27 12 -10 26 -31 45 -43 38
-5 -3 -10 -1 -10 5 0 6 -4 9 -8 6 -5 -3 -18 3 -29 14 -24 21 -34 17 -29 -14 2
-12 1 -15 -1 -8 -6 16 -22 16 -29 -1 -2 -7 -16 -14 -30 -15 -14 -1 -33 -6 -42
-11 -11 -6 -31 -4 -54 4 -33 11 -40 10 -58 -5 -15 -13 -17 -19 -8 -23 7 -3 4
-5 -7 -4 -17 1 -20 6 -17 31 4 26 3 28 -10 15 -9 -8 -13 -19 -11 -25 2 -7 -5
-30 -17 -53 -19 -39 -23 -41 -64 -41 -31 0 -46 5 -50 16 -4 9 -9 14 -13 11 -3
-4 2 -18 11 -32 l16 -25 -34 0 c-19 0 -37 -4 -40 -9 -3 -4 -20 -11 -37 -15
-17 -3 -85 -33 -152 -66 -114 -55 -125 -59 -162 -50 -45 11 -100 4 -131 -15
-12 -8 -36 -15 -55 -18 l-34 -4 33 -1 c32 -2 43 -16 20 -25 -7 -3 9 -6 36 -6
42 -1 47 -3 36 -16 -11 -13 -8 -19 16 -40 16 -14 33 -25 37 -25 5 0 5 -5 2
-10 -4 -7 8 -8 34 -4 31 5 41 3 41 -7 0 -9 3 -10 8 -3 5 8 19 6 47 -8 35 -16
36 -17 10 -12 -50 10 -73 7 -91 -10 -15 -16 -15 -18 2 -31 18 -14 17 -14 -11
-9 -24 4 -37 -1 -64 -25 -19 -17 -38 -31 -42 -31 -5 0 -6 -6 -3 -14 7 -19 36
-13 44 9 5 13 9 15 14 7 4 -7 16 -12 26 -12 14 0 18 -5 13 -17 -3 -10 8 0 25
22 17 22 28 44 25 49 -4 5 -1 6 5 2 6 -3 16 3 22 14 14 27 39 25 49 -2 9 -23
9 -23 21 5 7 15 19 27 26 27 20 0 64 -22 59 -30 -2 -4 6 -6 19 -5 13 2 34 -7
49 -20 13 -13 41 -27 60 -30 20 -4 41 -13 48 -21 6 -8 17 -14 24 -14 8 0 15
-3 17 -7 2 -5 28 -21 58 -37 72 -38 114 -73 115 -97 2 -21 15 -39 15 -20 0 7
5 9 10 6 6 -3 10 -14 10 -24 0 -10 17 -30 38 -44 31 -21 45 -25 84 -20 40 5
48 3 57 -16 13 -24 6 -45 -12 -34 -6 4 -31 8 -55 9 -29 1 -48 8 -57 20 -12 16
-14 17 -15 3 0 -9 -7 -20 -16 -23 -15 -6 -15 -8 0 -31 13 -19 13 -25 3 -25 -7
0 -18 5 -24 11 -6 6 -16 8 -22 5 -18 -12 -12 -37 9 -43 19 -5 25 -20 21 -51
-3 -18 9 -15 29 11 11 12 17 30 14 40 -8 25 25 54 56 52 14 -1 28 2 32 8 9 14
61 -21 52 -35 -5 -7 0 -9 13 -6 22 6 28 2 100 -61 29 -25 60 -64 74 -92 12
-27 26 -49 30 -49 4 0 20 -5 36 -11 27 -10 27 -11 9 -25 -11 -8 -15 -14 -10
-14 6 0 15 5 22 12 9 9 20 3 49 -26 21 -21 70 -53 110 -71 39 -19 74 -38 77
-43 6 -10 -96 -102 -113 -102 -5 0 -16 8 -23 18 -19 27 -43 40 -35 19 8 -22
-1 -21 -38 3 -16 11 -40 20 -53 20 -14 0 -26 8 -31 23 -5 13 -16 29 -25 36 -9
7 -13 18 -9 25 3 6 3 8 -2 4 -4 -4 -22 4 -40 17 -30 23 -45 24 -45 3 0 -5 4
-7 8 -4 5 3 18 -3 29 -14 12 -10 24 -16 27 -13 8 9 7 -10 -2 -23 -4 -6 -15
-13 -24 -17 -10 -3 -18 -13 -18 -22 0 -24 -39 0 -51 33 -7 19 -12 23 -18 13
-6 -10 -10 -9 -14 4 -4 9 -21 21 -37 27 -18 6 -29 16 -26 23 2 7 -4 19 -15 29
-21 18 -44 22 -34 6 3 -6 1 -10 -5 -10 -7 0 -10 7 -7 15 4 8 2 17 -4 21 -6 4
-4 13 7 25 9 11 14 22 9 27 -4 4 -10 2 -12 -5 -7 -20 -40 -53 -47 -46 -3 3 -6
1 -6 -5 0 -19 -28 -14 -40 7 -7 14 -6 27 5 47 15 30 13 40 -4 29 -6 -3 -8 -11
-5 -17 5 -7 2 -9 -8 -6 -11 5 -14 0 -13 -16 2 -12 -4 -31 -12 -41 -15 -19 -15
-18 -9 13 3 18 1 32 -4 32 -6 0 -11 -8 -11 -17 -1 -10 -4 -5 -8 11 -6 28 -7
29 -23 13 -9 -9 -23 -17 -31 -17 -9 0 -17 -5 -19 -11 -2 -6 -14 -5 -33 5 l-30
16 -3 -34 c-2 -22 -9 -37 -20 -40 -9 -3 -5 -4 10 -2 21 2 28 -2 33 -22 3 -13
5 -26 3 -28 -18 -17 -82 -54 -86 -49 -4 3 0 10 8 15 13 9 13 10 0 10 -33 0
-42 -16 -35 -62 5 -35 3 -48 -10 -61 -38 -38 -81 -45 -68 -12 3 9 -1 15 -11
15 -9 0 -16 5 -16 11 0 6 7 8 16 5 12 -4 15 -2 10 9 -3 8 -2 14 2 14 27 -4 30
4 9 24 -14 12 -25 26 -25 32 0 5 -6 11 -13 14 -7 2 -9 -1 -5 -8 4 -6 3 -11 -2
-11 -16 0 -22 13 -12 26 6 6 13 22 15 34 2 12 14 31 26 41 15 13 18 19 8 20
-8 0 -1 5 15 9 16 5 33 7 38 4 4 -3 8 -1 8 4 0 6 8 9 17 8 11 0 19 7 21 20 2
12 12 24 24 27 16 5 19 12 16 31 -3 14 0 27 6 29 6 2 8 8 3 12 -4 5 -24 1 -43
-9 -20 -9 -39 -14 -43 -11 -7 8 49 55 65 55 6 0 27 -19 48 -42 36 -41 38 -42
52 -24 18 25 18 36 -2 36 -9 0 -13 -5 -9 -12 4 -7 -1 -4 -9 6 -21 26 -20 39 2
32 9 -3 31 -2 47 3 29 9 29 10 8 16 -13 4 -23 13 -23 20 0 17 -29 28 -44 16
-15 -12 -76 -20 -76 -9 0 4 6 8 13 8 7 0 22 7 33 15 18 13 18 14 -5 8 -16 -4
-26 -1 -33 11 -9 16 -11 16 -23 -1 -13 -17 -14 -17 -20 -1 -4 10 -11 15 -16
12 -12 -7 -11 3 3 25 10 17 13 17 23 5 9 -13 14 -11 34 10 14 15 19 26 13 26
-6 0 -14 -4 -17 -10 -3 -5 -11 -10 -17 -10 -17 0 13 30 31 30 9 1 26 6 39 13
l23 13 -22 28 -21 27 -25 -23 c-14 -13 -32 -35 -41 -51 -9 -15 -20 -27 -25
-27 -4 0 -5 5 -1 12 4 6 3 8 -3 5 -6 -4 -8 -18 -6 -31 5 -22 0 -26 -50 -42
-46 -14 -54 -20 -47 -34 12 -23 -25 -47 -46 -29 -12 9 -13 9 -9 -2 7 -20 -44
-43 -62 -27 -11 8 -12 7 -7 -6 3 -9 1 -16 -6 -16 -6 0 -8 -4 -5 -10 9 -15 41
-12 55 5 7 8 21 15 30 15 10 0 20 5 22 12 5 15 65 -10 73 -31 6 -15 -13 -43
-24 -37 -4 3 -13 1 -19 -3 -10 -6 -9 -14 2 -36 18 -34 7 -71 -20 -68 -10 1
-22 -3 -25 -9 -4 -6 -17 -4 -37 6 -35 18 -55 21 -32 5 12 -9 11 -10 -7 -6 -17
4 -23 1 -23 -13 0 -24 -18 -36 -33 -21 -7 7 -6 12 6 17 9 3 17 14 17 24 0 18
18 38 35 38 16 1 17 18 0 32 -8 7 -15 21 -15 32 0 17 -2 18 -15 4 -8 -8 -15
-19 -15 -24 0 -6 -9 -8 -19 -5 -14 3 -32 -6 -56 -30 -23 -23 -42 -33 -53 -30
-10 4 -13 2 -8 -5 4 -7 4 -22 0 -34 l-7 -23 -8 23 c-5 12 -15 22 -23 22 -9 0
-13 -6 -10 -14 8 -21 -16 -31 -33 -13 -13 13 -13 18 1 45 22 43 12 65 -28 58
-29 -5 -30 -5 -12 9 11 8 26 15 33 15 7 0 13 5 13 10 0 13 0 13 -50 -5 -51
-18 -48 -18 -53 -2 -2 6 -3 4 -2 -5 2 -13 -10 -23 -47 -35 -73 -26 -111 -62
-112 -105 -1 -23 -5 -34 -13 -31 -8 3 -11 -3 -8 -16 2 -12 -6 -33 -21 -51 -14
-16 -22 -35 -18 -41 4 -8 3 -9 -4 -5 -8 5 -12 -2 -12 -19 0 -22 -4 -26 -17
-21 -16 6 -17 6 -2 -9 16 -16 15 -80 -2 -69 -5 3 -6 -1 -3 -9 3 -8 0 -18 -5
-22 -6 -3 -9 -10 -6 -15 3 -4 -2 -13 -10 -20 -8 -7 -15 -23 -15 -36 0 -27 -15
-32 -24 -9 -8 21 -23 19 -29 -5 -4 -16 -14 -20 -46 -20 -23 0 -41 -4 -41 -10
0 -5 5 -10 10 -10 6 0 10 -4 10 -9 0 -5 -35 -11 -77 -13 -58 -4 -81 -1 -89 9
-6 7 -19 11 -27 7 -11 -4 -25 4 -41 23 l-25 28 -1 -344 0 -344 30 34 c38 44
39 31 0 -23 -19 -26 -30 -53 -30 -75 l0 -33 175 0 c165 1 175 2 175 20 0 14
-5 18 -17 14 -12 -4 -8 4 10 20 25 23 30 55 6 41 -5 -4 -9 -1 -9 5 0 6 11 8
25 6 18 -3 25 0 26 12 1 9 7 -5 14 -33 21 -83 23 -86 64 -83 l36 3 -3 63 c-1
44 2 62 10 63 7 1 26 3 41 5 31 3 30 4 11 -103 -6 -31 -4 -33 22 -33 24 0 29
5 30 25 1 16 -3 25 -12 25 -11 0 -13 7 -8 28 8 34 23 62 24 45 0 -19 20 -16
27 4 4 10 14 25 22 33 15 16 15 5 -5 -117 -4 -28 -3 -43 4 -43 6 0 14 21 18
47 6 42 38 113 51 113 5 0 -3 -75 -14 -131 -3 -16 -2 -29 3 -29 12 0 31 45 40
93 3 20 10 40 15 43 5 3 7 10 4 15 -4 5 -1 9 6 9 11 0 9 -37 -7 -134 -10 -57
15 -6 27 57 7 34 16 56 23 54 12 -4 13 -18 3 -92 l-6 -50 22 58 c15 42 26 57
40 57 12 0 17 -5 14 -14 -14 -37 -19 -89 -8 -82 6 4 11 13 11 20 0 18 24 66
33 66 5 0 6 -24 3 -52 l-6 -53 17 42 c22 51 37 68 28 30 -5 -17 -3 -27 4 -27
6 0 11 6 12 13 1 6 4 1 8 -12 7 -25 7 -24 24 10 15 31 17 32 17 9 0 -19 3 -21
9 -11 5 8 19 16 31 18 20 3 22 0 17 -34 l-6 -38 16 38 c9 20 20 37 24 37 13 0
11 -24 -2 -37 -6 -6 -9 -17 -7 -25 3 -7 12 3 21 24 20 48 30 49 21 3 -8 -43 3
-46 17 -5 6 17 15 30 20 30 5 0 4 -12 -2 -26 -5 -15 -7 -30 -3 -33 4 -3 9 -1
11 5 2 6 11 20 19 30 15 18 15 18 9 -8 -3 -16 -3 -28 -1 -28 3 0 12 12 21 28
l16 27 -6 -30 -5 -30 17 30 17 30 6 -30 c6 -28 7 -29 14 -7 9 27 30 30 21 2
-5 -17 -2 -20 23 -20 23 0 31 5 36 25 8 31 24 33 28 3 4 -31 34 -35 42 -6 l6
23 19 -25 c18 -22 20 -23 26 -7 4 9 16 17 27 17 14 0 18 -5 14 -15 -4 -11 1
-14 21 -13 14 2 28 8 30 15 7 18 23 16 23 -2 0 -9 9 -15 25 -15 14 0 25 5 25
10 0 6 5 10 11 10 5 0 7 -4 4 -10 -4 -7 417 -10 1255 -10 1106 0 1261 2 1257
15 -5 10 13 23 59 46 36 17 68 28 71 25 3 -3 -3 -9 -14 -13 -11 -5 -33 -23
-48 -40 l-27 -33 74 0 74 0 12 47 c19 68 25 77 61 87 25 7 43 5 84 -12 29 -12
62 -22 74 -22 22 0 48 -32 36 -44 -3 -3 14 -6 39 -6 50 0 104 -15 129 -37 13
-11 81 -13 366 -11 l351 3 -35 83 c-25 61 -35 103 -39 160 -3 42 -7 83 -9 90
-4 12 64 62 85 62 5 0 12 -12 16 -27 3 -16 27 -82 52 -148 57 -147 57 -191 -3
-215 -14 -6 -4 -9 36 -9 l55 -1 87 106 c88 107 102 139 72 164 -8 7 -15 17
-15 23 0 6 10 1 23 -11 29 -28 38 -28 65 1 28 30 28 53 0 68 -13 7 -24 12 -25
11 -10 -7 -22 1 -26 19 -5 18 -8 19 -26 7 -12 -7 -21 -21 -21 -30 0 -11 -8
-18 -20 -18 -25 0 -26 18 -2 37 16 13 15 13 -7 7 -59 -16 -141 2 -125 27 3 5
-8 6 -24 3 -23 -5 -35 1 -64 28 -19 18 -39 42 -45 52 -8 15 -22 20 -54 20 -41
1 -44 3 -42 26 3 23 2 23 -11 8 -7 -10 -18 -18 -24 -18 -5 0 -12 -7 -16 -15
-8 -22 -26 -18 -26 5 0 11 -6 20 -14 20 -10 0 -14 -9 -13 -28 2 -23 -2 -27
-20 -24 -28 4 -28 5 -3 -43 37 -72 31 -85 -62 -133 -46 -23 -88 -42 -94 -42
-12 0 -47 38 -63 68 -6 12 -20 24 -31 27 -15 5 -19 12 -15 26 8 25 -3 59 -20
59 -23 0 -26 31 -4 61 13 19 18 36 13 47 -4 9 -8 23 -8 29 -1 19 -56 74 -67
67 -12 -7 -12 -41 1 -49 6 -3 10 -1 10 4 0 16 27 13 33 -3 3 -7 1 -18 -5 -24
-8 -8 -8 -15 1 -26 17 -20 3 -66 -19 -66 -10 0 -24 9 -31 21 -13 19 -16 19
-42 6 -17 -9 -24 -18 -18 -22 15 -8 4 -25 -16 -25 -9 0 -13 6 -10 14 7 18 -11
36 -29 29 -19 -7 -64 23 -64 43 0 8 -4 13 -9 9 -12 -7 -26 15 -15 24 5 3 9 13
9 21 0 10 8 14 25 11 57 -8 131 -4 143 9 10 10 8 12 -11 7 -14 -3 -22 -1 -21
6 3 28 -3 36 -28 39 -20 2 -28 9 -28 23 0 13 -8 21 -22 23 -13 2 -23 10 -23
17 0 14 -29 35 -49 35 -25 0 7 -51 39 -62 15 -5 23 -65 10 -73 -6 -3 -14 5
-20 19 -5 14 -17 26 -25 26 -9 0 -13 -4 -10 -10 3 -5 2 -10 -2 -10 -5 0 -14 9
-21 20 -6 11 -28 27 -49 35 l-36 15 29 30 c21 21 35 27 52 23 13 -3 22 -1 22
6 0 6 -8 11 -18 11 -9 0 -30 11 -45 26 -32 29 -48 24 -45 -14 1 -15 -1 -32 -5
-38 -10 -16 -57 -4 -70 17 -14 23 -33 25 -41 4 -7 -19 -26 -20 -26 -1 0 8 -5
16 -10 18 -6 2 -2 13 10 25 11 12 20 29 20 38 0 8 5 15 11 15 5 0 15 13 20 30
10 27 43 49 56 36 10 -10 33 15 33 35 0 11 -9 19 -22 21 -12 2 -28 14 -35 28
-7 14 -20 24 -29 22 -14 -3 -65 43 -89 81 -7 11 -19 14 -37 10 -26 -5 -28 -8
-28 -59 0 -52 -11 -71 -24 -38 -9 23 -23 9 -29 -28 -5 -37 16 -88 37 -88 7 0
21 -9 31 -20 10 -11 24 -20 31 -20 8 0 15 -10 18 -22 14 -81 -8 -106 -69 -77
-30 15 -41 16 -47 7 -5 -9 -8 -6 -8 10 0 12 -4 22 -10 22 -5 0 -10 -14 -10
-31 0 -28 -2 -31 -22 -24 -13 4 -36 9 -51 12 -22 4 -26 9 -22 24 5 15 1 19
-15 19 -12 0 -35 14 -50 30 -33 35 -36 36 -43 10 -6 -23 -48 -28 -65 -7 -14
17 49 53 75 43 9 -4 14 -4 11 -1 -4 4 -2 18 3 32 6 17 6 30 -2 39 -6 7 -8 22
-4 34 5 15 12 19 31 14 19 -5 26 -1 34 21 23 61 1 137 -29 101 -10 -12 -9 -20
5 -42 18 -27 18 -27 -5 -19 -15 4 -21 3 -17 -3 10 -17 -47 -32 -67 -17 -18 13
-24 31 -7 20 6 -3 10 2 10 12 0 22 -46 47 -54 29 -2 -6 -2 18 0 54 3 35 11 75
19 87 21 32 156 163 169 163 6 0 24 12 39 26 l29 25 -22 80 -21 81 19 42 c24
50 80 103 151 141 l52 29 -28 12 c-39 16 -73 51 -73 74 0 10 -7 26 -16 35 -9
9 -26 40 -38 68 -31 76 -58 116 -81 124 -11 3 -76 7 -145 7 -112 1 -129 4
-162 24 -21 13 -38 27 -38 31 0 4 -8 16 -18 27 -40 43 -52 70 -52 116 0 25 4
57 9 71 12 30 -3 60 -19 37 -8 -13 -10 -12 -10 3 0 10 -4 16 -9 13 -5 -3 -14
0 -20 8 -17 21 23 133 61 173 19 19 27 36 22 44 -5 9 -2 10 10 6 14 -5 17 -3
13 8 -4 8 -2 17 3 20 6 3 15 16 20 28 10 20 10 21 -4 4 -14 -18 -15 -18 -25 0
-7 12 -10 13 -11 4 0 -9 -7 -11 -21 -8 -16 4 -19 2 -14 -11 5 -13 2 -13 -15 3
-11 10 -20 14 -20 9 0 -14 13 -30 35 -43 17 -10 15 -11 -16 -5 -24 4 -39 2
-44 -7 -5 -8 -4 -10 4 -5 6 4 18 1 26 -8 22 -21 18 -29 -10 -24 -19 4 -23 2
-15 -7 14 -17 -8 -35 -42 -35 -15 0 -28 5 -28 10 0 6 5 10 12 10 6 0 9 2 7 5
-3 2 -20 0 -39 -5 -23 -7 -38 -6 -47 2 -10 8 -17 8 -25 0 -7 -7 -28 -12 -48
-12 -28 0 -39 6 -57 33 -25 36 -31 73 -11 61 8 -5 9 -2 5 10 -4 10 -1 19 8 23
13 5 13 7 -2 19 -14 10 -16 15 -5 25 6 7 12 23 12 36 0 17 7 24 28 28 15 3 50
13 79 22 41 13 57 14 77 5 16 -7 26 -8 26 -2 0 15 32 11 54 -5 11 -8 37 -15
59 -15 31 0 45 -7 67 -30 l29 -31 38 19 c73 37 75 37 136 -23 30 -30 52 -55
47 -55 -4 0 -6 -9 -3 -20 3 -11 0 -20 -6 -20 -6 0 -11 -15 -11 -34 0 -19 -5
-38 -11 -41 -6 -4 -8 -13 -5 -21 3 -8 1 -14 -5 -14 -6 0 -8 -4 -5 -9 3 -4 2
-22 -3 -38 -8 -27 -6 -32 16 -42 21 -10 27 -8 50 19 41 49 78 63 146 56 57 -6
59 -5 54 15 -3 12 -2 32 3 45 10 26 66 80 91 89 11 4 19 23 23 57 4 28 10 64
13 79 7 35 -7 37 -46 9 -24 -16 -30 -17 -47 -6 -10 8 -28 35 -39 60 -11 25
-23 46 -26 46 -9 0 -49 -76 -49 -93 0 -9 -13 -29 -30 -45 -16 -17 -30 -35 -30
-40 0 -5 -9 -17 -20 -27 -20 -18 -21 -18 -36 4 -9 12 -31 36 -50 53 -45 41
-48 57 -28 128 29 104 114 166 236 172 51 2 64 16 52 54 -5 18 -5 18 9 1 13
-15 17 -16 24 -5 4 8 23 20 41 28 21 8 31 18 28 26 -3 8 1 14 8 14 8 0 16 -5
18 -12 3 -8 9 -8 23 -1 13 8 28 8 48 0 22 -7 35 -7 48 2 29 17 58 14 53 -6 -4
-15 8 -22 63 -39 60 -19 71 -20 100 -8 44 19 46 18 28 -16 -15 -29 -15 -29 26
-62 23 -18 63 -60 88 -94 25 -33 52 -59 59 -56 7 2 18 -1 25 -6 7 -5 30 -13
52 -16 35 -6 44 -3 73 24 17 17 32 37 32 44 0 21 -21 76 -29 76 -5 0 -13 10
-19 23 -8 17 -11 18 -11 5 -1 -22 -14 -23 -32 -2 -10 13 -10 17 2 25 12 8 12
10 0 18 -10 7 -23 4 -42 -10 -18 -13 -44 -19 -78 -19 -48 0 -50 1 -39 20 9 13
19 18 35 14 22 -6 30 8 24 40 -1 5 4 5 11 -1 7 -6 22 -10 32 -10 17 0 17 2 -4
19 -13 10 -20 24 -16 33 8 21 28 19 25 -2 -3 -33 1 -36 21 -18 20 18 27 45 11
45 -5 0 -8 11 -8 24 0 18 4 22 18 19 20 -6 26 -23 8 -23 -6 0 3 -16 20 -35 17
-19 41 -53 53 -75 20 -35 27 -39 49 -35 17 4 30 0 39 -10 7 -8 21 -15 31 -15
10 0 59 -40 107 -88 93 -93 142 -123 166 -103 18 15 66 4 66 -15 0 -9 -12 -14
-35 -14 -85 0 -338 -84 -360 -119 -13 -22 -25 -10 -25 25 0 19 7 42 15 50 20
20 19 33 -2 29 -10 -2 -24 -4 -31 -4 -12 -1 -17 -9 -42 -77 -9 -24 -16 -31
-31 -27 -12 3 -21 -1 -25 -12 -7 -17 -8 -17 -20 0 -25 33 -4 -53 48 -200 60
-168 73 -275 43 -339 -15 -31 -22 -37 -42 -33 -25 5 -32 -10 -8 -19 8 -4 12
-11 9 -16 -11 -17 39 3 66 26 46 41 83 58 164 78 45 10 88 21 97 24 10 3 19
-3 22 -13 2 -10 8 -26 12 -35 5 -14 2 -18 -13 -18 -11 0 -38 -7 -61 -15 -27
-9 -39 -10 -35 -3 5 8 -8 9 -47 3 -30 -4 -64 -8 -76 -9 -13 0 -23 -4 -23 -8 0
-5 -1 -11 -1 -15 -2 -11 -36 -34 -46 -31 -12 4 -83 -34 -83 -44 0 -5 -7 -8
-15 -8 -8 0 -30 -14 -50 -31 -44 -39 -45 -31 -2 17 l32 37 -47 -26 c-36 -20
-46 -22 -41 -10 5 12 2 15 -10 10 -10 -4 -17 -2 -17 5 0 6 -3 9 -6 5 -4 -3
-22 0 -41 8 -19 8 -40 12 -45 9 -6 -4 -14 -1 -18 5 -4 7 -18 12 -31 13 -13 0
-45 7 -71 14 -29 8 -50 9 -53 3 -7 -10 22 -121 42 -161 7 -16 11 -28 7 -28 -4
0 -2 -6 4 -13 12 -14 -8 -54 -35 -70 -17 -10 -17 -37 0 -37 6 0 25 14 42 31
56 60 119 72 203 41 39 -15 64 -18 128 -13 43 4 85 10 93 15 7 5 30 10 50 13
63 7 81 13 81 28 0 15 60 65 79 65 6 0 20 5 30 12 16 10 24 7 51 -15 17 -15
38 -27 46 -27 8 0 14 -5 14 -11 0 -6 -7 -8 -17 -5 -14 6 -14 4 2 -16 11 -13
22 -25 24 -28 2 -3 1 3 -2 13 -4 11 -3 16 3 12 6 -3 10 -10 10 -14 0 -15 -35
-48 -57 -55 -28 -9 -28 -14 0 -48 21 -26 24 -27 70 -17 51 12 139 8 172 -6 17
-8 18 -7 5 7 -8 9 -18 14 -21 12 -10 -6 -55 48 -84 101 -15 28 -33 57 -41 66
-14 15 -74 170 -74 189 0 27 18 4 35 -42 22 -64 71 -164 84 -172 5 -3 -4 19
-20 49 -29 53 -119 315 -119 346 0 8 -5 20 -11 26 -6 6 -11 27 -12 46 0 20 -3
34 -6 32 -4 -2 -7 15 -9 36 -1 22 2 39 8 39 5 0 10 -9 10 -19 0 -11 4 -23 10
-26 6 -3 10 -17 10 -29 0 -30 37 -145 52 -163 6 -8 20 -12 30 -10 10 3 18 1
18 -4 0 -4 7 -6 15 -3 8 4 15 1 15 -5 0 -6 5 -11 10 -11 6 0 5 8 -2 20 -7 11
-19 20 -27 20 -27 0 -1 13 29 15 18 1 29 -3 28 -9 -2 -6 4 -19 12 -27 13 -14
23 -10 96 43 84 59 101 68 88 46 -4 -8 -3 -10 2 -5 5 5 9 14 9 20 0 7 9 11 18
10 10 0 16 2 13 5 -4 3 6 18 21 34 27 28 58 30 93 4 17 -12 22 -68 5 -63 -5 2
-15 -1 -22 -7 -7 -6 -33 -29 -58 -51 -81 -70 -121 -112 -117 -124 2 -6 -1 -11
-7 -11 -6 0 -11 5 -11 12 0 6 -2 9 -5 7 -2 -3 0 -20 5 -38 8 -28 5 -39 -15
-69 -14 -21 -36 -54 -50 -74 l-25 -37 39 -48 c52 -67 60 -72 127 -83 75 -14
90 -21 197 -99 93 -67 110 -91 32 -46 -25 15 -48 25 -50 23 -3 -2 11 -19 29
-37 26 -26 46 -35 83 -39 26 -2 57 -11 68 -18 11 -8 33 -14 50 -14 59 0 164
-37 242 -85 110 -69 174 -119 203 -161 14 -20 37 -50 51 -67 26 -33 71 -142
74 -181 0 -11 6 -31 13 -43 18 -32 16 -113 -3 -114 -8 -1 -19 -3 -25 -4 -5 -1
-14 -3 -20 -4 -5 0 -10 -8 -10 -16 0 -13 -9 -15 -41 -11 -23 2 -46 9 -52 15
-6 6 -22 11 -35 11 -43 0 -81 31 -87 70 -18 116 -70 254 -128 340 -34 50 -151
177 -193 210 -19 14 -19 14 0 -8 12 -14 15 -22 6 -22 -6 0 -10 -6 -7 -13 4
-10 -3 -12 -24 -9 -16 2 -29 9 -29 14 0 5 5 6 11 2 7 -4 9 1 7 12 -2 12 -11
18 -22 16 -11 -2 -15 1 -11 7 3 6 -1 11 -9 11 -14 0 -14 -3 -4 -20 14 -22 3
-39 -14 -22 -7 7 -17 12 -22 12 -6 0 -5 -4 3 -9 17 -11 26 -91 9 -91 -14 0
-80 49 -92 69 -13 21 -79 81 -85 76 -4 -5 46 -74 66 -90 6 -5 15 -23 19 -40 7
-29 7 -30 -13 -13 -11 10 -28 18 -37 18 -15 0 -17 -5 -11 -27 9 -40 24 -51 39
-31 9 12 16 14 29 7 21 -12 22 -29 1 -29 -12 0 -14 -8 -8 -45 3 -26 2 -50 -4
-58 -5 -6 -13 -28 -17 -47 -4 -19 -22 -63 -41 -97 -40 -72 -41 -79 -13 -86 17
-5 19 -9 10 -26 -12 -21 -1 -62 23 -91 33 -39 149 -288 149 -320 0 -40 -33
-79 -66 -80 -24 0 -31 -7 -44 -39 -10 -26 -23 -41 -39 -45 -27 -7 -32 -40 -9
-69 13 -18 16 -17 67 20 62 45 136 93 142 93 3 0 25 13 49 30 25 17 48 30 53
30 4 0 21 10 38 23 39 30 64 39 71 27 10 -17 28 -11 21 6 -5 13 -1 15 18 10
14 -3 28 -2 31 4 3 5 3 10 -2 11 -4 0 -34 2 -67 4 -78 4 -92 20 -25 28 50 6
83 22 74 37 -2 4 9 20 25 35 27 26 40 29 113 35 45 3 88 9 95 13 6 5 12 5 12
0 0 -8 -50 -44 -105 -75 -21 -13 -24 -17 -10 -15 27 3 137 86 130 98 -4 5 -2
9 3 9 5 0 44 22 86 50 42 27 78 50 81 50 2 0 2 -10 0 -21 -3 -12 -1 -18 3 -15
4 4 7 12 7 17 0 15 9 14 34 -3 l23 -16 -37 -41 c-21 -23 -44 -41 -52 -41 -7 0
-13 -4 -13 -10 0 -5 -6 -10 -14 -10 -7 0 -30 -15 -51 -34 -20 -19 -44 -32 -51
-29 -8 3 -14 0 -14 -5 0 -16 -41 -26 -50 -12 -5 8 -9 7 -13 -5 -4 -10 -3 -14
4 -9 7 4 9 -4 7 -22 -2 -18 -9 -29 -18 -29 -8 0 -20 -9 -25 -20 -9 -17 -36
-38 -100 -78 -11 -6 -82 -74 -157 -149 -75 -76 -144 -138 -153 -138 -9 0 -14
-4 -11 -9 4 -5 -7 -23 -24 -39 -16 -17 -30 -34 -30 -39 0 -5 -12 -20 -27 -35
-16 -14 -32 -32 -38 -40 -5 -7 -28 -36 -51 -63 -76 -94 -140 -85 601 -85 637
0 655 1 665 19 14 26 14 621 0 621 -5 0 -10 -4 -10 -10 0 -5 -9 -10 -20 -10
-11 0 -20 5 -20 10 0 6 9 10 20 10 26 0 36 25 20 46 -11 12 -15 12 -21 2 -7
-10 -9 -9 -9 4 0 9 5 20 10 23 6 4 8 10 5 14 -2 5 4 16 15 26 19 17 19 38 20
721 l0 704 -30 32 c-23 24 -27 34 -18 41 10 6 10 10 1 13 -14 6 -6 34 9 34 6
0 8 -14 6 -30 -3 -17 1 -35 8 -40 17 -15 26 14 14 45 -6 15 -6 26 0 30 6 4 10
15 10 26 0 16 -6 19 -47 16 l-47 -2 -3 70 c-2 39 -8 86 -14 107 -11 35 -14 36
-61 40 -27 1 -53 -1 -59 -7 -6 -6 -13 -5 -19 5 -7 10 -10 11 -10 3 0 -7 -6
-13 -14 -13 -10 0 -14 10 -11 35 2 24 -1 35 -10 35 -19 0 -24 -23 -8 -38 11
-11 11 -16 -1 -28 -13 -13 -12 -17 7 -37 12 -13 25 -22 30 -20 4 3 10 -3 13
-11 3 -9 10 -13 15 -10 5 3 16 1 26 -4 14 -9 14 -10 -5 -16 -13 -4 -22 -16
-22 -27 0 -17 -3 -18 -20 -9 -35 19 -70 81 -70 125 0 47 -10 65 -36 69 -10 2
-20 9 -22 18 -4 20 86 17 117 -4 12 -9 32 -13 43 -10 16 4 19 2 13 -8 -6 -10
-4 -12 9 -7 33 13 179 -68 154 -85 -7 -4 -17 -8 -23 -8 -5 0 -5 4 2 8 9 6 7
11 -6 19 -15 10 -17 7 -13 -19 4 -25 8 -29 28 -24 14 4 24 2 24 -4 0 -6 -4 -9
-9 -6 -19 12 -18 -21 2 -67 48 -109 47 -134 47 1233 l0 1280 -3700 0 -3700 0
0 -1184z m4425 534 c-3 -5 -10 -10 -16 -10 -5 0 -9 5 -9 10 0 6 7 10 16 10 8
0 12 -4 9 -10z m-60 -44 c-16 -33 -19 -35 -30 -19 -9 12 -10 20 -3 24 6 4 7
13 2 20 -6 12 -5 12 8 1 13 -10 17 -10 22 4 4 9 9 14 12 11 3 -3 -2 -22 -11
-41z m188 16 c15 -9 30 -24 33 -34 3 -10 9 -18 13 -18 5 0 21 -11 37 -25 16
-14 35 -30 42 -36 21 -17 13 -29 -18 -29 -20 0 -30 5 -30 15 0 16 -34 38 -44
28 -13 -14 -44 -12 -56 2 -11 13 -8 15 16 15 27 0 27 0 8 19 -16 16 -20 16
-25 3 -4 -11 -8 -12 -13 -4 -14 22 -23 12 -18 -20 6 -40 29 -60 54 -47 9 5 29
9 43 9 20 0 26 -4 21 -15 -5 -14 9 -20 41 -16 10 1 39 -37 31 -40 -34 -15 -88
11 -88 43 0 9 -3 9 -8 2 -9 -14 -68 -10 -87 6 -8 7 -15 19 -15 27 0 8 -8 13
-17 12 -21 -4 -63 18 -63 31 0 16 27 11 34 -5 3 -8 10 -15 16 -15 5 0 2 9 -7
20 -10 11 -22 20 -29 20 -6 0 -19 9 -29 20 -10 11 -15 20 -12 20 15 0 23 2 39
11 11 6 18 5 22 -4 4 -6 4 -2 2 11 -4 22 -3 23 37 17 23 -4 54 -14 70 -23z
m-283 -42 c0 -5 7 -10 15 -10 8 0 15 -4 15 -10 0 -13 -27 -13 -35 0 -3 6 -17
7 -31 4 -23 -6 -32 5 -17 19 10 11 53 8 53 -3z m130 -11 c0 -6 -4 -7 -10 -4
-5 3 -10 11 -10 16 0 6 5 7 10 4 6 -3 10 -11 10 -16z m-140 -19 c0 -5 -2 -10
-4 -10 -3 0 -8 5 -11 10 -3 6 -1 10 4 10 6 0 11 -4 11 -10z m90 -22 c0 -3 3
-13 6 -22 3 -9 2 -16 -4 -16 -5 0 -13 11 -16 25 -4 14 -11 25 -16 25 -6 0 -10
5 -10 10 0 6 8 5 20 -2 11 -7 20 -16 20 -20z m-126 4 c2 -4 -4 -8 -14 -8 -10
0 -16 4 -14 8 3 4 9 8 14 8 5 0 11 -4 14 -8z m237 -42 c11 0 23 -10 29 -24 7
-21 15 -24 45 -22 27 3 38 -1 42 -13 2 -9 9 -24 14 -33 7 -14 5 -18 -10 -18
-13 0 -18 6 -16 23 3 21 -1 24 -34 22 -20 -1 -39 3 -43 9 -5 7 -8 4 -8 -6 0
-10 -3 -18 -6 -18 -4 0 -13 8 -21 18 -14 16 -14 16 -9 -1 4 -14 2 -17 -12 -13
-9 2 -32 7 -49 11 -18 4 -38 14 -44 23 -9 14 -10 13 -5 -6 3 -15 0 -22 -7 -19
-7 2 -13 11 -15 19 -4 19 40 37 46 20 6 -19 69 -26 92 -9 l21 14 -23 6 c-12 4
-28 1 -35 -5 -16 -13 -42 15 -43 45 0 18 2 18 36 -2 19 -12 44 -21 55 -21z
m-161 20 c8 -5 11 -13 6 -17 -5 -4 -11 -2 -13 5 -3 6 -9 10 -14 6 -5 -3 -9 0
-9 5 0 13 10 14 30 1z m-10 -70 c0 -5 -8 -11 -17 -14 -13 -5 -14 -9 -5 -15 15
-9 28 -71 15 -71 -17 0 -23 13 -12 27 9 10 8 13 -5 13 -9 0 -16 6 -17 13 0 6
-2 21 -4 32 -2 10 1 25 6 31 7 8 6 14 -1 19 -5 3 -10 12 -10 18 0 7 11 -1 25
-17 14 -16 25 -32 25 -36z m430 33 c0 -5 16 -26 35 -47 33 -37 40 -53 36 -84
-1 -8 3 -20 9 -27 7 -8 9 -18 6 -23 -2 -4 0 -27 6 -50 10 -42 11 -42 34 -27
21 13 24 13 33 -3 8 -13 10 -13 11 -2 0 11 3 11 12 2 21 -21 29 -13 13 12 -15
23 -15 24 11 24 16 0 38 -13 60 -34 33 -34 57 -47 34 -19 -15 18 -9 19 25 3
14 -6 25 -16 25 -21 0 -12 31 -36 45 -36 6 0 -1 9 -14 20 -13 11 -22 22 -19
24 9 9 49 -37 44 -51 -3 -8 0 -11 9 -8 16 6 51 -23 41 -33 -3 -4 0 -13 8 -22
17 -21 38 -105 30 -126 -4 -10 -13 -14 -22 -10 -14 5 -14 4 0 -12 16 -18 11
-53 -7 -56 -6 -1 -9 -7 -7 -15 3 -11 -1 -11 -20 -1 -19 9 -21 9 -10 -2 19 -20
14 -53 -12 -84 -21 -24 -27 -27 -40 -16 -13 11 -16 11 -16 -3 0 -9 7 -16 15
-16 12 0 13 -4 6 -19 -6 -10 -7 -21 -4 -25 3 -3 2 -6 -4 -6 -19 0 -34 28 -28
53 5 19 2 25 -15 30 -12 3 -19 10 -16 15 3 6 -1 13 -10 16 -23 9 -36 7 -29 -4
10 -16 -21 -12 -35 5 -6 8 -15 13 -19 12 -3 -1 -17 8 -31 21 -13 12 -18 22
-12 22 14 0 16 19 4 37 -4 7 -24 14 -44 17 -21 2 -46 7 -58 11 -19 6 -19 5 -8
-21 10 -21 14 -24 16 -11 2 9 5 17 7 17 12 0 35 -14 35 -21 0 -4 -7 -6 -15 -3
-11 5 -14 2 -9 -12 4 -11 12 -25 17 -32 5 -7 7 -15 3 -19 -3 -4 -12 2 -20 12
-12 17 -13 16 -11 -6 1 -13 9 -25 18 -27 9 -2 17 -10 17 -19 0 -13 -2 -13 -17
-2 -14 12 -16 12 -11 -1 2 -8 13 -16 24 -18 41 -7 47 -11 34 -27 -7 -8 -17
-12 -22 -9 -6 4 -14 1 -18 -6 -6 -10 -13 -8 -31 9 -12 11 -18 21 -12 21 6 0 9
10 8 23 -1 12 -3 29 -4 37 -1 13 -2 13 -11 0 -5 -8 -12 -11 -16 -8 -3 4 -13 0
-22 -8 -12 -13 -16 -13 -23 -2 -13 20 -11 28 9 28 9 0 24 5 32 10 13 9 13 11
0 20 -20 13 -33 12 -24 -2 5 -7 2 -9 -9 -5 -9 3 -17 1 -19 -5 -6 -16 -28 0
-28 18 0 11 6 13 20 9 25 -8 25 4 3 34 -32 42 -64 70 -77 65 -6 -2 -27 7 -45
21 -28 20 -31 26 -18 31 13 4 14 10 7 24 -13 24 -13 40 0 40 6 0 10 -7 10 -15
0 -8 5 -15 11 -15 14 0 48 -41 49 -58 0 -7 11 -17 25 -22 15 -6 25 -17 25 -30
0 -11 5 -20 10 -20 14 0 13 43 -2 58 -7 7 -10 12 -8 13 3 0 14 2 25 4 10 2 25
-1 32 -7 9 -7 13 -7 13 1 0 19 49 12 71 -10 25 -25 83 -41 97 -27 6 6 12 6 17
-1 3 -6 -4 -15 -17 -20 -13 -6 -19 -10 -14 -10 5 -1 3 -8 -4 -16 -10 -13 -9
-15 12 -15 18 0 33 -11 49 -35 13 -19 32 -35 41 -35 9 0 23 -6 30 -13 7 -7 21
-16 31 -20 15 -6 18 -2 15 21 -2 22 1 26 16 24 17 -3 18 -2 7 12 -16 19 -32
21 -29 4 2 -7 -5 -12 -14 -12 -10 1 -18 -2 -18 -8 0 -10 -80 42 -100 66 -7 9
-10 20 -6 23 4 4 11 1 16 -7 5 -8 12 -11 17 -7 4 5 1 12 -7 17 -7 5 -15 16
-16 26 -2 9 -11 26 -22 37 -19 19 -20 19 -15 -9 l4 -29 -17 23 c-20 26 -36 29
-27 5 4 -11 -3 -7 -19 10 -14 15 -32 27 -40 27 -8 0 -20 6 -26 12 -10 10 -15
10 -21 -1 -7 -11 -11 -9 -20 8 -12 22 -41 29 -41 10 0 -5 4 -8 9 -4 5 3 12 1
16 -5 3 -5 -2 -10 -12 -10 -10 0 -28 -7 -40 -15 -14 -10 -24 -12 -28 -5 -3 5
1 10 10 10 9 0 13 5 10 10 -3 6 -15 10 -26 10 -10 0 -19 4 -19 10 0 5 7 7 15
4 8 -4 15 -2 15 3 0 5 -14 14 -30 20 -17 6 -28 7 -24 2 3 -5 3 -9 -1 -9 -3 0
-10 11 -15 24 -6 17 -14 23 -28 19 -14 -3 -21 2 -25 16 -3 12 -12 21 -21 21
-9 0 -16 5 -16 11 0 6 9 8 21 4 19 -6 21 -4 16 14 -3 11 -1 21 5 21 6 0 8 7 4
15 -8 23 22 18 34 -6 6 -11 9 -25 6 -32 -2 -7 -5 -3 -6 8 -1 19 -1 19 -11 1
-9 -14 -8 -20 1 -26 7 -5 9 -13 5 -21 -6 -9 -3 -11 8 -6 10 3 17 2 17 -3 0 -5
6 -7 14 -4 11 4 13 12 5 31 -11 30 -11 33 1 33 5 0 12 -15 15 -33 7 -35 45
-71 45 -42 0 9 -7 18 -15 21 -8 4 -12 10 -9 15 3 5 0 9 -5 9 -6 0 -11 9 -11
20 0 11 -4 20 -8 20 -5 0 -8 23 -8 50 0 41 3 49 15 46 55 -15 81 -17 81 -5 0
10 3 10 12 1 7 -7 18 -12 26 -12 9 0 4 8 -12 21 -14 11 -26 25 -26 31 0 6 8 4
18 -5 16 -15 18 -15 18 2 0 10 -5 17 -12 14 -15 -6 -37 24 -31 41 4 9 -1 16
-11 18 -19 4 -24 58 -7 70 6 4 2 8 -8 8 -10 0 -15 5 -12 10 7 12 35 14 35 3z
m-640 -43 c0 -5 -4 -10 -10 -10 -5 0 -10 5 -10 10 0 6 5 10 10 10 6 0 10 -4
10 -10z m60 -15 c0 -8 -4 -15 -10 -15 -5 0 -7 7 -4 15 4 8 8 15 10 15 2 0 4
-7 4 -15z m35 5 c3 -5 1 -10 -4 -10 -6 0 -11 5 -11 10 0 6 2 10 4 10 3 0 8 -4
11 -10z m195 -10 c0 -5 -4 -10 -10 -10 -5 0 -10 5 -10 10 0 6 5 10 10 10 6 0
10 -4 10 -10z m266 -21 c2 -29 -5 -49 -17 -49 -5 0 -7 14 -4 30 3 18 1 30 -5
30 -6 0 -8 5 -5 11 11 17 30 4 31 -22z m-291 -29 c-3 -6 1 -13 9 -16 9 -3 16
-10 16 -15 0 -16 -25 -10 -43 11 -9 11 -12 20 -6 20 6 0 8 9 3 22 -6 21 -6 21
10 5 10 -9 14 -21 11 -27z m95 30 c0 -5 -4 -10 -10 -10 -5 0 -10 5 -10 10 0 6
5 10 10 10 6 0 10 -4 10 -10z m110 6 c0 -11 -19 -15 -25 -6 -3 5 1 10 9 10 9
0 16 -2 16 -4z m-100 -60 c-8 -8 -13 -7 -20 4 -8 13 -10 12 -10 -2 0 -10 -6
-18 -13 -18 -15 0 -41 40 -31 48 4 4 9 1 11 -5 8 -22 21 -14 15 9 l-5 22 32
-23 c24 -17 30 -26 21 -35z m228 36 c6 -18 -15 -14 -22 4 -4 10 -1 14 6 12 6
-2 14 -10 16 -16z m-478 -2 c0 -5 -4 -10 -9 -10 -6 0 -13 5 -16 10 -3 6 1 10
9 10 9 0 16 -4 16 -10z m319 -7 c-3 -32 1 -43 15 -43 14 0 26 -20 33 -54 2
-11 9 -26 16 -34 10 -12 9 -14 -3 -10 -14 4 -47 55 -72 111 -7 15 -16 27 -21
27 -4 0 -5 5 -2 10 10 17 36 11 34 -7z m-489 -13 c11 -11 20 -27 20 -36 0 -9
13 -21 29 -27 15 -5 34 -20 41 -31 12 -20 12 -20 -7 -3 -11 9 -26 17 -33 17
-15 0 -60 47 -60 62 0 4 -5 8 -11 8 -6 0 -8 -8 -5 -18 7 -22 -18 -61 -28 -44
-4 7 -2 12 3 12 6 0 11 11 11 25 0 16 -6 25 -16 25 -8 0 -12 5 -9 10 5 8 11 7
21 -1 11 -9 14 -8 14 5 0 21 6 20 30 -4z m560 -42 c0 -5 -4 -8 -10 -8 -5 0
-10 6 -10 14 0 8 -7 16 -15 20 -8 3 -15 13 -15 23 1 14 6 11 25 -12 14 -16 25
-33 25 -37z m0 52 c0 -5 -4 -10 -10 -10 -5 0 -10 5 -10 10 0 6 5 10 10 10 6 0
10 -4 10 -10z m-460 -15 c0 -8 -4 -15 -10 -15 -5 0 -10 7 -10 15 0 8 5 15 10
15 6 0 10 -7 10 -15z m590 -26 c0 -21 -15 -25 -26 -7 -5 7 -2 8 7 3 11 -6 12
-5 2 6 -18 18 -16 30 2 23 8 -4 15 -15 15 -25z m-496 0 c-3 -5 -10 -7 -15 -3
-5 3 -7 10 -3 15 3 5 10 7 15 3 5 -3 7 -10 3 -15z m446 11 c0 -5 -4 -10 -9
-10 -6 0 -13 5 -16 10 -3 6 1 10 9 10 9 0 16 -4 16 -10z m-185 -21 c-4 -5 1
-12 9 -15 9 -3 16 -17 16 -31 0 -20 -4 -24 -17 -18 -10 4 -27 10 -38 12 l-20
5 20 -15 c11 -9 26 -17 34 -17 16 0 40 -29 41 -49 0 -11 -3 -11 -17 0 -11 10
-14 10 -9 2 11 -20 -19 -16 -35 4 -12 15 -12 16 5 10 16 -6 17 -5 7 7 -7 8
-19 12 -27 9 -7 -3 -17 2 -20 11 -3 9 -10 16 -16 16 -5 0 -6 -4 -3 -10 3 -5
-3 -10 -13 -10 -11 0 -25 -7 -32 -15 -7 -8 -18 -15 -24 -15 -6 0 -4 5 4 10 12
7 10 11 -10 19 -14 5 -21 10 -16 10 5 1 1 11 -10 22 -14 16 -16 23 -6 26 7 3
18 10 25 17 8 9 34 12 75 10 51 -3 62 -1 62 12 0 8 5 12 10 9 6 -4 8 -11 5
-16z m-548 5 c-3 -3 -12 -4 -19 -1 -8 3 -5 6 6 6 11 1 17 -2 13 -5z m174 -7
c-1 -12 -15 -9 -19 4 -3 6 1 10 8 8 6 -3 11 -8 11 -12z m73 -9 c5 -18 8 -20
15 -9 13 20 71 -22 72 -52 1 -21 1 -21 8 2 6 21 8 22 20 7 11 -13 11 -19 1
-31 -12 -14 -15 -14 -31 1 -11 10 -17 19 -14 22 12 12 -17 28 -45 24 -30 -4
-43 -22 -15 -22 8 0 15 -4 15 -10 0 -17 -30 -11 -37 8 -4 9 -11 20 -17 24 -7
5 -3 8 8 8 18 0 18 1 3 18 -21 23 -21 32 -3 32 7 0 16 -10 20 -22z m74 10 c-2
-4 6 -14 17 -22 13 -10 15 -15 6 -16 -14 0 -40 28 -41 43 0 5 5 7 11 5 6 -2 9
-7 7 -10z m402 -8 c0 -5 -2 -10 -4 -10 -3 0 -8 5 -11 10 -3 6 -1 10 4 10 6 0
11 -4 11 -10z m-841 -26 c-6 -7 -15 -11 -21 -8 -5 3 -4 12 3 20 6 7 15 11 21
8 5 -3 4 -12 -3 -20z m797 -20 c2 -15 -2 -24 -8 -22 -13 5 -20 37 -11 51 8 13
16 0 19 -29z m99 26 c3 -5 1 -10 -4 -10 -6 0 -11 5 -11 10 0 6 2 10 4 10 3 0
8 -4 11 -10z m-725 -30 c11 -11 26 -20 34 -20 17 0 31 -18 22 -27 -4 -4 -12
-1 -18 5 -14 14 -32 16 -23 3 3 -6 -3 -15 -14 -20 -25 -14 -34 -14 -26 -1 3 6
1 10 -4 10 -16 0 -13 16 5 34 14 15 14 16 -5 16 -12 0 -21 5 -21 10 0 17 29
11 50 -10z m112 -21 c25 -13 7 -30 -23 -22 -20 5 -24 15 -12 26 9 9 11 9 35
-4z m48 -14 c0 -8 0 -18 1 -22 0 -4 -4 -9 -10 -11 -6 -2 -11 8 -11 22 0 14 5
26 10 26 6 0 10 -7 10 -15z m390 5 c0 -5 -4 -10 -10 -10 -5 0 -10 5 -10 10 0
6 5 10 10 10 6 0 10 -4 10 -10z m-90 -30 c0 -5 -7 -7 -15 -4 -8 4 -12 10 -9
15 6 11 24 2 24 -11z m-240 0 c0 -5 -4 -10 -10 -10 -5 0 -10 5 -10 10 0 6 5
10 10 10 6 0 10 -4 10 -10z m44 -53 c-5 -15 -3 -19 10 -14 18 7 33 -10 20 -23
-17 -16 -47 18 -50 57 -2 35 -2 37 12 19 8 -11 11 -29 8 -39z m76 33 c11 -7
11 -10 2 -10 -7 0 -10 -4 -7 -10 3 -5 2 -10 -4 -10 -16 0 -22 18 -9 23 9 4 10
6 1 6 -6 1 -15 -3 -18 -9 -3 -5 -11 -10 -17 -10 -7 0 -6 6 2 15 14 17 29 19
50 5z m130 -17 c1 -17 14 -31 65 -68 19 -14 19 -14 1 -15 -19 0 -96 72 -96 90
0 18 30 10 30 -7z m-545 -3 c3 -5 1 -10 -4 -10 -6 0 -11 5 -11 10 0 6 2 10 4
10 3 0 8 -4 11 -10z m169 -5 c3 -8 1 -15 -3 -15 -5 0 -11 7 -15 15 -3 8 -1 15
3 15 5 0 11 -7 15 -15z m289 -3 c-2 -8 8 -9 27 -5 32 6 38 -4 18 -26 -11 -11
-9 -13 9 -8 28 6 38 -6 18 -23 -11 -9 -19 -10 -28 -1 -10 7 -17 7 -24 0 -8 -8
-13 -5 -18 10 -3 12 -9 21 -13 21 -4 0 -8 11 -8 25 -1 16 3 24 10 22 6 -3 10
-9 9 -15z m122 7 c11 -17 -1 -21 -15 -4 -8 9 -8 15 -2 15 6 0 14 -5 17 -11z
m-455 -3 c0 -2 -7 -6 -15 -10 -8 -3 -15 -1 -15 4 0 6 7 10 15 10 8 0 15 -2 15
-4z m95 -6 c3 -5 1 -10 -4 -10 -6 0 -11 5 -11 10 0 6 2 10 4 10 3 0 8 -4 11
-10z m47 3 c-6 -3 -9 -10 -5 -16 4 -7 -1 -6 -10 2 -21 17 -21 17 6 18 12 0 16
-1 9 -4z m-232 -31 c0 -15 -2 -15 -10 -2 -13 20 -13 33 0 25 6 -3 10 -14 10
-23z m-1560 8 c12 -8 11 -10 -7 -10 -12 0 -25 5 -28 10 -8 13 15 13 35 0z
m1505 0 c3 -5 1 -10 -4 -10 -6 0 -11 5 -11 10 0 6 2 10 4 10 3 0 8 -4 11 -10z
m435 -11 c0 -5 -7 -9 -15 -9 -8 0 -15 7 -15 15 0 9 6 12 15 9 8 -4 15 -10 15
-15z m-144 -17 c13 -9 14 -42 1 -42 -5 0 -7 7 -3 15 3 9 0 15 -9 15 -8 0 -15
5 -15 10 0 12 11 13 26 2z m310 -71 c9 -39 9 -51 1 -48 -7 2 -12 14 -12 26 0
12 -5 25 -11 29 -14 10 -16 54 -1 49 7 -2 17 -27 23 -56z m-1902 -57 c20 -39
36 -75 36 -78 0 -11 -21 -6 -36 9 -29 28 -33 15 -8 -22 34 -51 39 -78 20 -118
-15 -32 -21 -35 -59 -35 -23 0 -48 4 -54 8 -8 5 -14 37 -15 85 -2 55 -6 77
-15 77 -7 0 -13 9 -13 20 0 12 7 20 17 20 9 0 14 3 10 6 -9 10 30 47 42 39 24
-14 9 25 -16 43 l-28 21 25 9 c36 13 52 -1 94 -84z m1682 69 c-7 -7 -26 7 -26
19 0 6 6 6 15 -2 9 -7 13 -15 11 -17z m-64 -5 c-7 -7 -12 -8 -12 -2 0 6 3 14
7 17 3 4 9 5 12 2 2 -3 -1 -11 -7 -17z m113 -9 c-4 -5 -12 -3 -21 5 -20 21
-17 28 6 16 11 -6 18 -15 15 -21z m230 8 c11 1 14 0 8 -3 -7 -3 -13 -12 -13
-20 0 -8 -6 -14 -14 -14 -15 0 -26 21 -26 48 1 15 2 15 13 2 7 -9 21 -15 32
-13z m-185 3 c0 -5 -4 -10 -9 -10 -6 0 -13 5 -16 10 -3 6 1 10 9 10 9 0 16 -4
16 -10z m89 -21 c3 -12 1 -12 -14 1 -17 14 -18 13 -12 -2 7 -20 -8 -25 -19 -7
-7 12 15 31 30 26 6 -2 12 -10 15 -18z m-334 -9 c3 -5 1 -10 -4 -10 -6 0 -11
5 -11 10 0 6 2 10 4 10 3 0 8 -4 11 -10z m89 -36 c4 -12 2 -12 -14 -4 -11 6
-20 15 -20 20 0 14 28 1 34 -16z m106 5 c15 -28 4 -38 -15 -13 -17 22 -19 34
-5 34 5 0 14 -9 20 -21z m-180 1 c0 -5 -4 -10 -10 -10 -5 0 -10 5 -10 10 0 6
5 10 10 10 6 0 10 -4 10 -10z m134 -5 c-4 -8 -8 -15 -10 -15 -2 0 -4 7 -4 15
0 8 4 15 10 15 5 0 7 -7 4 -15z m204 -30 c0 -37 -8 -44 -27 -21 -9 11 -8 15 6
21 17 6 17 7 -1 17 -14 8 -16 12 -5 19 20 12 27 3 27 -36z m67 35 c4 -6 11 -8
16 -4 5 3 22 -2 37 -12 15 -10 33 -17 40 -16 15 3 42 -21 42 -38 0 -8 -8 -7
-25 4 -14 9 -25 13 -24 9 3 -20 -2 -34 -11 -28 -5 3 -7 12 -4 19 3 8 1 17 -4
20 -6 3 -13 -5 -16 -19 -6 -24 -26 -36 -26 -15 0 6 5 10 12 10 6 0 4 8 -6 19
-10 11 -15 25 -10 32 4 7 3 10 -4 5 -6 -3 -13 -2 -17 4 -4 6 -11 8 -16 5 -5
-4 -9 -1 -9 4 0 14 17 14 25 1z m-160 -10 c3 -5 -1 -10 -9 -10 -9 0 -16 5 -16
10 0 6 4 10 9 10 6 0 13 -4 16 -10z m40 0 c3 -5 2 -10 -4 -10 -5 0 -13 5 -16
10 -3 6 -2 10 4 10 5 0 13 -4 16 -10z m-301 -16 c9 -3 16 -12 16 -20 0 -20
-13 -17 -28 6 -13 22 -12 23 12 14z m288 -48 c-3 -5 -9 -1 -12 10 -4 10 -5 23
-2 28 3 5 9 1 12 -10 4 -10 5 -23 2 -28z m-227 24 c3 -5 2 -10 -4 -10 -5 0
-13 5 -16 10 -3 6 -2 10 4 10 5 0 13 -4 16 -10z m39 -1 c-3 -6 -1 -15 6 -19
14 -9 5 -30 -13 -29 -8 0 -8 2 1 6 10 4 9 8 -5 19 -16 12 -16 15 -3 24 19 13
23 13 14 -1z m-1029 -14 c57 -13 90 -29 122 -58 23 -21 24 -40 1 -99 -11 -29
-38 -39 -38 -14 0 28 -74 74 -144 90 -86 20 -156 7 -308 -58 -59 -25 -112 -46
-117 -46 -6 0 -15 17 -20 38 -14 49 -14 55 3 49 11 -4 13 -1 9 10 -4 11 -2 14
5 9 7 -4 12 -3 12 3 0 6 12 14 28 17 15 4 32 10 37 14 16 12 120 40 183 50 76
11 166 9 227 -5z m1075 5 c0 -5 -4 -10 -10 -10 -5 0 -10 5 -10 10 0 6 5 10 10
10 6 0 10 -4 10 -10z m100 0 c0 -5 -9 -10 -21 -10 -11 0 -17 5 -14 10 3 6 13
10 21 10 8 0 14 -4 14 -10z m180 -6 c0 -17 -22 -14 -28 4 -2 7 3 12 12 12 9 0
16 -7 16 -16z m-260 -24 c0 -5 -7 -7 -15 -4 -8 4 -15 8 -15 10 0 2 7 4 15 4 8
0 15 -4 15 -10z m160 -12 c0 -10 2 -10 8 -1 12 20 35 -2 27 -26 -3 -11 -11
-21 -16 -21 -6 0 -7 -4 -4 -10 3 -5 1 -10 -4 -10 -14 0 -14 6 -1 30 9 16 6 21
-15 26 -14 3 -22 10 -19 15 8 13 24 11 24 -3z m430 2 c0 -5 -2 -10 -4 -10 -3
0 -8 5 -11 10 -3 6 -1 10 4 10 6 0 11 -4 11 -10z m-298 -31 l-4 -30 -14 27
c-17 32 -18 29 4 31 15 1 17 -4 14 -28z m80 23 c12 -5 15 -11 8 -22 -8 -13
-11 -12 -24 5 -12 15 -16 16 -16 5 -1 -8 -3 -25 -6 -37 -5 -27 11 -31 24 -7 7
12 11 13 17 5 7 -13 0 -25 -16 -27 -5 -1 -19 -2 -31 -3 -18 -1 -20 -3 -8 -11
8 -5 11 -12 7 -16 -14 -14 -29 13 -19 32 5 11 7 25 5 32 -3 6 0 12 5 12 6 0 8
9 5 20 -6 21 14 26 49 12z m203 -12 c3 -5 1 -10 -4 -10 -6 0 -11 5 -11 10 0 6
2 10 4 10 3 0 8 -4 11 -10z m-335 -15 c0 4 7 2 15 -5 17 -14 20 -30 5 -30 -5
0 -10 6 -10 14 0 9 -7 12 -20 9 -14 -4 -20 0 -20 12 0 14 3 15 15 5 8 -7 15
-9 15 -5z m-191 -9 c9 -10 8 -15 -3 -19 -16 -7 -26 1 -26 20 0 17 14 17 29 -1z
m115 -43 c8 3 11 -4 8 -24 -2 -16 -9 -29 -14 -29 -6 0 -8 6 -5 14 3 8 0 20 -7
26 -18 14 -26 58 -12 63 6 2 12 -9 14 -25 2 -19 8 -28 16 -25z m-246 28 c3 -8
-1 -12 -9 -9 -7 2 -15 10 -17 17 -3 8 1 12 9 9 7 -2 15 -10 17 -17z m-91 -7
c-3 -3 -12 -4 -19 -1 -8 3 -5 6 6 6 11 1 17 -2 13 -5z m768 -4 c3 -5 -1 -10
-9 -10 -9 0 -16 5 -16 10 0 6 4 10 9 10 6 0 13 -4 16 -10z m-648 -37 c-3 -3
-11 -2 -17 2 -8 5 -7 11 2 22 12 15 13 14 16 -1 2 -10 1 -20 -1 -23z m143 27
c0 -5 -7 -10 -16 -10 -8 0 -12 5 -9 10 3 6 10 10 16 10 5 0 9 -4 9 -10z m330
6 c0 -11 -19 -15 -25 -6 -3 5 1 10 9 10 9 0 16 -2 16 -4z m-142 -37 c3 -11 2
-11 -7 1 -7 10 -11 11 -11 3 0 -7 -7 -13 -15 -13 -8 0 -15 2 -15 4 0 2 -3 11
-6 20 -5 12 0 13 22 7 15 -4 29 -14 32 -22z m322 11 c0 -5 -4 -10 -9 -10 -6 0
-13 5 -16 10 -3 6 1 10 9 10 9 0 16 -4 16 -10z m118 -9 c-10 -16 -15 -17 -26
-8 -12 9 -11 12 5 18 30 12 34 10 21 -10z m-346 -63 c-2 -10 -9 -18 -14 -18
-5 0 -8 8 -6 18 2 9 -3 16 -9 15 -16 -4 -16 2 -2 29 11 20 11 20 23 -3 7 -13
10 -32 8 -41z m258 58 c0 -3 -4 -8 -10 -11 -5 -3 -10 -1 -10 4 0 6 5 11 10 11
6 0 10 -2 10 -4z m110 -11 c0 -8 -2 -15 -4 -15 -2 0 -6 7 -10 15 -3 8 -1 15 4
15 6 0 10 -7 10 -15z m-680 -5 c0 -5 -7 -7 -15 -4 -8 4 -15 8 -15 10 0 2 7 4
15 4 8 0 15 -4 15 -10z m70 -5 c0 -8 -2 -15 -4 -15 -2 0 -6 7 -10 15 -3 8 -1
15 4 15 6 0 10 -7 10 -15z m270 11 c0 -2 -7 -7 -16 -10 -8 -3 -12 -2 -9 4 6
10 25 14 25 6z m40 -16 c0 -11 -7 -20 -15 -20 -9 0 -12 -6 -9 -15 4 -8 2 -15
-4 -15 -5 0 -12 9 -15 20 -3 11 -1 18 4 14 5 -3 9 0 9 6 0 6 5 8 12 4 8 -5 9
-2 5 9 -3 10 -2 17 3 17 6 0 10 -9 10 -20z m-830 -11 c0 -6 -4 -7 -10 -4 -5 3
-10 11 -10 16 0 6 5 7 10 4 6 -3 10 -11 10 -16z m384 5 c3 -8 2 -12 -4 -9 -6
3 -10 10 -10 16 0 14 7 11 14 -7z m326 12 c0 -3 -4 -8 -10 -11 -5 -3 -10 -1
-10 4 0 6 5 11 10 11 6 0 10 -2 10 -4z m164 -22 c5 -19 11 -24 26 -19 12 4 20
2 20 -5 0 -6 10 -8 25 -4 32 8 34 -13 3 -25 -22 -8 -22 -9 -4 -17 13 -5 23 -2
32 11 12 15 14 16 14 3 0 -21 -24 -40 -43 -32 -8 3 -18 1 -22 -5 -3 -6 -13
-11 -21 -11 -11 0 -15 8 -12 29 2 20 -5 39 -20 55 -23 27 -28 46 -13 46 5 0
12 -12 15 -26z m-669 6 c3 -5 -1 -10 -9 -10 -9 0 -16 5 -16 10 0 6 4 10 9 10
6 0 13 -4 16 -10z m460 -10 c22 -24 13 -39 -10 -16 -9 9 -21 16 -26 16 -5 0
-9 5 -9 10 0 17 26 11 45 -10z m-495 6 c0 -3 -4 -8 -10 -11 -5 -3 -10 -1 -10
4 0 6 5 11 10 11 6 0 10 -2 10 -4z m280 -6 c0 -14 -17 -21 -34 -14 -24 9 -19
19 9 20 14 1 25 -2 25 -6z m130 -10 c0 -5 -2 -10 -4 -10 -3 0 -8 5 -11 10 -3
6 -1 10 4 10 6 0 11 -4 11 -10z m551 -3 c-1 -12 -15 -9 -19 4 -3 6 1 10 8 8 6
-3 11 -8 11 -12z m-1126 -6 c3 -5 1 -12 -5 -16 -5 -3 -10 1 -10 9 0 18 6 21
15 7z m859 -10 c17 -19 17 -19 -1 -17 -10 2 -19 10 -21 19 -4 22 1 21 22 -2z
m-394 5 c0 -3 -4 -8 -10 -11 -5 -3 -10 -1 -10 4 0 6 5 11 10 11 6 0 10 -2 10
-4z m-410 -16 c0 -5 -4 -10 -10 -10 -5 0 -10 5 -10 10 0 6 5 10 10 10 6 0 10
-4 10 -10z m424 -25 c-6 -16 -24 -21 -24 -7 0 11 11 22 21 22 5 0 6 -7 3 -15z
m346 5 c0 -5 -2 -10 -4 -10 -3 0 -8 5 -11 10 -3 6 -1 10 4 10 6 0 11 -4 11
-10z m-385 -10 c3 -5 1 -10 -4 -10 -6 0 -11 5 -11 10 0 6 2 10 4 10 3 0 8 -4
11 -10z m-1665 -9 c0 -6 14 -18 30 -28 17 -10 33 -28 37 -41 7 -28 -21 -62
-51 -62 -26 0 -85 55 -87 81 -1 10 -2 24 -3 31 -1 7 10 15 24 19 37 10 50 10
50 0z m1369 -26 l24 -20 -8 24 c-5 16 -4 21 4 17 14 -9 15 -56 1 -56 -6 0 -13
7 -16 15 -4 8 -12 15 -20 15 -8 0 -14 2 -14 4 0 2 -3 13 -6 23 -3 10 -2 14 3
8 4 -5 19 -19 32 -30z m331 5 c0 -5 -4 -10 -10 -10 -5 0 -10 5 -10 10 0 6 5
10 10 10 6 0 10 -4 10 -10z m-305 -60 c3 -6 -1 -7 -9 -4 -18 7 -21 14 -7 14 6
0 13 -4 16 -10z m-74 -40 c5 0 9 -5 9 -12 0 -6 -8 -3 -20 7 -11 10 -16 23 -12
29 4 7 8 5 10 -6 2 -10 8 -18 13 -18z m105 -27 c-3 -4 -13 2 -21 13 -22 29
-18 41 6 15 12 -12 18 -25 15 -28z m2195 -95 c5 -21 19 -54 30 -73 l21 -35 36
20 c78 40 113 51 142 45 44 -10 45 -23 3 -31 -36 -6 -103 -63 -103 -86 0 -5
-4 -6 -10 -3 -5 3 -10 -1 -10 -9 0 -22 7 -20 35 10 14 15 25 23 25 19 0 -4 9
0 20 10 11 10 23 16 26 13 3 -4 -11 -19 -30 -35 -41 -32 -45 -43 -16 -43 11 0
20 -4 20 -10 0 -16 37 -12 43 5 5 12 10 12 33 0 15 -8 31 -12 36 -9 4 3 8 1 8
-4 0 -8 -129 -82 -144 -82 -3 0 -2 7 1 17 4 11 3 14 -6 9 -6 -4 -10 -15 -9
-24 2 -14 -4 -16 -32 -14 -19 2 -64 0 -99 -3 -54 -6 -69 -12 -93 -37 -27 -29
-48 -30 -48 -3 0 7 6 15 13 18 6 2 8 8 4 13 -4 5 -12 2 -17 -6 -5 -8 -12 -11
-16 -7 -4 3 -2 12 4 20 18 21 3 59 -19 52 -28 -9 -23 8 9 32 25 18 27 24 25
84 -3 83 -10 104 -38 119 -17 9 -28 9 -43 1 -25 -13 -32 -14 -32 -3 0 14 91
66 144 83 59 19 69 13 87 -53z m-2243 16 c-4 -3 -12 5 -18 18 -12 22 -12 22 6
6 10 -10 15 -20 12 -24z m2012 -75 c0 -6 -4 -7 -10 -4 -5 3 -10 11 -10 16 0 6
5 7 10 4 6 -3 10 -11 10 -16z m-51 -16 c16 -16 41 -38 55 -50 39 -34 24 -49
-59 -63 -41 -7 -72 -16 -70 -20 9 -15 -20 -41 -39 -34 -16 6 -15 9 10 19 l29
12 -57 36 c-51 33 -73 44 -148 75 -22 10 -23 11 -4 11 50 2 189 -53 178 -70
-10 -18 15 -17 31 1 9 10 23 16 31 13 21 -8 17 15 -5 27 -11 5 -23 20 -26 31
-5 15 -9 18 -15 9 -6 -9 -12 -9 -31 1 -23 12 -23 12 -4 20 45 17 94 10 124
-18z m765 8 c18 -7 18 -8 -4 -24 -22 -15 -22 -17 -4 -22 10 -3 31 -12 46 -20
22 -11 29 -11 35 -1 15 24 42 26 57 5 7 -11 22 -19 31 -17 10 2 20 -2 22 -7 4
-13 -133 -9 -196 6 -29 7 -46 7 -50 0 -4 -6 -12 -6 -20 -2 -18 11 -5 31 19 31
10 0 22 5 26 11 5 8 -11 10 -55 7 -68 -5 -78 5 -28 26 35 16 91 19 121 7z
m-174 -11 c0 -5 -4 -10 -10 -10 -5 0 -10 5 -10 10 0 6 5 10 10 10 6 0 10 -4
10 -10z m-20 -49 c0 -12 -30 -22 -43 -14 -7 4 -3 9 9 14 26 10 34 10 34 0z
m-4600 -32 c0 -18 -35 -5 -38 14 -3 16 -1 17 17 7 12 -6 21 -15 21 -21z m3670
20 c11 -7 4 -8 -25 -3 -50 8 -58 14 -19 14 16 0 36 -5 44 -11z m135 -29 c3 -5
2 -10 -4 -10 -5 0 -13 5 -16 10 -3 6 -2 10 4 10 5 0 13 -4 16 -10z m-3792 -17
c-5 -12 -2 -15 8 -11 20 8 53 -18 46 -36 -4 -9 -17 -13 -36 -12 -36 2 -36 3
-45 38 -5 20 -2 28 11 31 10 3 19 5 20 6 1 0 -1 -7 -4 -16z m1462 7 c11 -18
-4 -47 -31 -58 -35 -17 -44 -15 -44 8 0 38 58 77 75 50z m2261 -21 c3 -5 -5
-10 -18 -10 -111 -6 -128 -5 -125 5 2 6 15 11 30 11 14 0 28 2 31 6 8 8 75 -2
82 -12z m1117 4 c-13 -2 -23 -11 -23 -19 0 -8 -10 -14 -26 -14 -15 0 -23 4
-19 11 9 14 45 28 70 27 17 -1 16 -1 -2 -5z m127 -24 c0 -4 -7 -6 -15 -3 -8 4
-15 10 -15 15 0 4 7 6 15 3 8 -4 15 -10 15 -15z m-1169 0 c20 -10 17 -29 -4
-29 -7 0 -6 4 3 10 13 8 13 10 -2 10 -9 0 -20 5 -23 10 -8 13 1 13 26 -1z
m-1516 -9 c3 -6 3 -20 0 -31 -5 -16 -10 -18 -18 -10 -9 9 -8 14 3 21 13 9 13
11 0 20 -9 6 -10 10 -3 10 6 0 15 -5 18 -10z m1415 2 c0 -5 -7 -9 -15 -9 -8 0
-12 4 -9 9 3 4 9 8 15 8 5 0 9 -4 9 -8z m373 1 c-7 -2 -19 -2 -25 0 -7 3 -2 5
12 5 14 0 19 -2 13 -5z m-490 -10 c-7 -2 -19 -2 -25 0 -7 3 -2 5 12 5 14 0 19
-2 13 -5z m-1248 -33 c22 0 26 -28 4 -35 -10 -4 -19 -11 -19 -16 0 -6 -4 -8
-9 -5 -5 4 -12 0 -14 -6 -4 -10 -6 -10 -6 0 -1 7 6 15 14 18 12 5 13 10 4 20
-6 8 -8 22 -3 36 6 19 9 20 12 6 2 -10 9 -18 17 -18z m1770 21 c3 -5 1 -12 -5
-16 -5 -3 -10 1 -10 9 0 18 6 21 15 7z m-1855 -32 c0 -10 -3 -19 -7 -19 -5 0
-8 11 -8 24 0 13 3 22 8 19 4 -2 7 -13 7 -24z m1514 16 c-4 -8 -18 -18 -33
-21 -14 -3 -31 -7 -38 -9 -28 -9 1 22 30 32 46 15 47 15 41 -2z m1326 11 c0
-2 -9 -6 -20 -9 -11 -3 -20 -1 -20 4 0 5 9 9 20 9 11 0 20 -2 20 -4z m71 -22
c6 -8 18 -14 25 -14 8 0 14 -4 14 -8 0 -9 91 -62 105 -62 4 0 2 7 -5 15 -21
25 0 17 36 -14 19 -18 28 -31 21 -34 -9 -3 -8 -9 3 -23 14 -18 13 -18 -8 1
-13 11 -19 21 -13 23 7 2 6 9 -3 18 -18 18 -30 18 -23 0 4 -10 0 -12 -14 -9
-10 3 -19 9 -19 14 0 5 -7 9 -15 9 -8 0 -15 -4 -15 -10 0 -5 6 -10 13 -10 8 0
31 -16 53 -36 32 -30 34 -33 10 -19 -17 10 -41 19 -55 20 -47 3 -51 5 -51 20
0 8 -4 15 -10 15 -5 0 -10 10 -10 23 0 15 -14 31 -45 52 -24 17 -45 35 -45 42
0 14 36 5 51 -13z m-1241 -4 c0 -5 -2 -10 -4 -10 -3 0 -8 5 -11 10 -3 6 -1 10
4 10 6 0 11 -4 11 -10z m1128 -1 c17 -6 33 -17 36 -25 3 -9 11 -12 18 -8 7 4
10 4 6 0 -4 -5 5 -18 20 -31 37 -32 26 -37 -25 -13 -28 13 -40 24 -36 34 3 8
1 14 -3 14 -10 0 -62 39 -53 40 3 0 20 -5 37 -11z m-1208 -8 c0 -5 8 -12 18
-14 11 -3 7 -5 -10 -6 -27 -1 -43 11 -31 23 9 9 23 7 23 -3z m205 -11 l70 -20
-54 6 c-29 3 -68 11 -85 19 -45 19 -12 17 69 -5z m900 0 c13 -6 15 -9 5 -9 -8
0 -22 4 -30 9 -18 12 -2 12 25 0z m45 -14 c0 -2 -7 -7 -16 -10 -8 -3 -12 -2
-9 4 6 10 25 14 25 6z m-1093 -28 c-3 -8 -6 -5 -6 6 -1 11 2 17 5 13 3 -3 4
-12 1 -19z m-297 8 c0 -3 -4 -8 -10 -11 -5 -3 -10 -1 -10 4 0 6 5 11 10 11 6
0 10 -2 10 -4z m1336 -43 c22 -25 34 -51 38 -82 4 -25 13 -55 21 -65 8 -10 12
-23 9 -27 -3 -5 -1 -9 4 -9 14 0 23 -59 12 -80 -5 -9 -29 -27 -54 -38 -37 -18
-55 -20 -116 -15 -120 10 -170 62 -170 179 0 45 4 65 18 76 23 21 118 68 137
68 18 0 19 11 3 29 -11 11 -6 12 27 7 29 -5 49 -17 71 -43z m-1206 31 c0 -10
-28 -34 -39 -34 -6 0 -3 9 7 19 17 19 32 26 32 15z m267 -17 c-12 -13 -24 -24
-27 -24 -21 -2 -24 -4 -13 -11 8 -5 7 -12 -4 -27 -15 -19 -15 -19 -8 5 7 22 6
23 -8 12 -24 -20 -42 -4 -21 19 9 10 20 16 24 14 4 -2 15 4 25 15 10 11 26 20
36 20 16 0 16 -2 -4 -23z m58 13 c-3 -5 -12 -10 -18 -10 -7 0 -6 4 3 10 19 12
23 12 15 0z m215 -14 c0 -7 10 -17 23 -21 12 -3 17 -9 10 -11 -6 -3 -23 2 -36
11 -19 12 -25 13 -24 3 1 -41 -3 -49 -24 -43 -14 5 -20 3 -18 -7 3 -28 -1 -46
-14 -51 -8 -3 -14 4 -15 19 -1 17 2 22 13 17 13 -4 14 -1 6 21 -11 27 -2 40
22 30 10 -3 17 3 21 20 7 27 36 37 36 12z m-430 -45 c0 -9 -11 -28 -25 -43
-28 -30 -31 -44 -13 -50 7 -3 5 -7 -6 -11 -10 -4 -15 -3 -11 3 9 14 -7 12 -29
-5 -10 -8 -23 -12 -27 -9 -8 4 -13 -8 -11 -27 1 -3 -9 -4 -21 -3 -12 1 -25 3
-29 3 -5 1 -8 6 -8 12 0 8 5 8 15 -1 16 -13 19 -6 16 33 -3 20 9 22 28 5 11
-11 13 -10 8 5 -5 13 1 21 21 29 15 6 30 12 35 12 4 1 7 6 8 11 0 6 10 20 21
33 19 19 19 22 4 22 -9 0 -14 5 -11 10 9 15 35 -7 35 -29z m-340 19 c0 -5 -5
-10 -11 -10 -5 0 -7 5 -4 10 3 6 8 10 11 10 2 0 4 -4 4 -10z m659 -6 c-10 -13
-10 -17 1 -24 12 -7 12 -10 -2 -15 -17 -7 -21 -45 -4 -45 17 0 -4 -14 -24 -15
-24 -2 -23 -5 -6 42 8 21 17 46 20 56 3 9 11 17 17 17 8 0 8 -5 -2 -16z m-254
-34 c3 -5 -3 -10 -15 -10 -12 0 -18 5 -15 10 3 6 10 10 15 10 5 0 12 -4 15
-10z m95 -10 c0 -5 -4 -10 -10 -10 -5 0 -10 5 -10 10 0 6 5 10 10 10 6 0 10
-4 10 -10z m-122 -32 c2 -9 -4 -23 -13 -32 -18 -18 -45 -22 -45 -6 0 6 4 10 9
10 5 0 12 12 15 26 7 27 29 28 34 2z m180 -9 c-3 -8 -7 -3 -11 10 -4 17 -3 21
5 13 5 -5 8 -16 6 -23z m-378 -13 c0 -2 -7 -6 -15 -10 -8 -3 -15 -1 -15 4 0 6
7 10 15 10 8 0 15 -2 15 -4z m1530 -26 c32 -28 21 -33 -25 -11 -25 12 -33 20
-24 24 22 9 25 8 49 -13z m31 3 c13 -16 12 -17 -3 -4 -10 7 -18 15 -18 17 0 8
8 3 21 -13z m-4181 -35 c0 -13 -23 -5 -28 10 -2 7 2 10 12 6 9 -3 16 -11 16
-16z m3080 8 c-7 -7 -13 -7 -20 0 -6 6 -3 10 10 10 13 0 16 -4 10 -10z m-306
-11 c-5 -12 -10 -13 -20 -4 -19 15 -18 19 6 19 13 0 18 -5 14 -15z m1236 -5
c0 -5 -2 -10 -4 -10 -3 0 -8 5 -11 10 -3 6 -1 10 4 10 6 0 11 -4 11 -10z
m-4195 -20 c-3 -5 -11 -10 -16 -10 -6 0 -7 5 -4 10 3 6 11 10 16 10 6 0 7 -4
4 -10z m190 -10 c-3 -5 -11 -10 -16 -10 -6 0 -7 5 -4 10 3 6 11 10 16 10 6 0
7 -4 4 -10z m4203 -38 l10 -42 -29 21 c-34 24 -36 29 -10 22 16 -4 18 0 13 24
-7 43 6 23 16 -25z m-4148 18 c0 -5 -2 -10 -4 -10 -3 0 -8 5 -11 10 -3 6 -1
10 4 10 6 0 11 -4 11 -10z m2365 -10 c3 -6 -1 -7 -9 -4 -18 7 -21 14 -7 14 6
0 13 -4 16 -10z m1905 -11 c0 -6 -4 -7 -10 -4 -5 3 -10 11 -10 16 0 6 5 7 10
4 6 -3 10 -11 10 -16z m-1650 -25 c0 -8 -5 -12 -10 -9 -6 4 -8 11 -5 16 9 14
15 11 15 -7z m1484 -20 c19 4 37 3 39 -2 3 -4 -12 -30 -33 -57 -37 -49 -63
-104 -42 -91 5 3 15 -1 22 -9 16 -20 40 -19 40 1 0 9 5 14 12 12 23 -8 18 -24
-12 -35 -16 -6 -30 -7 -30 -2 0 5 -14 9 -30 9 -26 0 -30 3 -25 23 10 40 12 77
5 122 -6 37 -4 43 6 34 8 -7 28 -9 48 -5z m76 -14 c0 -5 -2 -10 -4 -10 -3 0
-8 5 -11 10 -3 6 -1 10 4 10 6 0 11 -4 11 -10z m-10 -35 c0 -8 -19 -33 -42
-57 -42 -44 -43 -37 -1 18 13 17 23 36 23 42 0 7 5 12 10 12 6 0 10 -7 10 -15z
m-4460 -10 c0 -8 -2 -15 -4 -15 -2 0 -6 7 -10 15 -3 8 -1 15 4 15 6 0 10 -7
10 -15z m174 -33 c-4 -20 -11 -29 -19 -25 -8 2 -11 12 -8 21 5 11 2 14 -10 9
-9 -3 -17 -2 -17 3 0 6 11 10 25 10 14 0 25 5 25 12 0 6 2 9 5 6 3 -3 2 -19
-1 -36z m4292 -1 c-3 -5 1 -14 9 -21 8 -7 15 -20 15 -29 -1 -13 -2 -13 -11 3
-9 14 -13 16 -20 5 -4 -7 -11 -11 -14 -8 -6 7 11 59 20 59 4 0 4 -4 1 -9z
m-2074 -93 c-7 -7 -12 -8 -12 -2 0 14 12 26 19 19 2 -3 -1 -11 -7 -17z m1962
-13 c3 -8 1 -15 -3 -15 -5 0 -17 -3 -26 -7 -15 -5 -16 -3 -6 15 14 26 27 28
35 7z m-1914 -15 c0 -5 -5 -10 -11 -10 -5 0 -7 5 -4 10 3 6 8 10 11 10 2 0 4
-4 4 -10z m-2873 -46 c7 -19 -43 -82 -85 -107 -17 -10 -67 -22 -114 -27 -89
-9 -133 -21 -188 -50 -19 -10 -62 -26 -95 -35 -33 -10 -103 -35 -155 -58 -109
-46 -164 -59 -198 -46 -17 7 -22 14 -17 29 4 14 2 20 -9 20 -9 0 -23 11 -32
25 -9 14 -20 22 -26 19 -5 -3 -15 -1 -22 5 -10 8 -17 7 -26 -5 -14 -16 -40
-14 -91 8 -24 11 -25 13 -12 40 8 15 12 32 8 38 -3 5 1 10 9 10 8 0 21 6 29
14 19 19 212 66 320 77 49 5 93 11 97 14 5 3 64 10 132 16 68 6 150 14 183 18
33 5 111 9 173 10 94 1 114 -2 119 -15z m118 -70 c9 -9 13 -19 10 -22 -3 -3
-14 4 -25 16 -24 25 -10 30 15 6z m80 6 c-28 -12 -45 -12 -45 0 0 6 15 10 33
9 27 0 29 -2 12 -9z m179 -3 c6 3 8 3 4 -2 -4 -4 -2 -17 4 -29 11 -20 10 -20
-9 -3 -11 9 -22 15 -24 13 -2 -3 -15 4 -29 14 l-25 20 34 -10 c19 -5 39 -7 45
-3z m-197 -23 c-3 -3 -12 -4 -19 -1 -8 3 -5 6 6 6 11 1 17 -2 13 -5z m64 -14
c6 0 7 -5 4 -10 -4 -6 -11 -8 -16 -5 -5 4 -9 1 -9 -5 0 -7 8 -9 19 -5 11 3 26
-1 35 -10 22 -22 20 -28 -3 -15 -11 5 -31 10 -44 10 -14 0 -31 8 -38 17 -10
11 -10 14 -1 9 8 -4 12 -1 12 9 0 12 5 15 16 11 9 -3 20 -6 25 -6z m2487 -13
c9 -10 4 -12 -22 -9 -19 2 -37 -1 -40 -7 -4 -6 -12 -11 -17 -11 -16 0 1 21 25
30 30 12 42 12 54 -3z m-2268 -32 c7 -8 9 -15 5 -15 -16 0 43 -39 68 -45 24
-6 47 -35 28 -35 -5 0 -12 6 -14 13 -4 9 -6 9 -6 -1 -1 -7 7 -16 17 -19 26
-10 50 -41 58 -76 3 -18 11 -35 17 -39 6 -4 8 -10 5 -14 -4 -3 -25 13 -48 37
-29 31 -38 49 -34 64 3 13 2 16 -3 8 -7 -10 -13 -8 -25 7 -12 13 -13 20 -5 24
7 2 2 5 -10 5 -12 1 -46 23 -75 51 l-53 49 31 1 c17 0 37 -7 44 -15z m-129
-61 c6 -7 19 -9 31 -6 14 3 19 1 14 -7 -4 -7 2 -15 16 -20 14 -5 25 -5 29 1 4
6 9 6 12 1 3 -4 0 -16 -7 -25 -12 -16 -14 -16 -32 0 -10 9 -31 23 -45 30 -14
8 -37 23 -50 35 -14 12 -20 19 -13 14 7 -5 14 1 19 15 l8 23 4 -25 c3 -14 9
-30 14 -36z m189 26 c0 -5 -4 -10 -10 -10 -5 0 -10 5 -10 10 0 6 5 10 10 10 6
0 10 -4 10 -10z m-116 -15 c3 -8 1 -15 -4 -15 -6 0 -10 7 -10 15 0 8 2 15 4
15 2 0 6 -7 10 -15z m1220 -87 c-3 -4 11 -8 30 -8 44 0 132 -33 170 -63 35
-28 31 -63 -7 -54 -20 6 -22 2 -24 -34 -2 -47 -31 -147 -46 -156 -8 -5 -4 31
10 81 3 12 1 16 -6 12 -6 -4 -11 -14 -11 -22 0 -19 -29 -77 -44 -86 -19 -13
-48 -9 -40 5 5 8 2 7 -9 -2 -16 -12 -20 -11 -37 7 -24 25 -25 33 -4 25 12 -4
14 0 9 19 -4 16 1 32 14 50 12 14 21 30 21 36 0 5 9 17 19 26 20 18 34 56 21
56 -4 0 -13 -13 -20 -30 -7 -16 -17 -30 -22 -30 -5 0 2 18 14 40 13 22 29 38
36 35 23 -8 12 11 -15 27 -16 9 -50 37 -78 63 l-50 46 37 -17 c20 -9 35 -21
32 -26z m-1128 20 c5 -8 2 -9 -9 -5 -11 4 -17 1 -17 -9 0 -8 7 -17 15 -20 8
-4 15 -12 15 -20 0 -23 -28 -16 -47 12 -16 25 -16 27 2 40 23 17 32 17 41 2z
m-201 -38 c3 -5 2 -10 -4 -10 -5 0 -13 5 -16 10 -3 6 -2 10 4 10 5 0 13 -4 16
-10z m1285 -10 c0 -5 -4 -10 -10 -10 -5 0 -26 -11 -46 -25 -38 -26 -70 -34
-58 -14 4 8 -1 9 -17 5 -19 -5 -18 -3 6 10 17 10 50 23 75 30 25 7 46 13 48
13 1 1 2 -3 2 -9z m-1245 -10 c3 -6 -1 -7 -9 -4 -18 7 -21 14 -7 14 6 0 13 -4
16 -10z m195 -6 c0 -8 5 -12 10 -9 6 3 10 -3 10 -15 0 -12 5 -18 10 -15 6 3
10 -1 10 -10 0 -12 -7 -10 -34 11 -19 15 -32 33 -29 41 7 18 23 16 23 -3z
m120 -120 c0 -14 -3 -15 -17 -3 -10 7 -20 15 -22 16 -2 2 5 3 17 3 14 0 22 -6
22 -16z m33 -11 c-3 -7 -9 -10 -14 -7 -14 8 -11 21 5 21 8 0 12 -6 9 -14z m47
-13 c0 -4 -6 -13 -14 -19 -11 -9 -13 -7 -13 13 0 17 4 23 13 19 8 -3 14 -9 14
-13z m30 0 c0 -11 -2 -20 -4 -20 -2 0 -6 9 -9 20 -3 11 -1 20 4 20 5 0 9 -9 9
-20z m-1280 -55 c0 -8 -4 -15 -10 -15 -5 0 -7 7 -4 15 4 8 8 15 10 15 2 0 4
-7 4 -15z m591 -28 c-10 -9 -11 -8 -5 6 3 10 9 15 12 12 3 -3 0 -11 -7 -18z
m3813 0 c-1 -9 2 -14 7 -11 13 8 105 -82 119 -116 7 -17 16 -30 21 -30 5 0 9
-8 9 -18 0 -9 14 -46 31 -81 29 -60 42 -121 32 -148 -7 -18 -42 -16 -50 3 -3
9 -31 41 -62 72 -62 62 -100 131 -109 195 -3 23 -11 47 -17 52 -7 6 -20 22
-30 37 -17 27 -16 27 10 34 17 4 24 11 21 21 -4 9 -1 13 6 10 7 -2 12 -11 12
-20z m123 -20 c-6 -19 -24 -18 -31 0 -3 10 -9 24 -12 31 -4 10 2 9 20 -3 15
-10 25 -23 23 -28z m-3987 7 c0 -8 -4 -12 -10 -9 -5 3 -10 10 -10 16 0 5 5 9
10 9 6 0 10 -7 10 -16z m4058 -134 c51 -80 84 -156 80 -187 -6 -56 -31 -30
-64 67 -18 52 -45 115 -59 141 -14 26 -25 50 -25 54 0 16 33 -21 68 -75z
m-5210 39 c2 -16 -6 -33 -22 -48 l-26 -24 -35 19 c-36 19 -45 33 -22 36 6 0
17 2 22 2 6 1 21 12 33 24 28 28 46 24 50 -9z m1590 -140 c-3 -8 -7 -3 -11 10
-4 17 -3 21 5 13 5 -5 8 -16 6 -23z m3452 -12 c0 -5 -4 -5 -10 -2 -5 3 -10 14
-10 23 0 15 2 15 10 2 5 -8 10 -19 10 -23z m-2675 -37 c34 -22 71 -40 82 -40
12 0 44 -22 72 -50 51 -50 62 -70 39 -70 -9 0 -8 -3 2 -9 8 -6 18 -7 22 -5 4
3 8 -2 8 -10 0 -22 -13 -20 -35 4 -27 30 -77 38 -207 35 l-118 -2 0 31 c0 17
-4 26 -8 21 -9 -14 -63 -55 -71 -55 -4 0 -8 11 -9 24 -1 21 5 25 57 36 32 8
58 19 58 25 0 7 -8 10 -19 7 -10 -2 -18 1 -18 7 0 6 15 12 33 12 20 1 25 3 12
6 -75 17 -95 25 -95 38 0 8 -8 15 -17 15 -14 1 -12 4 7 16 45 26 133 11 205
-36z m-2688 -34 c4 -5 3 -6 -4 -2 -7 4 -17 -2 -23 -14 -14 -26 -25 -25 -26 3
-1 18 4 23 21 22 13 0 27 -4 32 -9z m603 -61 c14 -14 33 -34 42 -45 10 -11 29
-22 43 -26 14 -3 40 -21 59 -40 27 -27 42 -34 74 -34 23 0 45 -6 52 -15 7 -8
17 -15 22 -15 5 0 33 -15 61 -34 29 -19 77 -44 108 -56 98 -36 144 -95 162
-209 15 -96 13 -176 -6 -261 -10 -41 -19 -84 -22 -96 -2 -11 -19 -26 -39 -34
-28 -11 -33 -16 -24 -27 6 -7 8 -17 4 -21 -4 -4 -11 0 -16 8 -5 8 -16 24 -24
35 -14 18 -15 18 -16 3 0 -21 -18 -24 -26 -4 -4 11 -10 11 -30 2 -13 -6 -22
-17 -19 -24 3 -8 5 -23 5 -33 0 -11 5 -17 10 -14 6 4 23 -4 39 -17 16 -13 37
-28 47 -35 17 -10 16 -12 -13 -19 -37 -7 -40 -12 -16 -29 9 -7 13 -17 9 -23
-11 -18 -26 -14 -19 5 5 13 3 15 -13 9 -10 -4 -31 -10 -46 -13 -23 -4 -26 -2
-21 15 5 22 -13 63 -27 59 -5 -1 -16 7 -24 18 -8 11 -16 15 -16 8 0 -6 -9 -9
-19 -6 -12 3 -27 26 -41 64 -22 57 -44 82 -33 37 6 -22 5 -21 -15 3 -12 15
-26 38 -32 53 -17 47 -38 21 -31 -40 2 -19 -26 -66 -33 -55 -11 17 -32 2 -46
-34 -11 -27 -16 -32 -27 -24 -10 9 -15 7 -20 -7 -6 -14 -9 -6 -13 29 -3 26 -8
46 -11 45 -3 -2 -13 3 -22 10 -9 8 -21 11 -26 8 -5 -4 -13 -1 -17 5 -9 15 -24
-9 -24 -40 0 -16 4 -22 15 -17 9 3 15 0 15 -8 0 -7 6 -19 14 -26 8 -6 12 -18
9 -26 -9 -25 -30 -15 -40 19 l-10 32 -16 -35 c-9 -19 -14 -25 -11 -12 6 25
-13 30 -35 9 -10 -10 -15 -8 -28 8 -10 13 -17 16 -20 8 -5 -14 -53 24 -53 43
0 6 -7 17 -15 24 -8 7 -15 29 -15 48 0 33 -1 35 -14 16 -8 -10 -16 -17 -18
-14 -2 3 -13 19 -25 36 -29 42 -36 152 -10 174 10 9 21 40 27 75 16 95 15 97
-39 127 -62 34 -87 29 -101 -23 -6 -23 -17 -39 -25 -39 -10 0 -15 -10 -15 -30
0 -24 -4 -30 -21 -30 -14 0 -18 4 -12 13 4 6 6 22 4 35 -2 21 7 27 37 23 6 -1
12 8 12 20 0 19 -4 21 -37 14 -21 -4 -44 -11 -50 -17 -9 -7 -13 -7 -13 -1 0 6
-24 14 -52 17 -67 9 -170 40 -227 68 -78 39 -90 92 -24 104 26 5 54 -1 116
-25 45 -17 97 -33 114 -34 18 -1 33 -5 33 -9 0 -12 38 -9 42 3 9 27 -5 82 -23
86 -27 7 -33 33 -8 33 17 0 20 4 15 24 -5 20 -2 24 19 24 16 0 22 -5 18 -12
-4 -6 -6 -19 -5 -28 2 -10 -1 -18 -7 -18 -14 0 8 -72 28 -88 15 -13 15 -13 -1
-8 -10 3 -18 1 -18 -4 0 -5 17 -12 38 -15 20 -3 45 -8 54 -10 10 -1 17 0 16 4
-1 3 4 23 11 44 7 20 11 43 8 50 -6 16 24 67 39 67 21 0 66 -80 60 -106 -8
-31 -22 -24 -30 17 -5 25 -10 30 -28 27 -16 -2 -24 -11 -26 -28 -3 -20 -1 -23
9 -12 19 18 29 15 29 -9 0 -24 41 -67 58 -61 6 2 24 -4 40 -12 34 -18 40 -13
82 59 13 22 35 52 48 68 21 22 23 27 9 27 -15 0 -22 11 -18 33 0 4 -4 7 -9 7
-13 0 -13 -6 0 -31 10 -17 7 -19 -22 -20 -18 -1 -47 -2 -64 -3 -32 -1 -37 17
-8 28 8 3 14 14 14 25 0 11 6 24 13 28 8 4 33 37 57 73 24 36 60 84 79 108 39
47 31 49 101 -23z m5030 16 c0 -5 -7 -12 -16 -15 -14 -5 -15 -4 -4 9 14 17 20
19 20 6z m-4023 -38 l1 -30 -44 15 c-51 17 -61 41 -14 34 19 -3 30 0 30 8 0
26 25 1 27 -27z m1893 33 c0 -3 -4 -8 -10 -11 -5 -3 -10 -1 -10 4 0 6 5 11 10
11 6 0 10 -2 10 -4z m-3647 -16 c-22 -9 -27 -20 -24 -47 1 -7 -3 -13 -9 -13
-6 0 -8 -5 -5 -10 4 -6 1 -17 -5 -25 -10 -13 -8 -15 13 -15 14 0 27 7 31 15 3
8 11 15 17 15 8 0 9 -4 0 -13 -15 -19 -4 -27 40 -27 48 0 62 -22 48 -73 -11
-41 -23 -44 -175 -51 -88 -5 -144 -25 -144 -54 0 -76 203 -221 316 -225 72 -3
119 -54 79 -87 -8 -7 -15 -19 -15 -26 0 -8 -9 -14 -20 -14 -11 0 -20 -5 -20
-10 0 -6 6 -10 13 -9 24 4 66 -13 61 -25 -6 -16 38 -36 65 -29 16 4 23 -1 31
-21 5 -15 15 -24 23 -21 12 5 57 -28 57 -42 0 -3 -8 1 -18 10 -26 24 -33 21
-30 -10 3 -22 -2 -28 -28 -36 -24 -7 -40 -5 -72 12 -23 12 -46 21 -52 21 -20
0 29 -53 97 -104 61 -46 64 -50 43 -58 -18 -7 -20 -11 -10 -23 48 -57 -136 55
-280 170 -95 77 -137 121 -192 202 -69 101 -41 101 80 1 56 -47 89 -61 79 -34
-3 7 -1 18 4 23 5 5 -11 16 -43 28 -29 10 -72 31 -96 46 -24 16 -46 29 -50 29
-15 0 -80 71 -96 105 -16 32 -16 40 -2 96 9 33 16 63 16 65 0 2 5 4 11 4 6 0
18 7 26 16 14 13 14 17 2 25 -12 8 -12 10 0 18 8 5 14 24 14 42 0 18 8 40 19
51 23 23 23 15 1 -19 l-18 -26 29 18 c16 11 50 22 74 25 40 4 47 9 55 35 5 17
8 42 8 58 -1 25 2 27 36 26 33 0 35 -1 16 -9z m6237 -11 c0 -4 -7 -6 -15 -3
-8 4 -15 10 -15 15 0 4 7 6 15 3 8 -4 15 -10 15 -15z m-5952 -37 c14 12 14 10
3 -11 -10 -19 -15 -21 -22 -10 -5 8 -8 19 -8 24 0 6 3 4 6 -3 4 -10 8 -10 21
0z m-30 -29 c11 -22 5 -43 -13 -43 -7 0 -15 -7 -19 -15 -10 -28 -25 -16 -15
13 18 54 21 62 30 62 4 0 12 -8 17 -17z m3431 -2 c10 -10 24 -20 30 -22 18 -6
1 -39 -20 -39 -20 0 -49 47 -42 68 6 16 10 15 32 -7z m-1829 -43 c27 -29 52
-61 55 -70 4 -10 10 -18 14 -18 13 0 58 -73 65 -107 6 -26 2 -36 -26 -64 -35
-37 -70 -46 -88 -24 -6 7 -18 11 -28 8 -29 -7 -51 19 -78 97 -31 91 -34 167
-8 204 11 14 25 26 32 26 7 0 35 -24 62 -52z m1470 22 c0 -5 -4 -10 -10 -10
-5 0 -10 5 -10 10 0 6 5 10 10 10 6 0 10 -4 10 -10z m-10 -24 c0 -3 -4 -8 -10
-11 -5 -3 -10 -1 -10 4 0 6 5 11 10 11 6 0 10 -2 10 -4z m-3020 -21 c0 -8 -4
-15 -10 -15 -5 0 -10 7 -10 15 0 8 5 15 10 15 6 0 10 -7 10 -15z m1858 3 c-3
-7 -18 -14 -34 -16 l-29 -3 25 15 c32 18 43 19 38 4z m4258 -72 c-2 -36 -7
-69 -10 -75 -4 -5 -2 -12 3 -16 15 -9 31 27 20 47 -6 11 -5 19 1 23 6 4 10 3
9 -2 -3 -20 2 -34 11 -28 20 13 9 -17 -15 -39 -16 -15 -25 -34 -25 -55 0 -19
-5 -31 -13 -31 -19 0 -41 136 -28 178 5 17 7 32 5 32 -11 0 22 29 33 30 9 0
11 -19 9 -64z m-6666 0 c0 -3 -4 -8 -10 -11 -5 -3 -10 -1 -10 4 0 6 5 11 10
11 6 0 10 -2 10 -4z m2635 -16 c10 -11 15 -20 11 -20 -14 0 -46 21 -46 30 0
16 16 11 35 -10z m-2105 -8 c0 -20 -26 -60 -33 -52 -6 6 19 70 28 70 3 0 5 -8
5 -18z m6300 8 c-10 -7 -11 -12 -4 -17 13 -10 13 -70 -1 -63 -5 3 -9 9 -7 13
1 5 -2 6 -7 2 -6 -3 -13 -22 -17 -43 -3 -20 -15 -70 -26 -111 -22 -81 -31
-141 -22 -141 3 0 14 5 25 11 14 7 17 14 10 23 -12 15 -2 31 22 32 21 2 21 2
-2 -50 -57 -124 -62 -146 -51 -203 12 -54 8 -89 -9 -79 -4 3 -14 34 -21 68 -8
35 -14 65 -15 68 -15 48 -16 62 -5 75 11 13 10 14 -4 9 -14 -5 -16 3 -17 57
-2 93 0 102 29 127 l27 24 6 -24 c6 -21 7 -22 14 -4 6 13 3 23 -8 31 -22 16
-22 26 1 18 9 -3 4 4 -12 17 -27 22 -27 24 -10 31 27 11 36 10 29 0 -3 -5 -1
-12 4 -15 5 -3 11 11 15 32 10 68 13 77 27 100 7 12 21 22 29 22 13 0 13 -1 0
-10z m-4235 -50 c8 -13 -35 -13 -55 0 -11 7 -7 10 17 10 17 0 35 -4 38 -10z
m-2275 -4 c0 -2 -7 -7 -16 -10 -8 -3 -12 -2 -9 4 6 10 25 14 25 6z m81 -13
c13 -16 12 -17 -3 -4 -10 7 -18 15 -18 17 0 8 8 3 21 -13z m2788 4 c6 -8 8
-17 4 -20 -3 -4 1 -7 10 -7 9 0 31 -14 49 -30 18 -17 41 -33 50 -36 10 -3 18
-10 18 -15 0 -6 52 -35 116 -65 88 -42 120 -63 134 -87 24 -39 25 -70 3 -92
-24 -24 -113 -12 -185 25 -32 17 -58 27 -58 22 0 -4 -4 -13 -9 -20 -13 -21
-79 45 -107 107 -14 30 -38 70 -54 89 -24 30 -27 38 -18 58 9 20 8 27 -7 38
-24 17 -13 46 18 46 14 0 30 -6 36 -13z m3321 7 c0 -9 -43 -68 -52 -72 -5 -2
-6 -8 -2 -13 3 -5 2 -9 -3 -8 -20 3 -33 -2 -33 -14 0 -18 -42 -52 -62 -49 -9
2 -27 -11 -39 -27 -13 -17 -29 -31 -36 -31 -7 0 -17 -9 -23 -20 -6 -11 -7 -20
-3 -20 8 0 -36 -41 -108 -100 -23 -19 -57 -47 -75 -63 -17 -15 -36 -27 -41
-27 -13 0 -53 -33 -123 -105 -19 -19 -45 -35 -56 -35 -15 0 -24 -8 -28 -25 -4
-14 -14 -29 -22 -32 -8 -3 -33 -22 -55 -41 -21 -19 -50 -42 -63 -51 -13 -9
-40 -29 -60 -45 -63 -50 -49 -22 29 60 41 44 85 93 96 109 12 17 42 46 67 65
25 19 55 45 66 56 59 60 158 132 173 127 12 -5 15 -2 10 10 -7 19 10 33 36 28
15 -2 17 2 13 17 -7 22 14 35 40 25 12 -4 15 -2 12 8 -9 23 11 51 32 44 13 -4
22 2 32 21 7 15 19 30 27 32 8 3 11 0 7 -7 -4 -6 -3 -11 2 -11 14 0 33 26 30
41 -2 8 7 15 19 17 13 2 25 14 32 33 7 19 17 29 30 29 12 0 20 3 19 8 -1 4 3
17 10 30 10 17 19 21 36 16 15 -3 29 0 37 10 14 16 29 21 29 10z m-5985 -24
c-3 -5 -11 -10 -16 -10 -6 0 -7 5 -4 10 3 6 11 10 16 10 6 0 7 -4 4 -10z
m3375 -70 c0 -35 -6 -36 -39 -11 -28 21 -21 41 15 41 20 0 24 -5 24 -30z m40
11 c0 -11 -4 -23 -10 -26 -6 -4 -10 5 -10 19 0 14 5 26 10 26 6 0 10 -9 10
-19z m-147 -26 c26 -8 47 -11 47 -8 0 3 7 0 15 -7 8 -7 15 -19 15 -27 0 -12
-3 -13 -13 -5 -7 6 -29 13 -48 16 -46 6 -66 15 -73 32 -7 17 -3 17 57 -1z
m-3337 -101 c-4 -9 -9 -15 -11 -12 -3 3 -3 13 1 22 4 9 9 15 11 12 3 -3 3 -13
-1 -22z m-46 -4 c0 -5 -5 -10 -11 -10 -5 0 -7 5 -4 10 3 6 8 10 11 10 2 0 4
-4 4 -10z m247 -37 c3 -7 -3 -9 -17 -6 -29 8 -37 25 -9 21 12 -1 24 -8 26 -15z
m-44 -50 c-15 -12 -20 -10 -35 9 -26 34 -22 40 18 21 32 -16 34 -18 17 -30z
m-54 -29 c18 -9 30 -18 27 -21 -3 -3 -20 4 -38 16 -39 25 -34 27 11 5z m4351
-39 c0 -14 -4 -25 -10 -25 -5 0 -10 11 -10 25 0 14 5 25 10 25 6 0 10 -11 10
-25z m-455 -5 c10 0 16 -19 21 -60 7 -67 29 -95 68 -88 29 6 41 -14 51 -81 7
-42 6 -43 -16 -36 -32 10 -89 48 -89 59 0 10 -36 45 -80 76 l-31 22 3 -53 c3
-50 5 -54 28 -55 14 -1 31 -2 38 -3 7 0 12 -16 12 -41 0 -33 -3 -38 -17 -33
-10 3 -25 15 -34 26 -15 19 -17 19 -42 2 -15 -9 -34 -14 -43 -11 -15 6 -15 9
1 33 17 25 17 27 -6 45 -44 34 -59 40 -59 23 0 -23 -44 -9 -85 28 -39 34 -44
47 -17 47 10 0 22 4 28 9 5 5 20 11 34 13 14 1 31 9 39 16 7 7 20 11 28 8 8
-4 32 -9 54 -12 34 -6 39 -4 39 12 0 29 30 66 47 60 8 -3 21 -6 28 -6z m-3958
-36 c-3 -3 -12 -4 -19 -1 -8 3 -5 6 6 6 11 1 17 -2 13 -5z m4374 -14 c19 -11
27 -50 10 -50 -11 0 -41 39 -41 52 0 11 8 10 31 -2z m1564 -107 c-5 -20 -9
-23 -15 -13 -5 7 -3 24 3 38 13 29 22 12 12 -25z m-1995 -28 c0 -8 -4 -15 -10
-15 -5 0 -10 7 -10 15 0 8 5 15 10 15 6 0 10 -7 10 -15z m-4872 -50 c-6 -14
-13 -23 -15 -21 -5 5 15 46 22 46 3 0 -1 -11 -7 -25z m2203 11 c-16 -19 -58
-28 -79 -17 -14 8 -15 10 -2 15 8 3 31 7 50 9 19 2 37 5 39 5 2 1 -2 -4 -8
-12z m-2028 -93 c-27 -37 -60 -85 -74 -105 -13 -21 -29 -38 -36 -38 -14 0 -11
44 5 63 7 8 8 18 4 22 -4 5 1 5 11 2 10 -4 17 -2 17 6 0 13 112 129 118 122 3
-2 -18 -35 -45 -72z m527 52 c0 -8 -4 -15 -10 -15 -5 0 -7 7 -4 15 4 8 8 15
10 15 2 0 4 -7 4 -15z m3785 -56 c11 -17 0 -20 -21 -4 -17 13 -17 14 -2 15 9
0 20 -5 23 -11z m-1307 -45 c27 -18 29 -44 4 -44 -23 0 -56 35 -47 49 8 15 17
14 43 -5z m1707 -78 c19 -14 18 -15 -13 -3 -18 6 -45 22 -60 35 l-27 23 40
-20 c22 -11 49 -26 60 -35z m-3185 24 c0 -26 -15 -26 -17 0 -1 11 2 20 8 20 5
0 9 -9 9 -20z m-360 -19 c0 -6 -4 -13 -10 -16 -5 -3 -10 1 -10 9 0 9 5 16 10
16 6 0 10 -4 10 -9z"/>
<path d="M4470 4224 c0 -22 3 -24 23 -18 12 4 25 11 29 17 4 7 12 6 22 -2 9
-8 16 -9 16 -3 0 5 -7 15 -15 22 -12 10 -18 10 -32 -1 -13 -11 -17 -11 -20 -1
-8 22 -23 13 -23 -14z"/>
<path d="M4714 4061 c5 -8 3 -17 -5 -22 -10 -6 -8 -9 9 -9 26 0 28 12 5 31
-14 12 -15 12 -9 0z"/>
<path d="M4740 3986 c0 -9 5 -16 10 -16 6 0 10 4 10 9 0 6 -4 13 -10 16 -5 3
-10 -1 -10 -9z"/>
<path d="M4650 3875 c0 -8 4 -15 10 -15 5 0 23 -13 40 -30 17 -16 36 -29 42
-27 7 1 14 -6 16 -15 4 -21 -24 -25 -31 -5 -3 9 -7 9 -19 -1 -13 -10 -15 -9
-11 12 4 17 0 25 -16 29 -12 3 -21 0 -21 -6 0 -18 44 -77 58 -77 6 0 12 -7 12
-16 0 -13 -3 -14 -14 -5 -12 10 -13 8 -9 -9 4 -15 11 -20 24 -17 12 3 25 -3
34 -16 8 -11 18 -17 22 -13 4 4 1 11 -7 16 -14 9 -7 14 13 11 16 -2 6 39 -14
52 -17 12 -19 19 -10 35 12 23 7 29 -36 47 -36 15 -46 41 -13 30 34 -11 22 5
-15 21 -44 18 -55 18 -55 -1z"/>
<path d="M4750 3876 c0 -16 25 -56 34 -53 19 6 15 22 -9 40 -14 10 -25 16 -25
13z"/>
<path d="M4970 3820 c6 -11 13 -20 16 -20 2 0 0 9 -6 20 -6 11 -13 20 -16 20
-2 0 0 -9 6 -20z"/>
<path d="M4896 3806 c3 -9 11 -16 16 -16 13 0 5 23 -10 28 -7 2 -10 -2 -6 -12z"/>
<path d="M4940 3812 c0 -12 19 -26 26 -19 2 2 -2 10 -11 17 -9 8 -15 8 -15 2z"/>
<path d="M4804 3760 c3 -22 13 -52 21 -68 l16 -27 -6 30 c-5 24 -4 28 6 18 19
-19 36 -16 42 7 3 12 0 20 -7 20 -18 0 -66 24 -66 33 0 4 7 7 16 7 8 0 12 5 9
10 -3 6 -13 10 -21 10 -13 0 -15 -8 -10 -40z"/>
<path d="M4990 3780 c0 -5 5 -10 11 -10 5 0 7 5 4 10 -3 6 -8 10 -11 10 -2 0
-4 -4 -4 -10z"/>
<path d="M5056 3766 c20 -27 37 -35 28 -13 -2 7 -14 18 -25 25 -21 13 -21 13
-3 -12z"/>
<path d="M4882 3764 c2 -11 13 -20 26 -22 12 -2 22 -10 22 -17 0 -9 -6 -12
-17 -9 -14 5 -15 4 -4 -4 8 -6 11 -18 6 -31 -4 -12 -2 -21 4 -21 6 0 11 -5 11
-12 0 -9 -3 -9 -12 0 -18 18 -28 15 -28 -8 0 -23 4 -24 30 -10 15 8 24 6 42
-12 15 -15 20 -17 15 -5 -5 13 -1 17 18 17 14 0 25 -5 25 -12 0 -6 3 -8 6 -5
10 10 -16 36 -30 31 -8 -3 -16 2 -19 10 -4 9 -13 16 -22 16 -17 0 -20 16 -4
26 6 3 15 0 20 -7 4 -8 14 -15 21 -15 7 -1 16 -3 21 -4 4 -1 11 -3 15 -4 5 0
16 -9 26 -18 15 -16 29 -20 53 -17 11 1 24 -31 17 -43 -4 -7 -3 -8 4 -4 18 11
14 31 -10 68 -15 21 -30 32 -40 30 -25 -5 -23 15 2 23 22 7 43 -2 35 -15 -3
-4 1 -12 8 -18 9 -8 12 -4 12 13 0 13 -3 21 -7 18 -5 -2 -8 1 -8 6 0 6 6 11
13 12 6 0 3 4 -8 8 -12 5 -24 3 -33 -5 -7 -7 -19 -11 -28 -7 -8 3 -14 2 -13
-3 3 -19 -2 -34 -11 -34 -6 0 -10 8 -8 18 2 9 -3 16 -9 15 -7 -2 -12 0 -11 5
3 13 -14 42 -25 42 -7 0 -7 -4 1 -12 19 -19 14 -33 -14 -36 -18 -1 -27 4 -31
16 -2 10 -18 27 -35 36 -29 18 -30 18 -26 0z m88 -120 c0 -8 -5 -12 -10 -9 -6
4 -8 11 -5 16 9 14 15 11 15 -7z"/>
<path d="M4950 3769 c0 -8 7 -24 15 -35 19 -25 19 -14 0 22 -8 16 -15 22 -15
13z"/>
<path d="M5024 3745 c10 -8 24 -11 29 -8 6 4 2 10 -9 14 -31 12 -40 9 -20 -6z"/>
<path d="M4855 3668 c6 -17 4 -20 -9 -15 -9 4 -23 10 -31 13 -11 4 -13 2 -9
-9 3 -8 21 -17 40 -19 30 -4 35 -1 31 14 -3 10 0 18 6 18 7 0 5 5 -3 10 -24
15 -32 12 -25 -12z"/>
<path d="M4695 3660 c3 -5 8 -10 11 -10 2 0 4 5 4 10 0 6 -5 10 -11 10 -5 0
-7 -4 -4 -10z"/>
<path d="M5045 3611 c-4 -12 -12 -18 -21 -14 -7 3 -14 0 -14 -6 0 -6 5 -11 10
-11 6 0 10 -7 10 -15 0 -8 4 -15 9 -15 5 0 7 9 4 20 -7 27 11 25 30 -2 9 -13
16 -18 16 -11 1 7 -9 22 -21 33 l-23 21 30 -7 c33 -7 32 -3 -2 15 -18 9 -23 8
-28 -8z"/>
<path d="M5152 3608 c2 -6 10 -14 16 -16 7 -2 10 2 6 12 -7 18 -28 22 -22 4z"/>
<path d="M4813 3575 c0 -8 4 -15 9 -15 4 0 8 7 8 15 0 8 -4 15 -8 15 -5 0 -9
-7 -9 -15z"/>
<path d="M4731 3549 c-1 -41 22 -70 41 -51 13 13 2 32 -18 32 -9 0 -14 6 -11
13 2 6 10 11 16 9 7 -1 10 2 6 8 -3 6 -10 8 -15 5 -4 -3 -11 1 -13 7 -3 7 -6
-3 -6 -23z m39 -39 c0 -5 -5 -10 -11 -10 -5 0 -7 5 -4 10 3 6 8 10 11 10 2 0
4 -4 4 -10z"/>
<path d="M5105 3560 c3 -5 15 -10 26 -10 11 0 17 5 14 10 -3 6 -15 10 -26 10
-11 0 -17 -4 -14 -10z"/>
<path d="M5008 3524 c-3 -11 1 -29 8 -39 19 -26 23 -16 9 25 -10 29 -12 31
-17 14z"/>
<path d="M5076 3517 c3 -10 9 -15 12 -12 3 3 0 11 -7 18 -10 9 -11 8 -5 -6z"/>
<path d="M4935 3478 c1 -12 6 -23 12 -25 6 -2 8 7 6 22 -6 31 -20 33 -18 3z"/>
<path d="M4341 3901 c-10 -6 -8 -10 5 -15 16 -6 16 -8 4 -16 -13 -8 -12 -10 3
-10 10 0 17 8 17 19 0 24 -11 32 -29 22z"/>
<path d="M4385 3730 c3 -5 8 -10 11 -10 2 0 4 5 4 10 0 6 -5 10 -11 10 -5 0
-7 -4 -4 -10z"/>
<path d="M3149 3508 c15 -20 41 -24 41 -7 0 6 -6 9 -14 6 -7 -3 -20 0 -27 6
-11 10 -11 9 0 -5z"/>
<path d="M2888 3503 c6 -2 18 -2 25 0 6 3 1 5 -13 5 -14 0 -19 -2 -12 -5z"/>
<path d="M6210 3033 c0 -6 8 -17 18 -24 16 -13 16 -13 2 6 -8 11 -16 22 -17
24 -2 2 -3 0 -3 -6z"/>
<path d="M6440 2920 c0 -5 5 -10 10 -10 6 0 10 5 10 10 0 6 -4 10 -10 10 -5 0
-10 -4 -10 -10z"/>
<path d="M6364 2874 c3 -9 6 -20 6 -25 0 -6 5 -7 10 -4 16 10 12 45 -6 45 -11
0 -14 -5 -10 -16z"/>
<path d="M6260 2828 c0 -13 7 -33 16 -44 14 -18 15 -18 9 6 -6 24 -5 24 9 6 9
-11 16 -24 16 -29 0 -4 5 -5 11 -1 7 4 7 9 2 13 -6 3 -16 19 -24 35 -18 38
-39 45 -39 14z"/>
<path d="M6228 2703 c7 -3 16 -2 19 1 4 3 -2 6 -13 5 -11 0 -14 -3 -6 -6z"/>
<path d="M4140 1696 c0 -2 7 -7 16 -10 8 -3 12 -2 9 4 -6 10 -25 14 -25 6z"/>
<path d="M1617 1001 c-4 -17 -3 -21 5 -13 5 5 8 16 6 23 -3 8 -7 3 -11 -10z"/>
<path d="M1411 994 c0 -11 3 -14 6 -6 3 7 2 16 -1 19 -3 4 -6 -2 -5 -13z"/>
<path d="M1335 940 c-3 -5 1 -10 10 -10 9 0 13 5 10 10 -3 6 -8 10 -10 10 -2
0 -7 -4 -10 -10z"/>
<path d="M1121 806 c-16 -19 -11 -29 8 -17 7 5 12 14 9 21 -3 9 -8 7 -17 -4z"/>
<path d="M1504 774 c2 -16 5 -42 5 -59 1 -23 3 -27 11 -15 9 13 11 13 20 0 6
-8 9 -29 8 -45 -3 -47 6 -54 63 -50 66 6 75 12 51 39 -10 11 -24 35 -31 53
-15 38 -37 58 -73 67 -15 3 -34 13 -43 22 -15 15 -16 14 -11 -12z"/>
<path d="M890 465 c0 -8 2 -15 4 -15 2 0 6 7 10 15 3 8 1 15 -4 15 -6 0 -10
-7 -10 -15z"/>
<path d="M4740 346 c0 -18 58 -32 72 -18 16 16 0 36 -17 22 -10 -8 -19 -8 -34
0 -17 8 -21 8 -21 -4z"/>
<path d="M3530 2860 c0 -5 4 -10 9 -10 6 0 13 5 16 10 3 6 -1 10 -9 10 -9 0
-16 -4 -16 -10z"/>
<path d="M3872 2849 c5 -14 55 -21 63 -9 2 4 -1 7 -8 7 -7 0 -23 3 -36 7 -17
6 -22 5 -19 -5z"/>
<path d="M3577 2810 c-3 -11 -2 -20 3 -20 12 0 21 28 11 35 -5 2 -11 -4 -14
-15z"/>
<path d="M3592 2761 c-10 -6 -8 -10 10 -15 21 -6 22 -7 5 -17 -13 -8 -22 -7
-33 1 -11 10 -14 9 -14 -4 0 -13 7 -17 33 -14 27 2 33 8 35 31 3 28 -10 35
-36 18z"/>
<path d="M2583 2659 c-18 -5 -35 -14 -38 -19 -8 -14 8 -13 22 1 20 20 91 16
108 -6 16 -20 16 -20 6 1 -16 34 -40 40 -98 23z"/>
<path d="M1210 2594 c0 -7 8 -10 20 -7 11 3 20 8 20 12 0 4 -9 7 -20 7 -11 0
-20 -6 -20 -12z"/>
<path d="M2692 2575 c0 -16 2 -22 5 -12 2 9 2 23 0 30 -3 6 -5 -1 -5 -18z"/>
<path d="M2740 2585 c7 -8 16 -12 21 -9 13 8 1 24 -18 24 -13 0 -13 -3 -3 -15z"/>
<path d="M2840 2581 c-6 -12 -7 -21 -1 -21 10 0 24 30 17 37 -2 3 -9 -5 -16
-16z"/>
<path d="M2620 2586 c0 -2 8 -10 18 -17 15 -13 16 -12 3 4 -13 16 -21 21 -21
13z"/>
<path d="M831 2559 c-15 -26 -6 -38 14 -18 8 8 11 19 7 26 -6 9 -11 6 -21 -8z"/>
<path d="M720 2550 c0 -21 15 -23 36 -5 9 7 9 12 0 17 -20 14 -36 8 -36 -12z"/>
<path d="M1220 2537 c0 -19 19 -26 53 -20 34 7 36 23 3 23 -13 0 -31 3 -40 6
-10 4 -16 1 -16 -9z"/>
<path d="M2662 2520 c0 -14 2 -19 5 -12 2 6 2 18 0 25 -3 6 -5 1 -5 -13z"/>
<path d="M670 2520 c0 -5 -13 -21 -28 -35 -20 -18 -29 -36 -30 -60 -1 -19 3
-35 8 -35 14 0 30 35 30 64 0 16 6 26 15 26 8 0 15 4 15 9 0 5 3 16 6 25 3 9
1 16 -5 16 -6 0 -11 -4 -11 -10z"/>
<path d="M900 2516 c-6 -8 -8 -26 -4 -42 5 -19 4 -25 -5 -20 -6 4 -11 2 -11
-4 0 -6 -5 -8 -12 -4 -6 4 -17 -1 -25 -11 -12 -17 -13 -17 -13 11 -1 27 -1 28
-15 10 -9 -11 -12 -29 -9 -43 5 -17 2 -23 -7 -21 -8 2 -17 8 -21 13 -4 6 -8 1
-8 -10 -1 -20 -1 -20 -15 -1 -8 11 -16 36 -16 55 l-2 36 -6 -40 c-4 -22 -3
-44 1 -49 14 -17 9 -26 -9 -19 -10 3 -15 3 -11 -2 10 -11 -10 -35 -29 -35 -10
0 -12 6 -7 22 6 20 5 21 -9 10 -11 -10 -17 -10 -22 -1 -11 17 -28 -17 -20 -41
4 -11 2 -20 -4 -20 -5 0 -11 10 -13 23 -3 22 -3 22 -22 3 -16 -16 -16 -18 -3
-13 11 4 17 1 17 -8 0 -8 -15 -19 -32 -24 -31 -9 -30 -9 14 -7 31 2 62 13 88
30 22 14 45 26 53 26 7 0 23 7 35 16 12 8 22 12 22 9 0 -3 10 0 23 6 12 7 33
14 47 15 13 2 29 9 35 16 5 7 17 13 25 13 20 0 31 87 14 103 -9 8 -15 8 -24
-2z m-43 -98 c-3 -8 -6 -5 -6 6 -1 11 2 17 5 13 3 -3 4 -12 1 -19z"/>
<path d="M1057 2516 c-3 -7 -2 -18 3 -25 6 -10 14 -9 36 4 16 9 21 14 12 11
-10 -3 -18 -1 -18 3 0 15 -28 21 -33 7z"/>
<path d="M980 2510 c0 -5 5 -10 10 -10 6 0 10 5 10 10 0 6 -4 10 -10 10 -5 0
-10 -4 -10 -10z"/>
<path d="M1953 2502 c-28 -10 -55 -20 -59 -24 -7 -8 78 15 119 32 37 15 -5 9
-60 -8z"/>
<path d="M5974 2478 l-19 -23 23 19 c12 11 22 21 22 23 0 8 -8 2 -26 -19z"/>
<path d="M1666 2468 c-16 -22 -15 -35 2 -24 9 5 24 46 17 46 -2 0 -11 -10 -19
-22z"/>
<path d="M995 2469 c7 -11 35 -12 35 -1 0 4 -9 8 -20 9 -11 1 -18 -2 -15 -8z"/>
<path d="M960 2455 c0 -8 4 -15 10 -15 5 0 7 7 4 15 -4 8 -8 15 -10 15 -2 0
-4 -7 -4 -15z"/>
<path d="M5985 2419 c-16 -16 -27 -29 -24 -29 10 0 64 49 59 53 -3 3 -18 -8
-35 -24z"/>
<path d="M1358 2323 c7 -3 16 -2 19 1 4 3 -2 6 -13 5 -11 0 -14 -3 -6 -6z"/>
<path d="M5844 2294 c-18 -14 -18 -15 4 -4 12 6 22 13 22 15 0 8 -5 6 -26 -11z"/>
<path d="M5716 2288 c3 -4 15 -8 26 -8 12 0 18 3 14 7 -10 10 -46 11 -40 1z"/>
<path d="M5635 2280 c27 -12 35 -12 35 0 0 6 -12 10 -27 9 -25 0 -26 -1 -8 -9z"/>
<path d="M5797 2274 c7 -3 9 -13 6 -22 -5 -13 -3 -14 7 -5 14 13 5 33 -13 32
-9 0 -9 -2 0 -5z"/>
<path d="M0 2234 c0 -13 6 -15 28 -9 15 5 35 8 45 9 9 0 17 4 17 8 0 4 -20 8
-45 8 -35 0 -45 -4 -45 -16z"/>
<path d="M5754 2208 c-6 -12 -17 -35 -24 -50 -8 -16 -10 -31 -7 -35 8 -8 50
84 45 98 -2 6 -9 0 -14 -13z"/>
<path d="M40 2195 c-29 -10 -36 -18 -38 -44 -3 -26 0 -30 14 -24 12 4 15 3 10
-5 -4 -7 -2 -12 6 -12 7 0 56 -5 108 -11 180 -20 216 -12 285 62 l30 31 -171
-7 c-149 -6 -173 -4 -187 9 -8 9 -17 15 -19 15 -2 -1 -19 -7 -38 -14z"/>
<path d="M240 2070 c-12 -8 -10 -10 8 -10 13 0 20 4 17 10 -7 12 -6 12 -25 0z"/>
<path d="M372 2049 c-18 -16 -32 -33 -32 -39 0 -5 -4 -10 -10 -10 -5 0 -24
-15 -43 -33 -18 -19 -42 -39 -53 -45 -17 -10 -17 -11 -1 -12 9 0 17 -4 17 -9
0 -6 15 -11 32 -13 26 -2 36 -10 48 -35 12 -26 18 -30 33 -22 20 12 23 34 3
26 -9 -4 -13 3 -12 24 1 27 16 43 16 18 0 -7 7 -17 16 -23 13 -10 14 -19 6
-47 -10 -37 -5 -96 9 -105 5 -3 9 0 9 7 0 7 2 10 5 7 7 -7 -5 -38 -15 -38 -10
0 -60 87 -60 104 0 6 -4 17 -9 25 -7 12 -14 10 -36 -8 -15 -11 -36 -21 -46
-21 -11 0 -19 -5 -19 -10 0 -6 -6 -10 -13 -8 -7 2 -14 -1 -17 -7 -5 -14 139
-89 225 -116 39 -13 94 -24 122 -24 29 -1 56 -5 59 -8 4 -4 16 -4 28 -1 12 3
39 -3 61 -12 22 -10 47 -17 56 -15 9 1 22 -5 29 -14 7 -8 19 -15 26 -15 7 0
11 -6 8 -14 -3 -7 -14 -11 -28 -9 -16 3 -25 -1 -30 -14 -6 -14 -5 -16 5 -5 15
14 39 16 39 2 0 -5 -7 -10 -15 -10 -7 0 -18 -6 -22 -12 -12 -19 -37 -16 -48 6
-14 26 -72 31 -99 9 -51 -44 -63 -46 -133 -22 -36 12 -109 50 -161 85 -52 35
-97 64 -100 64 -2 0 -16 9 -32 20 -15 11 -30 17 -33 13 -4 -3 -18 2 -31 11
-14 9 -34 16 -44 16 -11 0 -25 7 -32 15 -21 26 -50 19 -50 -12 0 -33 -2 -31
230 -149 168 -85 251 -114 327 -114 29 0 45 -5 53 -17 11 -17 11 -17 6 0 -8
25 29 23 47 -3 10 -15 29 -22 73 -26 32 -3 67 -7 76 -8 9 -1 31 -17 49 -34 33
-32 49 -40 49 -23 0 4 11 6 25 3 22 -4 25 -1 25 22 0 24 -2 25 -20 14 -17 -11
-22 -10 -30 2 -5 8 -8 21 -5 28 6 16 -1 15 -29 -4 -30 -19 -39 -8 -38 52 1 34
-2 42 -13 37 -8 -3 -15 -9 -15 -13 0 -4 -7 -10 -15 -14 -18 -7 -11 10 29 63
14 19 26 41 26 49 0 22 26 41 49 35 20 -5 21 -3 11 22 -7 18 -7 32 -1 38 5 5
7 16 4 23 -4 12 -8 12 -21 2 -13 -11 -15 -10 -9 4 3 10 2 20 -2 23 -5 3 -12
-2 -15 -11 -10 -25 -7 -34 9 -34 8 0 15 -5 15 -11 0 -6 -7 -9 -15 -6 -8 4 -17
2 -20 -3 -4 -6 1 -10 9 -10 14 0 14 -3 -1 -18 -10 -10 -19 -15 -21 -11 -4 9
-42 -1 -42 -11 0 -7 -22 -7 -40 0 -3 1 -14 1 -25 0 -17 -2 -18 0 -5 16 8 9 15
24 16 33 1 9 2 29 3 44 1 23 5 27 20 22 29 -9 34 10 6 23 -17 8 -25 8 -25 1 0
-6 -4 -8 -9 -5 -4 3 -6 -5 -4 -18 3 -13 0 -27 -7 -31 -16 -10 -26 3 -13 16 12
12 6 49 -8 49 -5 0 -9 4 -9 9 0 5 7 8 16 7 9 0 19 5 21 12 9 23 -25 12 -46
-15 -18 -25 -20 -26 -21 -8 0 14 -7 21 -20 21 -11 0 -20 -7 -20 -15 0 -8 3
-11 7 -8 3 4 16 -1 27 -12 12 -10 30 -21 41 -23 19 -4 19 -5 -4 -17 -21 -11
-25 -11 -33 3 -5 9 -18 16 -28 16 -10 0 -22 5 -25 10 -4 6 -9 8 -13 6 -12 -7
-38 18 -45 44 l-6 25 16 -22 c21 -32 37 -29 17 2 -13 20 -14 31 -6 49 14 32 0
55 -24 35 -16 -12 -17 -12 -12 1 3 8 9 24 13 35 6 19 6 19 -7 1 -7 -11 -20
-27 -30 -37 -9 -9 -14 -19 -12 -22 2 -2 -2 -10 -11 -17 -8 -7 -15 -21 -15 -30
0 -10 -5 -20 -10 -22 -9 -3 -15 -32 -19 -90 -1 -5 -5 -8 -11 -8 -13 0 -1 87
17 123 8 16 12 35 9 43 -3 7 0 13 6 11 6 -1 22 13 35 32 24 35 30 57 14 46 -5
-3 -12 -1 -16 5 -4 6 -10 8 -15 5 -5 -3 3 15 16 40 30 52 12 65 -21 15 -11
-16 -26 -29 -34 -27 -8 1 -16 -4 -18 -10 -3 -7 0 -13 5 -13 6 0 2 -17 -8 -37
-15 -30 -16 -40 -7 -48 8 -6 10 -21 6 -40 -6 -25 -7 -26 -8 -7 0 13 -10 37
-22 53 -20 29 -19 49 4 49 7 0 6 -4 -3 -10 -13 -8 -12 -10 3 -10 19 0 21 8 8
29 -5 7 -13 11 -19 7 -22 -13 -23 16 -2 49 12 19 18 40 14 46 -4 7 -3 9 4 5
15 -9 22 7 8 20 -9 8 -20 4 -44 -17z m-7 -75 c-34 -64 -41 -69 -19 -14 18 47
34 73 41 67 2 -3 -8 -26 -22 -53z m145 -38 c0 -3 -4 -8 -10 -11 -5 -3 -10 -1
-10 4 0 6 5 11 10 11 6 0 10 -2 10 -4z m21 -99 c-10 -9 -11 -8 -5 6 3 10 9 15
12 12 3 -3 0 -11 -7 -18z m-14 -39 c-3 -8 -6 -5 -6 6 -1 11 2 17 5 13 3 -3 4
-12 1 -19z m49 -71 c4 -4 -2 -7 -14 -7 -12 0 -22 -6 -22 -12 0 -9 -3 -8 -9 2
-6 8 -8 17 -6 20 5 8 42 6 51 -3z m23 -31 c-5 -6 -9 -19 -9 -30 -1 -20 -1 -20
-11 -3 -7 12 -17 16 -30 12 -19 -6 -19 -6 -3 13 9 11 27 19 40 18 14 0 19 -5
13 -10z m80 -50 c-9 -8 -10 -7 -5 7 3 10 7 24 7 30 1 7 3 4 6 -7 3 -10 -1 -23
-8 -30z m51 27 c0 -5 -5 -15 -10 -23 -8 -12 -10 -11 -10 8 0 12 5 22 10 22 6
0 10 -3 10 -7z m-80 -13 c0 -5 -4 -10 -10 -10 -5 0 -10 5 -10 10 0 6 5 10 10
10 6 0 10 -4 10 -10z m25 -140 c11 -17 -5 -32 -21 -19 -7 6 -11 15 -8 20 7 12
21 11 29 -1z m43 -11 c-2 -6 -8 -10 -13 -10 -5 0 -11 4 -13 10 -2 6 4 11 13
11 9 0 15 -5 13 -11z"/>
<path d="M530 2065 c-7 -8 -9 -15 -6 -15 4 0 14 7 22 15 9 8 11 15 6 15 -5 0
-15 -7 -22 -15z"/>
<path d="M5410 2010 c-12 -9 -11 -10 6 -5 15 4 32 -4 57 -26 37 -32 41 -53 9
-42 -14 5 -15 3 -4 -8 10 -11 14 -11 26 1 19 21 27 52 17 69 -11 17 -91 25
-111 11z"/>
<path d="M3534 1960 c16 -19 37 -38 48 -42 27 -11 15 5 -35 44 l-42 33 29 -35z"/>
<path d="M5700 1985 c0 -3 7 -14 16 -23 15 -14 16 -14 13 3 -4 17 -29 35 -29
20z"/>
<path d="M722 1935 c-9 -19 -8 -23 3 -19 17 7 27 31 16 38 -4 3 -13 -6 -19
-19z"/>
<path d="M3250 1930 c6 -11 13 -20 16 -20 2 0 0 9 -6 20 -6 11 -13 20 -16 20
-2 0 0 -9 6 -20z"/>
<path d="M5741 1934 c0 -11 3 -14 6 -6 3 7 2 16 -1 19 -3 4 -6 -2 -5 -13z"/>
<path d="M588 1933 c7 -3 16 -2 19 1 4 3 -2 6 -13 5 -11 0 -14 -3 -6 -6z"/>
<path d="M24 1901 c23 -23 26 -23 70 -10 58 17 48 26 -31 31 l-63 3 24 -24z"/>
<path d="M5750 1906 c0 -2 7 -7 16 -10 8 -3 12 -2 9 4 -6 10 -25 14 -25 6z"/>
<path d="M5797 1889 c7 -7 15 -10 18 -7 3 3 -2 9 -12 12 -14 6 -15 5 -6 -5z"/>
<path d="M5909 1885 c42 -19 50 -19 25 0 -10 8 -28 14 -39 14 -14 0 -10 -4 14
-14z"/>
<path d="M5826 1865 c-3 -9 0 -15 9 -15 16 0 20 16 6 24 -5 3 -11 -1 -15 -9z"/>
<path d="M583 1835 c-7 -20 1 -28 30 -32 22 -3 22 -3 2 13 -11 8 -19 20 -17
25 4 15 -8 10 -15 -6z"/>
<path d="M5799 1845 c-3 -3 15 -27 40 -53 26 -26 69 -72 95 -102 27 -30 46
-50 42 -43 -3 6 -2 14 4 18 5 3 -20 33 -55 67 -36 33 -68 71 -71 84 -3 13 -10
24 -14 24 -5 0 -15 2 -22 5 -8 3 -16 3 -19 0z"/>
<path d="M5975 1820 c4 -11 8 -32 9 -47 2 -15 9 -29 17 -31 8 -2 26 -18 41
-36 15 -17 28 -26 28 -20 0 6 -7 17 -15 24 -8 7 -12 16 -9 21 3 5 -2 12 -10
15 -9 3 -16 12 -16 19 0 18 -33 75 -43 75 -5 0 -5 -9 -2 -20z"/>
<path d="M6045 1830 c3 -5 11 -10 16 -10 6 0 7 5 4 10 -3 6 -11 10 -16 10 -6
0 -7 -4 -4 -10z"/>
<path d="M926 1782 c7 -4 14 -18 17 -32 4 -21 4 -20 6 8 1 24 -3 32 -16 32
-12 0 -14 -3 -7 -8z"/>
<path d="M790 1764 c0 -8 5 -12 10 -9 6 3 10 10 10 16 0 5 -4 9 -10 9 -5 0
-10 -7 -10 -16z"/>
<path d="M860 1770 c13 -9 7 -14 -12 -11 -4 0 -5 -6 -1 -14 4 -12 9 -13 19 -4
20 16 17 39 -3 39 -15 0 -16 -2 -3 -10z"/>
<path d="M768 1683 c-19 -5 -25 -23 -7 -23 6 0 20 5 31 11 19 10 20 9 16 -15
-4 -20 -2 -26 9 -24 8 2 14 8 14 13 1 6 5 15 10 22 6 6 6 13 2 15 -11 6 -54 6
-75 1z"/>
<path d="M1139 1617 c-15 -12 -30 -35 -34 -52 -7 -35 -64 -76 -93 -68 -15 3
-21 -2 -24 -21 -3 -14 -2 -24 1 -23 3 2 18 9 33 16 20 10 34 11 56 3 30 -10
30 -10 27 24 -4 39 7 51 25 28 11 -12 15 -12 21 -2 13 20 10 38 -6 38 -8 0
-15 5 -15 10 0 6 6 10 14 10 12 0 32 47 24 55 -2 2 -15 -7 -29 -18z"/>
<path d="M1370 1625 c0 -8 4 -15 8 -15 5 0 9 7 9 15 0 8 -4 15 -9 15 -4 0 -8
-7 -8 -15z"/>
<path d="M1006 1615 c3 -7 -6 -15 -21 -19 -36 -9 -65 -41 -65 -72 0 -23 3 -25
27 -19 35 8 54 34 47 64 -4 19 -2 22 12 17 18 -7 44 10 44 29 0 7 -11 13 -24
13 -15 0 -23 -5 -20 -13z"/>
<path d="M6015 1610 c3 -5 8 -10 11 -10 2 0 4 5 4 10 0 6 -5 10 -11 10 -5 0
-7 -4 -4 -10z"/>
<path d="M646 1590 c7 -28 12 -35 18 -29 2 2 -2 15 -10 29 l-15 25 7 -25z"/>
<path d="M6037 1573 c-13 -12 -7 -19 19 -21 22 -2 25 0 14 13 -14 16 -23 19
-33 8z"/>
<path d="M6006 1518 c-3 -10 -8 -25 -11 -33 -6 -20 24 -32 36 -14 12 19 11 22
-5 45 -14 18 -15 18 -20 2z"/>
<path d="M4470 1453 c0 -4 5 -15 10 -23 8 -13 10 -13 10 2 0 9 -4 20 -10 23
-5 3 -10 3 -10 -2z"/>
<path d="M858 1433 c7 -3 16 -2 19 1 4 3 -2 6 -13 5 -11 0 -14 -3 -6 -6z"/>
<path d="M1472 1429 c-28 -11 -20 -29 14 -29 28 0 33 -17 7 -22 -12 -3 -9 -6
10 -10 36 -7 45 12 20 46 -20 28 -19 28 -51 15z"/>
<path d="M4266 1424 c-9 -22 -8 -24 9 -24 8 0 15 9 15 20 0 24 -15 27 -24 4z"/>
<path d="M4616 1421 c-4 -7 -5 -15 -2 -18 9 -9 19 4 14 18 -4 11 -6 11 -12 0z"/>
<path d="M1600 1387 c0 -7 16 -21 35 -31 27 -15 38 -17 47 -8 9 9 6 12 -14 12
-17 0 -27 7 -31 20 -6 22 -37 28 -37 7z"/>
<path d="M5986 1335 c-18 -62 -18 -67 -1 -130 10 -36 22 -65 26 -65 5 0 6 7 2
15 -3 9 1 23 8 33 33 41 38 59 28 98 -23 86 -32 114 -38 114 -4 0 -15 -29 -25
-65z"/>
<path d="M641 1361 c-10 -6 -10 -10 -1 -16 13 -8 24 -1 19 14 -3 6 -10 7 -18
2z"/>
<path d="M1607 1339 c4 -13 8 -18 11 -10 2 7 -1 18 -6 23 -8 8 -9 4 -5 -13z"/>
<path d="M6055 1340 c3 -5 8 -10 11 -10 2 0 4 5 4 10 0 6 -5 10 -11 10 -5 0
-7 -4 -4 -10z"/>
<path d="M1570 1334 c0 -10 52 -56 57 -51 2 3 -7 17 -20 31 -24 25 -37 32 -37
20z"/>
<path d="M1068 1305 c-3 -14 -1 -25 3 -25 5 0 9 11 9 25 0 14 -2 25 -4 25 -2
0 -6 -11 -8 -25z"/>
<path d="M1429 1307 c-21 -33 -29 -57 -19 -57 6 0 10 5 10 10 0 6 8 10 19 10
10 0 24 7 31 15 9 11 16 13 24 5 15 -15 26 -12 20 5 -4 11 0 15 17 15 39 0 15
9 -37 14 -43 4 -52 1 -65 -17z"/>
<path d="M1891 1321 c-10 -6 -10 -10 -1 -16 13 -8 24 -1 19 14 -3 6 -10 7 -18
2z"/>
<path d="M800 1310 c0 -5 6 -10 14 -10 8 0 18 5 21 10 3 6 -3 10 -14 10 -12 0
-21 -4 -21 -10z"/>
<path d="M930 1310 c-9 -6 -10 -10 -3 -10 6 0 15 5 18 10 8 12 4 12 -15 0z"/>
<path d="M4336 1254 c-3 -9 -6 -23 -6 -32 0 -9 -16 -32 -35 -51 -39 -38 -40
-41 -22 -63 20 -27 69 -32 93 -10 32 30 24 152 -11 166 -7 2 -16 -2 -19 -10z
m7 -86 c-6 -7 -13 -26 -17 -41 -8 -34 -26 -26 -26 12 0 33 7 41 33 41 14 0 17
-3 10 -12z"/>
<path d="M4860 1235 c0 -8 4 -15 10 -15 5 0 7 7 4 15 -4 8 -8 15 -10 15 -2 0
-4 -7 -4 -15z"/>
<path d="M4172 1224 c1 -9 9 -19 16 -22 9 -3 13 2 10 14 -1 9 -9 19 -16 22 -9
3 -13 -2 -10 -14z"/>
<path d="M5226 1225 c-17 -13 -17 -14 4 -25 27 -14 43 -1 26 21 -10 14 -14 15
-30 4z"/>
<path d="M5873 1213 c-13 -5 -18 -45 -7 -56 14 -13 34 7 34 34 0 29 -4 32 -27
22z"/>
<path d="M5277 1174 c3 -8 11 -14 19 -14 21 0 17 17 -5 23 -14 3 -18 1 -14 -9z"/>
<path d="M1293 1163 c-18 -7 -16 -23 2 -23 8 0 15 7 15 15 0 8 -1 15 -2 14 -2
0 -9 -3 -15 -6z"/>
<path d="M5430 1138 c0 -4 20 -27 44 -51 24 -25 47 -54 51 -66 10 -31 25 -26
25 10 0 25 -6 32 -34 44 -33 14 -53 45 -42 64 3 5 -5 8 -19 7 -14 0 -25 -4
-25 -8z"/>
<path d="M1160 1110 c0 -5 7 -10 16 -10 8 0 12 5 9 10 -3 6 -10 10 -16 10 -5
0 -9 -4 -9 -10z"/>
<path d="M1848 1103 c15 -6 6 -23 -11 -19 -7 1 -9 1 -4 -1 4 -3 5 -9 2 -13 -3
-5 -1 -11 5 -15 5 -3 10 0 10 9 0 8 5 16 12 18 14 5 1 28 -15 27 -9 0 -8 -2 1
-6z"/>
<path d="M6849 1103 c-6 -34 -5 -53 1 -53 11 0 19 50 9 56 -5 3 -10 2 -10 -3z"/>
<path d="M1222 1065 c0 -16 2 -22 5 -12 2 9 2 23 0 30 -3 6 -5 -1 -5 -18z"/>
<path d="M4237 1073 c-4 -3 -7 -11 -7 -17 0 -6 5 -5 12 2 6 6 9 14 7 17 -3 3
-9 2 -12 -2z"/>
<path d="M5580 1040 c0 -5 5 -10 11 -10 5 0 7 5 4 10 -3 6 -8 10 -11 10 -2 0
-4 -4 -4 -10z"/>
<path d="M2140 998 c0 -4 4 -8 9 -8 6 0 12 4 15 8 3 5 -1 9 -9 9 -8 0 -15 -4
-15 -9z"/>
<path d="M6881 871 c-8 -6 -9 -11 -3 -15 6 -3 14 -1 17 5 9 14 2 20 -14 10z"/>
<path d="M6919 863 c-13 -16 -12 -17 4 -4 9 7 17 15 17 17 0 8 -8 3 -21 -13z"/>
<path d="M4845 860 c-8 -14 16 -82 35 -97 18 -15 70 -17 70 -3 0 5 -9 14 -20
20 -11 6 -17 16 -14 25 4 8 -6 25 -23 39 -31 28 -39 31 -48 16z"/>
<path d="M4770 845 c0 -8 4 -15 10 -15 5 0 7 7 4 15 -4 8 -8 15 -10 15 -2 0
-4 -7 -4 -15z"/>
<path d="M5339 831 c13 -23 60 -36 74 -22 8 8 5 11 -10 11 -11 0 -26 7 -33 15
-19 23 -43 20 -31 -4z"/>
<path d="M5435 770 c-18 -8 -17 -9 8 -9 15 -1 27 4 27 9 0 12 -8 12 -35 0z"/>
<path d="M5291 724 c-23 -38 -22 -55 2 -36 8 7 16 9 20 6 3 -3 8 4 12 15 3 12
13 21 22 21 22 0 10 24 -14 28 -15 2 -27 -7 -42 -34z"/>
<path d="M6600 749 c0 -7 10 -9 28 -5 26 6 26 6 8 -9 -11 -8 -23 -15 -28 -15
-4 0 -8 -4 -8 -10 0 -19 30 -10 61 18 l32 29 -46 1 c-29 1 -47 -2 -47 -9z"/>
<path d="M5016 734 c-6 -16 9 -54 22 -54 5 0 16 6 27 13 23 18 11 40 -17 31
-17 -5 -20 -3 -15 10 4 9 2 16 -2 16 -5 0 -12 -7 -15 -16z"/>
<path d="M6578 681 c-4 -12 -114 -81 -129 -81 -6 0 -18 -8 -25 -17 -11 -16
-16 -16 -34 -5 -19 12 -21 11 -16 -5 4 -14 -3 -22 -33 -34 -35 -15 -39 -15
-50 0 -10 14 -11 13 -7 -6 3 -16 -1 -23 -12 -25 -10 0 -22 -2 -29 -2 -16 -2
-29 -16 -15 -16 7 0 12 -4 12 -8 0 -11 -57 -43 -72 -40 -7 2 -14 -7 -16 -20
-2 -12 -19 -35 -38 -50 -19 -15 -34 -33 -34 -40 0 -7 -10 -17 -22 -23 -13 -6
-49 -45 -80 -87 -32 -42 -77 -95 -100 -117 -24 -22 -56 -54 -71 -72 l-29 -33
116 0 c96 0 116 3 116 15 0 8 15 32 33 52 19 21 58 70 87 108 29 39 74 93 99
120 26 28 60 68 77 90 31 43 119 133 227 232 37 35 67 65 67 68 0 9 -18 6 -22
-4z m-508 -456 c7 -9 10 -19 6 -22 -8 -9 -38 9 -44 25 -5 17 23 15 38 -3z"/>
<path d="M5180 646 c0 -9 7 -12 19 -9 10 3 29 0 41 -7 28 -15 41 -3 16 16 -26
18 -76 19 -76 0z"/>
<path d="M5375 650 c-11 -17 5 -31 19 -17 14 12 12 27 -4 27 -5 0 -12 -4 -15
-10z"/>
<path d="M5840 560 c0 -5 5 -10 10 -10 6 0 10 5 10 10 0 6 -4 10 -10 10 -5 0
-10 -4 -10 -10z"/>
<path d="M5990 550 c0 -5 5 -10 10 -10 6 0 10 5 10 10 0 6 -4 10 -10 10 -5 0
-10 -4 -10 -10z"/>
<path d="M5776 406 c10 -8 21 -12 24 -10 5 6 -21 24 -34 24 -6 0 -1 -6 10 -14z"/>
<path d="M4650 10 c0 -5 7 -10 15 -10 8 0 15 5 15 10 0 6 -7 10 -15 10 -8 0
-15 -4 -15 -10z"/>
</g>
</svg>
