<?xml version="1.0" standalone="no"?>
<!DOCTYPE svg PUBLIC "-//W3C//DTD SVG 20010904//EN"
 "http://www.w3.org/TR/2001/REC-SVG-20010904/DTD/svg10.dtd">
<svg version="1.0" xmlns="http://www.w3.org/2000/svg"
 width="740.000000pt" height="493.000000pt" viewBox="0 0 740.000000 493.000000"
 preserveAspectRatio="xMidYMid meet">

<g transform="translate(0.000000,493.000000) scale(0.100000,-0.100000)"
fill="#000000" stroke="none">
<path d="M7357 4885 c20 -25 39 -45 40 -45 11 0 -2 25 -28 55 -46 51 -57 43
-12 -10z"/>
<path d="M3627 4543 c18 -2 50 -2 70 0 21 2 7 4 -32 4 -38 0 -55 -2 -38 -4z"/>
<path d="M3758 4533 c7 -3 16 -2 19 1 4 3 -2 6 -13 5 -11 0 -14 -3 -6 -6z"/>
<path d="M3805 4520 c27 -12 43 -12 25 0 -8 5 -22 9 -30 9 -10 0 -8 -3 5 -9z"/>
<path d="M3898 4480 c28 -17 83 -60 121 -95 38 -36 71 -65 74 -65 4 0 -25 29
-63 65 -68 64 -154 125 -174 125 -6 0 13 -14 42 -30z"/>
<path d="M3324 4464 c-18 -14 -18 -14 6 -3 31 14 36 19 24 19 -6 0 -19 -7 -30
-16z"/>
<path d="M3535 4464 l-40 -14 49 6 c33 4 46 2 41 -5 -3 -6 -24 -11 -47 -11
-41 0 -98 -31 -98 -53 0 -16 -77 -79 -84 -69 -6 10 42 92 55 92 5 0 9 5 9 10
0 33 -159 -101 -190 -160 l-13 -25 24 20 c13 11 29 27 36 35 10 13 12 12 8 -7
-2 -15 3 -28 16 -37 11 -7 19 -19 17 -26 -2 -7 2 -14 9 -17 7 -2 21 16 33 41
25 56 34 59 26 9 -6 -35 3 -66 18 -64 16 2 16 0 2 -21 -9 -12 -16 -31 -16 -41
0 -18 2 -17 35 3 29 18 41 20 77 12 24 -6 33 -10 21 -11 -12 -1 -38 -11 -59
-23 -20 -12 -44 -22 -53 -23 -17 -1 -21 -6 -21 -30 0 -12 5 -11 31 4 24 15 38
17 62 10 23 -6 37 -5 54 6 22 15 23 14 23 -8 0 -13 -5 -28 -12 -35 -6 -6 -13
-18 -14 -26 -3 -21 54 -9 84 17 16 15 22 32 22 64 0 26 5 43 12 43 6 0 -21 17
-61 37 -46 24 -67 39 -57 43 11 3 13 9 6 20 -5 8 -10 18 -10 22 0 12 57 38 85
38 14 0 25 5 25 10 0 6 11 8 26 4 17 -4 29 -2 35 7 6 9 11 11 17 3 10 -15 166
-55 234 -61 48 -4 61 -1 87 18 17 13 31 28 31 35 0 29 -134 105 -250 142 -85
27 -231 35 -285 16z m252 -20 c-3 -3 -12 -4 -19 -1 -8 3 -5 6 6 6 11 1 17 -2
13 -5z m-297 -39 c0 -2 -10 -9 -22 -15 -22 -11 -22 -10 -4 4 21 17 26 19 26
11z m-50 -235 c-6 -11 -16 -20 -22 -20 -6 0 -3 9 7 20 10 11 20 20 22 20 2 0
-1 -9 -7 -20z"/>
<path d="M3270 4433 c-44 -29 -81 -67 -96 -98 l-14 -30 17 25 c23 33 61 70 98
97 35 26 31 31 -5 6z"/>
<path d="M4131 4271 c27 -37 29 -37 22 -11 -3 11 -14 25 -25 31 -18 10 -18 8
3 -20z"/>
<path d="M3805 4165 c-27 -8 -53 -14 -57 -15 -17 -1 -8 -98 12 -122 22 -29 80
-42 125 -29 28 9 29 9 5 10 -18 1 -21 4 -11 10 10 6 1 11 -28 16 -31 5 -41 11
-41 26 0 22 15 25 23 5 3 -8 26 -16 54 -19 26 -3 64 -8 83 -12 23 -4 30 -3 21
3 -11 8 -11 10 0 14 11 4 10 9 -4 23 -14 13 -21 15 -26 6 -6 -9 -21 -5 -60 13
-45 20 -50 25 -32 31 12 3 21 11 21 16 0 12 56 -17 64 -33 5 -10 7 -10 12 0 3
6 10 10 15 7 5 -4 6 1 3 9 -3 9 -9 14 -13 11 -4 -2 -24 7 -44 20 -41 28 -52
29 -122 10z"/>
<path d="M3201 4027 c-12 -12 -14 -40 -5 -87 8 -37 24 -22 24 24 0 25 3 28 24
24 22 -4 23 -3 14 18 -12 26 -41 37 -57 21z"/>
<path d="M4113 3988 c-23 -29 -23 -36 -2 -31 25 7 38 -11 39 -52 1 -30 1 -30
11 -5 6 13 9 40 7 60 -2 27 -8 36 -24 38 -11 2 -25 -3 -31 -10z"/>
<path d="M3249 3926 c-16 -37 -18 -50 -9 -62 7 -8 16 -14 20 -14 8 0 22 112
15 119 -3 2 -14 -17 -26 -43z"/>
<path d="M4084 3903 c3 -21 6 -48 6 -60 0 -14 6 -23 15 -23 19 0 20 40 1 85
-20 46 -30 44 -22 -2z"/>
<path d="M5046 3708 c3 -4 -2 -8 -10 -8 -34 0 -14 -20 22 -21 l37 -2 -40 -6
-39 -6 26 -12 c15 -7 28 -22 30 -34 3 -23 75 -69 108 -69 9 0 20 -4 26 -8 5
-5 28 -15 52 -22 52 -16 65 -5 56 50 -9 57 -12 61 -36 55 -19 -5 -25 0 -36 26
-8 24 -9 35 -1 40 19 11 -4 16 -68 14 -35 -1 -63 1 -63 5 0 3 -15 6 -34 6 -19
0 -32 -4 -30 -8z m94 -37 c0 -17 -18 -21 -24 -6 -3 9 0 15 9 15 8 0 15 -4 15
-9z"/>
<path d="M5278 3693 c6 -2 18 -2 25 0 6 3 1 5 -13 5 -14 0 -19 -2 -12 -5z"/>
<path d="M5370 3691 c8 -6 11 -11 5 -11 -5 0 -11 -25 -12 -57 -1 -31 -7 -61
-12 -66 -15 -15 -13 -37 3 -37 8 0 16 -7 20 -15 8 -21 58 -19 83 4 11 11 36
21 54 23 32 3 34 2 34 -30 0 -22 7 -39 19 -48 28 -20 35 -18 47 13 l10 27 25
-29 c13 -17 31 -42 39 -57 17 -31 43 -41 78 -33 19 5 29 0 45 -19 16 -21 28
-26 66 -26 25 0 46 -4 46 -10 0 -5 14 -17 32 -26 28 -15 32 -15 40 0 13 22 22
20 60 -13 66 -57 124 -75 148 -46 10 12 16 13 26 4 8 -6 14 -17 14 -24 0 -16
55 -36 75 -28 9 3 22 0 30 -7 12 -10 19 -8 36 14 19 24 21 25 44 10 13 -9 27
-24 30 -35 6 -16 16 -19 80 -19 68 0 76 2 90 24 10 15 14 33 10 49 -8 29 9 67
29 67 15 0 29 -51 20 -74 -3 -8 5 -36 19 -62 13 -27 22 -56 20 -66 -5 -18 27
-31 121 -47 33 -6 63 -16 67 -22 7 -13 95 -43 150 -53 21 -4 42 -13 49 -21 21
-25 104 -47 134 -35 15 5 38 7 52 4 28 -7 55 11 47 32 -3 8 0 14 6 14 6 0 11
-17 12 -37 1 -50 12 -86 27 -91 9 -3 12 73 12 336 l0 339 -26 -5 c-25 -4 -26
-3 -22 22 3 14 2 26 -1 26 -113 3 -187 10 -231 24 -39 11 -72 14 -115 9 -116
-12 -198 -8 -269 15 -41 13 -74 18 -80 13 -6 -5 -53 -3 -111 6 -55 8 -107 14
-115 14 -8 -1 -54 -4 -102 -7 l-88 -5 -1 -32 c-1 -18 0 -36 1 -42 8 -33 5 -73
-6 -90 -8 -11 -14 -40 -14 -65 0 -33 -3 -41 -10 -30 -5 8 -10 11 -10 5 0 -5
-4 -5 -8 2 -4 7 -7 45 -6 86 2 65 -1 78 -22 102 -13 16 -24 39 -24 51 0 25
-18 38 -67 47 -24 5 -35 2 -41 -10 -6 -11 -11 -12 -16 -4 -4 6 -36 11 -79 11
-40 0 -88 5 -107 11 -19 6 -58 12 -87 14 -29 2 -61 9 -72 14 -13 8 -22 8 -26
1 -3 -6 1 -13 10 -16 14 -6 14 -8 -2 -26 -15 -17 -18 -18 -23 -3 -5 14 -8 14
-31 -4 -51 -39 -127 -25 -144 28 -2 9 -15 16 -27 16 -13 1 -34 4 -48 9 -19 5
-21 5 -10 -3z m1310 -111 c13 -9 13 -10 0 -10 -12 0 -12 -2 -2 -8 13 -9 7 -42
-8 -42 -8 0 -20 34 -20 58 0 14 10 15 30 2z m-622 -73 c-2 -12 -11 -23 -20
-25 -15 -3 -18 4 -18 33 0 33 2 35 21 25 13 -7 19 -19 17 -33z m623 -12 c0 -6
-3 -34 -7 -64 -5 -43 -9 -50 -17 -36 -20 36 -9 121 14 113 6 -2 10 -8 10 -13z
m698 -29 c9 -23 4 -252 -5 -268 -22 -36 -37 72 -28 198 7 94 17 115 33 70z
m-374 -57 c0 -41 -4 -54 -15 -54 -16 0 -27 73 -16 102 13 33 31 5 31 -48z
m-944 -7 c15 -21 15 -27 2 -53 -20 -40 -48 -38 -50 4 -5 74 16 95 48 49z m351
-127 c-12 -22 -27 -2 -18 22 5 12 10 13 17 6 7 -7 8 -17 1 -28z m588 -105 c0
-5 -2 -10 -4 -10 -3 0 -8 5 -11 10 -3 6 -1 10 4 10 6 0 11 -4 11 -10z m374
-161 c-6 -36 -8 -38 -19 -21 -13 18 -16 57 -8 102 5 24 5 24 19 -9 9 -21 12
-48 8 -72z m-367 -5 c-3 -3 -12 -4 -19 -1 -8 3 -5 6 6 6 11 1 17 -2 13 -5z"/>
<path d="M4140 3682 c0 -18 54 -62 114 -91 36 -19 78 -48 91 -65 49 -60 130
-146 138 -146 20 0 99 -64 128 -105 18 -25 49 -55 70 -67 63 -38 164 -130 200
-181 18 -27 45 -57 59 -67 14 -10 32 -31 40 -47 17 -34 39 -57 63 -66 9 -3 17
-15 17 -26 0 -24 81 -111 103 -111 9 0 26 -13 39 -30 22 -31 53 -38 86 -21 9
4 29 11 44 15 23 5 29 1 52 -40 14 -25 30 -63 36 -83 9 -32 18 -40 90 -75 98
-46 155 -96 145 -125 -8 -28 12 -64 32 -57 9 4 34 -4 57 -17 22 -14 57 -27 77
-31 29 -5 40 -13 49 -37 17 -40 67 -89 91 -89 16 0 19 -7 19 -40 0 -29 -4 -40
-15 -40 -8 0 -15 -4 -15 -10 0 -12 0 -12 40 1 29 11 34 9 56 -15 19 -20 31
-25 49 -20 19 5 25 2 25 -9 0 -9 9 -18 20 -22 11 -3 19 -11 17 -18 -4 -19 74
-40 105 -29 21 8 30 7 39 -4 6 -8 20 -14 31 -14 15 0 18 -5 13 -22 -4 -13 -16
-36 -27 -52 -26 -36 -15 -60 31 -64 23 -2 37 2 47 15 13 17 13 17 14 -3 0 -20
6 -24 83 -57 36 -16 37 -18 37 -67 0 -36 4 -52 15 -56 8 -4 15 -12 15 -19 0
-14 75 -85 90 -85 6 0 19 9 30 20 11 11 28 20 38 20 10 0 31 14 47 30 51 53
107 30 71 -30 -9 -16 -19 -48 -22 -72 -5 -36 -1 -49 20 -81 15 -21 37 -60 51
-87 39 -77 96 -111 125 -74 8 8 25 14 39 12 34 -4 40 -40 12 -65 -27 -23 -27
-53 -1 -53 10 0 35 7 54 16 37 18 78 12 58 -8 -7 -7 -12 -21 -12 -32 0 -12 -6
-33 -14 -48 -13 -24 -12 -28 8 -47 13 -12 36 -21 53 -21 18 0 33 -6 37 -15 4
-10 19 -15 48 -15 36 0 48 -5 71 -31 28 -32 34 -54 17 -64 -15 -9 -12 -41 5
-55 13 -11 15 47 15 509 0 406 -3 520 -12 518 -7 -1 -14 9 -16 22 -3 18 0 22
12 18 12 -5 16 0 16 21 0 42 -61 74 -124 66 -34 -5 -52 -2 -72 11 -23 15 -26
22 -21 61 4 39 3 42 -14 34 -10 -6 -28 -10 -41 -10 -13 0 -32 -6 -43 -14 -26
-17 -121 -31 -129 -18 -6 10 43 48 57 44 13 -4 47 18 47 31 -1 23 -50 50 -81
43 -24 -4 -32 -1 -46 22 -9 15 -18 29 -20 31 -1 2 -23 5 -49 7 -47 3 -94 33
-94 61 0 7 -5 13 -11 13 -8 0 -8 4 1 15 9 11 30 13 87 11 l75 -4 17 31 c9 18
30 46 48 63 30 29 31 33 22 80 -5 27 -14 59 -21 72 -12 23 -38 30 -38 11 0 -7
-30 -41 -66 -76 -87 -85 -116 -90 -193 -39 -29 20 -59 36 -66 36 -7 0 -20 12
-30 26 -13 21 -22 25 -45 21 -32 -7 -60 17 -60 50 0 43 -25 47 -89 16 -54 -25
-61 -31 -61 -59 0 -16 -6 -38 -13 -48 -13 -17 -16 -17 -63 5 -39 19 -50 30
-52 52 -4 33 -22 43 -50 28 -13 -7 -30 -7 -55 1 -34 10 -39 9 -63 -16 -30 -29
-44 -24 -48 18 -2 15 -12 36 -22 47 -15 17 -20 18 -29 7 -15 -21 -60 -7 -60
18 0 12 -5 27 -11 35 -6 8 -23 36 -38 63 -34 58 -26 90 26 104 l33 9 -30 7
c-16 4 -41 13 -55 20 -31 16 -128 28 -135 17 -6 -10 19 -33 27 -25 10 9 47
-47 41 -62 -7 -20 -50 -29 -68 -14 -22 18 -91 6 -156 -27 -30 -15 -57 -31 -60
-36 -12 -16 -44 -2 -47 21 -2 12 4 37 13 55 25 49 27 99 4 115 -30 21 -26 76
7 91 14 6 29 9 34 6 4 -2 25 -7 45 -11 34 -5 42 -2 76 32 23 22 39 48 39 61 0
20 -5 23 -39 23 -22 0 -44 6 -51 15 -8 9 -21 13 -32 9 -10 -3 -40 -6 -65 -6
-49 0 -82 -16 -124 -61 -27 -29 -59 -29 -59 0 0 11 -7 13 -29 8 -21 -4 -30 -2
-35 10 -5 13 -16 15 -64 10 -50 -5 -61 -3 -76 14 -17 19 -17 21 5 50 13 17 26
31 30 31 4 0 17 -13 29 -30 12 -16 27 -30 34 -30 23 0 63 39 68 65 4 21 0 29
-24 41 -26 14 -31 14 -41 1 -17 -22 -71 -26 -130 -10 -28 7 -75 13 -105 13
-43 0 -58 5 -77 25 -14 13 -25 29 -25 35 0 5 -7 10 -16 10 -8 0 -12 -5 -8 -11
9 -15 -29 5 -44 23 -16 20 -19 88 -3 97 10 6 9 10 -4 15 -23 9 -25 8 -19 -9 8
-19 -3 -19 -22 -1 -10 11 -11 15 -1 19 9 3 9 7 0 17 -10 11 -24 7 -73 -17
l-60 -31 -28 21 c-15 12 -29 24 -32 28 -3 3 -15 11 -27 17 -12 7 -24 25 -28
41 -8 39 -33 66 -68 75 -16 4 -56 19 -90 35 -81 36 -157 62 -157 53z m1630
-1002 c0 -5 -4 -10 -10 -10 -5 0 -10 5 -10 10 0 6 5 10 10 10 6 0 10 -4 10
-10z m722 -267 c27 -24 22 -33 -14 -26 -39 7 -53 17 -44 32 10 16 37 13 58 -6z
m242 -190 c-4 -34 -1 -40 27 -56 37 -20 33 -27 -24 -44 -35 -10 -43 -10 -50 2
-4 8 -20 15 -36 15 -16 0 -37 10 -51 25 -20 22 -21 25 -6 25 10 0 32 16 49 35
23 27 39 35 63 35 32 0 33 -1 28 -37z m-204 -79 c0 -18 -24 -44 -40 -44 -26 0
-25 15 2 34 23 16 38 20 38 10z m94 -90 c40 -15 -8 -49 -55 -39 -35 8 -37 16
-6 31 27 14 41 16 61 8z m326 -68 c0 -11 -19 -15 -25 -6 -3 5 1 10 9 10 9 0
16 -2 16 -4z m91 -209 c-1 -12 -15 -9 -19 4 -3 6 1 10 8 8 6 -3 11 -8 11 -12z"/>
<path d="M5290 3660 c0 -19 3 -21 12 -12 9 9 9 15 0 24 -9 9 -12 7 -12 -12z"/>
<path d="M3245 3650 c-4 -11 -11 -18 -16 -14 -14 8 -66 -15 -73 -32 -5 -14 37
-40 57 -36 16 4 5 -15 -29 -50 -51 -55 -94 -49 -94 12 0 9 7 23 15 30 22 18
15 21 -50 24 -39 2 -65 9 -86 25 -27 20 -34 21 -60 11 -16 -7 -40 -10 -54 -8
-14 3 -28 2 -31 -3 -2 -4 -11 -6 -19 -2 -11 4 -15 -3 -15 -27 0 -23 -9 -40
-31 -61 -17 -16 -38 -29 -45 -29 -8 0 -19 -11 -23 -24 -10 -23 -44 -36 -100
-36 -14 0 -43 -9 -64 -20 -20 -11 -43 -20 -50 -20 -7 0 -23 -11 -35 -25 -12
-13 -34 -27 -49 -30 -15 -4 -38 -11 -51 -16 -13 -5 -30 -9 -39 -9 -9 0 -25 -8
-35 -17 -12 -10 -36 -17 -66 -17 -37 -1 -56 -7 -80 -28 -18 -15 -42 -30 -54
-34 -13 -3 -34 -14 -48 -23 -62 -42 -190 -54 -270 -24 -25 9 -46 18 -48 19 -9
6 32 54 47 54 45 0 91 22 97 45 5 19 13 25 35 26 16 1 34 3 39 4 6 1 15 3 20
4 16 2 11 41 -5 41 -8 0 -15 -4 -15 -10 0 -13 -56 -13 -82 1 -17 9 -24 7 -42
-13 -26 -30 -72 -49 -111 -47 -17 2 -40 -1 -53 -5 -26 -9 -57 -62 -42 -71 14
-9 13 -48 -2 -63 -14 -14 -45 -16 -53 -2 -3 5 -1 19 5 30 8 14 8 26 -1 41 -9
17 -17 20 -42 15 -18 -3 -40 -16 -50 -27 -18 -23 -20 -23 -160 -2 -23 3 -53
-1 -78 -11 -22 -9 -45 -14 -50 -11 -11 8 -12 55 0 74 9 13 47 12 82 -3 9 -4
25 2 39 14 13 11 31 20 40 20 9 0 25 7 36 15 10 8 32 15 47 15 15 0 48 9 73
20 l44 20 0 91 0 91 -72 -6 c-226 -16 -241 -18 -260 -36 -17 -16 -18 -21 -6
-41 7 -13 19 -29 25 -37 19 -20 16 -48 -12 -92 -28 -44 -28 -44 -57 -29 -11 6
-48 11 -81 10 -51 0 -65 -5 -89 -28 -33 -32 -35 -44 -8 -68 25 -23 19 -68 -13
-102 -44 -49 -75 -16 -64 67 3 24 0 43 -7 49 -6 5 -55 8 -108 7 -75 -2 -102
-6 -116 -19 -10 -9 -24 -17 -31 -17 -6 0 -14 -7 -17 -15 -9 -23 -19 -18 -48
26 -18 26 -24 45 -18 52 5 7 9 36 10 65 1 29 6 61 12 71 13 25 1 61 -21 61
-10 0 -39 -14 -64 -31 -45 -30 -52 -32 -150 -33 -121 -2 -144 -12 -118 -53 16
-24 25 -92 21 -163 -6 -120 -4 -124 69 -135 26 -4 47 -13 53 -24 15 -29 -3
-74 -36 -90 -36 -17 -84 -61 -84 -77 0 -6 9 -23 21 -38 26 -33 77 -35 118 -5
17 13 48 22 75 24 35 3 56 11 84 36 20 18 41 39 46 48 16 28 27 29 66 7 35
-19 42 -19 72 -7 33 13 79 26 131 36 18 4 35 17 45 36 17 29 18 30 79 23 53
-5 68 -3 98 15 20 11 41 21 48 21 6 0 23 11 37 25 22 21 30 24 59 15 19 -5 51
-6 79 -1 65 13 101 -4 82 -38 -22 -40 -39 -53 -70 -57 -19 -2 -38 -11 -43 -19
-4 -8 -17 -15 -28 -15 -11 0 -38 -10 -60 -22 -40 -23 -44 -34 -24 -80 6 -16 1
-18 -39 -18 -49 0 -62 16 -21 26 14 3 25 12 25 19 0 18 -57 30 -75 15 -8 -6
-19 -9 -24 -5 -17 10 -87 -13 -112 -38 -18 -18 -47 -28 -119 -40 -132 -22
-150 -26 -173 -38 -11 -7 -41 -8 -73 -4 -54 6 -100 -7 -89 -26 4 -5 -12 -9
-39 -7 -53 2 -58 -1 -71 -49 -14 -49 -34 -60 -86 -46 -49 13 -69 8 -69 -18 0
-20 -58 -52 -87 -47 -10 1 -35 -5 -55 -15 l-38 -18 0 -169 c0 -94 3 -170 6
-170 3 0 20 16 38 35 31 33 37 35 97 35 37 1 75 7 89 15 38 22 60 19 60 -9 0
-28 -35 -76 -56 -76 -9 0 -35 -12 -60 -26 -41 -24 -44 -28 -44 -70 0 -42 -1
-44 -29 -44 -15 0 -40 -9 -54 -20 -14 -11 -30 -20 -36 -20 -8 0 -11 -127 -11
-433 0 -408 1 -435 18 -450 25 -23 48 -21 104 7 43 21 98 81 98 106 0 5 22 21
50 37 27 15 49 32 47 37 -2 6 -22 16 -46 24 -40 13 -44 13 -63 -8 -32 -34 -44
-9 -16 34 28 44 50 51 148 49 56 -1 79 3 93 14 25 23 21 58 -8 77 -33 22 -32
33 9 53 40 19 66 12 66 -17 0 -24 26 -38 42 -22 8 8 8 18 0 37 -9 19 -19 25
-42 25 -20 0 -29 4 -24 11 3 6 16 8 28 5 12 -3 31 1 42 8 35 25 79 28 118 9
43 -20 73 -9 68 25 -4 29 37 53 95 57 57 4 134 18 151 29 7 4 12 27 12 52 0
40 3 46 33 58 17 8 40 17 50 20 12 4 17 16 17 41 0 27 7 42 27 58 14 12 43 39
62 60 20 20 43 37 51 37 8 1 33 9 55 20 22 11 50 19 61 20 32 0 47 24 40 64
-9 45 19 66 86 66 26 0 58 5 72 11 26 12 46 54 46 95 0 15 6 24 15 24 9 0 18
7 21 15 8 20 63 36 148 44 l71 6 -3 31 c-2 18 3 36 12 43 13 11 16 9 22 -13 7
-31 20 -34 27 -6 3 11 13 20 24 20 10 0 31 14 47 30 16 17 47 36 69 42 25 8
42 20 48 35 5 14 17 23 29 23 12 0 41 5 66 11 37 10 47 18 59 45 8 19 20 34
28 34 9 0 24 26 37 63 34 91 77 175 120 232 71 95 294 233 469 290 249 80 293
107 353 214 36 64 49 121 27 121 -5 0 -7 5 -4 10 3 6 -1 10 -9 10 -8 0 -18 -9
-21 -20z m-1845 -182 c0 -6 8 -17 18 -24 15 -12 15 -15 2 -24 -8 -5 -22 -9
-30 -7 -18 3 -30 48 -17 64 10 14 27 8 27 -9z m1556 -53 c25 -16 33 -45 12
-45 -9 0 -8 -4 2 -11 12 -9 11 -10 -7 -6 -13 3 -24 -1 -27 -10 -4 -10 -13 -12
-27 -8 -15 5 -19 4 -15 -4 4 -6 0 -11 -9 -11 -9 0 -35 -9 -57 -20 -23 -11 -58
-20 -77 -20 -24 0 -31 -3 -23 -9 10 -6 -4 -18 -49 -43 -52 -28 -67 -32 -86
-24 -13 6 -23 16 -23 21 2 45 85 108 138 103 20 -1 37 2 39 9 2 6 12 9 23 6
14 -4 18 -1 14 14 -7 24 29 70 59 76 35 8 87 -1 113 -18z m-476 -69 c0 -3 -4
-8 -10 -11 -5 -3 -10 -1 -10 4 0 6 5 11 10 11 6 0 10 -2 10 -4z m8 -190 c4
-21 -13 -36 -43 -36 -11 0 -25 -10 -30 -22 -8 -19 -19 -24 -62 -26 -29 -2 -53
1 -53 6 0 8 69 58 123 90 30 17 61 11 65 -12z m-968 -41 c0 -32 -35 -67 -63
-63 -30 4 -32 29 -7 61 29 36 70 37 70 2z m-912 -32 c-2 -20 -8 -38 -14 -40
-16 -5 -25 36 -13 59 16 30 30 20 27 -19z m1555 -81 c37 -69 32 -106 -14 -98
-36 5 -60 23 -53 40 3 7 -4 21 -16 31 -24 22 -25 42 -3 67 28 31 55 18 86 -40z
m-147 -95 c-3 -17 -7 -31 -9 -33 -1 -1 -31 4 -67 10 l-65 12 37 13 c20 6 41
18 47 25 6 8 22 11 37 8 23 -4 25 -8 20 -35z m-173 13 c21 -1 21 -2 -6 -25
-31 -28 -111 -37 -101 -12 7 18 57 47 72 42 8 -3 23 -5 35 -5z m408 -63 c-1
-12 -15 -9 -19 4 -3 6 1 10 8 8 6 -3 11 -8 11 -12z m49 -21 c0 -2 -7 -7 -16
-10 -8 -3 -12 -2 -9 4 6 10 25 14 25 6z m-1247 -52 c-6 -16 -29 -19 -38 -4 -4
6 -1 17 5 26 15 18 42 0 33 -22z m643 23 c-11 -7 -33 -24 -49 -39 -17 -16 -33
-28 -36 -28 -20 0 -81 22 -81 29 0 5 15 18 33 30 23 15 48 21 92 20 51 0 57
-2 41 -12z m202 -6 c12 -11 22 -24 22 -29 0 -13 -88 -27 -144 -23 -15 1 -16 4
-6 16 15 18 37 20 42 3 3 -8 10 -3 18 12 12 24 29 40 40 40 3 -1 15 -9 28 -19z
m-398 -130 c13 -26 -1 -34 -35 -21 -23 9 -25 13 -15 25 17 21 37 19 50 -4z
m-215 -11 c3 -5 1 -10 -4 -10 -6 0 -11 5 -11 10 0 6 2 10 4 10 3 0 8 -4 11
-10z m115 -5 c-32 -18 -40 -18 -40 0 0 10 10 15 33 15 l32 -1 -25 -14z m-248
-35 c-5 -43 -15 -42 -26 3 -6 24 -4 28 11 25 12 -3 17 -11 15 -28z m138 -5
c11 -13 8 -15 -18 -15 -31 0 -47 11 -35 24 11 11 40 6 53 -9z m67 -1 c-3 -3
-12 -4 -19 -1 -8 3 -5 6 6 6 11 1 17 -2 13 -5z m-298 -64 c29 -15 70 -101 61
-126 -9 -22 -36 -38 -50 -29 -4 3 -24 29 -44 59 -34 52 -44 85 -29 99 9 10 42
8 62 -3z m-161 -46 c55 -12 56 -13 28 -40 -22 -22 -32 -26 -63 -21 -27 5 -42
2 -55 -10 -27 -24 -35 -7 -10 20 12 13 22 28 22 33 0 17 24 35 38 29 8 -3 26
-8 40 -11z m-283 -244 c3 -5 -1 -10 -9 -10 -9 0 -16 5 -16 10 0 6 4 10 9 10 6
0 13 -4 16 -10z m515 -115 c7 -9 10 -18 7 -21 -10 -11 -37 5 -37 21 0 19 14
19 30 0z m-1035 -158 c19 -15 13 -37 -9 -37 -18 0 -39 27 -31 40 8 13 17 13
40 -3z m840 -147 c3 -5 -3 -10 -15 -10 -12 0 -18 5 -15 10 3 6 10 10 15 10 5
0 12 -4 15 -10z m-225 -144 c0 -8 -7 -16 -15 -20 -8 -3 -15 -4 -15 -2 0 3 -3
11 -6 20 -4 12 0 16 15 16 12 0 21 -6 21 -14z m-547 -181 c-4 -15 -56 -12 -61
3 -3 10 5 13 29 10 19 -2 33 -7 32 -13z m-13 -189 c0 -3 -4 -8 -10 -11 -5 -3
-10 -1 -10 4 0 6 5 11 10 11 6 0 10 -2 10 -4z"/>
<path d="M2552 3620 c-39 -36 -45 -80 -9 -80 39 0 51 15 48 62 -1 23 -3 44 -5
45 -1 1 -17 -11 -34 -27z"/>
<path d="M2644 3620 c-20 -8 -39 -38 -30 -47 2 -3 18 -7 35 -9 21 -4 31 -1 31
8 0 7 3 23 6 36 7 24 -5 27 -42 12z"/>
<path d="M1665 3565 c-5 -2 -22 -6 -37 -9 -40 -9 -35 -34 9 -42 29 -5 39 -3
50 12 19 27 7 49 -22 39z"/>
<path d="M2325 3520 c-37 -59 -93 -84 -181 -81 -14 0 -24 -7 -27 -19 -3 -11
-12 -20 -21 -20 -9 0 -16 -5 -16 -11 0 -8 16 -10 53 -5 28 4 61 8 72 7 10 0
24 4 30 8 5 5 35 16 65 24 105 29 134 43 143 72 12 35 -9 57 -58 60 -32 2 -39
-2 -60 -35z"/>
<path d="M2015 3530 c-12 -19 5 -31 27 -19 11 6 36 9 55 6 24 -4 33 -2 30 6
-4 14 -103 21 -112 7z"/>
<path d="M2475 3530 c-3 -5 -1 -10 4 -10 6 0 11 5 11 10 0 6 -2 10 -4 10 -3 0
-8 -4 -11 -10z"/>
<path d="M1080 3504 c-14 -7 -44 -14 -68 -14 -62 0 -82 -14 -82 -55 0 -24 6
-38 19 -45 29 -15 100 -11 151 8 41 16 44 20 47 57 4 61 -17 77 -67 49z"/>
<path d="M788 3475 c-61 -41 -82 -46 -135 -30 -56 17 -68 9 -52 -31 7 -16 14
-40 16 -54 2 -14 8 -26 14 -28 5 -2 9 -10 9 -18 0 -8 5 -14 11 -14 19 0 104
21 121 31 10 5 30 9 46 9 15 0 37 6 47 14 18 13 19 18 7 60 -6 26 -12 55 -12
66 0 27 -27 25 -72 -5z"/>
<path d="M3950 3448 c-25 -23 -79 -57 -120 -77 -66 -31 -84 -36 -150 -35 -68
1 -108 10 -203 49 -17 7 -18 6 -5 -16 7 -13 16 -26 20 -29 4 -3 14 -22 22 -41
18 -42 34 -57 67 -62 15 -3 25 -12 27 -25 3 -17 10 -22 33 -22 27 0 29 3 29
35 0 36 22 50 34 20 3 -9 0 -15 -10 -15 -11 0 -15 -6 -11 -20 3 -11 1 -20 -4
-20 -5 0 -9 -9 -9 -20 0 -16 -7 -20 -35 -20 -35 0 -49 -22 -22 -34 6 -3 -1 -4
-18 -1 -26 5 -27 4 -11 -6 38 -23 186 19 178 51 -1 6 2 9 8 5 40 -24 253 226
220 259 -14 14 -12 43 3 49 6 2 10 7 7 10 -3 3 -25 -13 -50 -35z m29 -49 c-13
-25 -17 -24 -15 5 0 14 6 22 13 19 9 -4 10 -10 2 -24z m-157 -161 c-7 -7 -12
-8 -12 -2 0 6 3 14 7 17 3 4 9 5 12 2 2 -3 -1 -11 -7 -17z"/>
<path d="M3296 3405 c11 -88 75 -189 146 -229 l33 -19 -26 29 c-33 36 -99 135
-99 148 0 5 -7 17 -16 27 -9 10 -22 35 -30 56 l-15 38 7 -50z"/>
<path d="M4085 3372 c-1 -93 -17 -129 -125 -275 -40 -54 -70 -101 -66 -104 13
-13 146 164 185 247 19 42 25 71 26 122 0 37 -4 71 -10 77 -7 7 -10 -16 -10
-67z"/>
<path d="M1621 3421 c-18 -16 -19 -20 -6 -31 15 -12 47 -8 74 9 12 8 12 12 2
25 -18 21 -43 20 -70 -3z"/>
<path d="M4780 3396 c0 -23 34 -43 45 -26 3 4 21 4 40 0 26 -6 35 -5 32 3 -2
7 -12 13 -23 15 -10 2 -28 7 -39 12 -49 21 -55 20 -55 -4z"/>
<path d="M2005 3397 c-24 -18 -11 -37 25 -37 30 0 45 21 27 39 -15 15 -29 14
-52 -2z"/>
<path d="M48 3362 l-48 -16 0 -328 0 -328 38 14 c20 7 56 19 79 25 48 13 51
16 67 79 16 59 6 97 -34 133 -38 35 -38 58 1 95 27 25 30 34 24 64 -4 19 -9
87 -12 150 -3 73 -9 117 -16 122 -17 11 -44 8 -99 -10z"/>
<path d="M4234 3328 c-5 -34 -8 -39 -14 -23 -5 14 -9 2 -14 -40 -4 -33 -16
-100 -26 -150 -53 -256 -90 -467 -84 -478 4 -6 3 -8 -1 -4 -12 11 -64 -130
-64 -176 -1 -23 -7 -40 -15 -43 -23 -9 -31 -62 -13 -82 12 -14 14 -27 6 -66
-5 -27 -10 -50 -12 -51 -10 -7 -339 -25 -447 -24 -156 1 -315 11 -325 20 -3 4
-9 32 -12 63 -5 49 -4 56 12 56 15 0 17 6 12 37 -4 21 -13 43 -21 49 -9 6 -13
19 -10 31 6 21 -40 188 -56 208 -5 6 -11 75 -15 155 -5 133 -13 239 -33 470
-7 82 -7 83 -13 35 l-6 -50 -1 43 c-1 23 -4 42 -7 42 -2 0 -29 -9 -60 -21
l-55 -20 0 -47 c1 -26 5 -92 10 -147 27 -282 41 -461 37 -484 -2 -16 -5 -10
-6 17 -1 38 -3 42 -27 42 -21 0 -24 -3 -19 -22 6 -21 5 -22 -8 -5 -8 9 -19 17
-25 17 -6 0 -13 -8 -16 -17 -8 -31 -35 -186 -39 -235 l-5 -47 56 -13 c43 -9
57 -9 60 0 2 7 10 12 18 12 10 0 13 -7 8 -25 -3 -14 1 -37 10 -56 9 -18 16
-44 16 -58 0 -33 10 -47 35 -54 18 -4 18 -5 -2 -6 -22 -1 -23 -4 -22 -108 2
-152 -9 -250 -42 -383 -15 -63 -31 -153 -35 -200 -16 -219 -91 -379 -186 -399
-22 -5 18 -10 125 -16 86 -4 160 -12 163 -17 3 -5 0 -16 -7 -24 -10 -12 -9
-13 7 -9 12 4 11 1 -5 -8 -15 -9 -20 -17 -13 -21 6 -4 8 -14 5 -22 -9 -23 10
-30 79 -33 41 -1 64 2 69 11 7 10 9 8 9 -5 0 -14 5 -17 21 -12 15 5 22 2 26
-14 3 -12 9 -21 13 -21 5 0 8 -14 8 -30 -1 -25 -4 -29 -20 -25 -12 4 -18 1
-18 -9 0 -9 4 -16 9 -16 10 0 44 -50 44 -65 0 -17 38 -11 49 8 5 11 5 17 0 17
-5 0 -12 12 -15 26 -8 45 39 71 113 61 21 -3 43 0 49 6 8 8 11 8 11 0 0 -6 -6
-13 -12 -16 -9 -3 -5 -10 10 -22 13 -9 19 -21 15 -28 -4 -8 -1 -7 9 1 14 11
17 10 23 -7 6 -19 7 -19 48 4 38 21 46 23 87 12 25 -6 46 -12 48 -13 7 -4 -42
-54 -52 -54 -13 0 -36 -47 -35 -69 0 -14 1 -14 6 -1 8 21 34 50 45 50 5 0 6
-4 3 -10 -3 -5 -1 -10 5 -10 7 0 9 8 5 21 -6 19 -4 21 24 17 22 -3 31 -1 31
10 0 9 7 13 20 9 27 -7 32 4 17 42 -13 36 -27 40 -34 11 -8 -30 -23 -24 -23 8
0 18 9 36 23 48 12 10 16 12 10 4 -17 -19 -16 -27 3 -27 8 0 24 13 35 29 16
23 28 28 60 28 27 0 39 -4 39 -14 0 -8 -5 -18 -10 -21 -16 -10 0 -27 17 -20
13 4 14 3 3 -10 -7 -8 -21 -15 -31 -15 -11 0 -19 -4 -19 -10 0 -5 11 -10 25
-10 26 0 34 -15 13 -23 -10 -3 -10 -7 1 -20 14 -18 46 -23 55 -8 8 13 57 20
75 11 9 -5 24 -11 34 -14 9 -3 17 -10 17 -16 0 -6 -4 -8 -10 -5 -5 3 -21 -2
-35 -11 -14 -9 -28 -14 -32 -11 -3 3 -12 -1 -21 -10 -15 -14 -14 -17 6 -33 23
-19 20 -32 -6 -23 -13 4 -13 2 2 -9 24 -19 5 -34 -23 -18 -28 14 -31 13 -31
-12 0 -21 0 -21 -14 -2 -12 15 -17 17 -27 7 -7 -7 -17 -13 -21 -13 -12 0 -10
38 3 46 18 10 -11 24 -52 24 -20 0 -39 -3 -43 -7 -4 -5 -25 -8 -47 -9 -28 0
-36 3 -29 11 12 14 3 25 -22 25 -15 0 -18 -8 -18 -51 0 -41 -3 -50 -15 -45 -8
3 -20 -3 -28 -14 -8 -11 -17 -17 -22 -12 -5 4 -5 1 -1 -6 6 -10 90 -12 416
-10 393 3 410 4 423 23 8 10 13 26 10 35 -4 12 -1 11 10 -2 8 -10 17 -15 20
-11 4 3 7 0 7 -8 0 -10 14 -14 58 -14 64 1 92 10 92 31 0 8 5 14 10 14 6 0 10
9 10 21 0 11 -4 18 -9 15 -5 -4 -12 0 -14 6 -4 10 -8 9 -16 -2 -10 -13 -11
-13 -12 0 -1 8 -1 18 0 23 1 4 -8 2 -19 -5 -17 -11 -22 -10 -30 2 -5 8 -10 11
-10 6 0 -5 -6 -4 -12 1 -7 6 -37 18 -66 29 -34 12 -51 23 -48 31 7 18 -19 17
-33 -1 -10 -11 -8 -17 6 -25 16 -9 16 -12 3 -20 -13 -9 -12 -12 4 -24 21 -15
48 -85 36 -92 -4 -3 -10 2 -14 10 -3 8 -16 15 -28 15 -27 0 -43 10 -50 29 -4
13 -13 -5 -32 -63 -6 -18 -7 -18 -27 0 -18 16 -19 19 -5 22 10 2 16 13 15 30
-1 17 -3 21 -6 10 -3 -11 -14 -18 -29 -18 -13 0 -24 -4 -24 -9 0 -5 -13 -8
-30 -6 -16 2 -32 0 -35 -6 -4 -5 -1 -9 6 -9 7 0 10 -2 7 -5 -9 -9 -38 7 -32
17 4 6 -4 5 -16 -2 -17 -9 -21 -9 -15 0 8 12 -16 11 -95 -6 l-35 -7 24 27 c14
14 21 26 17 26 -4 0 0 8 10 17 13 13 19 14 22 5 5 -16 34 -15 94 5 40 13 57
14 79 6 18 -7 29 -8 29 -2 0 6 5 7 10 4 6 -4 23 7 39 24 16 17 27 32 25 32 -2
1 -9 2 -16 3 -7 0 -15 11 -18 22 -4 19 -12 21 -66 20 -49 -1 -60 -4 -56 -15 3
-8 -8 -1 -24 16 -16 16 -35 28 -43 25 -9 -3 -11 0 -6 8 5 8 0 11 -16 8 -14 -2
-24 2 -25 10 -1 6 -2 17 -3 22 0 6 -13 10 -27 10 -24 0 -26 -3 -21 -30 4 -16
2 -32 -3 -35 -11 -7 -13 6 -10 43 1 18 -5 24 -31 29 -26 5 -29 8 -17 17 8 6
20 21 27 34 7 14 18 21 27 18 8 -3 14 0 14 5 0 7 11 9 25 7 20 -4 36 5 75 42
27 26 47 50 43 54 -4 3 -23 4 -42 0 -29 -4 -33 -3 -21 6 15 12 -40 9 -134 -7
-28 -4 -37 -3 -32 5 5 8 -3 12 -26 11 -29 0 -30 -1 -12 -9 27 -11 38 -27 23
-35 -5 -4 -17 1 -24 11 -13 17 -14 17 -15 2 0 -9 -3 -18 -7 -21 -5 -2 -3 -2 4
-1 6 2 14 -4 17 -12 4 -10 13 -13 25 -9 11 3 22 1 26 -5 9 -14 -31 -12 -85 4
-25 8 -44 19 -42 25 1 6 -4 11 -12 11 -8 0 -18 5 -22 12 -4 7 -3 8 4 4 7 -4
12 -3 12 2 0 6 9 8 20 5 15 -4 19 -2 14 10 -4 11 1 18 18 21 44 9 173 13 251
7 67 -5 77 -4 77 10 0 18 15 27 68 39 18 5 32 4 32 -1 0 -5 10 -4 21 3 17 10
23 10 26 1 3 -7 15 -13 28 -13 13 0 27 -5 30 -10 4 -6 -7 -10 -26 -10 -18 0
-30 -3 -27 -6 9 -8 196 -8 256 0 76 11 137 -8 153 -49 7 -16 20 -39 28 -51 15
-19 16 -16 15 45 -1 36 -9 84 -17 106 -14 34 -15 70 -10 225 6 197 1 230 -37
230 -45 0 -82 79 -44 94 26 10 54 7 54 -6 0 -7 6 -25 14 -39 7 -14 16 -37 19
-51 4 -14 14 -29 23 -32 14 -5 15 -4 5 8 -9 10 -10 32 -6 68 5 43 4 57 -9 67
-9 8 -16 17 -16 22 0 5 -18 46 -40 93 -22 46 -40 86 -40 89 0 3 20 -1 45 -10
25 -8 45 -18 45 -23 0 -4 25 -20 56 -36 55 -28 57 -28 86 -11 16 9 33 15 38
12 12 -8 65 64 79 108 7 20 16 37 20 37 16 0 159 126 151 133 -3 3 -32 -15
-65 -40 -32 -25 -84 -57 -115 -73 -67 -33 -195 -80 -218 -79 -9 0 8 8 38 18
121 39 249 110 335 186 41 36 12 21 -50 -26 -107 -81 -316 -169 -399 -169 -67
0 -115 39 -142 115 -6 17 -8 18 -11 3 -2 -9 8 -47 23 -83 20 -53 24 -72 16
-90 -9 -19 -8 -21 12 -18 13 3 28 -3 37 -14 22 -27 50 -93 39 -93 -6 0 -10 6
-11 13 -1 25 -48 -89 -49 -118 0 -16 -9 -43 -20 -60 -24 -37 -25 -54 -3 -100
12 -25 26 -38 47 -43 28 -7 76 -60 76 -83 0 -22 -89 3 -91 25 0 6 -4 -1 -9
-16 -4 -15 -4 -44 1 -65 5 -21 9 -61 9 -90 0 -28 5 -55 10 -58 6 -3 10 -12 10
-18 0 -8 -3 -7 -9 2 -5 8 -10 9 -12 3 -6 -17 -92 -36 -131 -28 -78 14 -158
100 -196 209 -48 136 -141 629 -143 751 -1 68 -15 159 -18 119 -1 -7 -8 -10
-18 -6 -14 5 -13 8 5 14 12 5 22 15 22 23 0 8 7 16 16 18 16 3 43 78 44 123 0
11 9 37 20 57 10 20 27 68 36 108 14 58 15 73 4 80 -8 5 -10 17 -6 33 7 31 -9
44 -24 20 -10 -17 -10 -17 -8 1 2 10 -3 21 -9 23 -8 3 -13 -5 -13 -21 0 -13
-4 -27 -9 -30 -10 -7 -11 -12 30 154 17 69 35 148 39 176 8 50 17 100 46 236
24 113 22 121 -35 141 -27 9 -53 17 -59 17 -6 0 -14 -19 -18 -42z m-1137 -125
c-3 -10 -5 -4 -5 12 0 17 2 24 5 18 2 -7 2 -21 0 -30z m10 -110 c-3 -10 -5 -2
-5 17 0 19 2 27 5 18 2 -10 2 -26 0 -35z m40 -465 c-3 -8 -6 -5 -6 6 -1 11 2
17 5 13 3 -3 4 -12 1 -19z m-197 -32 c0 -3 -4 -8 -10 -11 -5 -3 -10 -1 -10 4
0 6 5 11 10 11 6 0 10 -2 10 -4z m157 -52 c-3 -3 -12 -4 -19 -1 -8 3 -5 6 6 6
11 1 17 -2 13 -5z m-22 -39 c-16 -8 -38 -14 -47 -15 -9 0 -19 -4 -23 -9 -3 -6
-14 -9 -25 -8 -26 2 -17 9 38 29 59 21 101 23 57 3z m15 -24 c0 -11 -19 -18
-80 -25 l-45 -6 45 19 c50 21 80 26 80 12z m118 -136 c-3 -3 -9 2 -12 12 -6
14 -5 15 5 6 7 -7 10 -15 7 -18z m889 -17 c-3 -8 -6 -5 -6 6 -1 11 2 17 5 13
3 -3 4 -12 1 -19z m-12 -108 c3 -5 1 -10 -4 -10 -6 0 -11 5 -11 10 0 6 2 10 4
10 3 0 8 -4 11 -10z m-32 -7 c-7 -2 -19 -2 -25 0 -7 3 -2 5 12 5 14 0 19 -2
13 -5z m9 -195 c2 -7 1 -61 -2 -120 l-5 -108 -58 -74 c-67 -85 -51 -79 -280
-97 -112 -9 -182 -9 -293 0 -81 6 -150 14 -155 17 -5 3 -34 36 -64 74 l-55 70
-3 117 -2 118 85 -1 c369 -3 562 -2 605 5 84 14 222 13 227 -1z m705 -94 c-3
-3 -12 -4 -19 -1 -8 3 -5 6 6 6 11 1 17 -2 13 -5z m-957 -853 c0 -13 -25 -21
-68 -22 -20 -1 -50 -4 -67 -8 l-30 -7 32 -5 c18 -3 30 -2 27 3 -3 4 0 8 5 8 6
0 11 -5 11 -11 0 -8 4 -9 13 0 20 16 28 2 15 -23 -7 -11 -12 -23 -11 -26 1 -3
-18 -5 -42 -5 -24 0 -41 3 -39 6 2 3 -8 4 -21 1 -14 -2 -25 -7 -25 -11 0 -6
51 -22 113 -36 49 -10 28 -24 -34 -22 -33 2 -63 -2 -66 -7 -3 -5 -12 -2 -18 8
-13 17 -50 12 -39 -5 3 -5 0 -9 -5 -9 -6 0 -11 5 -11 11 0 8 -4 8 -14 0 -11
-9 -18 -8 -30 5 -9 9 -25 14 -36 11 -25 -6 -28 24 -5 43 11 9 12 16 5 25 -5 6
-7 14 -4 17 2 3 -2 8 -11 11 -11 5 -15 0 -15 -18 0 -19 -5 -25 -21 -25 -11 0
-30 -5 -42 -12 -26 -14 -47 -19 -46 -10 3 18 -2 26 -9 15 -4 -7 -17 -10 -31
-6 -18 4 -21 11 -17 29 5 18 2 24 -11 25 -16 0 -15 2 2 9 11 4 -15 6 -61 3
-89 -6 -138 1 -132 19 5 14 271 11 276 -3 2 -5 13 -9 23 -9 11 0 18 4 15 9
-10 16 19 19 209 20 104 1 191 4 194 6 8 8 21 6 21 -4z m-640 -76 c0 -8 -4
-15 -10 -15 -5 0 -7 7 -4 15 4 8 8 15 10 15 2 0 4 -7 4 -15z m831 -11 c8 2 29
7 47 10 25 4 32 2 32 -11 0 -9 -3 -13 -7 -10 -3 4 -11 3 -17 -2 -6 -4 -25 -13
-42 -19 -29 -9 -33 -8 -52 18 -23 31 -18 48 8 25 10 -9 23 -14 31 -11z m-156
-44 c3 -5 1 -10 -4 -10 -6 0 -11 5 -11 10 0 6 2 10 4 10 3 0 8 -4 11 -10z
m-70 -150 c3 -5 1 -10 -4 -10 -6 0 -11 5 -11 10 0 6 2 10 4 10 3 0 8 -4 11
-10z m515 -75 c0 -8 -4 -15 -9 -15 -13 0 -22 16 -14 24 11 11 23 6 23 -9z"/>
<path d="M3500 1041 c0 -5 9 -7 20 -4 11 3 20 7 20 9 0 2 -9 4 -20 4 -11 0
-20 -4 -20 -9z"/>
<path d="M3418 1023 c7 -3 16 -2 19 1 4 3 -2 6 -13 5 -11 0 -14 -3 -6 -6z"/>
<path d="M3504 1015 c-16 -12 -16 -14 -3 -15 9 0 22 7 29 15 16 19 0 19 -26 0z"/>
<path d="M3563 1016 c3 -8 2 -16 -4 -18 -5 -2 0 -9 12 -16 18 -12 21 -11 26 7
3 13 10 18 21 13 16 -5 16 -4 0 11 -21 21 -63 23 -55 3z"/>
<path d="M4221 3344 c0 -11 3 -14 6 -6 3 7 2 16 -1 19 -3 4 -6 -2 -5 -13z"/>
<path d="M3211 3314 c-5 -66 52 -210 105 -267 40 -43 47 -31 10 17 -42 55 -75
124 -97 201 -10 33 -18 55 -18 49z"/>
<path d="M4943 3303 c-17 -6 -16 -30 1 -36 8 -3 22 0 32 7 17 13 17 14 -2 23
-10 6 -25 8 -31 6z"/>
<path d="M3955 3141 c-108 -163 -121 -188 -33 -66 72 100 132 194 127 199 -2
2 -44 -58 -94 -133z"/>
<path d="M3260 3226 c0 -13 70 -145 81 -151 6 -4 -8 28 -32 71 -46 86 -49 91
-49 80z"/>
<path d="M3485 3150 c3 -5 14 -10 23 -10 15 0 15 2 2 10 -20 13 -33 13 -25 0z"/>
<path d="M3366 3038 c10 -14 21 -24 23 -22 3 3 -6 15 -18 27 l-24 22 19 -27z"/>
<path d="M6125 2879 c-47 -24 -95 -86 -95 -122 0 -15 10 -34 25 -45 l25 -20
-42 -7 c-42 -7 -82 -23 -63 -26 6 0 33 0 62 1 34 1 67 -6 99 -20 58 -27 76
-19 87 36 5 21 15 52 23 67 21 42 17 78 -11 120 -30 43 -50 46 -110 16z"/>
<path d="M7150 2711 c0 -10 30 -24 37 -17 3 3 2 9 -2 15 -8 13 -35 15 -35 2z"/>
<path d="M6720 2578 c-29 -31 -25 -46 16 -65 30 -15 36 -15 44 -3 15 24 -8 90
-31 90 -4 0 -17 -10 -29 -22z"/>
<path d="M2692 2280 c0 -19 2 -27 5 -17 2 9 2 25 0 35 -3 9 -5 1 -5 -18z"/>
<path d="M0 2152 c0 -26 4 -41 10 -37 13 8 13 45 0 65 -7 11 -10 3 -10 -28z"/>
<path d="M7312 2159 c-36 -11 -38 -28 -5 -44 35 -18 53 -37 53 -55 0 -10 9
-20 20 -23 20 -5 21 -2 18 61 -3 63 -4 67 -28 69 -14 1 -40 -3 -58 -8z"/>
<path d="M2210 2099 c52 -46 187 -96 332 -124 l73 -14 -60 5 c-121 11 -282 64
-347 116 -21 16 -38 25 -38 20 0 -23 45 -62 105 -93 36 -19 65 -40 65 -47 0
-12 18 -51 39 -81 5 -8 29 -16 54 -18 39 -4 49 -1 79 26 26 22 46 31 72 31 41
0 44 -11 21 -75 -8 -22 -14 -62 -15 -90 -1 -67 -30 -130 -64 -139 -26 -6 -36
-26 -13 -26 7 0 21 -12 32 -26 l19 -26 22 64 c16 44 23 55 23 37 1 -15 -6 -43
-14 -62 -11 -27 -15 -75 -15 -179 0 -113 -4 -149 -16 -173 -16 -30 -43 -126
-48 -176 -1 -14 -10 -40 -19 -59 -22 -43 -22 -44 8 -23 13 10 25 26 25 35 0 9
8 19 18 22 9 3 22 16 27 28 7 17 18 23 42 23 18 0 38 6 44 12 7 7 20 13 28 13
17 0 17 -5 20 180 2 109 9 178 19 197 21 39 11 85 -26 117 -50 44 -75 100 -69
154 3 24 12 51 21 61 16 15 18 14 36 -9 20 -27 42 -20 22 8 -7 9 -20 32 -29
50 -17 32 -17 35 0 47 16 11 17 17 7 35 -7 13 -9 36 -6 53 6 30 6 30 -14 12
-47 -42 -276 3 -430 86 -44 24 -50 25 -30 8z m440 -504 c7 -9 10 -18 7 -21
-10 -11 -37 5 -37 21 0 19 14 19 30 0z m50 -145 c11 -21 6 -24 -35 -20 -30 3
-38 15 -24 38 15 24 41 15 59 -18z m-90 -289 c0 -6 -4 -13 -10 -16 -5 -3 -10
1 -10 9 0 9 5 16 10 16 6 0 10 -4 10 -9z"/>
<path d="M2192 1970 c-18 -17 -41 -30 -52 -30 -25 0 -27 -40 -5 -73 23 -35 9
-64 -41 -84 -42 -17 -55 -35 -35 -47 18 -12 -2 -48 -40 -72 -44 -28 -44 -54 2
-54 18 0 32 -7 39 -19 15 -28 14 -29 -27 -33 -28 -2 -37 -8 -39 -25 -2 -12 3
-23 11 -27 28 -11 15 -26 -23 -26 -35 0 -68 16 -100 47 -25 24 -46 11 -55 -34
-5 -27 -3 -32 15 -35 14 -2 25 -15 32 -35 15 -42 16 -43 70 -47 25 -2 53 -9
61 -16 12 -10 21 -10 44 0 21 8 35 9 49 1 18 -10 20 -6 26 62 15 161 25 215
55 289 17 42 31 85 31 96 0 11 6 35 14 53 7 19 16 58 20 87 8 62 -3 66 -52 22z"/>
<path d="M6061 1937 c-14 -17 -4 -27 26 -27 25 0 29 10 11 28 -15 15 -23 15
-37 -1z"/>
<path d="M5137 1823 c-7 -12 27 -98 38 -98 16 0 17 31 1 69 -14 34 -29 45 -39
29z"/>
<path d="M6320 1725 c7 -9 15 -13 17 -11 7 7 -7 26 -19 26 -6 0 -6 -6 2 -15z"/>
<path d="M4928 1723 c-9 -2 -24 -16 -33 -29 -16 -24 -15 -27 2 -40 23 -17 28
-17 45 -1 7 7 22 18 33 25 11 6 14 12 7 12 -7 0 -10 5 -6 11 6 10 -13 30 -26
28 -3 -1 -13 -3 -22 -6z"/>
<path d="M2380 1703 c1 -18 29 -43 49 -43 25 0 30 35 5 44 -22 8 -54 8 -54 -1z"/>
<path d="M6387 1672 c-21 -4 -18 -21 6 -36 12 -8 20 -7 29 2 16 16 -9 41 -35
34z"/>
<path d="M1162 1633 c-30 -6 -44 -35 -33 -66 17 -45 81 -15 96 46 6 24 4 27
-16 26 -13 -1 -34 -4 -47 -6z"/>
<path d="M5242 1458 c-5 -7 -12 -51 -16 -98 -3 -47 -9 -104 -12 -126 l-6 -41
59 -9 c64 -8 61 -8 84 -18 11 -5 26 3 48 24 24 25 38 31 63 28 27 -2 33 0 33
17 0 14 -13 26 -42 40 -46 22 -55 35 -23 35 13 0 20 7 20 19 0 22 -80 79 -123
88 -15 3 -36 16 -46 29 -22 28 -25 29 -39 12z"/>
<path d="M1667 1350 c-14 -11 -36 -20 -49 -21 l-23 0 23 -16 c43 -30 13 -93
-45 -93 -23 0 -23 0 -3 -20 11 -11 22 -31 26 -45 5 -20 12 -25 35 -25 39 0 46
-22 21 -62 -11 -18 -23 -55 -26 -81 -3 -27 -8 -53 -12 -58 -7 -12 5 -49 15
-49 11 0 28 45 37 93 9 55 34 82 67 73 33 -8 34 -20 2 -58 -16 -18 -25 -42
-25 -63 0 -29 3 -33 34 -39 18 -4 41 -15 51 -26 23 -26 57 -25 80 0 24 27 52
22 73 -12 15 -26 15 -28 -6 -51 l-22 -23 30 -29 c31 -30 40 -65 17 -65 -8 0
-36 11 -63 25 -27 14 -55 25 -63 25 -21 0 -80 42 -83 60 -3 12 -21 15 -86 16
-48 0 -87 5 -94 12 -6 6 -12 40 -12 76 -1 72 -11 81 -71 62 -49 -15 -65 -34
-60 -74 5 -40 15 -56 15 -24 0 29 18 37 40 17 22 -20 30 -48 20 -66 -9 -14 15
-69 30 -69 6 0 10 -5 10 -11 0 -5 -4 -8 -10 -4 -5 3 -17 1 -27 -4 -10 -5 -26
-12 -35 -15 -13 -4 -18 -16 -18 -46 0 -32 -4 -40 -19 -40 -10 0 -30 12 -44 26
-23 22 -28 24 -49 12 -13 -7 -26 -17 -30 -22 -10 -15 -47 -17 -69 -5 -49 26
-116 -26 -146 -114 -12 -34 -12 -42 2 -63 22 -34 19 -52 -15 -69 -37 -19 -38
-38 -4 -54 16 -7 24 -18 22 -29 -4 -24 -105 -31 -114 -8 -8 22 -23 20 -17 -2
2 -10 -5 -26 -17 -37 -19 -18 -23 -18 -47 -3 -20 12 -35 13 -67 6 -39 -9 -86
-42 -86 -60 0 -13 47 -9 89 8 50 20 104 8 109 -23 2 -14 -4 -26 -17 -33 -12
-6 -21 -19 -21 -30 0 -10 -9 -22 -20 -25 -13 -4 -20 -15 -20 -31 0 -13 -9 -29
-20 -36 -11 -7 -20 -16 -20 -20 0 -5 121 -8 270 -8 l270 0 -6 30 c-5 22 -2 31
10 36 24 9 69 -24 63 -47 -5 -19 8 -19 574 -19 572 0 579 0 579 20 0 11 7 20
15 20 8 0 15 -9 15 -20 0 -20 7 -20 1060 -20 1020 0 1060 1 1060 18 0 30 47
67 80 64 16 -2 42 4 59 12 42 22 48 20 54 -14 8 -38 0 -59 -27 -70 -12 -5 130
-9 339 -9 358 -1 360 -1 370 20 12 27 29 26 33 -1 3 -19 10 -20 223 -20 243 0
241 -1 165 59 -28 22 -49 31 -76 31 -41 0 -64 19 -74 63 -9 37 -22 34 -30 -8
-13 -67 -48 -53 -39 15 4 31 2 40 -16 49 -11 7 -27 24 -35 40 -13 25 -13 31 0
50 14 19 14 23 0 36 -22 22 -40 18 -64 -15 -13 -16 -31 -30 -42 -30 -17 0 -19
5 -13 33 10 52 30 75 74 82 37 6 99 52 99 73 0 5 -21 12 -46 15 -26 2 -50 10
-54 17 -4 6 -25 17 -46 25 -40 13 -51 33 -38 63 13 31 2 76 -27 110 -34 39
-35 42 -9 75 17 21 18 26 5 37 -13 11 -13 16 0 40 8 16 11 31 6 34 -11 7 6 90
20 94 12 5 12 32 -1 32 -5 0 -25 -7 -44 -16 -45 -22 -81 -12 -106 29 -25 41
-25 45 5 59 23 10 23 12 7 24 -20 16 -118 19 -127 4 -4 -6 -19 -4 -42 5 -42
18 -85 19 -100 4 -14 -14 -33 -3 -33 19 0 9 -18 -20 -40 -65 -21 -45 -44 -84
-50 -88 -32 -20 -80 -246 -80 -378 0 -86 -8 -120 -25 -113 -18 7 -45 -26 -45
-54 0 -34 -40 -148 -54 -153 -7 -3 -31 -1 -55 3 -37 7 -44 5 -56 -14 -7 -11
-17 -55 -21 -96 -8 -91 -17 -110 -51 -110 -25 0 -25 1 -9 19 17 19 16 19 -67
1 -85 -19 -256 -41 -299 -39 -23 1 -22 1 2 9 30 10 -69 3 -149 -11 -71 -12
-201 -12 -182 0 8 5 -99 7 -259 5 -151 -2 -271 -2 -268 2 4 3 37 9 75 14 l68
9 -85 -5 c-233 -13 -294 -14 -275 -6 11 5 69 14 129 21 60 6 112 13 114 16 8
8 -13 6 -143 -9 -154 -18 -379 -29 -345 -16 16 6 -30 8 -132 4 -105 -3 -158
-2 -163 5 -4 7 12 11 46 11 29 0 50 3 47 6 -3 3 -57 2 -119 -3 -63 -4 -104 -9
-92 -11 14 -2 20 -8 16 -17 -4 -11 -10 -12 -23 -5 -28 15 -88 12 -115 -6 -14
-9 -23 -20 -20 -24 8 -12 -35 -39 -51 -33 -16 6 -19 39 -4 48 6 4 8 10 5 15
-3 5 8 16 25 25 16 8 30 18 30 21 0 4 -29 3 -65 -1 -43 -4 -65 -3 -65 4 0 9
24 16 95 24 23 3 21 4 -10 5 -22 1 -60 -3 -84 -7 -51 -10 -75 -5 -67 15 3 8
-1 14 -9 14 -18 0 -24 30 -10 55 27 53 39 63 78 60 20 -2 37 1 37 6 0 5 -18 9
-40 9 -22 0 -40 5 -40 10 0 6 -10 10 -23 10 -19 0 -28 14 -57 81 -21 49 -46
89 -62 102 -22 16 -28 29 -28 58 0 21 -6 44 -13 51 -16 16 -22 108 -8 108 6 0
19 10 31 22 l20 22 1 -25 c1 -23 1 -23 11 4 12 34 4 45 -22 29 -27 -17 -32
-15 -28 11 2 18 9 22 35 21 30 -1 34 3 49 49 14 43 15 58 4 106 -7 31 -21 72
-31 92 -10 20 -27 79 -37 130 l-19 94 -56 -3 c-41 -2 -63 2 -88 17 -84 50 -86
51 -117 40 -17 -6 -33 -16 -36 -24 -5 -13 -112 -33 -122 -23 -2 3 0 17 5 31
15 38 -8 53 -42 27z m253 -125 c0 -8 -2 -15 -4 -15 -2 0 -6 7 -10 15 -3 8 -1
15 4 15 6 0 10 -7 10 -15z m170 -140 c10 -9 27 -17 39 -20 60 -11 49 -30 -24
-40 -30 -3 -57 -11 -60 -16 -4 -5 -23 -9 -44 -9 -21 0 -44 -6 -50 -14 -14 -17
-61 -18 -61 -2 0 23 25 46 67 60 23 8 51 24 62 35 25 25 48 27 71 6z m3362
-103 l29 -54 -58 6 c-32 2 -60 5 -62 5 -2 1 -1 8 3 16 3 8 -3 19 -12 25 -15 9
-14 12 12 35 15 15 35 25 44 23 8 -2 28 -27 44 -56z m-3270 -29 c24 -21 23
-33 -2 -33 -11 0 -20 -7 -20 -15 0 -8 -9 -24 -21 -36 -19 -19 -23 -19 -52 -6
-18 8 -47 20 -64 27 -40 15 -42 32 -5 51 66 33 135 38 164 12z m2923 -82 c-3
-12 -11 -21 -16 -21 -6 0 -8 3 -6 8 2 4 7 16 11 26 9 25 20 13 11 -13z m255 9
c0 -11 -4 -20 -10 -20 -5 0 -10 2 -10 4 0 2 -3 11 -6 20 -4 11 -1 16 10 16 9
0 16 -8 16 -20z m82 -42 c-7 -7 -12 -8 -12 -2 0 14 12 26 19 19 2 -3 -1 -11
-7 -17z m-224 -122 c3 -12 -1 -17 -10 -14 -7 3 -15 13 -16 22 -3 12 1 17 10
14 7 -3 15 -13 16 -22z m-3433 -10 c26 -21 28 -25 13 -31 -23 -9 -108 24 -108
41 0 23 62 17 95 -10z m3345 14 c0 -5 -2 -10 -4 -10 -3 0 -8 5 -11 10 -3 6 -1
10 4 10 6 0 11 -4 11 -10z m363 -30 c22 0 28 -4 25 -17 -2 -10 -7 -17 -11 -16
-56 16 -80 14 -131 -11 -85 -42 -111 -30 -61 27 20 23 31 27 53 22 16 -3 39
-2 53 4 14 5 28 5 34 0 5 -5 22 -9 38 -9z m-3631 -18 c-19 -6 -44 6 -37 18 4
7 14 6 28 -2 14 -7 17 -13 9 -16z m3228 14 c0 -16 -14 -36 -26 -36 -14 0 -19
22 -7 33 7 8 33 10 33 3z m-3580 -155 c0 -4 -13 -8 -30 -9 -35 -1 -41 15 -7
20 25 4 37 1 37 -11z m4188 -56 c2 -2 -4 -15 -14 -30 -13 -19 -23 -25 -38 -21
-12 3 -27 6 -33 6 -21 0 -15 26 10 43 19 14 62 15 75 2z m-3508 -28 c0 -5 -4
-5 -10 -2 -5 3 -10 14 -10 23 0 15 2 15 10 2 5 -8 10 -19 10 -23z m2818 -32
c-2 -31 -7 -54 -13 -53 -10 3 -10 40 0 86 9 41 17 23 13 -33z m360 37 c7 -5
15 -26 19 -47 5 -29 2 -40 -10 -47 -10 -5 -17 -15 -17 -22 0 -7 -11 -18 -24
-24 -20 -9 -27 -7 -40 7 -19 21 -21 41 -3 41 7 0 22 7 33 15 18 15 18 15 1 29
-37 29 2 72 41 48z m142 -48 c19 -21 22 -64 5 -64 -26 0 -55 34 -49 58 7 26
26 29 44 6z m-4038 -21 c39 -36 9 -57 -47 -31 -24 11 -32 28 -18 41 12 12 46
7 65 -10z m173 -8 c0 -5 -19 -11 -42 -13 -40 -3 -53 5 -36 22 11 10 78 3 78
-9z m3530 -45 c3 -5 1 -10 -4 -10 -6 0 -11 5 -11 10 0 6 2 10 4 10 3 0 8 -4
11 -10z m-4173 -95 c6 -27 1 -30 -21 -16 -12 8 -12 12 -2 25 17 21 18 20 23
-9z m428 -18 c0 -8 -3 -17 -7 -20 -9 -9 -34 13 -27 24 8 14 34 11 34 -4z
m-139 -17 c28 -16 23 -80 -6 -80 -17 0 -55 52 -55 74 0 18 31 21 61 6z m495
-12 c9 -14 -23 -38 -53 -38 -29 0 -29 14 -1 34 27 19 44 20 54 4z m3082 -16
c21 -14 3 -42 -27 -42 -15 0 -32 -5 -38 -11 -8 -8 -13 -8 -17 0 -11 17 12 49
36 54 13 2 25 5 28 5 3 1 11 -2 18 -6z m415 -14 c4 -10 7 -10 18 0 20 19 154
16 185 -5 23 -15 28 -15 58 0 25 11 36 13 45 4 17 -17 14 -25 -21 -67 -37 -45
-52 -49 -70 -20 -10 15 -24 20 -55 20 -24 0 -56 9 -77 21 -36 21 -93 22 -119
1 -14 -11 -87 -4 -87 8 0 5 -17 10 -37 12 l-38 3 45 16 c56 20 146 24 153 7z
m-3798 -29 c10 -15 -1 -23 -20 -15 -9 3 -13 10 -10 16 8 13 22 13 30 -1z
m-381 -28 c7 -11 -18 -21 -55 -21 -28 0 -37 9 -22 23 10 10 71 8 77 -2z m109
-6 c1 -5 -14 -11 -33 -13 -33 -2 -34 -2 -15 13 21 17 45 17 48 0z m4522 0
c-16 -7 -32 -11 -35 -9 -7 8 24 24 45 23 15 0 13 -4 -10 -14z m-1070 -25 c-16
-4 -43 -8 -60 -8 l-30 0 30 8 c17 4 44 8 60 8 l30 0 -30 -8z m1215 -2 c0 -7
-7 -22 -16 -33 -12 -16 -16 -17 -23 -6 -12 18 -4 39 17 44 10 3 18 5 20 6 1 0
2 -5 2 -11z m-4335 -38 c3 -5 2 -10 -4 -10 -5 0 -13 5 -16 10 -3 6 -2 10 4 10
5 0 13 -4 16 -10z"/>
<path d="M4276 1079 c3 -5 1 -9 -3 -9 -5 0 -22 -12 -38 -27 -16 -16 -33 -27
-37 -25 -5 1 -8 -2 -8 -8 0 -5 -21 -21 -46 -36 l-46 -27 23 -19 c31 -24 115
-17 142 13 21 22 26 23 64 8 21 -8 24 -12 13 -19 -8 -5 -18 -6 -23 -3 -6 3 -8
-5 -5 -19 4 -22 1 -24 -31 -24 -20 1 -39 6 -43 11 -4 6 -8 2 -8 -9 0 -13 -5
-17 -20 -13 -11 3 -23 1 -26 -4 -3 -5 -15 -9 -26 -9 -39 0 -10 -12 64 -26 40
-8 74 -14 76 -14 1 0 2 9 2 20 0 28 18 25 26 -4 6 -24 34 -45 34 -26 0 15 51
45 58 34 4 -5 18 -10 32 -11 24 -1 155 -72 147 -79 -1 -2 -27 3 -56 11 -40 10
-59 11 -77 3 -47 -22 -25 -32 90 -42 28 -2 61 -13 77 -25 38 -28 41 -21 39 83
0 21 5 45 11 52 6 8 9 25 7 39 -3 14 -2 27 1 29 12 8 5 94 -8 110 -11 13 -11
16 0 16 8 0 -1 9 -20 21 -22 13 -44 19 -60 15 -55 -12 -214 -16 -226 -6 -16
13 -106 30 -99 19z m354 -29 c-8 -5 -19 -10 -25 -10 -5 0 -3 5 5 10 8 5 20 10
25 10 6 0 3 -5 -5 -10z m-63 -21 c19 -18 25 -20 38 -9 20 17 29 7 17 -17 -8
-15 -6 -22 9 -32 28 -17 20 -45 -13 -46 -23 -2 -26 1 -16 12 9 11 7 15 -10 20
-12 3 -24 4 -28 3 -4 -1 -10 4 -14 11 -11 17 -72 13 -86 -5 -20 -28 -33 -19
-21 13 6 17 15 28 19 25 4 -3 8 2 8 10 0 37 63 46 97 15z m-127 -14 c0 -15
-14 -34 -21 -29 -5 3 -9 -2 -9 -10 0 -21 -17 -20 -29 1 -15 27 3 51 34 46 14
-3 25 -7 25 -8z m-70 -114 c0 -4 -11 -6 -25 -3 -14 2 -25 6 -25 8 0 2 11 4 25
4 14 0 25 -4 25 -9z m240 -6 c40 -20 38 -36 -2 -28 -26 5 -30 3 -25 -9 9 -24
-4 -30 -19 -10 -9 11 -13 13 -14 4 0 -7 -5 -10 -11 -7 -6 5 -4 12 8 21 19 14
7 19 -21 8 -9 -3 -13 -11 -9 -17 3 -6 1 -7 -6 -3 -6 4 -9 12 -6 17 4 5 -14 9
-39 9 -69 0 -55 19 17 23 34 2 70 4 80 5 10 1 31 -5 47 -13z"/>
<path d="M2635 1020 c-28 -34 -57 -69 -67 -79 -9 -11 -19 -28 -23 -40 -3 -12
-10 -21 -15 -21 -4 0 -15 -17 -23 -37 -8 -21 -27 -49 -41 -62 -29 -27 -34 -43
-11 -35 23 9 18 -4 -6 -17 -15 -8 -19 -8 -15 0 4 6 3 11 -3 11 -14 0 -25 -45
-17 -66 4 -11 14 -15 31 -12 15 3 22 1 18 -5 -4 -6 4 -7 21 -3 32 8 84 -3 66
-14 -7 -5 18 -13 59 -20 40 -7 75 -9 78 -6 4 3 -5 6 -19 6 -22 0 -24 4 -20 30
3 25 9 30 31 30 33 0 45 -8 77 -51 15 -19 24 -27 21 -18 -3 9 -1 21 5 27 7 7
4 18 -7 35 -23 35 -11 50 32 42 29 -5 37 -2 54 19 13 17 30 26 47 26 33 0 64
-19 45 -27 -20 -7 -15 -57 6 -70 15 -10 22 -8 40 8 11 11 21 24 21 29 0 16 63
55 68 42 2 -8 8 -8 19 3 8 8 19 13 24 9 12 -7 -15 -34 -35 -34 -9 0 -16 -6
-16 -13 0 -15 -37 -50 -65 -61 -29 -11 0 -26 51 -26 24 0 60 -10 85 -23 35
-19 66 -25 149 -29 58 -4 114 -10 124 -14 16 -6 18 -4 13 12 -7 18 -6 18 7 2
21 -28 106 -20 106 9 0 8 9 17 20 20 11 3 20 11 20 18 0 8 10 11 28 8 l27 -4
-27 16 c-35 19 -36 27 -4 21 23 -4 24 -3 14 19 -9 19 -7 30 6 50 15 24 15 25
-1 25 -15 0 -16 2 -3 10 10 6 11 10 3 10 -21 0 -53 -33 -53 -55 -1 -18 -2 -18
-11 -3 -5 10 -16 15 -25 11 -8 -3 -23 2 -33 11 -10 9 -20 15 -22 14 -2 -2 1 2
8 8 22 19 -2 37 -41 30 -20 -4 -36 -3 -36 1 0 4 -10 19 -21 33 -11 14 -17 19
-13 11 6 -11 3 -13 -12 -7 -15 6 -17 5 -6 -5 6 -7 12 -21 12 -31 0 -13 8 -18
25 -18 14 0 25 -4 25 -10 0 -5 14 -16 30 -25 17 -9 30 -23 30 -33 0 -15 -2
-15 -11 -2 -9 13 -10 13 -6 0 2 -8 11 -14 21 -12 9 2 16 -4 16 -12 0 -9 11
-23 25 -32 23 -15 26 -34 4 -34 -6 0 -8 4 -5 9 3 5 -3 11 -13 14 -15 3 -18 1
-14 -11 4 -10 -1 -8 -15 6 -18 18 -34 22 -89 22 -59 1 -73 4 -106 29 -24 19
-33 31 -25 34 9 4 7 6 -4 6 -9 1 -29 13 -45 27 -20 18 -36 24 -55 22 -21 -3
-28 0 -28 11 0 12 -2 13 -8 3 -7 -9 -13 -7 -28 9 -19 22 -19 22 7 17 24 -4 25
-2 25 33 0 21 -3 37 -6 37 -19 -2 -29 5 -35 22 -3 11 -12 20 -19 20 -7 0 -27
7 -44 16 -24 12 -32 22 -32 43 0 27 -16 51 -33 51 -5 0 -4 -6 2 -14 10 -12 8
-19 -8 -35 -12 -12 -24 -21 -28 -22 -28 -3 -45 -9 -59 -23 -8 -9 -29 -16 -45
-16 -16 0 -29 -4 -29 -10 0 -5 -9 -10 -20 -10 -14 0 -18 -5 -13 -16 5 -14 3
-15 -17 -4 -12 6 -31 10 -41 7 -10 -3 -19 -1 -19 4 0 5 -4 9 -10 9 -5 0 -10
-7 -10 -15 0 -17 -16 -20 -25 -5 -3 6 -14 10 -24 10 -13 0 -18 8 -19 30 0 17
4 28 9 25 5 -4 9 4 9 16 l0 22 23 -22 c28 -25 57 -19 58 13 0 11 3 15 6 9 7
-20 23 -15 23 6 0 27 60 46 100 33 17 -6 40 -7 57 -2 l28 8 -30 2 c-30 2 -30
2 -5 10 23 7 22 8 -10 8 -19 0 -62 -3 -95 -7 -37 -5 -62 -4 -66 2 -4 5 -14 7
-23 4 -20 -8 -20 -3 0 17 8 9 12 16 7 16 -4 0 -31 -27 -58 -60z m60 -188 c-5
-14 -3 -14 13 1 24 22 27 21 57 -5 27 -23 25 -39 -5 -33 -13 3 -20 -2 -21 -13
-1 -9 -5 -3 -9 13 -6 24 -8 26 -9 8 -1 -23 -26 -32 -33 -13 -2 6 -11 2 -20 -9
-16 -19 -15 -20 14 -30 45 -16 30 -37 -24 -33 -35 3 -47 0 -52 -13 -3 -9 -2
-13 4 -10 6 3 10 2 10 -4 0 -15 -16 -22 -34 -15 -12 5 -13 11 -6 24 13 25 13
30 -4 30 -8 0 -18 5 -21 10 -4 7 2 9 18 5 16 -4 28 -2 34 7 4 7 17 18 28 24
11 6 20 17 21 25 2 35 5 40 14 34 6 -3 10 1 10 10 0 9 5 13 11 10 6 -4 8 -14
4 -23z m343 -3 c31 -10 73 -59 52 -59 -7 0 -19 -7 -27 -16 -13 -12 -18 -13
-24 -3 -4 7 -6 16 -4 19 2 3 -8 6 -21 6 -25 2 -33 -11 -11 -19 6 -3 2 -4 -10
-4 -17 1 -21 6 -17 22 3 12 7 30 9 41 2 10 4 20 4 22 2 5 19 2 49 -9z m-94
-44 c-6 -16 -24 -21 -24 -7 0 11 11 22 21 22 5 0 6 -7 3 -15z m261 -36 c6 -9
-6 -15 -41 -23 -4 0 -8 7 -10 17 -1 12 5 17 21 17 13 0 27 -5 30 -11z m-475
-43 c0 -3 -4 -8 -10 -11 -5 -3 -10 -1 -10 4 0 6 5 11 10 11 6 0 10 -2 10 -4z
m406 -64 c-15 -15 -15 -15 -4 10 7 15 15 23 17 17 2 -6 -4 -18 -13 -27z"/>
<path d="M3 1030 c2 -41 4 -45 29 -48 16 -2 28 1 28 7 0 6 -4 11 -10 11 -5 0
-19 17 -30 38 l-20 37 3 -45z"/>
<path d="M3860 1059 c0 -5 5 -7 10 -4 6 3 10 8 10 11 0 2 -4 4 -10 4 -5 0 -10
-5 -10 -11z"/>
<path d="M4818 1005 c-3 -14 -1 -25 3 -25 5 0 9 11 9 25 0 14 -2 25 -4 25 -2
0 -6 -11 -8 -25z"/>
<path d="M2766 1003 c-11 -11 -6 -21 9 -19 22 3 28 13 11 19 -8 3 -17 3 -20 0z"/>
<path d="M7210 940 c0 -5 5 -10 10 -10 6 0 10 5 10 10 0 6 -4 10 -10 10 -5 0
-10 -4 -10 -10z"/>
<path d="M0 871 c0 -39 4 -71 9 -71 5 0 15 -2 23 -5 7 -3 22 1 33 9 17 12 18
16 5 31 -8 10 -22 36 -30 58 -25 67 -40 59 -40 -22z"/>
<path d="M3186 878 c-9 -12 -16 -32 -16 -43 0 -19 1 -19 18 3 11 14 30 25 45
25 15 1 27 7 27 14 0 7 -6 10 -14 7 -8 -3 -17 -1 -21 5 -10 17 -22 13 -39 -11z"/>
<path d="M7105 891 c-6 -11 33 -26 43 -16 4 3 0 10 -8 15 -19 12 -27 12 -35 1z"/>
<path d="M2433 875 c-7 -8 -10 -21 -7 -29 10 -26 24 -18 24 14 0 34 0 34 -17
15z"/>
<path d="M3816 844 c-9 -22 -9 -22 19 -20 28 1 34 21 9 30 -21 8 -21 8 -28
-10z"/>
<path d="M6073 839 c3 -13 9 -41 12 -61 6 -29 22 -52 75 -102 38 -35 81 -70
96 -78 18 -8 31 -25 36 -45 5 -20 33 -56 68 -92 54 -53 75 -91 51 -91 -5 0
-11 -9 -14 -19 -3 -15 1 -21 17 -23 14 -2 22 -11 24 -30 2 -15 11 -30 21 -33
32 -10 74 -80 67 -112 -4 -17 0 -40 9 -57 8 -15 15 -44 15 -62 0 -30 3 -34 25
-34 14 0 25 5 25 10 0 6 10 10 21 10 20 0 21 4 16 42 -3 24 -11 44 -18 47 -26
8 -89 94 -89 121 0 23 -38 94 -80 150 -27 36 -80 130 -132 234 -32 64 -124
162 -202 215 -48 33 -49 33 -43 10z"/>
<path d="M1755 830 c3 -5 11 -10 16 -10 6 0 7 5 4 10 -3 6 -11 10 -16 10 -6 0
-7 -4 -4 -10z"/>
<path d="M3341 814 c0 -11 3 -14 6 -6 3 7 2 16 -1 19 -3 4 -6 -2 -5 -13z"/>
<path d="M4843 785 c-30 -38 -65 -45 -119 -25 -15 6 -29 8 -32 6 -8 -9 20 -37
45 -47 20 -7 23 -15 23 -63 0 -30 -5 -67 -11 -83 -6 -15 -12 -68 -13 -116 -2
-85 -1 -89 21 -98 16 -6 23 -17 24 -36 1 -19 3 -22 6 -10 3 13 11 17 25 14 17
-5 19 -2 13 16 -16 52 -16 68 -1 98 9 17 13 35 10 40 -3 5 2 19 10 31 9 12 16
30 16 38 0 9 5 21 11 27 6 6 12 36 14 67 2 30 6 69 10 84 4 21 2 29 -9 29 -9
0 -13 -8 -10 -22 2 -12 -3 -30 -11 -41 -13 -17 -14 -18 -16 -1 -5 61 -3 77 11
77 17 0 42 34 33 44 -12 12 -22 6 -50 -29z"/>
<path d="M1437 784 c-3 -17 0 -28 10 -31 21 -8 36 11 28 36 -9 29 -32 26 -38
-5z"/>
<path d="M2405 801 c-3 -6 -29 -10 -56 -9 -35 2 -53 -2 -60 -12 -7 -12 -10
-13 -18 -1 -14 21 -19 -105 -7 -160 10 -45 46 -100 46 -71 0 7 5 12 10 12 6 0
10 -7 10 -15 0 -8 7 -15 15 -15 8 0 15 6 15 14 0 24 17 28 62 15 77 -22 73
-34 -9 -29 -18 1 -33 -2 -33 -7 0 -17 24 -33 51 -33 51 0 90 -12 85 -26 -7
-18 60 -19 68 -1 5 10 7 10 12 0 4 -9 30 -13 77 -14 57 0 67 -2 48 -10 -13 -5
-79 -8 -145 -7 -105 3 -118 5 -96 16 22 11 17 12 -40 8 -36 -3 -67 -5 -69 -6
-3 0 4 -7 15 -15 10 -8 37 -15 59 -15 56 0 90 -10 73 -21 -7 -5 24 -8 71 -8
59 0 88 4 95 14 13 16 342 33 332 17 -8 -13 12 -20 44 -16 14 2 57 6 95 9 56
4 65 3 45 -6 -36 -16 -235 -25 -226 -11 5 8 -12 10 -56 7 -35 -2 -97 -5 -138
-5 -45 0 -70 -4 -62 -9 22 -13 -22 -21 -138 -22 -58 -1 -95 -4 -82 -6 49 -10
18 -23 -53 -23 -43 0 -75 -4 -75 -10 0 -5 7 -10 15 -10 8 0 15 -7 15 -15 0
-17 45 -21 55 -5 3 6 1 10 -5 10 -6 0 -8 5 -5 10 3 6 37 10 76 10 44 0 69 4
69 11 0 8 5 8 15 -1 18 -15 79 -7 99 13 16 16 284 31 299 18 10 -10 -99 -21
-213 -22 -82 0 -84 -1 -50 -14 19 -7 29 -14 22 -14 -7 -1 -10 -6 -6 -12 7 -12
155 -7 208 7 13 3 33 1 42 -4 26 -14 -55 -27 -172 -27 -77 0 -87 -2 -65 -11
26 -12 26 -12 -19 -28 -26 -9 163 -4 209 5 44 10 85 4 76 -10 -5 -9 -71 -20
-170 -28 -33 -2 -65 -9 -72 -15 -8 -6 -19 -6 -32 1 -11 6 -35 11 -53 11 -30 1
-31 2 -15 14 17 13 25 32 9 22 -9 -5 -165 -10 -227 -7 -36 1 -38 3 -22 15 16
13 13 14 -30 18 -52 5 -69 -2 -60 -26 5 -11 20 -16 50 -16 57 0 107 -10 107
-21 0 -5 -30 -9 -67 -10 -38 0 -86 -4 -108 -9 -26 -5 12 -7 105 -3 80 3 148
10 151 15 4 6 9 6 14 -2 5 -8 21 -10 44 -6 21 3 53 1 72 -5 42 -12 199 -12
231 1 13 5 19 9 13 10 -5 0 -3 5 5 10 8 5 41 10 72 10 45 0 57 3 61 18 4 16 5
16 6 0 1 -21 8 -22 66 -7 52 13 100 2 52 -11 -15 -5 -57 -12 -93 -15 -35 -4
-67 -11 -70 -16 -3 -5 -24 -7 -47 -4 l-42 6 34 -15 c18 -9 38 -13 43 -10 6 4
40 6 75 6 35 -1 61 3 58 7 -8 14 46 31 110 36 32 2 62 9 65 16 6 8 9 8 12 -1
3 -9 17 -9 63 -1 70 13 95 14 95 3 0 -5 -41 -14 -92 -21 -51 -6 -97 -16 -103
-21 -6 -5 -29 -7 -51 -5 -39 5 -39 5 -11 -8 15 -7 24 -17 20 -21 -5 -5 1 -6
13 -2 11 3 40 8 63 10 24 2 46 7 50 12 12 17 77 34 129 34 28 0 54 5 57 10 4
6 15 8 25 5 11 -3 38 -1 61 5 24 7 58 8 78 4 l36 -7 -60 -14 c-33 -8 -84 -17
-113 -20 -29 -3 -54 -9 -57 -13 -3 -4 -26 -6 -52 -4 l-48 4 35 -13 c43 -16
177 -8 189 11 10 17 79 33 87 21 3 -5 -5 -14 -18 -19 -18 -7 -12 -8 23 -4 27
3 49 2 53 -4 3 -6 -27 -14 -77 -21 -198 -28 -209 -30 -112 -24 50 3 122 9 160
14 124 17 222 21 205 10 -8 -6 -28 -11 -45 -12 -19 -1 -23 -3 -12 -6 36 -9
181 16 195 34 8 11 12 12 12 4 0 -10 16 -11 73 -6 80 8 84 -6 7 -23 -31 -7
-37 -10 -19 -11 15 -1 81 10 147 24 66 14 132 25 146 25 47 0 27 -17 -31 -28
-174 -32 -142 -42 40 -13 65 11 124 25 132 31 8 7 19 9 25 5 5 -3 10 -1 10 5
0 6 -11 15 -24 19 -13 5 -26 20 -29 32 -8 29 -3 34 16 15 17 -17 27 -11 27 17
0 14 -5 17 -17 13 -9 -4 -19 -2 -22 3 -4 5 -23 6 -48 2 -23 -5 -48 -4 -55 0
-9 6 -3 9 17 9 34 0 49 8 58 30 4 12 6 12 6 -2 1 -13 7 -15 29 -9 15 4 28 15
30 23 3 14 -9 15 -85 12 -48 -2 -94 -6 -100 -9 -7 -2 -13 -1 -13 4 0 12 47 31
76 31 14 0 38 7 54 15 27 14 30 14 30 0 0 -24 19 -18 32 10 6 14 15 25 20 25
4 0 8 5 8 10 0 6 -12 4 -29 -5 -16 -8 -56 -17 -88 -21 -32 -4 -63 -12 -69 -20
-6 -7 -37 -20 -69 -29 -68 -17 -102 -19 -65 -3 14 6 29 10 34 9 17 -4 74 20
79 33 3 7 27 19 54 26 72 19 83 21 83 10 0 -6 10 -5 25 2 20 9 25 19 25 46 0
37 2 37 -84 16 -19 -4 -27 -3 -23 3 4 7 -8 7 -36 2 -95 -20 -140 -23 -132 -9
8 14 -19 12 -135 -10 -36 -6 -96 -9 -135 -7 -38 3 -105 3 -148 -1 -43 -4 -81
-4 -84 1 -5 8 -82 5 -242 -9 -37 -3 -61 -2 -58 3 4 6 -72 9 -184 9 -104 -1
-189 -4 -189 -8 0 -5 -7 -8 -15 -8 -8 0 -15 5 -15 10 0 6 -26 10 -59 10 -33 0
-63 5 -66 10 -4 6 -62 10 -141 10 -74 0 -134 4 -134 9 0 8 -167 23 -272 25
-26 1 -52 6 -58 12 -7 7 15 10 77 8 81 -3 77 -2 -42 11 -71 7 -135 14 -142 14
-7 1 -10 8 -7 16 4 9 0 15 -9 15 -9 0 -13 -7 -11 -17 4 -14 -1 -18 -25 -18
-36 0 -42 22 -8 28 l22 4 -22 2 c-53 3 -16 149 38 150 21 1 66 37 58 46 -4 3
-10 2 -14 -4z m-105 -67 c0 -8 -4 -14 -10 -14 -5 0 -10 9 -10 21 0 11 5 17 10
14 6 -3 10 -13 10 -21z m340 -223 c34 -2 34 -3 10 -12 -28 -12 -173 -2 -165
11 5 7 50 8 155 1z m225 -31 c20 -5 -2 -8 -65 -7 -77 0 -86 1 -45 7 66 9 75 9
110 0z m185 0 c0 -5 -6 -10 -14 -10 -8 0 -18 5 -21 10 -3 6 3 10 14 10 12 0
21 -4 21 -10z m1358 -10 c11 0 13 -3 5 -11 -12 -12 -65 -1 -57 13 3 5 13 7 21
4 8 -3 22 -6 31 -6z m147 0 c8 -13 -5 -13 -25 0 -13 8 -13 10 2 10 9 0 20 -4
23 -10z m85 0 c0 -5 -7 -10 -15 -10 -8 0 -15 5 -15 10 0 6 7 10 15 10 8 0 15
-4 15 -10z m-1486 -9 c3 -5 -20 -11 -52 -13 -67 -6 -105 4 -52 13 54 10 98 10
104 0z m406 -7 c0 -2 -12 -4 -26 -4 -14 0 -23 4 -20 9 6 8 46 4 46 -5z m530 6
c0 -5 -7 -10 -15 -10 -8 0 -15 5 -15 10 0 6 7 10 15 10 8 0 15 -4 15 -10z
m-151 -16 c2 -2 -25 -4 -62 -4 -36 0 -69 4 -72 10 -5 9 124 3 134 -6z m-544
-5 c-58 -12 -234 -11 -215 1 8 5 69 9 135 9 91 -1 110 -3 80 -10z m1131 -8
c-3 -4 -34 -14 -68 -20 -35 -6 -76 -14 -93 -18 -17 -3 -26 -2 -22 3 5 5 45 16
90 25 105 21 99 20 93 10z m-1049 -18 c-13 -12 -143 -32 -215 -33 -83 0 -92
16 -10 18 83 2 191 11 196 17 3 3 12 5 20 5 9 0 12 -3 9 -7z m243 -9 c-56 -18
-262 -31 -240 -15 8 6 38 11 67 11 28 0 54 3 57 8 2 4 40 8 83 9 l78 2 -45
-15z m403 3 c63 -2 74 -11 26 -21 -50 -10 -121 -7 -114 4 8 12 -16 13 -86 1
-30 -5 -99 -12 -154 -14 -90 -5 -97 -4 -70 8 17 8 56 14 87 15 31 0 59 3 62 8
4 6 83 6 249 -1z m127 3 c-8 -5 -26 -9 -40 -9 l-25 1 25 8 c14 4 32 8 40 9 13
1 13 0 0 -9z m-1016 -49 c8 -12 -38 -19 -169 -26 -75 -4 -105 -3 -94 4 8 5 37
11 63 12 26 2 49 5 51 8 6 10 143 12 149 2z m296 0 c20 -6 13 -10 -40 -19 -95
-18 -299 -36 -307 -29 -13 14 9 20 84 24 47 2 80 8 85 16 5 9 10 9 18 1 9 -9
24 -8 58 1 54 15 67 16 102 6z m755 -12 c-126 -34 -303 -54 -265 -29 8 5 41
10 72 10 31 0 59 4 62 8 3 5 20 9 38 10 18 1 47 6 63 11 17 5 46 9 65 9 28 0
21 -4 -35 -19z m-653 0 c3 -8 19 -8 61 1 39 9 61 10 68 3 13 -13 -109 -33
-198 -32 l-68 1 55 9 c30 5 57 14 58 19 5 13 19 13 24 -1z m412 1 c-13 -13
-193 -40 -268 -40 -79 0 -63 13 27 22 163 15 191 19 196 23 2 3 16 5 30 5 16
0 22 -3 15 -10z m300 -38 c7 -12 -166 -51 -259 -59 -76 -6 -79 -5 -65 12 14
16 13 17 -5 12 -82 -25 -282 -37 -269 -15 5 8 -4 9 -32 4 -21 -4 -78 -9 -126
-13 -68 -5 -88 -3 -88 7 0 9 13 11 45 7 33 -3 50 0 61 11 12 12 18 12 24 3 5
-10 16 -10 46 -2 50 14 125 15 104 1 -11 -7 3 -10 48 -10 52 0 62 3 62 17 0
15 1 15 13 1 11 -15 18 -15 67 -2 43 12 60 12 77 3 26 -14 126 -6 194 15 51
16 96 20 103 8z m212 -1 c-9 -14 -116 -39 -196 -45 -64 -5 -72 -4 -58 8 10 7
51 16 91 19 41 4 85 11 98 16 30 12 72 14 65 2z m-1332 -26 c9 -12 23 -14 74
-9 34 4 62 11 62 17 0 6 5 6 13 -1 8 -7 28 -7 57 -2 57 12 110 12 110 2 0 -11
-239 -42 -315 -42 -57 1 -59 1 -35 15 22 13 23 14 5 15 -11 0 -36 -4 -55 -10
-34 -10 -176 -2 -164 9 6 6 78 13 183 19 39 2 56 -2 65 -13z m1331 -35 c7 -11
-86 -40 -131 -40 -24 0 -33 -5 -37 -21 -5 -18 -8 -19 -27 -9 -14 7 -40 10 -69
6 -35 -5 -42 -4 -28 4 23 15 110 37 167 43 25 3 56 10 70 16 32 13 47 13 55 1z
m-237 -9 c13 -8 -116 -41 -164 -41 -13 0 -27 -6 -30 -14 -4 -11 -20 -14 -57
-12 -80 5 -82 5 -72 15 6 5 56 15 113 21 56 7 121 18 145 25 52 17 49 16 65 6z
m-341 -14 c92 17 112 -1 24 -20 -81 -19 -191 -23 -191 -7 0 6 18 10 40 10 28
0 43 5 47 16 4 12 8 13 14 3 6 -10 20 -10 66 -2z m-1414 -14 c-7 -2 -19 -2
-25 0 -7 3 -2 5 12 5 14 0 19 -2 13 -5z m2067 0 c-8 -2 -22 -7 -30 -9 -13 -5
-13 -6 0 -15 11 -8 6 -9 -19 -5 -18 3 -43 6 -55 6 -21 1 -21 1 -2 15 12 9 40
15 70 14 28 0 44 -3 36 -6z"/>
<path d="M3839 793 c-13 -16 -12 -17 4 -4 16 13 21 21 13 21 -2 0 -10 -8 -17
-17z"/>
<path d="M4340 771 c0 -6 4 -13 10 -16 6 -3 7 1 4 9 -7 18 -14 21 -14 7z"/>
<path d="M3535 750 c3 -5 8 -10 11 -10 2 0 4 5 4 10 0 6 -5 10 -11 10 -5 0 -7
-4 -4 -10z"/>
<path d="M3830 740 c0 -6 -12 -9 -27 -8 -20 2 -28 -2 -28 -12 0 -9 11 -16 28
-18 41 -5 56 3 50 27 -5 22 -23 29 -23 11z"/>
<path d="M4000 746 c0 -2 7 -6 15 -10 8 -3 15 -1 15 4 0 6 -7 10 -15 10 -8 0
-15 -2 -15 -4z"/>
<path d="M3310 724 c0 -12 21 -44 29 -44 21 0 18 28 -5 39 -13 6 -24 8 -24 5z"/>
<path d="M2140 679 c0 -11 5 -17 10 -14 6 3 10 13 10 21 0 8 -4 14 -10 14 -5
0 -10 -9 -10 -21z"/>
<path d="M5810 685 c0 -8 0 -18 -1 -22 0 -4 4 -9 9 -11 6 -2 9 8 8 23 -1 26
-16 36 -16 10z"/>
<path d="M0 670 c0 -19 3 -21 12 -12 9 9 9 15 0 24 -9 9 -12 7 -12 -12z"/>
<path d="M2797 644 c-10 -14 -13 -24 -7 -24 6 0 8 -4 5 -10 -3 -5 0 -10 9 -10
8 0 20 -2 28 -5 19 -7 17 51 -2 63 -11 7 -20 3 -33 -14z"/>
<path d="M566 631 c-3 -4 6 -6 19 -3 14 2 25 6 25 8 0 8 -39 4 -44 -5z"/>
<path d="M2897 607 c-8 -22 1 -27 55 -27 48 0 57 7 37 27 -8 8 -20 8 -41 1
-22 -8 -32 -8 -38 1 -5 10 -9 9 -13 -2z"/>
<path d="M3078 583 c6 -2 18 -2 25 0 6 3 1 5 -13 5 -14 0 -19 -2 -12 -5z"/>
<path d="M3063 543 c15 -2 39 -2 55 0 15 2 2 4 -28 4 -30 0 -43 -2 -27 -4z"/>
<path d="M0 494 l0 -35 30 16 c17 9 30 19 30 23 0 4 -13 13 -30 19 -30 11 -30
11 -30 -23z"/>
<path d="M2315 500 c-3 -5 -1 -10 4 -10 6 0 11 -7 11 -15 0 -8 7 -15 15 -15 9
0 12 6 9 15 -4 8 -1 15 5 15 6 0 11 5 11 10 0 6 -11 10 -24 10 -14 0 -28 -4
-31 -10z"/>
<path d="M5850 480 c0 -6 7 -10 15 -10 8 0 15 2 15 4 0 2 -7 6 -15 10 -8 3
-15 1 -15 -4z"/>
<path d="M2324 414 c3 -9 6 -18 6 -20 0 -2 5 -4 10 -4 6 0 10 6 10 14 0 8 8
17 18 19 9 3 2 5 -17 6 -26 1 -32 -2 -27 -15z"/>
<path d="M2355 383 c-45 -10 -47 -12 -31 -28 16 -17 41 -21 31 -5 -6 10 0 11
67 14 21 0 39 6 40 11 3 10 -73 16 -107 8z"/>
<path d="M4751 334 c0 -11 3 -14 6 -6 3 7 2 16 -1 19 -3 4 -6 -2 -5 -13z"/>
<path d="M4732 300 c0 -14 2 -19 5 -12 2 6 2 18 0 25 -3 6 -5 1 -5 -13z"/>
<path d="M2520 299 c-19 -4 -28 -7 -20 -8 12 -1 12 -3 2 -10 -9 -5 3 -10 34
-15 27 -3 52 -2 58 4 6 6 14 6 22 -1 7 -6 33 -7 62 -3 40 5 50 10 49 24 -1 16
-11 18 -87 16 -47 0 -101 -4 -120 -7z"/>
<path d="M4718 244 c-4 -5 0 -20 8 -34 7 -14 13 -18 13 -10 -1 24 -15 54 -21
44z"/>
<path d="M2528 163 c6 -2 18 -2 25 0 6 3 1 5 -13 5 -14 0 -19 -2 -12 -5z"/>
<path d="M6167 128 c-12 -10 -32 -18 -44 -18 -27 0 -37 -14 -20 -28 19 -16
122 -26 143 -14 12 7 25 7 36 1 24 -13 23 -7 -8 38 -29 43 -68 51 -107 21z"/>
<path d="M4146 122 c-2 -4 11 -6 30 -4 19 2 34 6 34 8 0 8 -59 4 -64 -4z"/>
<path d="M4093 113 c9 -2 23 -2 30 0 6 3 -1 5 -18 5 -16 0 -22 -2 -12 -5z"/>
<path d="M4348 113 c7 -3 16 -2 19 1 4 3 -2 6 -13 5 -11 0 -14 -3 -6 -6z"/>
<path d="M3078 103 c7 -3 16 -2 19 1 4 3 -2 6 -13 5 -11 0 -14 -3 -6 -6z"/>
<path d="M3768 103 c7 -3 16 -2 19 1 4 3 -2 6 -13 5 -11 0 -14 -3 -6 -6z"/>
<path d="M3658 93 c12 -2 30 -2 40 0 9 3 -1 5 -23 4 -22 0 -30 -2 -17 -4z"/>
<path d="M4198 93 c6 -2 18 -2 25 0 6 3 1 5 -13 5 -14 0 -19 -2 -12 -5z"/>
<path d="M4405 90 c-27 -7 -27 -8 -5 -8 14 0 36 4 50 8 20 6 21 8 5 8 -11 0
-33 -4 -50 -8z"/>
<path d="M3868 83 c7 -3 16 -2 19 1 4 3 -2 6 -13 5 -11 0 -14 -3 -6 -6z"/>
<path d="M4075 80 l-40 -7 35 -1 c19 0 53 3 75 7 l40 9 -35 -1 c-19 0 -53 -3
-75 -7z"/>
<path d="M3783 73 c9 -2 23 -2 30 0 6 3 -1 5 -18 5 -16 0 -22 -2 -12 -5z"/>
<path d="M737 23 c-15 -14 -6 -23 24 -23 27 0 30 2 19 15 -13 16 -32 19 -43 8z"/>
<path d="M4780 9 c0 -5 11 -9 25 -9 14 0 25 2 25 4 0 2 -11 6 -25 8 -14 3 -25
1 -25 -3z"/>
<path d="M7345 10 c-4 -6 7 -10 24 -10 17 0 31 5 31 10 0 6 -11 10 -24 10 -14
0 -28 -4 -31 -10z"/>
</g>
</svg>
