<?xml version="1.0" standalone="no"?>
<!DOCTYPE svg PUBLIC "-//W3C//DTD SVG 20010904//EN"
 "http://www.w3.org/TR/2001/REC-SVG-20010904/DTD/svg10.dtd">
<svg version="1.0" xmlns="http://www.w3.org/2000/svg"
 width="360.000000pt" height="540.000000pt" viewBox="0 0 360.000000 540.000000"
 preserveAspectRatio="xMidYMid meet">

<g transform="translate(0.000000,540.000000) scale(0.100000,-0.100000)"
fill="#000000" stroke="none">
<path d="M1456 5022 c-3 -5 8 -16 25 -26 l29 -17 0 25 c0 21 -5 26 -24 26 -14
0 -27 -4 -30 -8z"/>
<path d="M1805 5010 c11 -5 27 -9 35 -9 9 0 8 4 -5 9 -11 5 -27 9 -35 9 -9 0
-8 -4 5 -9z"/>
<path d="M1780 4985 c0 -9 6 -12 15 -9 8 4 15 10 15 15 0 5 -7 9 -15 9 -8 0
-15 -7 -15 -15z"/>
<path d="M1417 4954 c-3 -3 -3 -12 0 -20 4 -12 -1 -14 -23 -10 -16 3 -8 -1 19
-10 56 -18 64 -39 11 -31 -20 4 -46 1 -57 -4 -14 -8 -18 -8 -13 0 4 6 1 11 -8
11 -16 0 -67 -46 -59 -53 2 -3 -20 -24 -50 -46 -29 -23 -59 -53 -66 -68 -25
-55 -34 -413 -10 -413 4 0 10 -12 13 -27 23 -120 28 -144 32 -141 2 2 -1 32
-6 66 -6 34 -15 108 -20 165 -6 56 -13 120 -16 141 -10 58 13 141 48 182 46
52 64 46 61 -22 -1 -32 -8 -63 -16 -72 -8 -10 -25 -37 -38 -62 -28 -56 -29
-121 -5 -315 20 -157 29 -190 54 -192 9 -1 31 -5 47 -8 l30 -7 -2 101 c-1 55
-7 118 -13 141 -9 32 -8 53 5 103 9 34 19 75 23 91 4 16 13 31 19 33 9 3 9 -7
-2 -37 -22 -63 -20 -88 8 -87 12 0 49 -1 82 -3 52 -3 61 -6 62 -22 1 -11 -6
-27 -15 -37 -57 -61 -82 -94 -82 -107 0 -24 31 -78 39 -67 3 7 14 0 25 -15 19
-25 19 -25 0 -20 -17 4 -19 0 -19 -36 1 -23 6 -50 13 -61 11 -19 11 -19 13 5
3 47 6 71 11 75 10 11 48 -28 48 -50 0 -17 5 -22 18 -20 9 2 34 7 55 10 50 8
47 22 -8 31 -44 6 -57 17 -32 27 9 4 9 6 -1 6 -7 1 -10 6 -7 11 4 6 -6 10 -24
10 -33 0 -48 14 -29 27 40 24 142 29 189 7 43 -19 48 -28 22 -43 -10 -6 -13
-11 -7 -11 11 0 64 52 64 64 0 13 -68 36 -107 36 -21 0 -45 5 -53 10 -13 8
-12 10 3 10 9 0 17 5 17 11 0 6 -9 8 -22 4 -18 -5 -19 -4 -8 4 8 5 12 11 10
13 -38 24 -74 39 -86 34 -27 -10 -14 24 21 55 32 29 35 35 35 88 -1 46 -5 61
-28 87 -15 17 -35 34 -44 37 -21 7 -24 33 -5 40 6 2 21 1 32 -4 11 -4 47 -8
80 -9 33 -1 71 -5 85 -10 l25 -7 -27 -11 c-31 -13 -53 -47 -41 -65 4 -6 8 -28
8 -47 0 -31 4 -36 30 -41 48 -11 113 -10 120 1 4 6 -9 10 -31 10 -24 0 -34 4
-29 9 15 14 112 -9 132 -31 12 -13 20 -42 23 -86 5 -60 6 -64 20 -47 13 17 13
18 0 10 -9 -5 -7 1 5 15 11 13 15 21 9 17 -6 -3 -11 0 -11 8 0 18 9 19 27 3 8
-7 6 -2 -5 11 l-20 24 22 -5 c16 -4 20 -2 16 10 -5 11 -3 13 8 7 11 -7 12 -6
3 6 -6 8 -10 24 -8 37 3 14 0 21 -6 17 -5 -3 -10 -4 -10 -1 0 3 10 10 21 17
17 9 20 8 14 -2 -5 -8 -4 -10 3 -5 13 8 8 43 -15 92 -10 23 -12 49 -6 107 l8
76 31 -15 c17 -8 41 -33 53 -54 25 -44 39 -133 24 -152 -5 -7 -11 -33 -12 -58
-1 -25 -7 -62 -12 -84 -6 -21 -8 -40 -5 -43 3 -3 -1 -20 -9 -38 -7 -19 -11
-36 -8 -39 3 -3 1 -11 -5 -19 -6 -7 -14 -28 -17 -47 -8 -53 11 -18 35 62 11
37 24 69 29 72 19 12 33 129 29 238 -5 136 -21 174 -100 241 -48 40 -99 63
-182 82 -23 5 -27 8 -15 16 12 8 12 10 -1 19 -8 5 -25 10 -38 10 -41 0 -13 18
46 30 111 22 121 30 31 24 -61 -4 -93 -2 -107 7 -16 10 -31 10 -74 0 -32 -8
-73 -11 -99 -7 -24 4 -55 7 -68 7 -19 1 -21 3 -10 11 13 9 -43 6 -93 -4 -7 -2
-12 3 -10 10 2 13 -1 15 -11 6z m-107 -154 c-20 -13 -40 -13 -40 0 0 6 12 10
28 10 21 0 24 -2 12 -10z m584 -9 c4 -5 -3 -7 -14 -4 -23 6 -26 13 -6 13 8 0
17 -4 20 -9z m53 -7 c-3 -3 -12 -4 -19 -1 -8 3 -5 6 6 6 11 1 17 -2 13 -5z
m63 -24 c0 -5 -7 -7 -15 -4 -8 4 -15 8 -15 10 0 2 7 4 15 4 8 0 15 -4 15 -10z
m-132 -135 c-3 -3 -9 2 -12 12 -6 14 -5 15 5 6 7 -7 10 -15 7 -18z m40 -30
c-3 -3 -9 2 -12 12 -6 14 -5 15 5 6 7 -7 10 -15 7 -18z m-413 -115 c16 -7 12
-9 -18 -9 -23 -1 -36 3 -32 9 7 12 23 12 50 0z m310 -12 c41 -19 28 -27 -20
-12 -25 7 -53 11 -63 8 -14 -5 -15 -4 -2 5 20 14 53 14 85 -1z m-411 -29 c-21
-24 -29 -18 -14 10 6 12 16 19 21 15 6 -4 4 -13 -7 -25z m-149 12 c3 -5 0 -13
-5 -16 -7 -5 -5 -12 7 -22 10 -8 11 -11 3 -7 -12 6 -12 4 1 -12 9 -10 14 -25
12 -32 -3 -8 1 -10 13 -5 12 4 15 3 10 -6 -4 -6 -15 -10 -24 -9 -10 2 -16 -3
-14 -10 1 -7 -3 -22 -9 -34 -8 -15 -8 -18 0 -14 6 4 11 1 11 -8 0 -8 4 -18 10
-21 5 -3 7 0 4 8 -3 8 3 20 13 27 15 12 16 12 6 0 -15 -16 -17 -34 -3 -25 5 3
5 -6 -1 -24 -8 -21 -7 -36 1 -51 7 -13 8 -20 2 -16 -12 7 -21 -13 -14 -31 2
-7 9 -10 15 -6 5 3 7 1 4 -5 -11 -17 -42 -7 -44 14 -1 10 -6 37 -12 59 -5 22
-9 69 -10 105 0 36 -2 74 -4 85 -3 11 3 29 12 39 15 18 15 19 -2 13 -11 -4
-16 -3 -12 3 8 13 22 13 30 1z m303 -36 c-3 -3 -9 2 -12 12 -6 14 -5 15 5 6 7
-7 10 -15 7 -18z m-282 -110 c-9 -9 -16 -13 -16 -8 0 12 22 34 28 28 2 -2 -3
-11 -12 -20z"/>
<path d="M1249 4363 c-13 -16 -12 -17 4 -4 9 7 17 15 17 17 0 8 -8 3 -21 -13z"/>
<path d="M1580 4945 c28 -16 100 -20 100 -6 0 12 -37 21 -85 21 -40 -1 -40 -1
-15 -15z"/>
<path d="M1239 4873 c-13 -16 -12 -17 4 -4 9 7 17 15 17 17 0 8 -8 3 -21 -13z"/>
<path d="M1280 4875 c-7 -8 -8 -15 -2 -15 5 0 15 7 22 15 7 8 8 15 2 15 -5 0
-15 -7 -22 -15z"/>
<path d="M1900 4865 c0 -8 6 -16 13 -16 38 -4 88 -20 83 -28 -2 -3 7 -7 21 -7
l25 -2 -23 24 c-31 33 -8 30 33 -3 27 -23 30 -23 13 -4 -30 34 -69 51 -120 51
-33 0 -45 -4 -45 -15z"/>
<path d="M2076 4421 c-9 -16 -12 -31 -9 -35 4 -3 0 -6 -7 -6 -10 0 -11 -3 -3
-11 11 -11 10 -18 -33 -200 -17 -72 -29 -106 -39 -106 -8 0 -12 4 -9 9 3 4 0
8 -7 8 -8 0 -7 5 2 17 10 11 10 14 2 9 -9 -5 -13 -1 -14 11 -1 10 -2 25 -3 33
-1 8 3 21 9 29 8 12 7 13 -4 6 -11 -6 -13 -4 -8 9 4 10 3 15 -3 11 -6 -3 -10
-16 -10 -28 -1 -12 -9 -56 -19 -97 -15 -62 -24 -81 -57 -113 -56 -55 -113 -77
-195 -77 -37 0 -70 4 -73 9 -10 16 -56 19 -56 4 0 -40 -51 -21 -130 51 -25 23
-39 34 -32 27 20 -24 14 -38 -25 -55 -21 -8 -45 -21 -54 -28 -16 -14 -62 -95
-78 -140 -8 -21 -22 -30 -64 -42 -50 -15 -74 -30 -76 -48 -1 -5 -1 -15 -1 -24
0 -8 -5 -12 -10 -9 -6 4 -7 12 -3 18 5 9 3 9 -8 0 -8 -6 -43 -19 -78 -28 -88
-22 -149 -54 -130 -66 12 -8 12 -10 -1 -8 -21 3 -70 -18 -70 -30 0 -5 6 -11
13 -14 6 -2 9 -7 6 -11 -4 -4 -14 0 -23 9 -15 15 -17 15 -22 1 -3 -9 -3 -28 0
-42 5 -20 1 -33 -14 -49 -20 -21 -20 -25 -6 -59 13 -32 7 -52 -9 -26 -4 6 -13
5 -26 -3 -18 -11 -20 -19 -14 -69 5 -50 4 -57 -10 -52 -23 9 -19 -19 11 -76
17 -32 23 -56 19 -70 -11 -35 -30 -16 -36 36 l-5 49 -17 -37 c-22 -49 -21 -64
4 -81 15 -11 17 -17 8 -22 -7 -5 -18 0 -26 10 -13 18 -13 18 -14 -1 -3 -51 9
-94 26 -94 8 0 15 -5 15 -11 0 -5 -4 -8 -9 -4 -5 3 -2 -9 6 -27 13 -25 18 -28
22 -15 9 24 28 7 33 -30 4 -29 1 -34 -39 -55 -48 -26 -61 -54 -17 -38 38 15
42 12 12 -8 -24 -15 -25 -19 -12 -37 8 -10 14 -39 15 -64 0 -25 3 -39 6 -31
15 38 55 90 85 110 22 14 26 16 13 3 -27 -23 -65 -86 -65 -105 0 -8 -9 -25
-20 -38 -21 -24 -25 -42 -13 -54 4 -4 6 -46 4 -94 -4 -140 48 -271 123 -312
97 -53 137 -83 131 -98 -4 -12 -3 -13 10 -2 18 15 18 16 0 -43 -8 -26 -19 -84
-25 -130 -10 -76 -26 -135 -40 -147 -3 -3 -11 -26 -18 -53 -6 -26 -24 -66 -38
-89 l-26 -41 38 23 37 24 -8 -40 c-14 -61 -11 -166 5 -194 8 -14 13 -29 12
-33 -1 -5 2 -24 7 -43 9 -32 -1 -49 -12 -21 -4 8 -6 8 -6 -2 -1 -8 11 -28 27
-45 l27 -30 -27 17 c-15 9 -30 17 -33 17 -11 0 -5 -24 10 -40 14 -16 14 -18 0
-23 -8 -4 -15 -1 -16 6 -3 33 -28 -76 -28 -125 -1 -31 -8 -83 -16 -115 -21
-80 -19 -190 4 -255 19 -54 31 -139 56 -409 8 -85 18 -169 21 -186 l6 -33 323
0 322 0 7 52 c4 29 19 73 34 98 21 37 27 64 34 150 4 58 12 128 16 155 7 50 8
50 22 25 8 -14 15 -43 16 -65 1 -22 9 -82 17 -134 9 -52 14 -105 11 -117 -3
-12 0 -32 6 -44 7 -12 15 -43 19 -69 l6 -46 322 -3 322 -2 10 37 c6 21 15 76
20 123 6 47 19 164 31 260 12 96 22 198 24 225 2 28 1 33 -1 13 -2 -21 -8 -38
-13 -38 -12 0 0 73 15 85 16 14 26 83 16 125 -4 19 -3 57 2 85 6 32 5 51 -1
53 -7 2 -7 13 0 33 10 29 7 84 -7 155 -6 26 -3 32 19 42 26 12 36 34 14 30 -8
-2 -14 10 -16 27 -3 29 -3 29 12 10 15 -20 16 -19 12 5 -3 14 -5 29 -5 33 -1
5 -18 7 -38 5 -29 -2 -37 -7 -35 -20 1 -9 -7 -22 -19 -29 -21 -11 -22 -10 -16
19 l6 30 -222 -4 c-249 -5 -337 -12 -317 -24 7 -4 20 -6 29 -3 14 5 14 4 0
-12 -16 -16 -20 -16 -65 -1 -27 9 -54 20 -60 24 -21 14 -103 143 -120 189 -10
27 -25 59 -34 73 -10 14 -23 36 -30 50 l-13 25 29 -25 c39 -33 44 -41 44 -67
0 -26 11 -35 29 -24 15 10 7 26 -44 98 -30 43 -50 53 -58 31 -2 -7 -14 7 -27
32 -12 25 -32 58 -44 75 -23 33 -24 36 -31 121 -4 42 -1 75 9 105 9 24 16 56
16 70 0 15 7 29 15 33 8 3 15 18 15 34 0 16 13 45 30 68 16 21 30 45 30 52 0
7 12 24 28 38 l27 26 3 266 c2 248 4 269 22 294 28 38 26 48 -23 120 -24 35
-53 81 -65 103 -23 42 -104 276 -98 282 9 9 246 65 416 98 102 19 193 40 202
45 23 13 31 13 23 0 -3 -5 -2 -10 4 -10 6 0 27 -15 47 -32 21 -18 35 -26 32
-18 -2 8 -19 24 -36 35 -40 25 -40 35 -1 35 l31 0 -26 34 c-28 38 -33 51 -13
40 7 -4 9 -3 4 2 -5 5 -12 9 -16 9 -4 0 -15 8 -25 18 -10 9 -22 15 -27 12 -5
-4 -9 -1 -9 4 0 6 2 11 5 11 17 0 91 -46 125 -77 43 -38 48 -35 26 18 -26 65
-29 79 -12 73 9 -3 14 -10 11 -14 -3 -5 1 -12 9 -17 8 -4 19 -31 24 -58 5 -30
13 -49 20 -48 7 2 12 -2 12 -7 0 -6 -4 -10 -9 -10 -19 0 3 -86 30 -121 23 -29
28 -43 23 -68 -5 -24 -3 -31 10 -31 12 0 16 9 16 35 0 19 5 35 10 35 6 0 13 8
17 18 3 9 13 26 22 36 11 14 12 17 2 11 -23 -13 -6 64 21 92 21 22 23 23 30 6
5 -12 6 -8 5 15 -1 17 -5 32 -9 32 -5 0 -2 14 7 30 9 17 11 30 6 30 -6 0 -18
-17 -28 -37 -12 -26 -19 -33 -21 -21 -2 9 2 26 7 37 16 30 14 33 -19 26 -27
-6 -30 -4 -31 17 0 18 -2 19 -7 6 -6 -15 -12 -14 -62 11 -30 15 -66 34 -80 43
-14 10 -49 22 -78 29 -32 6 -51 15 -49 22 2 7 -4 29 -14 49 -11 21 -19 43 -19
51 0 21 -40 53 -93 76 -55 24 -67 21 -67 -15 0 -16 -5 -24 -12 -21 -7 2 -12
10 -10 16 1 6 -2 11 -8 11 -5 0 -7 7 -4 15 3 8 11 13 17 12 7 -1 11 4 9 11 -1
6 2 12 7 12 5 0 8 8 7 18 -1 13 7 17 37 16 30 -1 38 3 42 20 2 11 12 59 20
104 9 46 25 108 35 137 18 54 37 185 26 185 -3 0 -12 -13 -20 -29z m-651 -549
c-10 -10 -25 21 -24 48 1 23 2 22 15 -9 8 -18 12 -36 9 -39z m435 21 c0 -10
-32 -43 -42 -43 -5 0 -1 11 9 25 17 23 33 32 33 18z m15 -160 c-3 -24 -12 -43
-18 -43 -7 0 -4 -7 6 -14 16 -13 15 -16 -22 -45 -46 -37 -124 -66 -149 -56
-16 6 -16 7 1 16 13 8 15 14 7 29 -6 11 -16 17 -25 14 -8 -4 -15 -2 -15 4 0 6
-3 17 -6 25 -3 10 3 17 20 21 29 7 35 36 8 36 -24 0 -49 20 -56 46 -6 21 -2
22 81 29 48 4 93 11 100 17 6 5 24 13 40 17 26 7 28 5 31 -23 2 -17 1 -50 -3
-73z m450 -135 c25 5 73 -144 59 -182 -16 -43 -70 14 -58 61 3 10 -10 50 -28
88 -43 93 -44 95 -12 60 15 -16 33 -29 39 -27z m-1266 -75 c-5 -14 -8 -32 -5
-40 3 -7 1 -13 -5 -13 -5 0 -13 8 -16 18 -4 9 -10 20 -15 23 -16 11 4 39 28
39 21 0 23 -2 13 -27z m1358 -5 c-3 -8 -6 -5 -6 6 -1 11 2 17 5 13 3 -3 4 -12
1 -19z m-1477 -9 c0 -6 7 -8 16 -5 8 3 12 2 9 -4 -4 -6 8 -11 27 -11 23 -1 26
-3 11 -6 -24 -5 -31 -27 -12 -39 6 -3 19 -20 30 -38 13 -21 19 -25 19 -13 0
27 15 20 18 -8 1 -15 -4 -28 -13 -31 -8 -4 -15 -15 -15 -27 0 -20 0 -20 -24 2
-13 13 -27 34 -30 47 -4 14 -11 22 -15 19 -5 -3 -14 10 -20 28 -6 17 -21 39
-33 48 -13 10 -19 23 -15 33 7 18 47 22 47 5z m200 -44 c0 -8 -7 -15 -15 -15
-8 0 -15 5 -15 11 0 5 5 7 10 4 6 -3 10 -1 10 4 0 6 2 11 5 11 3 0 5 -7 5 -15z
m-80 -35 c0 -5 -4 -10 -10 -10 -5 0 -10 5 -10 10 0 6 5 10 10 10 6 0 10 -4 10
-10z m1311 -57 c13 -16 12 -17 -3 -4 -10 7 -18 15 -18 17 0 8 8 3 21 -13z
m-1444 -49 c-3 -3 -12 -4 -19 -1 -8 3 -5 6 6 6 11 1 17 -2 13 -5z m23 -44 c13
-11 21 -22 18 -25 -3 -3 -18 6 -34 20 -16 14 -24 25 -18 25 6 0 21 -9 34 -20z
m-12 -47 c29 -19 61 -53 62 -65 0 -5 -25 9 -54 29 -30 20 -53 40 -50 45 7 11
11 10 42 -9z m88 -145 c24 -40 52 -102 58 -128 6 -25 6 -25 -5 -2 -7 12 -15
22 -20 22 -4 0 -5 -10 -3 -22 l5 -23 -10 23 c-6 12 -8 29 -5 37 4 8 1 15 -5
15 -6 0 -11 13 -11 29 0 17 -4 32 -9 35 -5 3 -11 15 -14 27 -6 24 0 20 19 -13z
m-319 -140 c-3 -8 -6 -5 -6 6 -1 11 2 17 5 13 3 -3 4 -12 1 -19z m48 -118 c-3
-5 -12 -10 -18 -10 -7 0 -6 4 3 10 19 12 23 12 15 0z m46 -387 c-5 -10 -17
-27 -26 -38 -16 -19 -16 -19 -4 5 13 27 29 50 36 50 2 0 -1 -8 -6 -17z m-60
-119 c-5 -16 -10 -21 -10 -12 -1 18 10 51 15 45 2 -1 -1 -16 -5 -33z m49 -21
c-11 -17 -11 -17 -6 0 3 10 7 26 7 35 1 15 2 15 6 0 2 -10 -1 -25 -7 -35z m50
-63 c0 -5 -5 -10 -11 -10 -5 0 -7 5 -4 10 3 6 8 10 11 10 2 0 4 -4 4 -10z
m1580 -1015 c0 -11 -44 -65 -52 -65 -5 0 -6 6 -2 13 4 6 -2 4 -13 -5 -11 -10
-28 -17 -39 -17 -17 1 -17 2 -1 6 9 2 17 14 17 25 0 15 5 19 20 15 13 -3 20 0
20 8 0 13 14 23 38 24 6 1 12 -1 12 -4z m-1552 -210 c-3 -3 -9 2 -12 12 -6 14
-5 15 5 6 7 -7 10 -15 7 -18z m-28 -183 c1 -20 5 -57 10 -82 11 -57 5 -64 -15
-17 -17 41 -21 152 -5 142 6 -3 10 -23 10 -43z"/>
<path d="M910 3501 c0 -6 4 -13 10 -16 6 -3 7 1 4 9 -7 18 -14 21 -14 7z"/>
<path d="M2019 4372 c11 -8 11 -10 0 -14 -10 -3 -9 -6 3 -10 11 -5 15 -2 14
10 -2 9 -9 18 -17 20 -12 3 -12 2 0 -6z"/>
<path d="M1802 4243 c21 -25 31 -60 18 -68 -13 -8 -13 -55 0 -55 16 0 31 48
24 78 -7 30 -32 62 -47 62 -6 0 -3 -8 5 -17z"/>
<path d="M1670 4240 c19 -13 30 -13 30 0 0 6 -10 10 -22 10 -19 0 -20 -2 -8
-10z"/>
<path d="M1381 4194 c0 -11 3 -14 6 -6 3 7 2 16 -1 19 -3 4 -6 -2 -5 -13z"/>
<path d="M1531 3974 c0 -11 3 -14 6 -6 3 7 2 16 -1 19 -3 4 -6 -2 -5 -13z"/>
<path d="M2507 3573 c-3 -15 -2 -32 3 -36 4 -5 4 -25 -1 -45 -11 -49 -11 -49
5 -55 8 -3 26 12 45 39 l31 45 -39 40 -38 40 -6 -28z"/>
<path d="M2220 3525 c0 -23 57 -101 67 -91 7 6 -28 81 -36 79 -6 -2 -11 2 -11
7 0 6 -4 10 -10 10 -5 0 -10 -2 -10 -5z"/>
<path d="M2577 3470 c-40 -64 -46 -99 -13 -87 29 11 49 54 39 84 l-10 28 -16
-25z"/>
<path d="M2492 3422 c4 -14 -25 -148 -40 -183 -14 -32 -37 -52 -94 -84 -11 -6
-18 -21 -18 -37 0 -35 -16 -37 -23 -2 -2 14 2 31 10 40 15 15 9 54 -9 54 -5 0
-8 6 -5 14 3 8 0 17 -8 20 -10 4 -11 -2 -4 -27 15 -53 12 -60 -16 -41 -29 19
-32 9 -8 -26 13 -20 9 -18 -18 8 -39 36 -49 39 -49 16 0 -11 -6 -14 -22 -10
-13 3 -7 -2 12 -11 33 -16 34 -17 11 -21 -19 -3 -21 -6 -10 -13 12 -7 11 -9
-2 -9 -9 0 -24 -9 -34 -20 -14 -15 -26 -19 -54 -14 -48 8 -73 -16 -47 -44 26
-29 18 -82 -13 -82 -9 0 -29 -14 -44 -32 l-29 -33 6 33 c6 33 -7 43 -21 18 -6
-12 -17 -13 -45 -7 -33 8 -37 6 -41 -13 -4 -21 -4 -21 -12 2 -7 22 -25 31 -25
11 0 -5 -5 -7 -10 -4 -6 4 -7 12 -4 18 5 9 4 9 -5 1 -9 -8 -9 -17 0 -37 13
-28 49 -43 61 -24 5 9 8 8 8 -4 0 -8 15 -29 33 -47 33 -32 34 -32 134 -32 77
0 105 4 117 15 17 17 46 20 46 5 0 -29 49 9 50 39 0 10 -3 11 -14 2 -22 -18
-39 10 -26 43 5 14 14 25 19 24 5 -2 17 6 25 17 13 17 15 18 16 3 0 -9 -4 -19
-9 -22 -15 -9 0 -45 21 -51 12 -5 18 -14 16 -28 -3 -20 2 -22 52 -25 30 -2 64
2 76 9 13 6 36 9 53 6 31 -6 36 -1 32 31 -3 22 29 12 41 -13 11 -24 15 -25
104 -25 88 0 92 1 87 20 -4 16 -8 18 -19 9 -11 -9 -14 -8 -14 5 0 9 6 16 13
17 6 0 0 5 -15 10 -19 7 -25 15 -21 27 3 9 -7 4 -22 -13 -20 -22 -25 -25 -20
-10 14 41 16 67 5 60 -6 -4 -9 -13 -6 -20 3 -8 -2 -19 -11 -27 -14 -12 -15 -9
-9 27 17 99 17 100 8 85 -5 -8 -12 -32 -16 -52 -11 -63 -23 -51 -14 15 5 34
11 71 14 82 4 11 3 17 -1 13 -3 -3 -13 -28 -21 -55 -14 -48 -14 -48 -10 -8 3
22 8 55 11 72 6 25 4 34 -9 39 -30 12 -65 -6 -93 -48 -28 -42 -53 -60 -53 -38
0 7 10 20 23 31 12 10 17 18 10 19 -7 0 -10 7 -7 18 5 13 4 14 -4 3 -5 -7 -14
-11 -20 -7 -6 3 -12 1 -14 -5 -2 -7 -13 -9 -26 -5 -24 8 -30 41 -9 50 10 5 10
7 0 12 -18 8 -16 24 2 24 21 0 96 83 84 95 -14 14 -11 89 6 111 18 24 18 31 0
38 -8 3 -14 2 -13 -2z m-101 -313 c8 -17 8 -23 -2 -30 -19 -11 -29 -2 -29 27
0 30 15 31 31 3z m179 -13 c0 -2 -7 -7 -16 -10 -8 -3 -12 -2 -9 4 6 10 25 14
25 6z m-260 -41 c6 -8 10 -20 8 -26 -2 -6 -12 0 -21 15 -18 27 -8 37 13 11z
m127 -1 c3 -8 0 -21 -7 -27 -10 -9 -12 -9 -7 4 3 9 0 22 -6 28 -8 8 -8 11 1
11 7 0 15 -7 19 -16z m-156 -21 c13 -16 12 -17 -3 -4 -10 7 -18 15 -18 17 0 8
8 3 21 -13z m229 -3 c0 -5 -5 -10 -11 -10 -5 0 -7 5 -4 10 3 6 8 10 11 10 2 0
4 -4 4 -10z m-40 -16 c0 -7 -27 -34 -34 -34 -4 0 -1 9 6 20 12 19 28 27 28 14z
m-350 -36 c0 -5 -4 -8 -10 -8 -5 0 -10 10 -10 23 0 18 2 19 10 7 5 -8 10 -18
10 -22z m255 12 c3 -5 1 -10 -4 -10 -6 0 -11 5 -11 10 0 6 2 10 4 10 3 0 8 -4
11 -10z m85 -30 c0 -5 -4 -10 -10 -10 -5 0 -10 5 -10 10 0 6 5 10 10 10 6 0
10 -4 10 -10z m-69 -11 c17 -9 18 -13 8 -26 -11 -12 -10 -17 4 -25 10 -5 15
-13 12 -19 -4 -5 2 -9 12 -9 16 0 16 -2 -3 -21 -15 -15 -28 -18 -47 -14 -31 8
-34 21 -11 53 8 12 10 22 5 22 -6 0 -11 -4 -11 -10 0 -5 -12 -10 -26 -10 -16
0 -23 4 -18 11 3 6 1 15 -6 19 -16 10 -4 31 14 24 8 -3 17 -1 21 5 8 14 21 14
46 0z m124 -26 c16 -21 22 -32 15 -25 -19 17 -28 15 -26 -5 2 -24 -33 -29 -49
-7 -11 16 -10 20 4 30 9 7 17 17 17 23 4 29 6 28 39 -16z m-295 -3 c0 -5 -8
-10 -17 -10 -15 0 -16 2 -3 10 19 12 20 12 20 0z m-170 -21 c0 -6 -4 -7 -10
-4 -5 3 -10 11 -10 16 0 6 5 7 10 4 6 -3 10 -11 10 -16z m158 -11 c-5 -16 -48
-24 -48 -9 0 8 17 16 43 20 5 0 7 -5 5 -11z m507 -8 c-3 -5 -11 -10 -16 -10
-6 0 -7 5 -4 10 3 6 11 10 16 10 6 0 7 -4 4 -10z"/>
<path d="M2595 3384 c-8 -13 -23 -36 -32 -51 -16 -27 -16 -27 1 -14 15 13 19
13 27 0 5 -8 8 -27 6 -42 -2 -15 0 -30 5 -33 4 -3 8 -10 8 -16 0 -6 -3 -8 -6
-5 -4 4 -20 -14 -36 -39 -35 -56 -30 -69 11 -25 32 34 48 38 65 16 8 -11 20
-14 43 -9 18 4 30 10 27 15 -3 5 -1 9 5 9 5 0 11 -4 13 -10 2 -5 20 -16 41
-25 37 -15 37 -15 37 9 0 13 -7 30 -16 37 -17 14 -58 72 -82 116 -11 19 -17
22 -27 13 -11 -9 -13 -6 -11 14 2 15 -4 31 -13 38 -15 12 -15 11 -1 -7 14 -19
14 -19 -3 -6 -10 8 -16 19 -14 26 9 22 -34 13 -48 -11z"/>
<path d="M2211 3363 c18 -20 41 -43 49 -49 25 -20 3 -28 -26 -10 -14 10 -27
16 -29 14 -2 -2 12 -13 31 -26 19 -12 34 -18 34 -12 0 5 4 10 10 10 5 0 7 -7
4 -15 -4 -10 -2 -13 8 -10 8 3 30 -10 51 -31 l37 -37 0 32 c0 24 -5 34 -20 38
-11 3 -20 11 -20 19 0 7 -6 17 -13 21 -7 4 -21 19 -30 33 -9 13 -17 20 -17 15
0 -6 7 -19 15 -29 8 -11 15 -26 15 -34 0 -8 -14 5 -31 29 -36 50 -67 78 -88
79 -9 0 -2 -14 20 -37z"/>
<path d="M2260 3390 c0 -5 7 -10 16 -10 8 0 12 5 9 10 -3 6 -10 10 -16 10 -5
0 -9 -4 -9 -10z"/>
<path d="M2426 3372 c-3 -6 -1 -14 5 -17 15 -10 25 3 12 16 -7 7 -13 7 -17 1z"/>
<path d="M1764 3355 c3 -9 1 -24 -6 -34 -18 -29 -4 -51 29 -45 15 3 29 7 31 8
6 7 -11 36 -18 31 -4 -3 -8 1 -7 8 1 33 -4 47 -19 47 -10 0 -14 -5 -10 -15z"/>
<path d="M1660 3305 c-10 -12 -10 -18 0 -30 7 -8 16 -15 21 -15 11 0 11 31 0
48 -6 10 -10 10 -21 -3z"/>
<path d="M1707 3293 c-4 -3 -7 -10 -7 -14 0 -11 29 -19 35 -10 6 11 -20 33
-28 24z"/>
<path d="M2165 3265 c22 -14 44 -25 48 -25 5 0 22 -9 38 -21 27 -19 38 -16 21
6 -11 15 -83 52 -117 59 -28 6 -28 5 10 -19z"/>
<path d="M2552 3262 c-28 -38 -66 -122 -59 -129 6 -5 53 55 50 65 -1 4 8 22
19 40 26 43 18 64 -10 24z"/>
<path d="M2907 3208 l-88 -71 32 -21 c18 -12 48 -36 67 -53 29 -28 33 -38 31
-74 -3 -35 0 -43 17 -50 43 -15 39 -41 -13 -86 -26 -24 -57 -43 -69 -43 -13 0
-25 -10 -33 -26 -10 -22 -9 -30 4 -44 15 -16 15 -39 4 -229 l-11 -211 21 -17
c14 -11 29 -44 40 -88 18 -69 19 -70 50 -67 25 3 33 -1 40 -21 6 -14 15 -28
20 -32 10 -5 16 -45 8 -45 -2 0 -18 7 -36 16 -39 19 -52 11 -22 -13 27 -22 44
-93 36 -148 -5 -29 -3 -36 4 -25 13 19 13 14 2 -28 -11 -38 -3 -41 27 -9 25
27 29 77 10 140 -10 32 -10 41 0 45 9 3 10 7 2 17 -8 10 -8 15 1 20 13 9 28
-11 30 -40 1 -11 5 -5 10 15 10 38 3 114 -13 143 -5 10 -7 21 -4 24 3 3 13 -9
21 -28 l16 -34 -7 45 c-3 25 -10 53 -15 62 -14 25 -11 41 6 34 22 -8 20 57 -4
103 -28 53 -51 118 -51 144 0 13 -4 27 -8 33 -16 18 -35 116 -24 123 6 3 13
22 17 43 5 28 12 37 32 41 19 3 27 0 30 -14 3 -11 16 -22 28 -25 14 -3 26 -16
30 -31 3 -14 8 -23 11 -21 2 3 0 16 -5 30 -8 22 -5 30 28 61 27 25 40 49 49
87 l12 52 -36 44 c-33 40 -38 43 -49 27 -11 -15 -12 -14 -12 9 0 18 4 25 13
21 16 -6 36 39 28 62 -4 9 3 38 15 65 27 63 27 65 -9 97 -38 33 -91 55 -150
59 -43 3 -49 0 -133 -68z m140 -24 c4 -12 -35 -26 -49 -18 -13 8 13 35 30 32
9 -2 17 -8 19 -14z m70 -186 c-3 -8 -6 -5 -6 6 -1 11 2 17 5 13 3 -3 4 -12 1
-19z m-113 -152 c-6 -15 -24 -23 -24 -11 0 8 24 34 28 30 1 -1 0 -10 -4 -19z
m146 -66 c0 -5 -2 -10 -4 -10 -3 0 -8 5 -11 10 -3 6 -1 10 4 10 6 0 11 -4 11
-10z m-249 -134 c-12 -11 -21 -15 -21 -9 0 6 7 16 15 23 8 7 16 22 16 34 2 19
2 18 6 -3 3 -15 -3 -31 -16 -45z"/>
<path d="M1600 3216 c-25 -11 -27 -29 -1 -21 10 3 38 12 62 19 l44 14 -42 -1
c-23 -1 -52 -6 -63 -11z"/>
<path d="M2160 3226 c0 -2 7 -7 16 -10 8 -3 12 -2 9 4 -6 10 -25 14 -25 6z"/>
<path d="M1630 3125 c0 -2 11 -10 23 -18 19 -12 24 -12 24 -2 0 7 -11 15 -24
18 -12 2 -23 3 -23 2z"/>
<path d="M1695 3089 c-4 -11 -4 -23 -1 -26 3 -4 6 -1 6 5 0 6 7 18 16 26 13
14 13 16 0 16 -8 0 -18 -9 -21 -21z"/>
<path d="M1730 3070 c0 -5 5 -10 10 -10 6 0 10 5 10 10 0 6 -4 10 -10 10 -5 0
-10 -4 -10 -10z"/>
<path d="M2657 3063 c-4 -3 -7 -11 -7 -17 0 -6 5 -5 12 2 6 6 9 14 7 17 -3 3
-9 2 -12 -2z"/>
<path d="M1710 3051 c0 -6 4 -13 10 -16 6 -3 7 1 4 9 -7 18 -14 21 -14 7z"/>
<path d="M1716 2967 c3 -10 9 -15 12 -12 3 3 0 11 -7 18 -10 9 -11 8 -5 -6z"/>
<path d="M1720 2925 c0 -8 5 -15 10 -15 6 0 10 7 10 15 0 8 -4 15 -10 15 -5 0
-10 -7 -10 -15z"/>
<path d="M1781 2881 c-8 -14 -7 -22 4 -31 12 -10 13 -16 4 -26 -9 -11 -8 -14
3 -14 8 0 15 6 15 13 1 6 4 27 8 45 6 26 4 32 -8 32 -9 0 -21 -9 -26 -19z"/>
<path d="M2898 2893 c7 -3 16 -2 19 1 4 3 -2 6 -13 5 -11 0 -14 -3 -6 -6z"/>
<path d="M3040 2736 c0 -2 7 -9 15 -16 13 -11 14 -10 9 4 -5 14 -24 23 -24 12z"/>
<path d="M1708 2277 c-8 -45 -54 -95 -71 -78 -8 8 -7 11 3 11 7 0 10 3 7 6 -9
10 -38 -16 -31 -27 13 -22 13 -70 -1 -76 -10 -3 -15 -19 -15 -45 0 -21 -4 -37
-8 -34 -4 2 -14 0 -22 -5 -13 -8 -13 -11 0 -18 31 -19 57 -47 64 -68 12 -37
52 -56 103 -48 39 6 43 9 37 28 -13 46 -37 88 -57 102 -17 12 -21 24 -19 62 1
27 7 60 12 74 6 14 10 55 8 90 -3 58 -4 61 -10 26z"/>
<path d="M2847 2234 c-11 -12 -8 -160 5 -191 15 -37 23 -8 11 39 -5 18 -6 51
-3 73 6 45 -1 91 -13 79z"/>
<path d="M892 2005 c-17 -37 -14 -45 4 -12 9 16 14 31 11 33 -2 2 -9 -7 -15
-21z"/>
<path d="M1814 1822 c6 -16 0 -20 -31 -26 -21 -3 -64 -6 -95 -6 -94 0 -96 -43
-5 -99 20 -12 43 -31 50 -42 8 -10 33 -27 58 -38 l44 -20 3 26 c3 18 -3 32
-15 41 -17 13 -17 14 0 26 10 8 17 18 16 22 -5 32 3 84 14 84 6 1 26 7 42 15
l30 15 -33 -6 c-22 -4 -41 0 -58 11 -25 16 -26 16 -20 -3z"/>
<path d="M2882 1750 c0 -14 2 -19 5 -12 2 6 2 18 0 25 -3 6 -5 1 -5 -13z"/>
<path d="M2741 1668 c-1 -22 5 -29 43 -43 33 -13 49 -14 63 -6 17 10 17 10 -2
11 -48 1 -94 21 -98 43 -4 19 -4 18 -6 -5z"/>
<path d="M2870 1613 c0 -10 3 -42 7 -71 8 -68 23 -48 23 31 0 44 -3 57 -15 57
-8 0 -15 -8 -15 -17z"/>
<path d="M1780 1535 c0 -2 9 -9 20 -15 16 -9 20 -8 20 5 0 8 -9 15 -20 15 -11
0 -20 -2 -20 -5z"/>
<path d="M1841 1524 c0 -11 3 -14 6 -6 3 7 2 16 -1 19 -3 4 -6 -2 -5 -13z"/>
<path d="M1714 1505 c-7 -29 11 -105 26 -105 4 0 11 -14 15 -31 4 -19 19 -38
38 -51 23 -14 26 -18 10 -13 -28 8 -30 -1 -3 -15 29 -15 43 -4 28 23 -6 12
-26 65 -44 117 -35 99 -58 123 -70 75z"/>
<path d="M1676 1478 c3 -13 10 -30 15 -38 7 -13 8 -13 9 0 0 27 -12 60 -22 60
-5 0 -6 -10 -2 -22z"/>
<path d="M1850 1491 c0 -15 16 -22 34 -15 25 9 19 24 -9 24 -14 0 -25 -4 -25
-9z"/>
<path d="M2795 1320 c-16 -7 -17 -9 -3 -9 9 -1 19 -7 21 -13 4 -10 8 -9 16 2
21 30 8 38 -34 20z"/>
<path d="M2728 1313 c7 -3 16 -2 19 1 4 3 -2 6 -13 5 -11 0 -14 -3 -6 -6z"/>
</g>
</svg>
