<?xml version="1.0" standalone="no"?>
<!DOCTYPE svg PUBLIC "-//W3C//DTD SVG 20010904//EN"
 "http://www.w3.org/TR/2001/REC-SVG-20010904/DTD/svg10.dtd">
<svg version="1.0" xmlns="http://www.w3.org/2000/svg"
 width="740.000000pt" height="493.000000pt" viewBox="0 0 740.000000 493.000000"
 preserveAspectRatio="xMidYMid meet">

<g transform="translate(0.000000,493.000000) scale(0.100000,-0.100000)"
fill="#000000" stroke="none">
<path d="M1137 4910 c5 -17 0 -20 -31 -20 -25 0 -36 -5 -36 -14 0 -20 -16 -29
-53 -30 -17 -1 -35 -9 -41 -19 -9 -15 -7 -21 13 -36 26 -20 24 -51 -4 -51 -9
0 -23 -7 -31 -15 -8 -8 -22 -19 -31 -23 -14 -8 -13 -12 3 -37 17 -27 17 -28
-2 -44 -10 -9 -28 -35 -39 -56 -24 -48 -91 -86 -160 -91 -16 -2 -57 -7 -90
-13 -33 -6 -77 -8 -99 -5 -36 6 -41 3 -75 -35 -34 -38 -39 -41 -91 -41 -30 0
-71 3 -91 6 -22 4 -39 2 -43 -5 -14 -21 -25 -11 -28 27 -3 39 -33 55 -33 17 0
-41 -14 -45 -53 -19 -25 17 -46 24 -65 21 -20 -3 -32 2 -43 17 -13 19 -14 14
-14 -55 l0 -76 58 -16 c83 -23 135 -34 342 -66 423 -67 588 -74 805 -32 55 11
154 25 220 31 160 14 237 29 231 45 -7 19 23 55 46 55 15 0 18 4 13 18 -18 42
-17 60 6 76 53 37 91 14 82 -50 -5 -36 -2 -44 16 -56 11 -7 21 -18 21 -25 0
-16 33 -17 80 -3 61 18 201 38 300 44 104 7 167 19 183 35 7 7 7 11 1 11 -5 0
-17 13 -26 28 -9 16 -33 37 -52 47 -27 15 -36 26 -36 45 0 30 56 90 83 90 28
0 32 -29 8 -51 -26 -25 -23 -41 10 -49 17 -4 24 -13 24 -31 0 -35 12 -49 45
-49 16 0 32 -5 36 -11 7 -12 123 -6 263 12 41 5 76 7 78 5 2 -2 -14 -39 -36
-82 -23 -44 -46 -106 -52 -139 -15 -81 -6 -235 21 -373 25 -121 20 -148 -18
-112 -29 27 -44 25 -36 -4 7 -28 -25 -66 -55 -66 -27 0 -37 21 -18 35 25 18
20 32 -13 37 -19 3 -35 -1 -45 -12 -27 -29 -105 -222 -105 -259 0 -13 12 -16
77 -14 43 2 114 5 159 9 l81 7 11 -58 c14 -68 16 -136 3 -117 -5 9 -28 12 -74
11 -37 -1 -72 3 -79 9 -8 6 -19 7 -27 3 -22 -14 6 -137 36 -156 29 -19 29 -38
2 -57 -20 -13 -20 -15 -5 -30 9 -9 17 -23 17 -30 1 -7 4 3 8 22 l6 35 55 -3
c70 -4 90 -10 90 -27 0 -21 19 -28 35 -15 19 16 19 40 2 40 -41 0 -65 89 -30
109 13 7 34 1 83 -24 138 -69 368 -91 485 -45 l59 23 -34 16 c-44 20 -60 35
-60 56 0 12 5 15 18 10 9 -4 22 -8 29 -8 7 0 12 -3 11 -6 -3 -34 56 -60 93
-41 18 10 25 9 39 -6 27 -28 29 -64 5 -78 -11 -6 -22 -12 -24 -14 -3 -1 6 -13
19 -27 25 -27 40 -25 40 6 0 19 4 20 66 14 64 -7 66 -7 59 14 -4 13 -2 21 6
21 20 0 38 33 39 72 0 34 -2 36 -32 35 -18 0 -61 8 -94 18 -52 16 -63 23 -73
49 -8 24 -24 37 -68 56 -78 34 -77 34 -69 21 4 -6 2 -11 -3 -11 -6 0 -11 9
-11 20 0 25 0 25 62 -6 70 -36 114 -47 338 -90 94 -18 145 -40 207 -90 24 -20
43 -29 45 -23 5 15 48 2 48 -14 0 -7 14 -39 30 -71 36 -70 37 -80 9 -71 -19 6
-21 4 -15 -16 4 -13 18 -69 32 -124 38 -156 56 -215 64 -210 3 2 5 -10 4 -28
-2 -18 -1 -24 2 -15 6 18 50 36 61 24 12 -11 -17 -58 -32 -52 -8 3 -17 1 -21
-5 -11 -18 142 -7 167 12 l22 17 -22 11 c-19 10 -20 15 -10 28 31 37 82 35
115 -6 8 -10 15 -11 32 -2 12 6 31 16 42 21 11 6 29 10 39 10 11 0 35 8 53 18
18 10 42 17 53 16 11 0 35 -2 53 -3 27 -1 32 -5 32 -26 0 -16 6 -25 15 -25 8
0 15 4 15 10 0 5 14 8 30 7 27 -2 30 -5 25 -24 -3 -13 -1 -23 5 -23 5 0 10 7
10 15 0 11 11 15 37 15 l36 0 -23 25 c-13 14 -31 25 -41 25 -9 0 -22 7 -29 15
-10 13 -9 15 12 15 13 0 28 -4 33 -9 6 -6 28 -6 58 1 58 12 102 -2 111 -37 6
-22 57 -42 77 -29 17 10 -10 41 -41 47 -41 9 -38 20 12 35 40 13 42 12 69 -17
32 -36 37 -37 67 -15 13 9 28 14 35 11 21 -7 52 9 52 28 0 13 14 21 50 31 64
17 61 17 79 -1 19 -20 76 -32 76 -16 0 6 11 11 25 11 14 0 34 5 45 12 16 10
23 9 42 -10 30 -27 72 -20 62 10 -6 19 -3 20 52 13 33 -3 81 -8 108 -9 26 -2
52 -10 57 -17 6 -11 11 -10 27 4 27 25 60 22 64 -5 2 -18 10 -23 33 -23 24 0
29 4 27 19 -6 33 7 66 27 66 12 0 27 -17 44 -49 24 -48 25 -51 9 -85 -17 -38
-48 -49 -58 -21 -8 20 -30 19 -38 0 -4 -12 -10 -14 -25 -5 -13 7 -22 7 -26 0
-3 -5 -1 -10 4 -10 7 0 7 -7 -1 -20 -16 -25 -76 -27 -139 -5 -46 16 -75 7 -51
-17 19 -19 15 -23 -22 -25 -34 -1 -34 -1 -29 36 6 47 -10 61 -32 27 -13 -20
-21 -23 -39 -16 -30 11 -50 -2 -41 -29 11 -35 -5 -45 -32 -19 l-25 23 -18 -23
c-22 -26 -38 -28 -55 -5 -11 15 -13 15 -24 -5 -9 -17 -17 -20 -41 -15 -17 3
-36 0 -44 -7 -23 -18 -56 -3 -56 26 0 21 3 23 19 14 23 -12 74 6 68 24 -6 18
-55 25 -68 10 -6 -8 -17 -14 -24 -14 -7 0 -18 -6 -24 -14 -7 -8 -27 -17 -47
-20 -19 -4 -32 -11 -29 -16 3 -5 12 -7 20 -3 18 6 20 -18 3 -35 -9 -9 -8 -12
5 -12 10 0 20 -7 23 -15 7 -16 54 -21 69 -6 6 4 27 11 48 14 28 4 40 2 44 -9
9 -23 -4 -29 -32 -14 -22 12 -27 11 -45 -5 -22 -20 -18 -35 9 -35 10 0 24 -7
31 -15 17 -21 67 -19 79 2 6 12 5 26 -4 43 -8 15 -10 31 -7 37 12 18 60 24
108 13 34 -8 50 -7 60 1 8 6 37 11 65 11 29 0 66 6 83 13 20 9 65 12 126 10
117 -3 110 -2 110 -20 0 -17 26 -20 36 -4 3 6 0 15 -7 20 -19 11 -2 25 41 33
39 6 53 0 63 -27 10 -26 43 -17 40 11 -4 33 41 41 71 13 26 -25 100 -29 131
-7 19 13 94 15 125 4 42 -17 61 -16 71 3 5 11 14 17 18 14 5 -2 33 2 62 9 62
16 207 38 258 40 19 1 36 7 39 14 4 12 63 17 74 7 3 -3 3 -17 0 -31 -5 -26
-16 -27 -66 -8 -21 8 -33 -23 -18 -47 7 -10 12 -20 12 -21 0 -2 -21 -4 -47 -4
-27 -1 -62 -5 -79 -9 -28 -6 -32 -4 -38 19 -7 30 -26 33 -62 10 -18 -12 -37
-15 -73 -10 -38 5 -50 3 -54 -9 -4 -10 -15 -13 -34 -10 -42 8 -93 -40 -86 -78
3 -17 15 -33 29 -39 13 -6 24 -15 24 -20 0 -15 -46 -13 -103 7 -34 12 -38 11
-48 -6 -6 -13 -6 -25 0 -38 13 -23 3 -35 -17 -19 -23 20 -89 21 -96 2 -4 -10
-12 -14 -22 -10 -10 4 -22 -1 -29 -10 -16 -22 -55 -10 -55 17 0 11 -19 42 -42
69 l-41 48 -74 0 c-51 -1 -73 -5 -73 -13 0 -7 11 -16 25 -19 38 -10 33 -49
-10 -82 -19 -14 -35 -35 -35 -45 0 -23 -19 -25 -34 -3 -10 14 -17 12 -64 -11
-40 -20 -56 -24 -66 -15 -13 10 -56 8 -123 -6 -12 -2 -28 -16 -35 -32 -12 -24
-20 -28 -83 -34 -39 -4 -82 -4 -96 1 -24 8 -118 -1 -139 -14 -5 -3 -10 -17
-10 -30 0 -16 7 -25 25 -29 14 -4 25 -13 25 -21 0 -9 -10 -15 -25 -15 -14 0
-25 -3 -25 -7 0 -5 -4 -14 -9 -21 -6 -11 -14 -8 -35 13 -23 23 -34 26 -62 22
-38 -6 -47 8 -10 17 13 3 26 15 29 25 7 29 -47 40 -74 15 -23 -20 -76 -24 -91
-6 -6 6 -19 12 -30 12 -16 0 -19 -5 -14 -22 3 -13 6 -31 6 -40 0 -10 7 -18 15
-18 18 0 9 -26 -12 -34 -9 -4 -21 -2 -28 4 -7 6 -19 8 -28 4 -10 -3 -18 2 -22
15 -8 27 -21 19 -28 -16 -7 -36 18 -71 57 -81 36 -9 49 -42 17 -42 -11 0 -24
-7 -29 -16 -7 -13 -13 -11 -42 16 -27 26 -38 29 -66 24 -30 -5 -34 -4 -34 15
0 11 -5 21 -11 21 -7 0 -9 10 -5 25 6 24 4 25 -34 25 -37 0 -42 -3 -55 -34
-20 -48 -65 -63 -50 -17 4 12 15 21 27 21 18 0 18 3 -9 34 -41 50 -77 47 -100
-6 -8 -18 -20 -28 -33 -28 -11 0 -29 -6 -40 -12 -15 -10 -27 -10 -50 -1 -28
10 -32 9 -56 -20 -15 -19 -24 -24 -20 -13 4 10 1 25 -6 34 -7 8 -13 20 -14 26
0 6 -2 20 -2 30 -2 18 -4 18 -27 -4 l-25 -23 0 26 c0 15 -4 27 -8 27 -14 0
-32 48 -32 86 0 32 -10 59 -36 94 -22 29 -25 78 -6 90 48 29 -178 -18 -294
-61 l-51 -19 -7 -89 c-6 -67 -4 -96 8 -127 16 -40 46 -165 46 -188 0 -8 -20
-19 -45 -25 -25 -6 -45 -16 -45 -21 0 -6 -7 -10 -15 -10 -8 0 -15 4 -15 10 0
5 -14 7 -31 5 -24 -3 -29 -1 -25 11 3 9 6 19 6 22 0 4 11 20 25 36 24 28 26
43 11 77 -4 10 0 41 9 70 9 30 19 71 21 91 2 21 13 65 24 99 24 74 25 99 5
125 -13 17 -14 13 -15 -46 l-1 -65 -18 35 c-11 19 -31 45 -46 58 l-27 23 7
-23 c4 -13 15 -48 25 -78 20 -58 19 -67 -2 -54 -7 5 -21 8 -31 9 -10 0 -23 11
-30 25 -9 17 -21 25 -40 25 -15 0 -26 -4 -24 -10 1 -5 10 -9 20 -8 33 5 17
-18 -28 -38 -50 -22 -56 -40 -23 -63 l22 -16 -21 0 c-12 0 -23 6 -26 13 -3 9
-7 9 -20 -2 -10 -7 -17 -17 -17 -22 0 -5 -46 -77 -102 -161 -104 -152 -147
-200 -337 -377 l-103 -96 -69 0 c-63 0 -69 2 -66 20 1 11 6 26 10 33 5 6 4 12
-2 12 -6 0 -17 -14 -26 -30 -12 -23 -22 -30 -45 -30 -28 0 -30 2 -23 28 3 15
21 59 38 97 18 39 38 88 45 110 21 66 98 225 110 225 13 0 13 39 -1 78 -6 17
-13 52 -17 78 l-7 47 -44 -63 c-26 -38 -46 -80 -49 -103 -4 -29 -11 -41 -29
-48 -13 -5 -27 -17 -30 -26 -6 -17 -36 -54 -75 -95 -10 -10 -18 -25 -18 -34 0
-9 -9 -18 -20 -21 -11 -3 -20 -9 -20 -12 0 -4 -7 -8 -15 -8 -8 0 -15 4 -15 9
0 5 -6 8 -12 6 -7 -1 -27 5 -44 14 -20 11 -34 14 -41 7 -5 -5 -24 -14 -42 -19
-33 -9 -33 -9 -16 10 10 11 26 20 35 20 10 0 23 7 30 15 7 8 17 15 22 15 25 0
75 85 84 141 4 26 12 39 22 39 13 0 13 2 -1 18 -14 15 -14 19 3 39 9 12 20 19
24 16 3 -4 6 -1 6 5 0 6 -4 14 -10 17 -5 3 -10 1 -10 -4 0 -6 -7 -11 -15 -11
-11 0 -15 11 -15 40 0 22 5 40 10 40 6 0 10 5 10 10 0 21 -24 8 -61 -32 -22
-24 -39 -50 -39 -58 -1 -27 -37 -120 -53 -138 -10 -10 -17 -26 -17 -36 0 -9
-4 -15 -9 -12 -5 3 -12 -1 -15 -9 -4 -11 -13 -14 -30 -9 -19 4 -27 1 -36 -16
-6 -12 -31 -30 -54 -41 -23 -10 -53 -27 -67 -37 -13 -11 -44 -29 -68 -42 -35
-18 -45 -19 -52 -8 -16 24 -9 35 40 62 54 29 56 33 66 117 5 43 1 75 -16 132
-12 42 -25 76 -28 75 -18 -2 -24 3 -12 11 8 5 11 16 7 26 -5 15 -14 17 -50 12
-44 -6 -44 -6 -32 18 10 22 25 30 49 26 4 0 7 21 7 49 0 44 -2 50 -21 50 -18
0 -20 -4 -15 -25 8 -31 6 -31 -56 0 -50 25 -128 32 -128 11 0 -6 -11 -11 -25
-11 -14 0 -25 3 -25 7 0 17 58 44 92 44 26 -1 38 3 38 13 0 11 14 13 65 8 l66
-5 -2 68 -2 67 -42 -41 c-77 -73 -88 -80 -119 -77 -44 4 -122 37 -174 73 -58
40 -202 177 -202 192 0 6 25 40 55 76 59 70 202 279 254 371 35 64 33 69 -44
69 -26 0 -50 6 -59 16 -9 8 -19 13 -24 11 -4 -3 -16 12 -26 34 -21 43 -32 48
-40 21 -4 -11 -18 -29 -31 -42 -24 -23 -26 -23 -38 -6 -12 16 -17 17 -37 6
-21 -11 -26 -10 -40 8 l-17 21 -19 -25 c-17 -21 -23 -23 -57 -15 -24 6 -50 5
-72 -2 -27 -8 -43 -7 -77 6 -38 15 -44 15 -65 2 -28 -19 -43 -12 -43 18 -1 21
-2 20 -15 -4 -20 -36 -40 -42 -80 -21 -35 18 -74 64 -98 118 -11 22 -24 33
-47 38 -18 3 -36 3 -39 0 -3 -3 -6 -40 -6 -82 0 -87 -14 -103 -39 -42 -13 34
-20 40 -45 40 -42 0 -61 -9 -61 -30 0 -11 -4 -22 -10 -25 -6 -3 -10 5 -10 19
0 36 -18 42 -46 15 -20 -19 -27 -21 -49 -11 -14 7 -45 12 -69 12 -29 0 -52 7
-70 21 -20 16 -30 19 -39 10 -6 -6 -29 -11 -50 -11 -38 0 -39 -1 -33 -27 4
-16 24 -65 45 -109 47 -100 47 -136 -3 -127 -45 8 -53 18 -61 69 -6 45 -54
168 -61 161 -3 -2 5 -39 16 -83 24 -97 25 -140 4 -148 -32 -12 -95 -5 -171 19
-43 14 -100 25 -126 25 -28 0 -64 8 -87 20 -36 18 -41 26 -61 92 -11 40 -30
98 -40 128 l-20 55 5 -45 c3 -25 10 -65 15 -90 15 -69 14 -130 -4 -136 -13 -5
-15 -116 -15 -930 0 -508 4 -924 8 -924 4 0 18 9 32 20 14 11 30 20 36 20 6 0
26 8 45 17 27 13 64 17 179 18 127 1 151 4 191 23 42 20 59 38 59 62 0 14 -29
20 -53 11 -25 -10 -57 2 -57 21 0 6 -7 19 -15 28 -14 16 -14 18 0 24 12 4 19
0 22 -15 5 -17 11 -19 32 -13 14 3 43 10 64 14 20 4 49 19 63 34 15 14 37 26
49 26 12 0 36 7 54 16 40 20 61 13 54 -18 -20 -86 -46 -177 -57 -198 -9 -20
-18 -24 -41 -22 -66 8 -70 7 -69 -10 2 -22 -19 -23 -36 -2 -20 23 -64 14 -68
-13 -2 -16 2 -23 12 -23 9 0 16 -7 16 -15 0 -8 5 -24 12 -35 7 -10 9 -22 6
-25 -12 -13 -49 7 -58 31 -8 20 -16 24 -52 24 -24 0 -59 -4 -79 -9 -25 -6 -44
-4 -60 5 -15 8 -28 9 -35 3 -8 -6 -14 -5 -17 4 -4 10 -22 14 -64 12 -32 -1
-65 -4 -73 -7 -8 -4 -26 -9 -40 -12 -14 -3 -34 -11 -44 -19 -18 -13 -18 -17
-6 -48 11 -25 11 -34 2 -37 -9 -3 -12 -134 -12 -548 l0 -544 680 0 c596 0 681
2 686 15 4 8 13 15 21 15 9 0 13 -6 9 -15 -5 -13 142 -15 1280 -15 1212 0
1284 1 1275 17 -7 13 -4 25 10 45 11 14 18 32 17 39 -2 6 3 14 10 16 9 3 12
-12 12 -56 l0 -61 341 0 c207 0 338 4 334 9 -3 5 -1 12 5 16 5 3 10 -1 10 -9
0 -14 134 -16 1355 -16 l1355 0 0 1316 c0 1002 -3 1313 -12 1308 -8 -5 -9 -2
-2 12 5 11 9 310 10 704 1 377 -1 665 -5 640 -7 -50 0 -48 -116 -35 -58 7 -61
6 -75 -19 -16 -30 -31 -32 -65 -10 -28 19 -83 11 -102 -15 -10 -13 -36 -16
-165 -17 -103 -1 -162 -6 -178 -14 -13 -7 -45 -12 -70 -11 -36 0 -52 -4 -66
-20 -28 -31 -70 -50 -107 -49 -17 1 -53 -4 -78 -11 -55 -14 -138 -4 -146 17
-3 8 4 25 16 38 11 12 21 32 21 43 0 12 7 29 16 38 15 14 14 17 -10 36 -29 22
-25 43 11 72 13 10 23 27 23 37 0 10 4 21 9 24 4 3 4 24 -2 46 -10 34 -15 40
-39 40 -20 0 -36 11 -59 39 -17 22 -44 44 -59 50 -27 9 -55 62 -48 93 1 7 -6
28 -17 46 -17 28 -24 32 -48 26 -32 -7 -67 17 -67 47 0 11 -17 26 -46 39 -25
13 -49 32 -54 44 -10 26 -67 52 -132 60 -40 5 -49 3 -58 -14 -16 -29 -45 -24
-73 11 -20 25 -28 29 -43 21 -24 -12 -44 -5 -45 16 0 10 -23 36 -50 59 -46 40
-52 42 -97 37 -86 -9 -111 -16 -117 -33 -3 -10 -31 -30 -63 -45 -70 -34 -99
-56 -104 -82 -4 -23 -47 -32 -59 -12 -5 7 -2 22 7 36 8 13 12 31 9 41 -6 19
-52 46 -72 42 -7 -1 -28 5 -48 13 -19 8 -38 15 -40 15 -3 0 -19 8 -36 17 -40
20 -139 37 -203 35 -35 -1 -55 -7 -68 -21 -13 -14 -24 -18 -35 -12 -9 5 -35 7
-60 4 -36 -4 -48 -1 -68 18 -23 22 -28 23 -76 12 -28 -7 -60 -12 -71 -12 -12
0 -26 -7 -33 -17 -7 -9 -19 -14 -29 -10 -21 8 -21 34 2 40 16 4 16 4 -1 12
-11 5 -30 1 -51 -10 -40 -22 -69 -14 -64 17 2 15 11 24 26 26 24 4 31 32 7 32
-16 0 -38 34 -28 44 9 9 -6 7 -26 -3 -12 -7 -31 -2 -65 15 l-47 24 -470 0
c-399 0 -471 -2 -486 -15 -10 -8 -27 -21 -38 -29 -17 -12 -17 -16 -5 -31 12
-14 10 -19 -16 -40 -19 -16 -42 -24 -66 -25 -42 0 -49 -13 -17 -30 31 -17 21
-51 -20 -65 -27 -9 -37 -20 -48 -50 -7 -22 -25 -51 -38 -65 -17 -18 -25 -37
-25 -63 0 -63 -52 -97 -92 -60 -14 13 -23 14 -41 6 -116 -56 -138 -48 -112 42
12 40 21 55 31 51 23 -9 16 12 -11 30 -14 9 -25 22 -25 29 0 22 -47 46 -77 39
-32 -8 -63 -32 -63 -49 0 -13 -78 -37 -92 -29 -4 3 -18 -2 -30 -10 -12 -9 -33
-16 -45 -16 -19 0 -23 5 -23 30 0 17 -4 30 -10 30 -5 0 -10 5 -10 10 0 6 9 10
19 10 29 0 89 42 95 67 4 13 1 32 -6 43 -17 26 -52 22 -56 -6 -3 -22 -42 -37
-69 -27 -15 6 -17 56 -4 81 7 14 3 17 -24 19 -28 1 -34 -2 -37 -20 -2 -16 -15
-26 -49 -37 -26 -8 -54 -21 -63 -29 -33 -28 -132 -71 -162 -71 -67 0 -136 -20
-169 -49 -19 -16 -43 -32 -54 -36 -29 -9 -83 11 -111 40 -12 13 -28 21 -34 19
-16 -6 -40 22 -31 36 8 13 35 13 35 0 0 -5 7 -10 16 -10 13 0 13 5 -6 33 -11
17 -30 51 -40 75 -11 23 -24 42 -29 42 -5 0 -7 9 -4 19 4 15 -2 21 -27 26 -32
7 -34 9 -44 58 -6 26 -8 27 -75 27 -64 0 -69 -1 -64 -20z m90 -131 c14 -14 6
-39 -12 -39 -15 0 -28 27 -19 41 7 12 18 11 31 -2z m-84 -54 c-3 -8 -9 -15
-14 -15 -10 0 -12 24 -3 33 11 11 24 -3 17 -18z m3052 -25 c3 -5 -1 -10 -9
-10 -9 0 -16 5 -16 10 0 6 4 10 9 10 6 0 13 -4 16 -10z m-2267 -57 c-2 -10
-12 -18 -23 -18 -11 0 -21 8 -23 18 -3 13 3 17 23 17 20 0 26 -4 23 -17z
m-613 -53 c21 -23 13 -50 -14 -50 -22 0 -39 39 -26 59 9 16 20 13 40 -9z
m3648 -13 c3 -8 -4 -14 -19 -15 -23 -2 -31 8 -17 21 11 11 31 8 36 -6z m-2863
-18 c0 -6 7 -17 16 -26 18 -18 11 -69 -13 -93 -13 -13 -14 -13 -9 7 6 18 1 25
-23 38 -31 16 -51 59 -35 75 11 10 46 18 57 13 4 -2 7 -9 7 -14z m2808 -21
c-3 -7 -12 -14 -21 -16 -12 -2 -15 1 -11 12 7 19 38 22 32 4z m-1423 -8 c3 -6
-1 -7 -9 -4 -18 7 -21 14 -7 14 6 0 13 -4 16 -10z m715 -20 c58 -12 155 -42
215 -67 61 -24 130 -51 155 -60 195 -65 378 -207 474 -370 57 -96 40 -91 301
-99 144 -5 198 -11 270 -29 50 -13 135 -34 190 -45 55 -12 104 -26 109 -31 6
-5 17 -9 25 -9 9 -1 30 -7 46 -15 34 -15 39 -16 -225 6 -221 18 -349 22 -363
10 -9 -7 -21 -6 -41 4 -17 9 -56 15 -98 15 l-70 0 6 -47 c8 -55 65 -228 96
-290 22 -46 34 -51 64 -28 28 21 56 19 56 -4 0 -13 -8 -21 -22 -23 -21 -3 -23
-9 -26 -68 -2 -39 3 -80 12 -105 8 -22 17 -84 20 -137 l5 -98 -48 0 c-76 0
-111 10 -111 31 0 25 29 40 51 26 26 -16 31 -5 14 34 -14 32 -15 33 -21 12 -3
-13 -11 -23 -16 -23 -5 0 -7 9 -3 20 5 15 -3 25 -37 46 -24 16 -54 38 -68 50
-37 32 -94 48 -120 34 -17 -9 -29 -9 -51 1 -24 9 -35 9 -54 -1 -20 -11 -31
-10 -67 4 -24 10 -50 23 -58 30 -24 21 -81 46 -104 46 -12 0 -27 -9 -33 -20
-7 -10 -30 -24 -52 -31 -33 -10 -44 -9 -63 3 -13 8 -35 18 -49 21 -15 4 -57
20 -93 37 l-67 30 7 35 c8 44 -1 72 -19 57 -24 -20 -88 -2 -117 32 -20 25 -38
19 -45 -15 -8 -37 -33 -36 -55 3 -12 23 -13 31 -2 48 17 28 15 54 -7 74 -11
10 -21 32 -23 50 -2 23 -9 32 -24 34 -22 3 -38 -25 -34 -60 2 -30 -17 -20 -29
13 -8 24 -15 30 -28 24 -10 -4 -26 -10 -35 -12 -11 -3 -18 -15 -18 -29 0 -30
-20 -74 -34 -74 -6 0 -20 7 -31 16 -16 12 -18 18 -7 34 6 11 12 24 12 30 0 18
-49 11 -70 -10 l-21 -21 -61 23 c-34 12 -56 24 -50 26 7 2 12 9 12 16 0 8 16
12 45 12 24 1 51 7 60 14 21 17 19 57 -2 63 -12 3 -9 5 8 6 20 1 30 9 39 34 7
17 19 37 26 43 11 9 8 11 -14 12 -120 2 -132 4 -132 18 0 10 8 13 28 9 l27 -5
-29 11 c-23 9 -35 8 -63 -5 -38 -18 -108 -13 -117 10 -8 21 22 44 58 44 17 0
37 5 44 12 9 9 15 9 24 0 21 -21 38 -14 38 16 0 42 11 46 31 12 11 -17 26 -30
34 -30 24 0 31 31 11 45 -10 8 -13 16 -7 19 5 3 11 2 13 -2 1 -5 12 -1 22 9
17 17 17 19 3 19 -10 0 -14 5 -11 15 4 9 0 15 -9 15 -12 0 -14 9 -10 43 4 34
3 40 -7 30 -10 -9 -20 -6 -46 14 -19 14 -34 31 -34 38 0 18 -87 113 -110 120
-24 8 -55 69 -46 91 5 13 15 15 42 11 19 -3 41 -4 49 -1 21 8 -9 51 -49 70
-57 27 -82 44 -66 44 9 0 21 -5 26 -10 7 -7 27 -7 62 1 163 35 420 34 592 -1z
m-2845 -19 c-7 -12 -45 -21 -45 -11 0 12 33 30 42 23 5 -2 6 -8 3 -12z m1975
15 c0 -3 -4 -8 -10 -11 -5 -3 -10 -1 -10 4 0 6 5 11 10 11 6 0 10 -2 10 -4z
m-1896 -43 c4 -9 2 -21 -4 -27 -7 -7 -10 -5 -10 7 0 9 -5 17 -11 17 -5 0 -7 5
-4 10 9 15 22 12 29 -7z m3381 -27 c0 -22 -14 -29 -34 -17 -19 12 -6 43 16 39
10 -2 18 -12 18 -22z m1060 -96 c3 -5 1 -10 -4 -10 -6 0 -11 5 -11 10 0 6 2
10 4 10 3 0 8 -4 11 -10z m-5398 -56 c10 -26 -14 -41 -35 -21 -15 16 -15 19
-2 27 21 14 30 12 37 -6z m5601 -32 c3 -19 -1 -22 -35 -22 -21 0 -48 -3 -60
-6 -16 -4 -25 -1 -29 10 -9 23 -4 26 53 35 61 11 67 9 71 -17z m-2448 -247 c0
-8 -7 -15 -15 -15 -26 0 -18 20 13 29 1 1 2 -6 2 -14z m2514 -4 c18 -7 18 -8
1 -25 -21 -21 -39 -16 -43 12 -4 23 8 26 42 13z m-156 -29 c21 -3 13 -42 -11
-53 -31 -14 -77 4 -77 30 0 25 21 31 88 23z m62 -109 c0 -15 -9 -16 -29 -4 -9
6 -11 16 -6 32 7 22 8 22 21 4 8 -10 14 -25 14 -32z m110 -43 c0 -11 -4 -20
-9 -20 -11 0 -22 26 -14 34 12 12 23 5 23 -14z m-3040 -30 c0 -5 -4 -10 -10
-10 -5 0 -10 5 -10 10 0 6 5 10 10 10 6 0 10 -4 10 -10z m2960 -15 c0 -16 -9
-19 -34 -9 -20 8 -11 24 15 24 10 0 19 -7 19 -15z m-2275 -195 c7 -12 -3 -50
-13 -50 -20 1 -34 19 -27 39 7 22 29 28 40 11z m2249 -28 c3 -5 -8 -20 -24
-35 -22 -21 -38 -27 -74 -27 -42 0 -46 2 -46 25 0 20 6 25 38 30 20 4 42 8 47
10 20 7 54 5 59 -3z m-275 -27 c33 -17 41 -33 41 -85 0 -46 -20 -66 -49 -50
-12 6 -21 15 -21 21 0 5 -11 14 -24 19 -18 6 -25 18 -28 47 -3 21 -3 44 0 51
6 16 47 15 81 -3z m-2036 -17 c8 -28 -4 -47 -14 -22 -11 27 -11 44 0 44 5 0
11 -10 14 -22z m1907 -7 c15 -38 10 -60 -16 -78 -19 -12 -24 -12 -38 2 -14 15
-14 19 0 47 8 16 13 36 10 44 -11 29 32 14 44 -15z m-1582 -4 c3 -14 -1 -18
-20 -15 -12 2 -24 11 -26 21 -3 14 1 18 20 15 12 -2 24 -11 26 -21z m1427 -70
l0 -42 45 -5 c34 -4 47 -11 56 -29 15 -30 8 -50 -21 -57 -37 -9 -59 -1 -65 26
-4 15 -14 26 -27 28 -36 5 -42 80 -10 120 15 19 22 5 22 -41z m-1258 -19 c-3
-8 -6 -5 -6 6 -1 11 2 17 5 13 3 -3 4 -12 1 -19z m2506 -19 c7 -12 7 -26 -3
-48 -12 -31 -13 -31 -27 -11 -13 18 -21 20 -64 14 -40 -5 -50 -4 -55 10 -4 10
1 25 12 37 14 16 28 19 72 17 38 -2 58 -8 65 -19z m-444 -130 c21 -37 22 -46
12 -80 -6 -21 -16 -41 -21 -44 -5 -3 -27 8 -49 25 -22 18 -47 30 -58 28 -10
-3 -35 4 -55 14 -33 16 -38 23 -38 52 0 18 3 36 7 39 3 4 45 7 93 7 l86 0 23
-41z m-3479 -26 c0 -16 -10 -18 -74 -16 -41 0 -80 4 -85 8 -28 17 -4 25 74 25
74 0 85 -2 85 -17z m888 -44 c37 -7 61 -16 59 -23 -5 -15 -81 -8 -129 11 -41
16 -52 39 -15 30 12 -3 50 -11 85 -18z m2992 -28 c0 -16 -30 -33 -47 -26 -17
6 -17 7 1 21 22 16 46 19 46 5z m-3006 -17 c29 -4 46 -12 46 -20 0 -18 -17
-18 -68 0 -22 8 -43 12 -46 9 -3 -4 -6 -1 -6 5 0 14 10 14 74 6z m3272 -19
c12 -48 -16 -45 -31 3 -5 16 -2 22 9 22 9 0 18 -11 22 -25z m-1426 -30 c6 -8
9 -19 5 -25 -9 -15 -41 -12 -56 6 -10 13 -10 17 2 25 20 13 35 11 49 -6z
m1818 -230 c1 -14 -3 -25 -8 -25 -6 0 -19 -9 -30 -20 -11 -11 -26 -17 -35 -14
-22 9 -18 17 18 34 19 9 31 22 31 33 -1 9 3 17 10 17 6 0 13 -11 14 -25z
m-108 -16 c0 -24 -4 -30 -17 -27 -22 4 -30 38 -11 49 22 15 28 10 28 -22z
m-579 -9 c28 -16 24 -38 -6 -32 -13 2 -31 2 -39 -1 -20 -8 -8 -47 14 -47 20 0
49 -25 68 -58 11 -19 10 -22 -8 -22 -10 0 -24 9 -30 20 -6 12 -22 20 -38 21
-15 0 -21 3 -14 6 20 8 3 23 -27 23 -34 0 -51 17 -51 51 0 29 21 43 51 34 9
-3 20 -1 24 5 8 13 31 13 56 0z m193 -6 c8 -21 -1 -34 -24 -34 -18 0 -18 -1 0
-37 19 -40 11 -55 -17 -31 -13 10 -17 10 -20 1 -5 -15 -39 -18 -47 -5 -9 15 8
61 34 92 27 32 64 40 74 14z m66 -5 c0 -24 -23 -21 -28 4 -2 10 3 17 12 17 10
0 16 -9 16 -21z m107 15 c-3 -3 -12 -4 -19 -1 -8 3 -5 6 6 6 11 1 17 -2 13 -5z
m113 -4 c0 -5 -2 -10 -4 -10 -3 0 -8 5 -11 10 -3 6 -1 10 4 10 6 0 11 -4 11
-10z m-655 -31 c-4 -5 -2 -9 3 -9 6 0 9 -11 8 -25 -1 -19 -5 -23 -18 -19 -10
3 -18 0 -18 -7 0 -9 -4 -8 -15 1 -23 19 -19 55 8 67 24 11 41 7 32 -8z m527
-1 c-4 -25 13 -22 31 5 15 21 16 21 29 3 16 -20 17 -61 2 -60 -5 0 -22 4 -37
8 -18 6 -32 5 -40 -3 -8 -8 -17 -5 -34 10 -18 17 -20 26 -12 41 14 25 65 22
61 -4z m-644 3 c9 -5 11 -17 7 -34 -6 -20 -1 -32 20 -51 l26 -25 -21 -11 c-16
-9 -25 -9 -33 -1 -13 13 -28 15 -26 4 4 -25 -4 -33 -34 -33 -27 0 -34 5 -45
32 -9 23 -9 35 0 45 13 16 3 29 -26 35 -35 6 -30 28 6 29 18 1 44 5 58 9 34
11 53 11 68 1z m772 -45 c-15 -15 -23 0 -15 31 l7 28 9 -24 c6 -16 6 -28 -1
-35z m-2470 -23 c0 -22 -2 -25 -10 -13 -13 20 -13 40 0 40 6 0 10 -12 10 -27z
m-2850 13 c0 -3 -4 -8 -10 -11 -5 -3 -10 -1 -10 4 0 6 5 11 10 11 6 0 10 -2
10 -4z m4674 -25 c9 -14 -4 -41 -19 -41 -21 0 -36 25 -23 38 14 14 35 16 42 3z
m683 -57 c-3 -3 -12 -4 -19 -1 -8 3 -5 6 6 6 11 1 17 -2 13 -5z m-482 -59 c0
-5 -19 -11 -42 -13 -34 -3 -43 0 -43 13 0 13 9 16 43 13 23 -2 42 -7 42 -13z
m-5058 -11 c-3 -3 -12 -4 -19 -1 -8 3 -5 6 6 6 11 1 17 -2 13 -5z m9 -131
c-90 -90 -105 -109 -100 -130 7 -24 -18 -63 -40 -63 -12 -1 -66 -46 -66 -56 0
-3 -11 -15 -25 -26 -14 -11 -34 -37 -45 -58 -11 -21 -30 -42 -42 -46 -13 -3
-39 -19 -58 -33 -19 -15 -61 -40 -94 -56 -32 -16 -66 -40 -75 -53 -9 -13 -24
-32 -33 -43 -25 -27 -22 -43 12 -81 53 -57 81 -115 87 -176 3 -38 1 -52 -5
-43 -6 9 -19 11 -39 7 -36 -8 -83 8 -83 29 0 8 -12 21 -26 27 -25 12 -26 15
-21 65 3 31 1 55 -5 59 -5 3 -7 16 -4 29 6 25 -8 35 -52 35 -34 0 -59 15 -43
24 20 13 11 36 -21 56 -18 11 -27 20 -20 20 10 0 10 5 2 20 -10 18 -8 20 20
20 41 0 57 36 27 61 -14 10 -18 22 -13 34 6 17 8 16 32 -6 20 -18 35 -23 72
-21 30 1 42 -2 33 -7 -18 -12 -5 -31 22 -31 19 0 87 34 87 43 0 4 -10 6 -75
12 -27 3 -60 10 -73 17 -21 11 -21 13 -5 30 20 22 36 23 53 3 9 -11 17 -12 30
-5 27 14 51 12 71 -6 16 -15 17 -14 12 5 -3 12 -9 21 -14 21 -5 0 -9 9 -9 20
0 13 9 22 28 26 75 17 164 48 184 63 13 10 55 35 94 55 57 30 97 63 195 164
69 70 126 121 127 114 2 -7 -44 -61 -102 -119z m5054 -17 c0 -2 -6 -19 -14
-37 -11 -27 -16 -30 -21 -17 -7 18 10 58 25 58 6 0 10 -2 10 -4z m-36 -111
c-3 -7 -12 -16 -21 -19 -11 -5 -13 -14 -9 -34 l6 -27 -20 24 c-25 29 -26 68
-2 73 27 6 51 -3 46 -17z m181 -5 c3 -5 -1 -10 -9 -10 -9 0 -16 5 -16 10 0 6
4 10 9 10 6 0 13 -4 16 -10z m-578 -56 c-3 -3 -12 -4 -19 -1 -8 3 -5 6 6 6 11
1 17 -2 13 -5z m-4104 -35 c9 -17 26 -33 37 -36 11 -3 20 -10 20 -15 0 -5 -5
-6 -11 -2 -9 5 -10 -1 -5 -20 5 -22 3 -26 -16 -27 -18 -1 -19 -2 -5 -6 14 -4
16 -8 6 -19 -6 -8 -19 -14 -29 -14 -10 0 -25 -10 -34 -22 -12 -16 -16 -18 -12
-6 3 11 -2 22 -14 28 -24 13 -26 30 -5 30 23 0 18 16 -10 28 -32 15 -45 15
-45 2 0 -5 12 -10 28 -10 24 -1 25 -2 10 -14 -10 -7 -18 -18 -18 -23 0 -6 -12
-8 -27 -5 -23 4 -25 2 -20 -17 4 -16 1 -21 -14 -21 -10 0 -19 5 -19 10 0 15
-58 12 -84 -5 -19 -13 -25 -13 -41 -1 -18 13 -16 17 36 70 40 41 63 57 87 60
29 3 33 1 29 -15 -7 -25 10 -34 28 -15 14 13 13 16 -2 25 -10 6 -13 10 -8 11
6 0 17 -4 24 -9 9 -6 22 -6 32 0 11 6 20 5 24 -1 3 -5 1 -10 -4 -10 -6 0 -11
-5 -11 -11 0 -5 5 -7 10 -4 6 3 10 1 10 -6 0 -8 3 -9 9 -3 13 13 1 64 -16 71
-11 4 -10 8 4 19 27 20 36 17 56 -17z m3907 -3 c0 -21 -21 -31 -31 -15 -14 22
-11 29 11 29 11 0 20 -6 20 -14z m370 -41 c0 -8 -6 -15 -14 -15 -7 0 -19 7
-26 15 -11 13 -8 15 14 15 16 0 26 -5 26 -15z m-190 -15 c0 -5 -2 -10 -4 -10
-3 0 -8 5 -11 10 -3 6 -1 10 4 10 6 0 11 -4 11 -10z m443 4 c3 -4 -5 -16 -19
-26 -31 -25 -44 -16 -19 12 19 21 28 24 38 14z m-396 -20 c-3 -3 -12 -4 -19
-1 -8 3 -5 6 6 6 11 1 17 -2 13 -5z m236 -9 c1 -6 -11 -11 -28 -13 -29 -2 -29
-2 -10 13 20 16 35 16 38 0z m-5615 -13 c2 -7 -3 -12 -12 -12 -9 0 -16 7 -16
16 0 17 22 14 28 -4z m5488 -18 c13 -14 24 -27 24 -30 0 -9 -19 -3 -34 12 -9
8 -24 14 -33 13 -33 -3 -43 1 -43 16 0 26 59 19 86 -11z m-4121 6 c-3 -5 -12
-10 -18 -10 -7 0 -6 4 3 10 19 12 23 12 15 0z m3736 -25 c18 -39 16 -45 -17
-45 -53 0 -66 19 -38 58 21 31 36 27 55 -13z m-2274 3 c-3 -8 -6 -5 -6 6 -1
11 2 17 5 13 3 -3 4 -12 1 -19z m2183 7 c0 -8 -6 -15 -14 -15 -17 0 -28 14
-19 24 12 12 33 6 33 -9z m-5110 -15 c0 -5 -9 -14 -20 -20 -15 -8 -20 -8 -20
3 0 8 3 17 7 20 10 10 33 8 33 -3z m4885 -1 c9 -13 7 -15 -27 -23 -21 -5 -28
-3 -28 8 0 23 43 35 55 15z m-5056 -23 c15 -8 40 -12 63 -8 33 4 37 2 32 -12
-3 -9 -17 -16 -30 -16 -13 0 -24 -4 -24 -8 0 -18 26 -32 60 -32 45 0 52 -7 39
-32 -8 -15 -17 -18 -35 -14 -17 5 -26 2 -30 -9 -9 -23 16 -47 43 -42 41 8 22
-28 -20 -38 -21 -6 -27 -4 -27 10 0 11 -6 15 -19 10 -16 -5 -18 0 -17 32 0 21
5 41 10 44 5 4 6 11 2 17 -4 7 -18 6 -43 -4 -41 -18 -91 -5 -76 19 4 6 6 22 4
35 -2 18 2 22 23 22 28 0 33 9 14 28 -16 16 1 15 31 -2z m1411 -1 c0 -8 -4
-15 -10 -15 -5 0 -7 7 -4 15 4 8 8 15 10 15 2 0 4 -7 4 -15z m101 -8 c-10 -9
-11 -8 -5 6 3 10 9 15 12 12 3 -3 0 -11 -7 -18z m4113 8 c-6 -16 -24 -21 -24
-7 0 11 11 22 21 22 5 0 6 -7 3 -15z m-4299 -12 c18 -14 18 -15 2 -9 -10 3
-23 6 -28 6 -5 0 -9 5 -9 10 0 14 12 12 35 -7z m3765 7 c0 -5 -4 -10 -10 -10
-5 0 -10 5 -10 10 0 6 5 10 10 10 6 0 10 -4 10 -10z m170 -10 c0 -5 -4 -10
-10 -10 -5 0 -10 5 -10 10 0 6 5 10 10 10 6 0 10 -4 10 -10z m-5447 -7 c-7 -2
-19 -2 -25 0 -7 3 -2 5 12 5 14 0 19 -2 13 -5z m1465 -2 c10 -6 7 -10 -12 -13
-18 -4 -26 -1 -26 8 0 16 18 18 38 5z m-114 -49 c-1 -2 -11 2 -23 9 -15 10
-17 16 -9 26 9 11 13 9 23 -9 6 -13 11 -24 9 -26z m-1332 18 c12 -11 19 -23
15 -26 -8 -8 -57 23 -57 36 0 16 19 11 42 -10z m4252 6 c-7 -19 -35 -29 -47
-17 -14 14 1 31 28 31 17 0 23 -4 19 -14z m1856 4 c0 -5 -2 -10 -4 -10 -3 0
-8 5 -11 10 -3 6 -1 10 4 10 6 0 11 -4 11 -10z m-6242 -16 c36 -7 25 -23 -13
-17 -42 7 -46 -9 -8 -26 27 -12 27 -13 8 -27 -12 -9 -36 -14 -60 -12 -35 3
-40 6 -43 30 -2 15 2 36 7 47 11 20 31 21 109 5z m1692 6 c0 -5 -9 -14 -20
-20 -20 -11 -18 -37 4 -52 8 -5 7 -8 -1 -8 -6 0 -19 10 -27 22 -15 20 -14 24
6 45 23 24 38 30 38 13z m4765 -10 c4 -6 -9 -10 -32 -9 -30 0 -34 2 -18 9 27
12 43 12 50 0z m-4938 -16 c9 -8 24 -13 35 -11 13 4 18 0 16 -11 -2 -11 3 -16
15 -14 18 3 24 -22 7 -33 -5 -3 -10 -2 -10 4 0 5 -10 13 -22 17 -21 6 -68 48
-68 60 0 9 12 4 27 -12z m-1777 -20 c0 -20 -4 -25 -16 -20 -9 3 -22 6 -30 6
-21 0 -17 16 9 28 33 16 37 14 37 -14z m343 13 c4 -12 -14 -47 -25 -47 -2 0
-3 14 0 30 4 31 16 39 25 17z m1361 -23 c7 -17 -6 -18 -22 -2 -7 7 -12 9 -12
4 0 -16 30 -36 47 -30 14 4 15 4 4 -4 -17 -13 -6 -32 20 -32 10 0 19 -4 19 -8
0 -9 98 8 117 21 9 6 11 3 7 -7 -5 -13 1 -14 33 -10 21 2 39 9 41 14 2 5 24 3
49 -5 56 -17 76 -33 33 -27 -16 2 -30 0 -30 -6 0 -11 24 -22 49 -22 25 0 53
-34 45 -54 -3 -9 -10 -16 -15 -16 -5 0 -10 -8 -10 -17 -1 -17 -2 -17 -6 0 -4
14 -11 16 -38 11 -21 -4 -44 0 -66 11 l-34 16 40 -35 c49 -43 36 -47 -25 -6
-60 40 -72 18 -30 -61 11 -19 11 -19 50 1 21 11 41 24 45 30 3 5 13 6 23 1 89
-42 95 -47 128 -110 l34 -63 -32 6 c-18 4 -45 9 -60 13 -16 3 -28 11 -28 18 0
12 -41 26 -124 42 -20 4 -27 2 -22 -6 5 -7 -3 -11 -22 -11 -40 0 -45 9 -18 31
l24 19 -24 46 c-13 26 -24 53 -24 61 0 7 -5 13 -12 13 -9 0 -9 3 0 12 16 16
15 35 -2 41 -10 4 -13 1 -9 -9 3 -7 0 -14 -6 -14 -6 0 -11 3 -11 8 0 11 -32
29 -69 37 -24 5 -31 4 -27 -4 4 -6 15 -11 25 -11 16 0 19 -8 17 -47 -1 -32 3
-48 12 -49 26 -3 26 -5 3 -24 -29 -25 -41 -18 -42 23 l-1 32 -11 -31 c-13 -33
-27 -34 -61 -5 -14 12 -20 13 -23 4 -3 -8 -24 -13 -56 -13 -41 0 -55 -4 -65
-20 -7 -11 -17 -20 -23 -20 -5 0 -8 4 -5 8 3 5 -8 6 -25 4 -18 -3 -29 0 -29 8
0 7 7 10 15 6 8 -3 18 1 22 8 15 24 106 86 127 86 12 0 35 -7 51 -16 26 -13
28 -13 15 0 -8 8 -48 22 -88 31 -40 8 -83 20 -94 26 -21 11 -21 12 -3 25 18
13 17 14 -9 14 -19 0 -25 -4 -20 -12 5 -9 4 -10 -4 -3 -5 6 -12 19 -14 29 -2
13 -12 20 -29 20 -19 1 -25 -2 -21 -13 4 -11 -1 -13 -25 -8 -31 6 -73 -1 -73
-12 0 -3 25 -6 56 -6 44 0 59 -4 68 -18 9 -15 7 -21 -8 -32 -23 -17 -11 -38
17 -30 20 5 20 5 4 -5 -14 -9 -26 -8 -52 4 -18 9 -41 16 -52 15 -14 0 -13 -2
6 -10 30 -12 23 -19 -25 -25 -22 -2 -50 -7 -64 -10 -14 -4 -36 -8 -50 -9 -14
-2 -45 -6 -70 -10 -36 -6 -49 -4 -59 8 -7 9 -10 21 -6 28 10 14 126 66 181 80
24 6 43 14 42 18 0 3 0 14 1 25 1 15 4 16 15 7 11 -9 22 -7 52 11 41 24 123
30 200 15 36 -7 45 -5 70 16 23 20 32 23 51 14 12 -5 24 -16 27 -23z m4104 24
c-5 -15 -33 -22 -54 -14 -24 9 -6 26 27 26 20 0 29 -4 27 -12z m152 -8 c0 -5
-12 -10 -26 -10 -14 0 -23 4 -19 10 3 6 15 10 26 10 10 0 19 -4 19 -10z
m-5565 -60 c14 -16 15 -24 6 -51 -19 -55 -8 -66 29 -29 19 19 25 20 81 9 65
-13 73 -19 64 -49 -10 -31 -95 -26 -95 5 0 25 -22 28 -51 6 -20 -15 -36 -20
-54 -15 -15 4 -25 2 -25 -5 0 -5 -9 -15 -21 -21 -16 -9 -25 -8 -37 2 -9 8 -30
20 -46 26 -23 10 -26 15 -16 27 7 8 23 15 35 15 13 0 25 7 29 15 3 8 15 15 27
15 17 0 20 4 15 24 -4 18 -1 28 11 35 25 14 27 14 48 -9z m1543 -11 c-7 -5
-15 -4 -16 1 -2 6 -8 8 -13 4 -5 -3 -9 2 -9 10 0 13 4 14 25 4 19 -8 22 -14
13 -19z m3201 22 c17 -11 4 -34 -15 -27 -7 3 -27 -6 -43 -20 -16 -13 -32 -20
-35 -15 -11 17 13 59 36 64 38 7 42 7 57 -2z m-474 -11 c8 13 45 13 45 0 0 -5
-6 -10 -14 -10 -8 0 -16 -4 -18 -9 -4 -12 -48 6 -48 20 0 9 4 9 14 0 10 -8 16
-9 21 -1z m605 -25 c0 -8 -9 -15 -20 -15 -20 0 -26 11 -13 23 12 13 33 7 33
-8z m205 5 c8 -13 -20 -24 -41 -16 -20 8 -9 26 16 26 10 0 22 -5 25 -10z
m-615 -15 c0 -8 -9 -15 -20 -15 -20 0 -26 11 -13 23 12 13 33 7 33 -8z m-2042
-38 c-9 -18 -19 -44 -22 -59 -9 -39 -23 -35 -19 5 5 35 23 78 38 89 18 13 19
-3 3 -35z m721 16 c-4 -33 44 -135 82 -174 34 -35 39 -36 40 -6 1 18 2 18 6 4
4 -17 6 -18 23 -2 14 12 27 15 47 10 l28 -7 -30 -24 c-16 -13 -36 -22 -43 -19
-9 3 -11 -1 -7 -15 9 -28 2 -25 -47 20 -24 22 -48 40 -55 40 -6 0 -13 6 -16
13 -2 8 -32 12 -100 12 -52 0 -98 3 -101 6 -3 3 16 29 42 57 35 38 56 52 75
52 15 0 27 5 27 10 0 6 -4 10 -10 10 -17 0 -11 18 8 23 31 8 33 7 31 -10z
m2180 11 c26 -5 29 -9 19 -21 -6 -8 -24 -21 -39 -28 -24 -13 -27 -13 -25 3 1
11 -8 18 -22 20 -19 3 -21 6 -11 18 13 15 30 17 78 8z m-3618 -21 c13 -16 12
-17 -3 -4 -10 7 -18 15 -18 17 0 8 8 3 21 -13z m2683 -27 c49 -52 81 -64 134
-54 37 6 49 5 64 -9 34 -31 18 -56 -21 -32 -12 8 -23 9 -35 2 -12 -6 -31 -6
-56 1 -33 8 -42 7 -58 -7 -24 -22 -35 -22 -27 1 3 11 -1 34 -9 53 -15 33 -15
33 -16 7 0 -47 -62 -65 -95 -28 -10 11 -31 20 -47 20 -21 0 -28 5 -28 19 0 22
19 31 65 31 18 0 38 7 45 15 20 24 50 17 84 -19z m-3316 -1 c-3 -3 -9 2 -12
12 -6 14 -5 15 5 6 7 -7 10 -15 7 -18z m3002 15 c0 -5 -4 -10 -9 -10 -6 0 -13
5 -16 10 -3 6 1 10 9 10 9 0 16 -4 16 -10z m59 -26 c-24 -26 -39 -31 -39 -13
0 15 43 48 53 42 5 -3 -2 -16 -14 -29z m-2714 -4 c3 -6 -1 -7 -9 -4 -18 7 -21
14 -7 14 6 0 13 -4 16 -10z m2065 -10 c0 -5 -7 -10 -16 -10 -8 0 -12 5 -9 10
3 6 10 10 16 10 5 0 9 -4 9 -10z m1315 0 c-3 -5 -13 -10 -21 -10 -8 0 -14 5
-14 10 0 6 9 10 21 10 11 0 17 -4 14 -10z m-779 -14 c3 -8 1 -23 -5 -34 -17
-32 -4 -52 29 -46 15 4 31 1 34 -5 4 -6 2 -11 -3 -11 -6 0 -11 -15 -11 -34 0
-42 -20 -60 -58 -52 -23 6 -34 1 -57 -23 -17 -17 -36 -31 -44 -31 -26 0 -86
-25 -97 -39 -6 -8 -17 -12 -24 -9 -10 3 -3 14 20 34 18 16 41 37 51 48 12 13
25 17 42 12 18 -4 32 1 51 19 19 18 34 23 54 19 15 -2 33 -1 41 4 11 8 10 13
-5 31 -10 11 -24 21 -30 21 -6 0 -19 11 -28 24 -8 14 -25 27 -36 31 -30 10
-24 29 13 42 46 15 57 15 63 -1z m-686 0 c0 -2 -7 -6 -15 -10 -8 -3 -15 -1
-15 4 0 6 7 10 15 10 8 0 15 -2 15 -4z m1460 -22 c0 -2 -13 -10 -29 -18 -41
-22 -45 -43 -14 -72 24 -23 25 -24 5 -24 -11 0 -24 5 -27 10 -3 6 -17 7 -31 4
-33 -8 -31 9 8 66 27 39 36 45 60 42 15 -2 28 -6 28 -8z m-4120 -4 c0 -5 -2
-10 -4 -10 -3 0 -8 5 -11 10 -3 6 -1 10 4 10 6 0 11 -4 11 -10z m1478 -26
c-10 -9 -173 -64 -183 -61 -5 2 27 16 72 31 45 15 87 34 94 43 9 10 15 11 17
3 2 -6 2 -13 0 -16z m-1141 10 c-3 -3 -12 -4 -19 -1 -8 3 -5 6 6 6 11 1 17 -2
13 -5z m1033 -3 c0 -5 -7 -12 -16 -15 -14 -5 -15 -4 -4 9 14 17 20 19 20 6z
m2845 -10 c0 -8 -7 -17 -15 -21 -8 -4 -25 -12 -37 -18 -31 -16 -37 1 -12 32
22 29 64 33 64 7z m-3959 -5 c29 -30 16 -41 -54 -45 -46 -2 -64 17 -42 44 16
19 77 19 96 1z m-141 -14 c6 -4 15 -20 20 -37 9 -25 8 -33 -10 -47 -30 -25
-11 -33 71 -31 68 2 74 1 74 -17 0 -11 -9 -25 -20 -32 -11 -7 -20 -18 -20 -24
0 -12 -93 23 -150 56 -25 14 -31 16 -50 19 -5 0 -10 23 -10 51 0 36 5 52 18
59 20 12 63 14 77 3z m3148 -17 c-7 -21 -13 -19 -13 6 0 11 4 18 10 14 5 -3 7
-12 3 -20z m707 15 c0 -5 -7 -10 -15 -10 -8 0 -15 5 -15 10 0 6 7 10 15 10 8
0 15 -4 15 -10z m-3430 -20 l25 -8 -25 0 c-14 0 -38 4 -55 8 l-30 8 30 0 c17
0 41 -4 55 -8z m270 -21 c0 -6 -4 -7 -10 -4 -5 3 -10 11 -10 16 0 6 5 7 10 4
6 -3 10 -11 10 -16z m2656 0 c12 -12 20 -27 17 -35 -5 -14 55 -44 89 -44 11 0
18 -5 15 -12 -6 -18 -96 -12 -117 7 -9 8 -22 15 -28 15 -7 0 -12 6 -12 14 0 7
-7 19 -15 26 -14 12 -14 15 1 31 21 24 23 24 50 -2z m170 -4 c30 -32 23 -77
-15 -101 -24 -16 -25 -16 -12 -1 11 13 11 20 1 32 -6 8 -9 23 -5 35 4 13 1 22
-9 26 -9 3 -16 12 -16 20 0 22 31 16 56 -11z m-2921 -23 c-8 -8 -25 10 -25 26
0 13 2 13 14 -4 8 -10 13 -21 11 -22z m1015 -3 c0 -5 -4 -9 -10 -9 -5 0 -10 7
-10 16 0 8 5 12 10 9 6 -3 10 -10 10 -16z m-2403 -32 c26 -2 50 -10 60 -21 17
-18 16 -18 -31 -11 -41 6 -48 4 -43 -9 5 -12 -2 -14 -36 -13 -39 2 -42 0 -42
-23 0 -15 -7 -26 -18 -28 -12 -3 -17 3 -17 21 0 14 -7 30 -15 37 -23 19 -18
33 10 28 20 -4 25 -1 25 15 0 17 5 18 33 12 17 -3 51 -7 74 -8z m3228 -28 c5
-6 2 -9 -9 -9 -9 0 -14 -4 -11 -10 4 -6 -6 -7 -25 -4 -23 5 -34 2 -44 -12 -8
-10 -29 -24 -47 -31 -32 -13 -26 -12 41 3 19 4 16 0 -15 -20 -51 -33 -162 -68
-311 -100 -66 -14 -128 -28 -137 -32 -9 -3 -17 -2 -17 4 0 9 58 35 135 60 17
6 23 11 14 11 -9 1 -36 -6 -59 -14 -56 -20 -70 -19 -70 4 0 11 -5 21 -12 23
-6 2 45 34 113 71 l124 68 97 3 c53 3 105 9 114 14 17 10 98 -10 119 -29z
m1195 10 c45 -10 100 -52 100 -76 0 -18 -29 -17 -36 1 -3 8 -12 17 -21 20 -11
4 -13 2 -9 -9 10 -28 -23 -16 -64 23 -58 54 -54 60 30 41z m345 2 c3 -5 1 -12
-5 -16 -5 -3 -10 1 -10 9 0 18 6 21 15 7z m-4658 -47 c9 -23 -10 -36 -48 -31
-31 4 -32 5 -11 12 12 4 22 14 22 21 0 19 29 18 37 -2z m1746 9 c-7 -2 -21 -2
-30 0 -10 3 -4 5 12 5 17 0 24 -2 18 -5z m2372 -23 c-3 -5 -15 -10 -26 -10
-11 0 -17 5 -14 10 3 6 15 10 26 10 11 0 17 -4 14 -10z m-3421 -34 c-5 -13
-34 -31 -34 -22 0 16 14 36 26 36 7 0 11 -6 8 -14z m3126 -1 c11 -13 8 -15
-13 -15 -26 0 -42 12 -30 24 11 11 30 7 43 -9z m-3085 -15 c-3 -5 -11 -10 -16
-10 -6 0 -7 5 -4 10 3 6 11 10 16 10 6 0 7 -4 4 -10z m3821 -20 c19 0 18 -26
-2 -34 -9 -4 -24 0 -33 8 -10 9 -26 13 -39 9 -12 -3 -22 -1 -22 5 0 11 45 21
68 15 8 -1 20 -3 28 -3z m-4810 -30 c32 -12 22 -29 -18 -32 -17 -1 -31 -11
-37 -25 -6 -13 -19 -24 -28 -24 -41 -3 -80 -8 -110 -14 -39 -9 -46 10 -8 19
14 4 25 11 25 16 0 6 7 10 15 10 8 0 15 4 15 9 0 6 20 13 45 16 24 4 50 13 56
21 14 17 11 17 45 4z m3139 -10 c-11 -5 -27 -9 -35 -9 -9 0 -8 4 5 9 11 5 27
9 35 9 9 0 8 -4 -5 -9z m-3395 -10 c0 -5 -4 -10 -10 -10 -5 0 -10 5 -10 10 0
6 5 10 10 10 6 0 10 -4 10 -10z m3328 -7 c-10 -2 -18 -11 -18 -18 0 -13 -36
-31 -52 -27 -5 1 -8 -5 -8 -13 0 -20 -78 -21 -86 -1 -4 12 -12 9 -35 -11 -41
-37 -23 -45 84 -37 48 3 87 4 87 0 0 -12 -60 -36 -90 -36 -19 0 -33 -6 -37
-16 -5 -13 -16 -15 -53 -11 -61 7 -90 25 -90 57 0 42 21 59 95 76 39 9 93 22
120 29 28 7 61 13 75 13 16 0 19 -2 8 -5z m692 -34 c0 -11 -27 -12 -34 0 -3 4
-3 11 0 14 8 8 34 -3 34 -14z m-1540 -25 c12 -35 6 -62 -6 -30 -3 9 -10 13
-15 10 -5 -3 -7 -10 -4 -15 4 -5 -1 -9 -10 -9 -9 0 -13 5 -10 10 3 6 3 15 -1
21 -4 8 -9 7 -15 -2 -7 -11 -9 -11 -9 -1 0 7 -4 10 -10 7 -5 -3 -10 0 -10 9 0
13 38 33 67 35 6 1 17 -15 23 -35z m140 5 c0 -11 -69 -43 -77 -36 -4 5 57 47
70 47 4 0 7 -5 7 -11z m1515 -69 c4 -6 -8 -10 -29 -10 -20 0 -36 5 -36 10 0 6
13 10 29 10 17 0 33 -4 36 -10z m59 -5 c-7 -16 -30 -20 -38 -6 -7 11 4 21 25
21 12 0 16 -5 13 -15z m-164 -33 c0 -13 -12 -22 -22 -16 -10 6 -1 24 13 24 5
0 9 -4 9 -8z m-284 -28 c34 -36 32 -77 -7 -104 -16 -12 -31 -21 -33 -19 -1 2
-10 23 -20 46 -20 45 -16 73 9 73 8 0 15 7 15 15 0 21 9 19 36 -11z m244 11
c0 -16 -9 -19 -34 -9 -25 9 -19 24 9 24 16 0 25 -6 25 -15z m-328 -67 c34 -52
32 -66 -15 -112 -25 -24 -50 -54 -57 -67 -7 -15 4 -7 29 20 36 39 43 42 58 30
16 -12 17 -12 6 2 -11 13 -10 19 5 32 16 15 18 14 31 -14 9 -21 16 -27 21 -19
9 15 30 -18 30 -47 -1 -17 -2 -17 -15 1 -14 19 -15 18 -14 -10 1 -70 25 -212
39 -229 8 -9 17 -40 21 -69 4 -28 19 -96 33 -151 15 -55 31 -134 37 -175 13
-93 18 -126 26 -169 4 -25 3 -32 -7 -26 -7 4 -28 -9 -56 -36 -40 -40 -44 -41
-44 -20 0 19 -3 21 -15 11 -8 -6 -19 -9 -24 -5 -6 3 -19 2 -28 -3 -10 -5 -38
-13 -63 -16 -39 -5 -35 -3 33 23 43 16 84 34 90 40 7 7 -4 5 -25 -3 -60 -25
-67 -18 -11 9 28 15 57 33 65 42 11 14 10 14 -13 -1 -26 -17 -89 -38 -89 -30
0 2 16 10 35 18 19 8 35 20 35 27 0 8 -5 7 -17 -2 -13 -11 -17 -11 -20 -1 -3
6 -20 12 -39 12 -24 0 -34 4 -34 16 0 14 -19 15 -150 12 -104 -2 -150 0 -150
8 0 12 34 24 155 54 44 11 98 26 120 34 l39 14 -39 12 c-37 11 -121 6 -242
-14 -13 -3 -25 0 -29 5 -3 5 4 9 16 9 12 0 29 7 38 17 18 17 15 17 -78 -2 -96
-20 -220 -30 -220 -17 0 10 187 65 198 58 4 -2 15 2 25 9 16 12 16 13 1 19
-16 6 -15 8 2 22 17 14 17 15 2 10 -10 -3 -18 -1 -18 4 0 6 5 10 12 10 26 0
117 51 112 63 -5 15 160 102 229 120 27 6 49 17 50 22 3 17 -91 17 -151 -1
-204 -59 -316 -82 -326 -65 -8 12 70 55 84 46 6 -3 10 -1 10 5 0 5 24 26 53
45 91 61 101 68 127 91 14 12 50 34 81 48 32 15 63 34 70 43 13 14 12 15 -6 6
-11 -6 -29 -7 -40 -3 -22 8 -49 -2 -82 -33 -28 -25 -31 -7 -7 38 14 29 13 28
-22 -8 -32 -32 -42 -37 -63 -31 -14 4 -41 8 -58 8 -22 1 -33 6 -34 16 0 9 -4
6 -9 -7 -13 -33 -45 -45 -95 -37 -42 6 -54 24 -17 24 26 0 67 24 67 38 0 19
28 33 37 19 5 -8 8 -7 8 5 0 11 12 18 39 23 22 3 49 17 62 31 12 13 27 24 33
24 6 0 34 12 63 28 94 49 50 91 -48 46 -56 -26 -103 -32 -97 -11 3 6 14 13 26
15 11 2 26 10 32 18 7 8 20 14 29 14 9 1 41 9 71 20 69 24 65 24 82 -2z m868
-28 c0 -11 -7 -20 -15 -20 -8 0 -15 9 -15 20 0 11 7 20 15 20 8 0 15 -9 15
-20z m-216 -12 c20 -28 20 -38 0 -38 -22 0 -47 28 -40 45 8 21 22 19 40 -7z
m-925 -49 c-16 -10 -23 -4 -14 10 3 6 11 8 17 5 6 -4 5 -9 -3 -15z m-2639 -39
c12 -23 3 -25 -22 -6 -22 16 -23 26 -3 26 8 0 19 -9 25 -20z m2657 14 c13 -4
21 -10 18 -14 -6 -10 -55 0 -55 11 0 10 7 11 37 3z m729 -2 c6 -4 14 -29 18
-57 l6 -50 -25 30 c-13 17 -24 42 -25 58 0 28 6 32 26 19z m-3451 -22 c-3 -5
-13 -10 -21 -10 -8 0 -12 5 -9 10 3 6 13 10 21 10 8 0 12 -4 9 -10z m2595 -15
c0 -17 -13 -26 -26 -17 -8 6 -10 18 -5 37 3 10 31 -8 31 -20z m80 12 c0 -8 -7
-14 -15 -14 -11 0 -12 4 -4 14 6 7 13 13 15 13 2 0 4 -6 4 -13z m907 7 c-3 -3
-12 -4 -19 -1 -8 3 -5 6 6 6 11 1 17 -2 13 -5z m-31 -64 c20 -22 42 -40 50
-40 22 0 27 -20 8 -41 -46 -51 -148 17 -116 78 5 10 7 24 5 31 -9 25 18 11 53
-28z m1404 -50 c0 -5 -2 -10 -4 -10 -3 0 -8 5 -11 10 -3 6 -1 10 4 10 6 0 11
-4 11 -10z m-1833 -36 c-7 -7 -37 7 -37 17 0 6 9 5 21 -1 11 -7 19 -14 16 -16z
m-357 -45 c0 -5 -11 -15 -25 -21 -14 -6 -25 -16 -25 -22 0 -6 -5 -4 -10 4 -6
9 -10 10 -10 3 0 -30 -154 -140 -182 -131 -6 2 4 21 22 41 24 27 38 36 52 31
18 -5 48 10 48 26 0 4 -11 10 -25 12 -14 3 -25 2 -25 -1 0 -7 -100 -54 -105
-49 -1 1 -6 22 -10 45 -6 40 -5 41 24 48 17 4 43 5 58 4 16 -1 50 1 77 6 37 6
50 4 57 -6 7 -11 9 -11 9 3 0 9 10 18 23 20 27 5 47 -1 47 -13z m-2400 -69
c25 -25 16 -44 -16 -36 -13 4 -24 2 -24 -3 0 -5 -7 -11 -15 -15 -10 -4 -15 1
-15 15 0 12 8 23 20 26 11 3 20 12 20 19 0 19 6 18 30 -6z m2800 -15 c0 -8 -2
-15 -4 -15 -2 0 -6 7 -10 15 -3 8 -1 15 4 15 6 0 10 -7 10 -15z m120 -55 c0
-5 -4 -10 -10 -10 -5 0 -10 5 -10 10 0 6 5 10 10 10 6 0 10 -4 10 -10z m-867
-70 c-9 -9 -185 -41 -191 -35 -5 4 67 25 88 25 8 0 33 7 55 14 39 14 65 12 48
-4z m-2368 -110 c10 -11 14 -20 8 -20 -5 0 -18 9 -28 20 -10 11 -14 20 -8 20
5 0 18 -9 28 -20z m2593 -27 c2 -8 -5 -13 -20 -13 -12 0 -47 -9 -76 -20 -58
-22 -72 -24 -72 -11 0 12 120 60 144 58 11 -1 21 -8 24 -14z m-313 -108 c38
-12 39 -13 10 -14 -16 0 -43 6 -60 14 -40 18 -5 19 50 0z m-220 -16 c-14 -6
-8 -7 22 -3 26 3 52 0 70 -9 15 -7 59 -22 96 -32 37 -9 65 -20 62 -24 -4 -3
-84 -6 -178 -6 -95 0 -187 -4 -205 -9 -32 -8 -34 -7 -30 15 2 18 8 23 26 21
12 -2 22 -1 22 3 0 3 -10 9 -22 14 -20 7 -16 10 25 16 26 4 50 11 53 16 3 5
22 9 42 8 31 0 34 -2 17 -10z m-1955 -39 c0 -5 -2 -10 -4 -10 -3 0 -8 5 -11
10 -3 6 -1 10 4 10 6 0 11 -4 11 -10z m3745 -40 c-3 -5 -24 -10 -46 -10 -24 0
-38 4 -34 10 3 6 24 10 46 10 24 0 38 -4 34 -10z m-1235 -18 c0 -5 -13 -7 -30
-4 -16 2 -30 6 -30 8 0 2 14 4 30 4 17 0 30 -4 30 -8z m-422 -26 c57 -24 58
-36 3 -36 -23 0 -31 3 -23 9 8 4 -12 7 -47 7 -72 -1 -83 -15 -13 -17 26 -1 38
-3 27 -6 -11 -3 -35 -12 -52 -20 -30 -14 -40 -14 -103 2 -39 10 -78 24 -87 33
-14 14 -10 17 38 29 42 11 68 12 115 4 33 -6 72 -11 85 -10 l24 0 -22 9 c-13
5 -23 12 -23 15 0 10 26 4 78 -19z m413 -26 c33 -18 21 -28 -20 -16 -22 6 -43
15 -47 19 -11 11 45 8 67 -3z m190 -10 c96 0 132 -11 87 -26 -25 -9 -138 -8
-166 0 -9 3 -23 16 -31 28 -10 18 -10 20 0 11 9 -9 46 -13 110 -13z m784 0
c15 -6 8 -9 -28 -9 -30 -1 -46 3 -42 9 7 12 42 12 70 0z m-899 -21 c19 -22 19
-22 -3 -8 -13 8 -23 17 -23 21 0 12 6 9 26 -13z m-61 -90 c44 -16 93 -28 108
-29 16 0 35 -6 43 -14 12 -13 10 -15 -14 -21 -52 -11 -207 39 -249 81 -15 15
-4 27 16 18 9 -4 52 -20 96 -35z m305 26 c-19 -7 -44 -13 -55 -13 -11 0 -2 5
20 13 53 17 80 17 35 0z m-100 1 c0 -2 -13 -6 -29 -8 -17 -2 -28 -1 -25 4 5 8
54 12 54 4z m20 -16 c0 -5 -8 -10 -17 -10 -15 0 -16 2 -3 10 19 12 20 12 20 0z
m280 -26 c0 -9 -5 -14 -12 -12 -18 6 -21 28 -4 28 9 0 16 -7 16 -16z m-1024
-9 c-24 -18 -73 -28 -112 -23 -23 3 -16 7 36 20 86 21 100 21 76 3z"/>
<path d="M3820 3920 c0 -15 21 -23 32 -12 6 6 2 11 -11 15 -12 3 -21 1 -21 -3z"/>
<path d="M3914 3909 c-3 -5 9 -9 25 -9 17 0 31 2 31 4 0 8 -51 13 -56 5z"/>
<path d="M4063 3893 c9 -2 23 -2 30 0 6 3 -1 5 -18 5 -16 0 -22 -2 -12 -5z"/>
<path d="M4178 3883 c7 -3 16 -2 19 1 4 3 -2 6 -13 5 -11 0 -14 -3 -6 -6z"/>
<path d="M4228 3873 c6 -2 18 -2 25 0 6 3 1 5 -13 5 -14 0 -19 -2 -12 -5z"/>
<path d="M6290 2730 c0 -5 5 -10 10 -10 6 0 10 5 10 10 0 6 -4 10 -10 10 -5 0
-10 -4 -10 -10z"/>
<path d="M1986 2197 c3 -10 9 -15 12 -12 3 3 0 11 -7 18 -10 9 -11 8 -5 -6z"/>
<path d="M1997 2164 c-11 -11 3 -24 24 -24 18 0 19 2 5 15 -16 17 -20 18 -29
9z"/>
<path d="M1956 2143 c-11 -11 -6 -23 9 -23 8 0 15 4 15 9 0 13 -16 22 -24 14z"/>
<path d="M275 1970 c-3 -6 1 -13 10 -16 19 -8 30 0 20 15 -8 14 -22 14 -30 1z"/>
<path d="M1735 1970 c-3 -6 1 -7 9 -4 18 7 21 14 7 14 -6 0 -13 -4 -16 -10z"/>
<path d="M1765 1852 c-15 -4 -6 -9 29 -18 59 -15 82 -7 36 12 -18 8 -35 13
-39 13 -3 -1 -15 -4 -26 -7z"/>
<path d="M1800 1770 c0 -5 5 -10 10 -10 6 0 10 5 10 10 0 6 -4 10 -10 10 -5 0
-10 -4 -10 -10z"/>
<path d="M2185 1701 c-3 -5 4 -13 16 -16 28 -9 36 1 10 14 -12 7 -22 7 -26 2z"/>
<path d="M3590 1560 c0 -5 9 -10 20 -10 11 0 20 5 20 10 0 6 -9 10 -20 10 -11
0 -20 -4 -20 -10z"/>
<path d="M3720 829 c0 -5 5 -7 10 -4 6 3 10 8 10 11 0 2 -4 4 -10 4 -5 0 -10
-5 -10 -11z"/>
<path d="M3799 793 c-13 -16 -12 -17 4 -4 9 7 17 15 17 17 0 8 -8 3 -21 -13z"/>
<path d="M3548 507 c-38 -12 -68 -27 -68 -34 0 -16 -5 -16 61 3 76 21 109 35
109 45 0 13 -28 9 -102 -14z"/>
<path d="M4316 935 c16 -25 34 -33 34 -17 0 10 -33 42 -44 42 -3 0 1 -11 10
-25z"/>
<path d="M2817 328 c-6 -4 33 -7 87 -7 54 0 95 3 92 6 -8 8 -165 10 -179 1z"/>
<path d="M2260 4790 c0 -5 5 -10 10 -10 6 0 10 5 10 10 0 6 -4 10 -10 10 -5 0
-10 -4 -10 -10z"/>
<path d="M102 4143 c-56 -2 -102 -8 -102 -13 0 -6 6 -10 14 -10 8 0 29 -20 47
-45 36 -50 35 -50 139 -31 41 7 115 19 163 26 48 8 90 16 92 20 2 4 -5 17 -16
28 -17 19 -31 22 -98 22 -43 0 -91 1 -107 3 -16 2 -75 2 -132 0z"/>
<path d="M600 4130 c-19 -6 -12 -8 29 -9 30 -1 52 1 50 3 -11 9 -57 13 -79 6z"/>
<path d="M0 4040 c0 -9 25 -40 57 -70 51 -50 54 -52 27 -15 -47 65 -84 102
-84 85z"/>
<path d="M306 3592 c-3 -6 -1 -14 5 -17 15 -10 25 3 12 16 -7 7 -13 7 -17 1z"/>
<path d="M1924 3226 c-6 -17 2 -36 17 -36 12 0 12 37 -1 45 -6 3 -13 -1 -16
-9z"/>
<path d="M3751 2985 c-2 -54 -2 -55 22 -46 14 6 28 7 31 4 3 -4 6 1 6 10 0 13
-5 15 -25 7 -27 -10 -32 -2 -15 30 5 10 7 26 4 34 -12 31 -21 15 -23 -39z"/>
<path d="M3797 2739 c7 -7 15 -10 18 -7 3 3 -2 9 -12 12 -14 6 -15 5 -6 -5z"/>
<path d="M5848 2703 c-27 -4 -35 -13 -22 -25 8 -9 74 14 68 24 -3 4 -8 7 -12
7 -4 -1 -19 -4 -34 -6z"/>
<path d="M5546 2673 c-7 -7 13 -45 28 -55 14 -9 25 9 19 32 -5 18 -37 33 -47
23z"/>
<path d="M5020 2635 c0 -12 62 -35 92 -34 31 0 32 1 11 11 -13 6 -23 15 -23
20 0 4 -18 8 -40 8 -22 0 -40 -2 -40 -5z"/>
<path d="M4572 2601 c-16 -10 0 -25 35 -34 32 -7 38 8 11 27 -26 18 -28 19
-46 7z"/>
<path d="M3515 2578 c-169 -17 -301 -29 -453 -38 -223 -14 -312 -31 -312 -57
0 -13 8 -14 43 -9 160 26 610 59 909 67 51 1 65 5 61 15 -3 8 -8 12 -12 10 -4
-3 -33 2 -66 10 -33 7 -67 13 -75 12 -8 0 -51 -5 -95 -10z"/>
<path d="M4825 2560 c-3 -6 1 -13 10 -16 19 -8 30 0 20 15 -8 14 -22 14 -30 1z"/>
<path d="M2637 2553 c-4 -3 -7 -13 -7 -22 1 -13 3 -13 11 2 11 19 8 33 -4 20z"/>
<path d="M5076 2524 c-9 -33 -31 -40 -61 -20 -24 16 -25 16 -25 -9 0 -14 -1
-25 -3 -25 -1 0 -17 -4 -35 -9 -27 -8 -36 -7 -51 8 -17 17 -22 17 -80 3 -53
-13 -61 -18 -61 -38 0 -32 -41 -42 -86 -20 -19 9 -44 16 -55 16 -11 0 -33 7
-49 15 -16 8 -35 12 -44 9 -8 -3 -24 0 -36 6 -15 8 -25 8 -35 0 -9 -8 -20 -7
-39 1 -23 11 -29 9 -49 -9 -13 -12 -29 -22 -35 -22 -16 0 -15 -5 4 -41 8 -17
13 -37 10 -45 -3 -8 -2 -13 3 -10 4 3 17 -1 27 -9 10 -8 40 -15 65 -15 40 0
49 -4 75 -35 25 -31 34 -35 76 -35 25 0 53 6 60 13 7 7 32 13 55 13 29 0 49 6
65 21 21 19 33 21 130 20 59 0 110 2 114 5 15 15 -11 28 -55 28 -52 0 -101 18
-101 37 0 22 39 34 110 35 75 2 100 -10 100 -47 0 -30 8 -35 36 -25 29 11 39
-2 24 -30 -6 -11 -21 -20 -34 -20 -13 0 -26 -7 -29 -15 -9 -21 12 -29 31 -12
15 13 19 13 30 1 7 -8 21 -14 31 -14 15 0 18 10 18 78 1 78 1 79 -30 97 -40
24 -16 34 27 12 17 -8 39 -18 49 -21 10 -3 17 -13 15 -23 -3 -16 7 -18 80 -19
45 -1 82 2 82 6 0 20 -13 40 -26 40 -8 0 -17 7 -20 15 -4 8 -13 15 -21 15 -11
0 -13 7 -9 24 5 21 1 26 -32 36 -20 7 -45 19 -54 28 -16 14 -22 13 -59 -4 -38
-17 -43 -17 -69 -2 -28 16 -28 15 -34 -8z m211 -77 c-6 -19 -23 -18 -24 2 -1
14 3 18 13 14 8 -3 13 -10 11 -16z m-457 -22 c0 -8 -7 -15 -16 -15 -14 0 -14
3 -4 15 7 8 14 15 16 15 2 0 4 -7 4 -15z m277 9 c-3 -3 -12 -4 -19 -1 -8 3 -5
6 6 6 11 1 17 -2 13 -5z m-302 -64 l16 -30 -36 0 c-41 0 -110 -32 -118 -55 -5
-11 -22 -15 -72 -15 -36 0 -65 3 -65 7 0 4 10 22 23 40 21 31 25 33 64 27 34
-5 44 -3 49 10 4 10 13 14 23 11 9 -2 30 4 46 14 42 27 52 25 70 -9z"/>
<path d="M6560 2540 c-12 -7 -12 -12 -3 -21 9 -9 16 -9 27 1 26 21 5 39 -24
20z"/>
<path d="M4390 2525 c0 -16 27 -32 37 -21 7 7 -16 36 -28 36 -5 0 -9 -7 -9
-15z"/>
<path d="M5920 2494 c0 -20 5 -24 29 -24 18 0 34 -8 43 -22 17 -25 39 -17 31
11 -3 11 -25 28 -54 39 l-49 21 0 -25z"/>
<path d="M6465 2509 c-10 -15 1 -23 20 -15 9 3 13 10 10 16 -8 13 -22 13 -30
-1z"/>
<path d="M3270 2503 c-67 -6 -69 -20 -3 -17 32 1 82 2 111 3 28 1 52 6 52 11
0 10 -65 11 -160 3z"/>
<path d="M2935 2478 c-111 -13 -122 -30 -15 -23 114 8 242 24 248 30 8 8 -145
3 -233 -7z"/>
<path d="M3879 2466 c14 -14 27 -26 29 -26 10 0 -26 44 -39 48 -8 3 -3 -7 10
-22z"/>
<path d="M6505 2450 c3 -5 8 -10 11 -10 2 0 4 5 4 10 0 6 -5 10 -11 10 -5 0
-7 -4 -4 -10z"/>
<path d="M2686 2435 c-15 -8 -34 -15 -41 -15 -7 0 -16 -7 -19 -16 -11 -29 -6
-37 12 -21 10 10 21 14 25 11 3 -3 19 -3 36 1 24 5 31 12 31 31 0 28 -5 29
-44 9z"/>
<path d="M3920 2436 c0 -9 5 -16 10 -16 6 0 10 4 10 9 0 6 -4 13 -10 16 -5 3
-10 -1 -10 -9z"/>
<path d="M5680 2440 c0 -5 5 -10 11 -10 5 0 7 5 4 10 -3 6 -8 10 -11 10 -2 0
-4 -4 -4 -10z"/>
<path d="M5620 2430 c0 -5 4 -10 9 -10 6 0 13 5 16 10 3 6 -1 10 -9 10 -9 0
-16 -4 -16 -10z"/>
<path d="M5736 2401 c-11 -12 -14 -21 -7 -25 13 -9 63 23 55 35 -9 15 -30 10
-48 -10z"/>
<path d="M5820 2410 c-12 -7 -12 -12 -2 -22 9 -9 15 -9 24 0 16 16 -2 34 -22
22z"/>
<path d="M6296 2413 c-11 -11 -6 -23 9 -23 8 0 15 4 15 9 0 13 -16 22 -24 14z"/>
<path d="M3236 2388 c-31 -16 -36 -22 -24 -29 8 -4 32 -6 52 -2 30 5 36 10 34
26 -4 28 -17 29 -62 5z"/>
<path d="M3920 2396 c0 -8 7 -16 15 -20 17 -6 18 -4 9 18 -8 20 -24 21 -24 2z"/>
<path d="M6361 2399 c-17 -7 -21 -13 -14 -20 15 -15 47 -7 51 14 4 19 -2 20
-37 6z"/>
<path d="M2630 2355 c-18 -21 -3 -32 16 -13 10 9 12 18 6 22 -5 3 -15 -1 -22
-9z"/>
<path d="M5417 2354 c-14 -14 6 -24 51 -24 27 0 42 4 37 9 -13 12 -80 23 -88
15z"/>
<path d="M3480 2303 c-100 -53 -112 -63 -107 -83 3 -11 -9 -32 -30 -55 -19
-21 -38 -48 -43 -60 -7 -19 -6 -22 10 -18 10 3 26 14 36 24 9 10 23 19 31 19
7 0 16 7 19 15 4 9 17 21 29 28 31 16 175 147 175 158 0 19 -58 6 -120 -28z"/>
<path d="M2695 2308 c-37 -22 -45 -23 -45 0 -1 14 -4 13 -20 -7 -21 -24 -26
-51 -11 -51 5 0 11 6 13 13 4 11 58 19 58 7 -1 -15 -30 -42 -42 -38 -18 6 -37
-21 -37 -52 0 -22 1 -23 10 -7 7 12 17 16 29 12 14 -5 27 5 51 37 17 24 34 50
37 58 3 8 12 20 20 26 27 20 -30 22 -63 2z"/>
<path d="M3204 2305 c-37 -37 -19 -49 25 -17 21 15 37 30 34 35 -8 14 -34 7
-59 -18z"/>
<path d="M5267 2323 c-19 -19 16 -39 47 -27 13 5 14 9 5 20 -12 15 -41 19 -52
7z"/>
<path d="M3790 2295 c0 -9 5 -15 11 -13 6 2 11 8 11 13 0 5 -5 11 -11 13 -6 2
-11 -4 -11 -13z"/>
<path d="M2747 2253 c-12 -11 -8 -23 8 -23 8 0 15 7 15 15 0 16 -12 20 -23 8z"/>
<path d="M3145 2250 c-3 -5 -2 -10 4 -10 5 0 13 5 16 10 3 6 2 10 -4 10 -5 0
-13 -4 -16 -10z"/>
<path d="M4360 2226 c0 -30 19 -41 55 -32 34 9 35 46 1 46 -13 0 -31 3 -40 6
-12 5 -16 0 -16 -20z"/>
<path d="M4917 2243 c-14 -13 -6 -24 15 -21 27 4 36 28 11 28 -11 0 -23 -3
-26 -7z"/>
<path d="M3086 2214 c-4 -9 4 -19 20 -26 24 -11 25 -15 19 -57 -6 -41 -5 -44
9 -31 8 8 18 34 22 57 6 36 4 44 -12 49 -11 3 -26 9 -36 14 -11 6 -18 5 -22
-6z"/>
<path d="M4493 2190 c-24 -10 -32 -40 -11 -40 6 0 20 -8 30 -17 17 -15 20 -15
49 13 28 26 29 30 13 41 -20 15 -49 16 -81 3z"/>
<path d="M2607 2132 c-10 -10 -17 -27 -17 -38 0 -14 5 -11 21 14 24 37 21 52
-4 24z"/>
<path d="M2837 2049 c-17 -10 -24 -39 -9 -39 8 0 35 40 30 45 -2 2 -11 -1 -21
-6z"/>
<path d="M2582 2038 c-5 -7 -13 -24 -17 -38 -7 -22 -6 -23 7 -12 9 7 18 24 21
37 5 28 3 30 -11 13z"/>
<path d="M3915 1949 c-10 -15 1 -23 20 -15 9 3 13 10 10 16 -8 13 -22 13 -30
-1z"/>
<path d="M2555 1931 c-3 -5 -1 -12 5 -16 5 -3 10 1 10 9 0 18 -6 21 -15 7z"/>
<path d="M3071 1739 c-22 -36 -26 -49 -13 -49 9 0 43 72 37 78 -2 2 -13 -11
-24 -29z"/>
<path d="M3022 1655 c-7 -15 -11 -30 -8 -32 7 -7 28 36 24 49 -2 6 -9 -2 -16
-17z"/>
<path d="M2985 1590 c-18 -20 -16 -38 3 -26 8 5 24 46 18 46 -2 0 -11 -9 -21
-20z"/>
</g>
</svg>
